<svg id="Layer_1" data-name="Layer 1" xmlns="http://www.w3.org/2000/svg" width="255" height="208.87" viewBox="0 0 255 208.87"><defs><style>.cls-1{opacity:0.61;}.cls-2{fill:#754c24;}</style></defs><title>Artboard 51</title><g class="cls-1"><path d="M220.32,44.05C165.92-25.17,94.54-12.4,4.57,79.43c-3.23,3.29-4,7.66-1.51,11Q5.64,94,8.28,97.53c3.44,4.58,11,5,16.26,1.37,57.35-59.47,132-116.61,198.72-26.35,17.94,24.29,24.63,12.57,16.18-7.28-.35-.82.15-1.78,0-2.67l-2-10.57c-.93-4.91-6.56-8.07-12.93-7.53C223.06,44.63,221.18,45.14,220.32,44.05Z"/><path d="M226.18,41.08,199.39,56.63a11,11,0,0,0,.39,19.22L228.58,91a11,11,0,0,0,16.07-10.43l-2-30.7A11,11,0,0,0,226.18,41.08Z"/><path d="M43.05,166.62c56.27,67.83,125,53.58,207.78-39.83,3-3.35,3.48-7.72.92-11q-2.69-3.48-5.42-6.93c-3.56-4.49-10.91-4.78-15.85-1-52.76,60.48-122.46,119-191.7,30.47-18.62-23.82-24.53-12-15.35,7.6.38.81-.05,1.77.16,2.66L26.05,159c1.15,4.87,6.77,7.91,12.93,7.23C40.36,166.11,42.17,165.55,43.05,166.62Z"/><path d="M34.17,170.67l28-16.27A11,11,0,0,0,61.51,135l-31-15.11a11,11,0,0,0-15.75,10.9l3,31.37A11,11,0,0,0,34.17,170.67Z"/></g><path class="cls-2" d="M221.27,48.08C168.9-15.12,100.18-3.46,13.56,80.38c-3.11,3-3.83,7-1.46,10.08q2.49,3.24,5,6.45c3.31,4.18,10.57,4.6,15.65,1.25C88,43.86,159.91-8.31,224.1,74.11c17.27,22.17,23.71,11.47,15.58-6.65-.33-.75.14-1.63,0-2.44l-1.93-9.65c-.89-4.49-6.31-7.37-12.44-6.88C223.91,48.6,222.09,49.07,221.27,48.08Z"/><path class="cls-2" d="M226.59,45.55l-23.67,13A11,11,0,0,0,203.31,78l25.44,12.7a11,11,0,0,0,15.86-10.58l-1.77-25.73A11,11,0,0,0,226.59,45.55Z"/><path class="cls-2" d="M50.6,160c54.17,61.93,120.31,48.93,200.05-36.37,2.86-3.06,3.35-7,.88-10.07q-2.58-3.18-5.21-6.33c-3.44-4.1-10.51-4.37-15.27-.93C180.26,161.52,113.15,215,46.49,134.12c-17.93-21.75-23.62-11-14.78,6.94.37.74-.05,1.62.16,2.43l2.37,9.58c1.1,4.45,6.51,7.22,12.44,6.6C48,159.53,49.75,159,50.6,160Z"/><path class="cls-2" d="M42.35,163.53l24.82-13.66a11,11,0,0,0-.68-19.58L39.06,117.6a11,11,0,0,0-15.54,11.05L26.13,155A11,11,0,0,0,42.35,163.53Z"/></svg>