<svg id="Layer_1" data-name="Layer 1" xmlns="http://www.w3.org/2000/svg" xmlns:xlink="http://www.w3.org/1999/xlink" width="1920" height="1080" viewBox="0 0 1920 1080"><defs><style>.cls-1{fill:url(#linear-gradient);}.cls-2{fill:#452f3c;}</style><linearGradient id="linear-gradient" x1="1918.26" y1="945.35" x2="1918.26" y2="1080" gradientUnits="userSpaceOnUse"><stop offset="0" stop-color="#ed8479"/><stop offset="1" stop-color="#e8aa3d"/></linearGradient></defs><title>baggrund5</title><path class="cls-1" d="M1920,945.35c-1.53,35.88-3.2,71.77-2,107.65a174.63,174.63,0,0,1-1.49,27H1920Z"/><path class="cls-2" d="M706.14,821.36c.94.76,1.86,1.55,2.76,2.36q5,1.35,9.88,2.77-.16-1.56-.39-3.12C714.33,822.53,710.24,821.84,706.14,821.36Z"/><path class="cls-2" d="M700.61,782.6a93,93,0,0,0-23.52-21.09c11.24,15.27,22.27,30.69,25.33,49.21A62.88,62.88,0,0,1,703,819c1.07.74,2.1,1.53,3.11,2.34,4.1.48,8.19,1.17,12.25,2A85.4,85.4,0,0,0,700.61,782.6Z"/><path class="cls-2" d="M703,821v.32c.55.4,1.1.82,1.65,1.23l4.23,1.13c-.9-.81-1.82-1.6-2.76-2.36C705.1,821.24,704.06,821.13,703,821Z"/><path class="cls-2" d="M703,821c1,.09,2.08.2,3.12.32-1-.81-2-1.6-3.11-2.34C703,819.69,703,820.37,703,821Z"/><path class="cls-2" d="M706.15,821.37c.94.76,1.86,1.54,2.76,2.35,3.75,1,7.49,2.08,11.21,3.15.69-.88,1.37-1.77,2-2.68A146,146,0,0,0,706.15,821.37Z"/><path class="cls-2" d="M736.43,790.09a81.26,81.26,0,0,0-.59-30.18c-3.69,17.93-7.66,35.82-19.68,50.38a66.71,66.71,0,0,1-11.09,10.22l1.08.86a146,146,0,0,1,16,2.82A81.07,81.07,0,0,0,736.43,790.09Z"/><path class="cls-2" d="M704.16,821.15l2,.22-1.08-.86Z"/><path class="cls-2" d="M704.16,821.15l-.72.51,1.24.94,4.23,1.12c-.9-.81-1.82-1.59-2.76-2.35Z"/><path class="cls-2" d="M706.31,821.38l-.08,0c.91.74,1.81,1.51,2.69,2.3,11.64,3.17,23.13,6.71,34.66,9.88,2.11-.53,4.23-1,6.35-1.51C735.5,827.54,721.05,823.13,706.31,821.38Z"/><path class="cls-2" d="M749.93,832.09a222.59,222.59,0,0,1,53.25-5.57c-19.93-12.25-46-17.5-72.5-12.68a106.05,106.05,0,0,0-24.37,7.54C721.05,823.13,735.5,827.54,749.93,832.09Z"/><path class="cls-2" d="M704.29,822.3l.4.3,4.23,1.12c-.88-.79-1.78-1.56-2.69-2.3Z"/><path class="cls-2" d="M762,780.31c-14.36,16.05-29,31.92-49.7,40.42q-1.46.56-2.91,1a172.36,172.36,0,0,1,19.65,4.1,101.9,101.9,0,0,0,15.64-15.12A97.24,97.24,0,0,0,762,780.31Z"/><path class="cls-2" d="M709.34,821.78c-.64.22-1.27.43-1.91.63.5.43,1,.87,1.49,1.32,5.57,1.51,11.1,3.11,16.62,4.71q1.74-1.25,3.45-2.56A172.36,172.36,0,0,0,709.34,821.78Z"/><path class="cls-2" d="M705.83,822.9l3.09.83c-.49-.45-1-.89-1.49-1.32Z"/><path class="cls-2" d="M706.16,821.37c.94.76,1.86,1.54,2.76,2.36q3.26.88,6.5,1.8c-.39-1-.79-2-1.21-3C711.53,822.09,708.85,821.68,706.16,821.37Z"/><path class="cls-2" d="M688.82,789.13a96,96,0,0,0-27.68-15.92c14.07,12.4,28,25,35.35,41.91a53,53,0,0,1,9.67,6.25c2.69.31,5.37.72,8.05,1.19A89.5,89.5,0,0,0,688.82,789.13Z"/><path class="cls-2" d="M702.52,821c.72.52,1.44,1.06,2.15,1.59l4.25,1.14c-.9-.82-1.82-1.6-2.76-2.36C705,821.23,703.74,821.1,702.52,821Z"/><path class="cls-2" d="M697,816.38c.14.36.27.72.4,1.08q2.58,1.71,5.09,3.54c1.22.1,2.43.23,3.64.37a53,53,0,0,0-9.67-6.25C696.67,815.54,696.86,816,697,816.38Z"/><path class="cls-2" d="M709.09,821.74c-.13.59-.27,1.18-.41,1.76l.24.23c5.43,1.47,10.82,3,16.2,4.59.06-1.13.1-2.26.11-3.39A160.93,160.93,0,0,0,709.09,821.74Z"/><path class="cls-2" d="M692.65,751c9.13,18.59,18,37.3,18,57.7a68.45,68.45,0,0,1-1.55,13,160.93,160.93,0,0,1,16.14,3.19,95.87,95.87,0,0,0-11.56-46.61A104.34,104.34,0,0,0,692.65,751Z"/><path class="cls-2" d="M708.64,823.65l.28.08-.24-.23S708.65,823.6,708.64,823.65Z"/><path class="cls-2" d="M706.14,821.37c.94.75,1.86,1.54,2.76,2.35,6.85,1.86,13.65,3.85,20.43,5.83q2.59-1,5.12-2.17A178.87,178.87,0,0,0,706.14,821.37Z"/><path class="cls-2" d="M755.88,813.56a83.7,83.7,0,0,0,19-23.84c-14.56,11.84-29.32,23.51-48.46,28a74.76,74.76,0,0,1-23.57,1.18c1.14.79,2.23,1.62,3.29,2.48a178.87,178.87,0,0,1,28.31,6A88.91,88.91,0,0,0,755.88,813.56Z"/><path class="cls-2" d="M702.51,821c.72.52,1.43,1.06,2.14,1.59l4.25,1.13c-.9-.81-1.82-1.6-2.76-2.35C704.93,821.22,703.72,821.1,702.51,821Z"/><path class="cls-2" d="M698.75,818.35c1.26.86,2.51,1.75,3.76,2.65,1.21.1,2.42.22,3.63.37-1.06-.86-2.15-1.69-3.29-2.48C701.48,818.74,700.11,818.57,698.75,818.35Z"/><path class="cls-2" d="M1452,895.42c1.1.5,2.19,1,3.27,1.58q5.13.06,10.26.18c-.38-1-.76-1.95-1.17-2.92C1460.22,894.48,1456.09,894.85,1452,895.42Z"/><path class="cls-2" d="M1436.84,859.31a93.13,93.13,0,0,0-28.09-14.44c14.74,11.92,29.32,24,37,41.2a63,63,0,0,1,2.69,7.87c1.23.45,2.42.95,3.6,1.48,4.09-.57,8.22-.94,12.36-1.16A85.48,85.48,0,0,0,1436.84,859.31Z"/><path class="cls-2" d="M1448.9,895.9a2.81,2.81,0,0,1,.08.31l1.91.77,4.38,0c-1.08-.55-2.17-1.08-3.27-1.58C1451,895.57,1449.93,895.72,1448.9,895.9Z"/><path class="cls-2" d="M1448.9,895.9c1-.18,2.07-.33,3.1-.48-1.18-.53-2.37-1-3.6-1.48C1448.58,894.59,1448.74,895.24,1448.9,895.9Z"/><path class="cls-2" d="M1452,895.42c1.11.5,2.19,1,3.27,1.58,3.89,0,7.77.12,11.64.21.45-1,.88-2.06,1.28-3.1A148,148,0,0,0,1452,895.42Z"/><path class="cls-2" d="M1473.39,857.5a81.2,81.2,0,0,0-8.2-29c1,18.27,1.65,36.58-6.29,53.72a66.35,66.35,0,0,1-8.15,12.68l1.26.56a148,148,0,0,1,16.19-1.31A80.91,80.91,0,0,0,1473.39,857.5Z"/><path class="cls-2" d="M1450,895.72l2-.3-1.26-.56Z"/><path class="cls-2" d="M1450,895.72l-.57.68,1.44.58,4.38,0c-1.08-.55-2.16-1.08-3.27-1.58Z"/><path class="cls-2" d="M1452.17,895.4l-.07.05c1.08.49,2.14,1,3.19,1.55,12.06.12,24.07.64,36,.79,1.91-1,3.83-2.08,5.76-3.07C1482,894,1466.87,893.36,1452.17,895.4Z"/><path class="cls-2" d="M1497.08,894.72a223,223,0,0,1,50.11-18.87c-22.38-6.81-48.91-5.3-73.35,6.09a105,105,0,0,0-21.67,13.46C1466.87,893.36,1482,894,1497.08,894.72Z"/><path class="cls-2" d="M1450.45,896.79l.46.19,4.38,0c-1-.54-2.11-1.06-3.19-1.55C1451.55,895.9,1451,896.34,1450.45,896.79Z"/><path class="cls-2" d="M1495.61,841.58c-9.83,19.16-19.95,38.21-37.86,51.68-.84.61-1.69,1.19-2.55,1.75a175.73,175.73,0,0,1,20-1,102.57,102.57,0,0,0,11.31-18.59A97.38,97.38,0,0,0,1495.61,841.58Z"/><path class="cls-2" d="M1455.2,895l-1.68,1.1,1.77.89c5.77.06,11.53.2,17.27.36.91-1.1,1.82-2.21,2.69-3.35A175.73,175.73,0,0,0,1455.2,895Z"/><path class="cls-2" d="M1452.09,897h3.2l-1.77-.89Z"/><path class="cls-2" d="M1452,895.42c1.11.5,2.19,1,3.27,1.58,2.25,0,4.5.06,6.75.1-.63-.86-1.27-1.71-1.93-2.56C1457.4,894.76,1454.71,895,1452,895.42Z"/><path class="cls-2" d="M1427.09,868.62a96.24,96.24,0,0,0-30.81-8.4c16.75,8.43,33.4,17.1,44.81,31.61a52.84,52.84,0,0,1,10.93,3.59c2.69-.38,5.38-.66,8.09-.88A89.4,89.4,0,0,0,1427.09,868.62Z"/><path class="cls-2" d="M1448.41,896l2.48,1,4.4,0c-1.08-.55-2.16-1.08-3.27-1.58C1450.81,895.59,1449.61,895.78,1448.41,896Z"/><path class="cls-2" d="M1441.93,892.9l.66,1q2.92,1,5.82,2.13c1.2-.2,2.4-.39,3.61-.56a52.84,52.84,0,0,0-10.93-3.59Z"/><path class="cls-2" d="M1455,895c0,.6,0,1.2,0,1.81l.29.15c5.62.06,11.24.2,16.84.35-.23-1.11-.48-2.21-.75-3.31A163,163,0,0,0,1455,895Z"/><path class="cls-2" d="M1421.15,830.79c13.54,15.66,26.88,31.52,32,51.26a69,69,0,0,1,1.79,13,163,163,0,0,1,16.43-1,96,96,0,0,0-23-42.17A104.14,104.14,0,0,0,1421.15,830.79Z"/><path class="cls-2" d="M1455,897h.29l-.29-.15Z"/><path class="cls-2" d="M1452,895.42c1.11.5,2.19,1,3.27,1.58,7.1.07,14.18.27,21.24.47,1.5-1.09,3-2.21,4.41-3.39A180.65,180.65,0,0,0,1452,895.42Z"/><path class="cls-2" d="M1498.15,875.28a83.73,83.73,0,0,0,12.35-27.87c-11.09,15.15-22.42,30.17-39.8,39.35a75.06,75.06,0,0,1-22.5,7.1c1.29.47,2.56,1,3.8,1.56a180.65,180.65,0,0,1,28.92-1.34A89.14,89.14,0,0,0,1498.15,875.28Z"/><path class="cls-2" d="M1448.39,896c.83.32,1.66.66,2.48,1l4.4,0c-1.08-.55-2.16-1.08-3.27-1.58C1450.8,895.59,1449.59,895.78,1448.39,896Z"/><path class="cls-2" d="M1444.09,894.37c1.44.52,2.87,1.06,4.3,1.62,1.2-.21,2.41-.4,3.61-.57-1.24-.56-2.51-1.09-3.8-1.56Q1446.15,894.18,1444.09,894.37Z"/><path class="cls-2" d="M133.84,800.75c.87.85,1.71,1.72,2.53,2.61q4.81,1.8,9.58,3.67c0-1,0-2.09-.1-3.14C141.88,802.67,137.88,801.61,133.84,800.75Z"/><path class="cls-2" d="M131.93,761.64a92.8,92.8,0,0,0-21.46-23.17c9.77,16.24,19.33,32.62,20.65,51.34a62.28,62.28,0,0,1-.15,8.32c1,.84,1.94,1.72,2.87,2.62,4,.86,8,1.92,12,3.14A85.47,85.47,0,0,0,131.93,761.64Z"/><path class="cls-2" d="M130.77,800.14c0,.11,0,.21,0,.32l1.54,1.38c1.37.5,2.73,1,4.1,1.52-.82-.89-1.66-1.76-2.53-2.61C132.82,800.54,131.79,800.33,130.77,800.14Z"/><path class="cls-2" d="M130.77,800.14c1,.19,2,.4,3.07.61-.93-.9-1.88-1.78-2.87-2.62C130.91,798.8,130.84,799.47,130.77,800.14Z"/><path class="cls-2" d="M133.85,800.76c.87.84,1.71,1.71,2.53,2.6q5.46,2,10.87,4.18c.77-.82,1.53-1.64,2.27-2.49A149,149,0,0,0,133.85,800.76Z"/><path class="cls-2" d="M166.9,772.43a81.38,81.38,0,0,0,2.22-30.11c-5.35,17.51-11,34.95-24.27,48.34a66.06,66.06,0,0,1-12,9.14c.34.31.67.64,1,1a149,149,0,0,1,15.67,4.29A81,81,0,0,0,166.9,772.43Z"/><path class="cls-2" d="M131.89,800.36c.65.12,1.31.26,2,.4-.33-.32-.66-.65-1-1Z"/><path class="cls-2" d="M131.89,800.36l-.77.44,1.16,1.05,4.1,1.51c-.82-.89-1.66-1.76-2.53-2.6C133.2,800.62,132.54,800.48,131.89,800.36Z"/><path class="cls-2" d="M134,800.79l-.09,0c.85.82,1.67,1.67,2.47,2.54,11.3,4.23,22.41,8.82,33.6,13q3.22-.49,6.46-.92C162.5,809.62,148.52,803.9,134,800.79Z"/><path class="cls-2" d="M176.45,815.49a223.17,223.17,0,0,1,53.54-.61c-18.71-14-44.16-21.69-71-19.34a105.63,105.63,0,0,0-25,5.25C148.52,803.9,162.5,809.62,176.45,815.49Z"/><path class="cls-2" d="M131.92,801.51l.36.34,4.11,1.51c-.8-.87-1.62-1.72-2.47-2.54C133.25,801.05,132.58,801.27,131.92,801.51Z"/><path class="cls-2" d="M193.22,765.05c-15.78,14.65-31.8,29.1-53.24,35.64-1,.28-2,.53-3,.77a173.75,173.75,0,0,1,19.18,5.91,101.58,101.58,0,0,0,17-13.61A97.3,97.3,0,0,0,193.22,765.05Z"/><path class="cls-2" d="M137,801.46c-.65.16-1.31.32-2,.46.46.47.92,1,1.37,1.45,5.4,2,10.76,4.12,16.1,6.23,1.24-.72,2.46-1.46,3.67-2.23A173.75,173.75,0,0,0,137,801.46Z"/><path class="cls-2" d="M133.39,802.25l3,1.12c-.45-.49-.91-1-1.37-1.45Z"/><path class="cls-2" d="M133.86,800.76c.87.84,1.71,1.71,2.53,2.6q3.17,1.18,6.31,2.4c-.3-1-.6-2-.94-3.06Q137.83,801.61,133.86,800.76Z"/><path class="cls-2" d="M119.58,767.05A96,96,0,0,0,93.5,748.63c12.86,13.65,25.55,27.48,31.32,45a52.8,52.8,0,0,1,9,7.11q4,.84,7.9,1.94A89.38,89.38,0,0,0,119.58,767.05Z"/><path class="cls-2" d="M130.27,800.05l2,1.79,4.12,1.52c-.82-.89-1.66-1.76-2.53-2.6C132.67,800.51,131.47,800.27,130.27,800.05Z"/><path class="cls-2" d="M125.23,795c.11.37.2.74.3,1.11,1.61,1.29,3.19,2.63,4.74,4,1.2.22,2.4.46,3.59.71a52.8,52.8,0,0,0-9-7.11C125,794.08,125.1,794.51,125.23,795Z"/><path class="cls-2" d="M136.74,801.4c-.18.58-.37,1.15-.57,1.72l.22.24c5.27,2,10.5,4,15.71,6.08.16-1.12.3-2.24.43-3.37A161.89,161.89,0,0,0,136.74,801.4Z"/><path class="cls-2" d="M126.93,729.47c7.37,19.35,14.49,38.81,12.57,59.11a68.77,68.77,0,0,1-2.76,12.82,161.89,161.89,0,0,1,15.79,4.67,96,96,0,0,0-7.2-47.48A104.17,104.17,0,0,0,126.93,729.47Z"/><path class="cls-2" d="M136.12,803.26l.27.1-.22-.24A.78.78,0,0,1,136.12,803.26Z"/><path class="cls-2" d="M133.84,800.76c.87.84,1.71,1.71,2.53,2.6,6.65,2.48,13.24,5.1,19.81,7.69,1.78-.51,3.54-1.06,5.3-1.68A179.84,179.84,0,0,0,133.84,800.76Z"/><path class="cls-2" d="M184.09,797.59a83.44,83.44,0,0,0,21.13-22c-15.6,10.44-31.38,20.69-50.85,23.38a75.41,75.41,0,0,1-23.57-1c1,.88,2.06,1.81,3,2.77a179.84,179.84,0,0,1,27.64,8.61A88.85,88.85,0,0,0,184.09,797.59Z"/><path class="cls-2" d="M130.26,800.05c.67.59,1.33,1.19,2,1.79,1.38.5,2.75,1,4.12,1.52-.82-.89-1.66-1.76-2.53-2.6C132.65,800.5,131.46,800.27,130.26,800.05Z"/><path class="cls-2" d="M126.76,797.06q1.77,1.47,3.5,3c1.2.22,2.39.45,3.58.71-1-1-2-1.89-3-2.77C129.45,797.71,128.1,797.41,126.76,797.06Z"/><path class="cls-2" d="M1253.84,783.75c.87.85,1.71,1.72,2.53,2.61q4.82,1.8,9.58,3.67c0-1,0-2.09-.1-3.14C1261.88,785.67,1257.88,784.61,1253.84,783.75Z"/><path class="cls-2" d="M1251.93,744.64a92.8,92.8,0,0,0-21.46-23.17c9.77,16.24,19.33,32.62,20.65,51.34a62.28,62.28,0,0,1-.15,8.32c1,.84,1.94,1.72,2.87,2.62,4,.86,8,1.92,12,3.14A85.47,85.47,0,0,0,1251.93,744.64Z"/><path class="cls-2" d="M1250.77,783.14c0,.11,0,.21,0,.32l1.54,1.38c1.37.5,2.73,1,4.1,1.52-.82-.89-1.66-1.76-2.53-2.61C1252.82,783.54,1251.79,783.33,1250.77,783.14Z"/><path class="cls-2" d="M1250.77,783.14c1,.19,2,.4,3.07.61-.93-.9-1.88-1.78-2.87-2.62C1250.91,781.8,1250.84,782.47,1250.77,783.14Z"/><path class="cls-2" d="M1253.85,783.76c.87.84,1.71,1.71,2.53,2.6q5.46,2,10.87,4.18c.77-.82,1.53-1.64,2.27-2.49A149,149,0,0,0,1253.85,783.76Z"/><path class="cls-2" d="M1286.9,755.43a81.38,81.38,0,0,0,2.22-30.11c-5.35,17.51-10.95,34.95-24.27,48.34a66.06,66.06,0,0,1-12,9.14c.34.31.67.64,1,1a149,149,0,0,1,15.67,4.29A81,81,0,0,0,1286.9,755.43Z"/><path class="cls-2" d="M1251.89,783.36c.65.12,1.31.26,2,.4-.33-.32-.66-.65-1-1Z"/><path class="cls-2" d="M1251.89,783.36l-.77.44,1.16,1.05,4.1,1.51c-.82-.89-1.66-1.76-2.53-2.6C1253.2,783.62,1252.54,783.48,1251.89,783.36Z"/><path class="cls-2" d="M1254,783.79l-.09,0c.85.82,1.67,1.67,2.47,2.54,11.3,4.23,22.41,8.82,33.6,13q3.23-.49,6.46-.92C1282.5,792.62,1268.52,786.9,1254,783.79Z"/><path class="cls-2" d="M1296.45,798.49a223.17,223.17,0,0,1,53.54-.61c-18.71-14-44.16-21.69-71-19.34a105.63,105.63,0,0,0-25,5.25C1268.52,786.9,1282.5,792.62,1296.45,798.49Z"/><path class="cls-2" d="M1251.92,784.51l.36.34,4.11,1.51c-.8-.87-1.62-1.72-2.47-2.54C1253.25,784.05,1252.58,784.27,1251.92,784.51Z"/><path class="cls-2" d="M1313.22,748.05c-15.78,14.65-31.8,29.1-53.24,35.64-1,.28-2,.53-3,.77a173.75,173.75,0,0,1,19.18,5.91,101.58,101.58,0,0,0,17-13.61A97.3,97.3,0,0,0,1313.22,748.05Z"/><path class="cls-2" d="M1257,784.46c-.65.16-1.31.32-2,.46.46.47.92,1,1.37,1.45,5.4,2,10.76,4.12,16.1,6.23,1.24-.72,2.46-1.46,3.67-2.23A173.75,173.75,0,0,0,1257,784.46Z"/><path class="cls-2" d="M1253.39,785.25l3,1.12c-.45-.49-.91-1-1.37-1.45Z"/><path class="cls-2" d="M1253.86,783.76c.87.84,1.71,1.71,2.53,2.6q3.16,1.18,6.31,2.4c-.3-1-.6-2-.94-3.06Q1257.83,784.61,1253.86,783.76Z"/><path class="cls-2" d="M1239.58,750.05a96,96,0,0,0-26.08-18.42c12.86,13.65,25.55,27.48,31.32,45a52.8,52.8,0,0,1,9,7.11q4,.84,7.9,1.94A89.38,89.38,0,0,0,1239.58,750.05Z"/><path class="cls-2" d="M1250.27,783.05l2,1.79,4.12,1.52c-.82-.89-1.66-1.76-2.53-2.6C1252.67,783.51,1251.47,783.27,1250.27,783.05Z"/><path class="cls-2" d="M1245.23,778c.11.37.2.74.3,1.11,1.61,1.29,3.19,2.63,4.74,4,1.2.22,2.4.46,3.59.71a52.8,52.8,0,0,0-9-7.11C1245,777.08,1245.1,777.51,1245.23,778Z"/><path class="cls-2" d="M1256.74,784.4c-.18.58-.37,1.15-.57,1.72l.22.24c5.27,2,10.5,4,15.71,6.08.16-1.12.3-2.24.43-3.37A161.89,161.89,0,0,0,1256.74,784.4Z"/><path class="cls-2" d="M1246.93,712.47c7.37,19.35,14.49,38.81,12.57,59.11a68.77,68.77,0,0,1-2.76,12.82,161.89,161.89,0,0,1,15.79,4.67,96,96,0,0,0-7.2-47.48A104.17,104.17,0,0,0,1246.93,712.47Z"/><path class="cls-2" d="M1256.12,786.26l.27.1-.22-.24A.78.78,0,0,1,1256.12,786.26Z"/><path class="cls-2" d="M1253.84,783.76c.87.84,1.71,1.71,2.53,2.6,6.65,2.48,13.24,5.1,19.81,7.69,1.78-.51,3.54-1.06,5.3-1.68A179.84,179.84,0,0,0,1253.84,783.76Z"/><path class="cls-2" d="M1304.09,780.59a83.44,83.44,0,0,0,21.13-22c-15.6,10.44-31.38,20.69-50.85,23.38a75.41,75.41,0,0,1-23.57-1c1,.88,2.06,1.81,3,2.77a179.84,179.84,0,0,1,27.64,8.61A88.85,88.85,0,0,0,1304.09,780.59Z"/><path class="cls-2" d="M1250.26,783.05c.67.59,1.33,1.19,2,1.79,1.38.5,2.75,1,4.12,1.52-.82-.89-1.66-1.76-2.53-2.6C1252.65,783.5,1251.46,783.27,1250.26,783.05Z"/><path class="cls-2" d="M1246.76,780.06q1.77,1.47,3.5,3c1.2.22,2.39.45,3.58.71-1-1-2-1.89-3-2.77C1249.45,780.71,1248.1,780.41,1246.76,780.06Z"/><rect class="cls-2" x="1019.67" y="541" width="52.22" height="280" rx="26.11" ry="26.11"/><rect class="cls-2" x="1071.89" y="643.1" width="44.44" height="37.9"/><rect class="cls-2" x="1108.56" y="543.68" width="34.44" height="140" rx="17.22" ry="17.22"/><rect class="cls-2" x="963" y="643.1" width="33.33" height="81.15" rx="16.67" ry="16.67"/><rect class="cls-2" x="986.33" y="683.68" width="42.22" height="40.57"/><rect class="cls-2" x="1760" y="572.2" width="29.41" height="108.49" rx="14.7" ry="14.7"/><rect class="cls-2" x="1784.22" y="647.14" width="51.89" height="30.61"/><rect class="cls-2" x="1830.05" y="570" width="33.73" height="216" rx="16.86" ry="16.86"/><rect class="cls-2" x="1863.78" y="651.31" width="40.65" height="20.82"/><path class="cls-2" d="M1908.76,592.29a11.25,11.25,0,0,0-11.25,11.24v57.35a11.25,11.25,0,0,0,22.49,0V623.94q-.27-11.85-.49-23.69A11.23,11.23,0,0,0,1908.76,592.29Z"/><path class="cls-2" d="M1919.51,600.25q.23,11.85.49,23.69V603.53A11.13,11.13,0,0,0,1919.51,600.25Z"/><path class="cls-2" d="M530.65,609l-4.43,0c-6.45.05-11.65,9.38-11.62,20.85l.5,189.5c0,11.46,5.28,20.71,11.73,20.65l4.43,0c6.45-.06,11.65-9.39,11.62-20.85l-.5-189.51C542.35,618.19,537.1,609,530.65,609Z"/><rect class="cls-2" x="542.63" y="727.94" width="34.74" height="27.71"/><rect class="cls-2" x="570.21" y="685.59" width="22.79" height="77.62" rx="11.4" ry="11.4"/><rect class="cls-2" x="475.77" y="730.11" width="39.08" height="37.02"/><path class="cls-2" d="M466,655.41v89.43c0,12.32,5.62,22.3,12.55,22.3h.08c6.93,0,12.55-10,12.55-22.3V655.39c0-13.14-6.37-23.58-13.72-22.2l-.37.07C470.77,634.6,466,644.1,466,655.41Z"/><path class="cls-2" d="M1918,1053c-2-60,4-120,4-180,0-25.79-2-53.55-1-80.35a43.91,43.91,0,0,0-3.68-4c-37.58-35.44-99-17.14-132.37-3.05a20.43,20.43,0,0,1-27.46-12.88c-6.66-21.6-24-51-69.24-59-57.09-10-91.34,50.9-103.9,78.93a20.19,20.19,0,0,1-16.61,11.64c-39.65,4-95.87,108-110.7,86.17-30.24-44.53-64-82.68-75.85-95.73a20.29,20.29,0,0,0-10.7-6.19l-208.42-45.76a20.35,20.35,0,0,0-13.65,1.75c-22,11.22-92.33,47.86-104.22,62.53-12.06,14.9-163.12,12.57-206.9,11.58a20.4,20.4,0,0,0-17.94,9.88,20.39,20.39,0,0,1-22.24,9.32l-153-36.67s12.19-.84-92.67,4.57c-57.09,2.95-96,31-119.53,56a20.43,20.43,0,0,1-34.84-9.64c-8.45-38.29-28.59-86.73-76.59-97.93-54.5-12.71-111.77,23.3-144.13,49A20.43,20.43,0,0,1,144,792.59c-8.05-28.94-26.51-65.51-68.34-63C11.38,733.41-27.72,923-32.43,947a20.75,20.75,0,0,0-.36,5l10.41,201.81a20.39,20.39,0,0,0,21.13,19.34L1914,1102.56C1915.39,1086,1918.66,1069.52,1918,1053Z"/><path class="cls-2" d="M1949.86,1082.89c3.79-58.78,11.92-241.09-28.88-290.24-.94,26.8,1,54.56,1,80.35,0,60-6,120-4,180,.66,16.52-2.61,33-4,49.56l16.28-.6A20.4,20.4,0,0,0,1949.86,1082.89Z"/></svg>
