<svg id="Layer_1" data-name="Layer 1" xmlns="http://www.w3.org/2000/svg" xmlns:xlink="http://www.w3.org/1999/xlink" width="1920" height="1080" viewBox="0 0 1920 1080"><defs><style>.cls-1{fill:url(#linear-gradient);}.cls-2{fill:url(#linear-gradient-2);}.cls-3{fill:url(#linear-gradient-3);}.cls-4,.cls-5,.cls-6{fill:#fff;}.cls-4{opacity:0.61;}.cls-5{opacity:0.33;}.cls-7{opacity:0.69;}.cls-8{opacity:0.49;}.cls-9{fill:#fe6766;}.cls-10{fill:#ea315d;}</style><linearGradient id="linear-gradient" x1="1919.44" y1="494.53" x2="1919.44" y2="623.94" gradientUnits="userSpaceOnUse"><stop offset="0" stop-color="#ed8479"/><stop offset="1" stop-color="#e8aa3d"/></linearGradient><linearGradient id="linear-gradient-2" x1="960" y1="0" x2="960" y2="1080" xlink:href="#linear-gradient"/><linearGradient id="linear-gradient-3" x1="1918.26" y1="945.35" x2="1918.26" y2="1080" xlink:href="#linear-gradient"/></defs><title>baggrund1</title><path class="cls-1" d="M1920,623.94V494.53c-.45,9.16-.81,18.31-1,27.47C1918.62,556,1919.24,590,1920,623.94Z"/><path class="cls-2" d="M1918,1053c-1.2-35.88.47-71.77,2-107.65V623.94c-.76-34-1.38-68-1-101.94.19-9.16.55-18.31,1-27.47V0H0V1080H1916.51A174.63,174.63,0,0,0,1918,1053Z"/><path class="cls-3" d="M1920,945.35c-1.53,35.88-3.2,71.77-2,107.65a174.63,174.63,0,0,1-1.49,27H1920Z"/><ellipse class="cls-4" cx="1474" cy="230.5" rx="295" ry="269.5"/><ellipse class="cls-5" cx="1479" cy="249.5" rx="280" ry="269.5"/><circle class="cls-6" cx="1474" cy="249" r="251"/><g class="cls-7"><path class="cls-6" d="M786.43,173.83c-24,0-43.43,13.14-43.43,29.35,0,6.7,3.33,12.88,8.93,17.82,23.71-.65,47.32-1.41,70.93-1.84,4.43-4.6,7-10.09,7-16C829.86,187,810.41,173.83,786.43,173.83Z"/><path class="cls-6" d="M831.39,180.35c-16.46,0-29.81,11.68-29.81,26.09a23.59,23.59,0,0,0,4,13.09c17.35-.42,34.68-.72,52-.73a23.51,23.51,0,0,0,3.55-12.36C861.19,192,847.85,180.35,831.39,180.35Z"/><path class="cls-6" d="M877,197.39c0-14.17-13.91-25.66-31.07-25.66s-31.08,11.49-31.08,25.66c0,9.11,5.74,17.1,14.39,21.66q16.9-.27,33.82-.25C871.44,214.21,877,206.34,877,197.39Z"/><ellipse class="cls-6" cx="897.36" cy="188.77" rx="34.64" ry="25.45"/><path class="cls-6" d="M887.81,192.55c-19.63,0-35.85,11.43-38.47,26.27q11-.06,22,0,27.48.27,55,.39C924,204.19,907.61,192.55,887.81,192.55Z"/><path class="cls-6" d="M950.59,191.92c-19.55,0-35.4,12-35.4,26.72,0,.18,0,.35,0,.53,23.59.14,47.18.26,70.77.53,0-.35,0-.71,0-1.06C986,203.88,970.15,191.92,950.59,191.92Z"/><ellipse class="cls-6" cx="946.52" cy="188.77" rx="31.33" ry="27.77"/><path class="cls-6" d="M819.16,201c-16.83,0-31.15,8-36.49,19.16,24.12-.67,48.19-1.27,72.29-1.33C849.16,208.34,835.32,201,819.16,201Z"/></g><path class="cls-8" d="M1912,737.5H-8L-39,324H-8l33-52V146H67v40l26,24,12-41V136l12-25V90h52l-10,68,10,65v45l36,18,26-79V66h68V223l10,75h84l70,12,48,14h56l20-196,36-2s30,4,42,12,28,20,28,20V114l74-4V256l40-10,20-40V136l48,32L859,354l112-54,114,4,20,74h168l62-42,48-72V118l56-16,38,20,20,28v84h66V140l18,18h18v20l20,56,10,26V368l88-60V158l42-34h38l16,34,10,88,34-36V158h26l10,22,19,10"/><g class="cls-7"><path class="cls-6" d="M233.46,142.84c-20.14,0-36.46,7-36.46,15.65,0,3.58,2.79,6.87,7.49,9.51,19.91-.34,39.73-.75,59.55-1,3.72-2.46,5.88-5.38,5.88-8.53C269.92,149.85,253.59,142.84,233.46,142.84Z"/><path class="cls-6" d="M271.2,146.32c-13.82,0-25,6.23-25,13.91a9.7,9.7,0,0,0,3.38,7c14.56-.22,29.11-.38,43.68-.39a9.48,9.48,0,0,0,3-6.59C296.22,152.55,285,146.32,271.2,146.32Z"/><path class="cls-6" d="M309.48,155.41c0-7.56-11.68-13.69-26.09-13.69s-26.09,6.13-26.09,13.69c0,4.85,4.82,9.12,12.08,11.55q14.19-.15,28.4-.13C304.83,164.38,309.48,160.18,309.48,155.41Z"/><ellipse class="cls-6" cx="326.58" cy="150.81" rx="29.08" ry="13.58"/><path class="cls-6" d="M318.57,152.83c-16.48,0-30.1,6.09-32.3,14q9.24,0,18.5,0,23.09.15,46.15.21C348.91,159,335.19,152.83,318.57,152.83Z"/><path class="cls-6" d="M371.28,152.49c-16.42,0-29.73,6.38-29.73,14.25,0,.1,0,.19,0,.28,19.81.08,39.61.14,59.41.28a5.12,5.12,0,0,0,0-.56C401,158.87,387.69,152.49,371.28,152.49Z"/><ellipse class="cls-6" cx="367.86" cy="150.81" rx="26.3" ry="14.81"/><path class="cls-6" d="M260.94,157.32c-14.13,0-26.16,4.26-30.63,10.22,20.24-.36,40.45-.68,60.68-.71C286.12,161.25,274.5,157.32,260.94,157.32Z"/></g><path class="cls-9" d="M1919,522c.19-9.16.55-18.31,1-27.47V187l-19-10-10-22h-26v52l-34,36-10-88-16-34h-38l-42,34V305l-88,60V257l-10-26-20-56V155h-18l-18-18v94h-66V147l-20-28-38-20-56,16V261l-48,72-62,42H1113l-20-74-114-4L867,351l16-186-48-32v70l-20,40-40,10V107l-74,4v44s-16-12-28-20-42-12-42-12l-36,2L575,321H519l-48-14-70-12H317l-10-75V63H239V204l-26,79-36-18V220l-10-65,10-68H125v21l-12,25v33l-12,41L75,183V143H33V269L0,321H-31L0,734.5H1920V623.94C1919.24,590,1918.62,556,1919,522Z"/><path class="cls-9" d="M1919,522c-.38,34,.24,68,1,101.94V494.53C1919.55,503.69,1919.19,512.84,1919,522Z"/><path class="cls-10" d="M1385.33,384.05c-28.37-17.16-7,5.15,0,0Z"/><g class="cls-7"><path class="cls-6" d="M586.43,45.83C562.44,45.83,543,59,543,75.18c0,6.7,3.33,12.88,8.93,17.82,23.71-.65,47.32-1.41,70.93-1.84,4.43-4.6,7-10.09,7-16C629.86,59,610.41,45.83,586.43,45.83Z"/><path class="cls-6" d="M631.39,52.35c-16.46,0-29.81,11.68-29.81,26.09a23.59,23.59,0,0,0,4,13.09c17.35-.42,34.68-.72,52-.73a23.51,23.51,0,0,0,3.55-12.36C661.19,64,647.85,52.35,631.39,52.35Z"/><path class="cls-6" d="M677,69.39c0-14.17-13.91-25.66-31.07-25.66s-31.08,11.49-31.08,25.66c0,9.11,5.74,17.1,14.39,21.66q16.9-.27,33.82-.25C671.44,86.21,677,78.34,677,69.39Z"/><ellipse class="cls-6" cx="697.36" cy="60.77" rx="34.64" ry="25.45"/><path class="cls-6" d="M687.81,64.55C668.18,64.55,652,76,649.34,90.82q11-.06,22,0,27.48.27,55,.39C724,76.19,707.61,64.55,687.81,64.55Z"/><path class="cls-6" d="M750.59,63.92c-19.55,0-35.4,12-35.4,26.72,0,.18,0,.35,0,.53,23.59.14,47.18.26,70.77.53,0-.35,0-.71,0-1.06C786,75.88,770.15,63.92,750.59,63.92Z"/><ellipse class="cls-6" cx="746.52" cy="60.77" rx="31.33" ry="27.77"/><path class="cls-6" d="M619.16,73c-16.83,0-31.15,8-36.49,19.16,24.12-.67,48.19-1.27,72.29-1.33C649.16,80.34,635.32,73,619.16,73Z"/></g><g class="cls-7"><path class="cls-6" d="M983.78,90.19c-18.66,0-33.78,5.69-33.78,12.71,0,2.9,2.59,5.58,6.94,7.72,18.44-.28,36.81-.61,55.17-.8,3.45-2,5.45-4.37,5.45-6.92C1017.56,95.88,1002.43,90.19,983.78,90.19Z"/><path class="cls-6" d="M1018.75,93c-12.81,0-23.18,5-23.18,11.29,0,2.07,1.13,4,3.12,5.67,13.49-.18,27-.31,40.47-.31a7.34,7.34,0,0,0,2.76-5.36C1041.92,98.07,1031.55,93,1018.75,93Z"/><path class="cls-6" d="M1054.21,100.4c0-6.14-10.82-11.12-24.17-11.12s-24.17,5-24.17,11.12c0,3.94,4.46,7.4,11.19,9.37,8.77-.07,17.53-.12,26.31-.1C1049.9,107.68,1054.21,104.27,1054.21,100.4Z"/><ellipse class="cls-6" cx="1070.06" cy="96.66" rx="26.94" ry="11.02"/><path class="cls-6" d="M1062.63,98.3c-15.26,0-27.88,5-29.92,11.38q8.57,0,17.14,0,21.38.12,42.75.17C1090.74,103.34,1078,98.3,1062.63,98.3Z"/><path class="cls-6" d="M1111.46,98c-15.21,0-27.54,5.18-27.54,11.57,0,.08,0,.15,0,.23q27.52.09,55,.23c0-.16,0-.31,0-.46C1139,103.21,1126.67,98,1111.46,98Z"/><ellipse class="cls-6" cx="1108.29" cy="96.66" rx="24.37" ry="12.03"/><path class="cls-6" d="M1009.24,101.94c-13.1,0-24.23,3.47-28.38,8.3,18.76-.29,37.47-.55,56.22-.57C1032.57,105.14,1021.8,101.94,1009.24,101.94Z"/></g></svg>
