<svg id="Layer_1" data-name="Layer 1" xmlns="http://www.w3.org/2000/svg" xmlns:xlink="http://www.w3.org/1999/xlink" width="1920" height="1080" viewBox="0 0 1920 1080"><defs><style>.cls-1{fill:url(#linear-gradient);}.cls-2{fill:url(#linear-gradient-2);}.cls-3{fill:#fe6766;}.cls-4{fill:#b8416d;}.cls-5{fill:#452f3c;}</style><linearGradient id="linear-gradient" x1="1919.44" y1="494.53" x2="1919.44" y2="623.94" gradientUnits="userSpaceOnUse"><stop offset="0" stop-color="#ed8479"/><stop offset="1" stop-color="#e8aa3d"/></linearGradient><linearGradient id="linear-gradient-2" x1="1918.26" y1="945.35" x2="1918.26" y2="1080" xlink:href="#linear-gradient"/></defs><title>baggrund3</title><path class="cls-1" d="M1920,623.94V494.53c-.45,9.16-.81,18.31-1,27.47C1918.62,556,1919.24,590,1920,623.94Z"/><path class="cls-2" d="M1920,945.35c-1.53,35.88-3.2,71.77-2,107.65a174.63,174.63,0,0,1-1.49,27H1920Z"/><path class="cls-3" d="M1919,522c-.38,34,.24,68,1,101.94V494.53C1919.55,503.69,1919.19,512.84,1919,522Z"/><path class="cls-4" d="M1918.92,554.94c-35.75-6.92-92.12,6.27-126,33.81-25.11,20.42,6.42-106.88-74.67-73.7-53.37,21.84-20.1-32.42-57.43-70.75s-64.67,14.14-80.41-11.79c-24.64-40.59-54.8,107.23-120.61,57.49-22.11-16.71-90.78,15.12-146.46,42.74-69.94,34.7-92.51,9.69-117.89,73.87-22.69,57.36-34.32-.17-60.16-32.6s-130.1-54.3-74.67-84c20.21-10.84-6.85-86.08-91.9-57.49-144.2,48.48-44.06,41-140.71,0C779.56,412,785.3,469,721.74,490c-63.93,21.17-40.88,34.13-91.89,84C609,594.38,645.4,444.71,492,588.75c-51.54,48.41-54.56-17.68-97.64-75.17s-48.82-66.33-117.74-81.07-68.92-7.37-103.38,0S110.06,478.2,78.47,490c-12.55,4.68-31.14,23.32-49,44.09C-4.45,573.56-23,624.8-23,677.77h0c0,81.5,43.9,156.3,113.83,192.87,561.56,293.68,1152.88,196.16,1742.67-85.51A197.94,197.94,0,0,1,1889,768.3c12.91-2,23.76-5.61,32.73-10.72C1922.46,690,1919.27,622.49,1918.92,554.94Z"/><path class="cls-4" d="M865.48,461.58c.51.31,1,.64,1.48,1q2.56.57,5.11,1.17c-.09-.42-.19-.85-.3-1.28C869.68,462.09,867.58,461.79,865.48,461.58Z"/><path class="cls-4" d="M861.39,445.61a51.55,51.55,0,0,0-12.63-8.76c6.21,6.32,12.32,12.71,14.48,20.34a21.55,21.55,0,0,1,.59,3.41c.57.31,1.11.64,1.65,1,2.1.21,4.2.51,6.29.87A36,36,0,0,0,861.39,445.61Z"/><path class="cls-4" d="M863.89,461.43c0,.05,0,.09,0,.13l.88.52,2.18.48c-.48-.34-1-.67-1.48-1Z"/><path class="cls-4" d="M863.89,461.43l1.59.15c-.54-.34-1.08-.67-1.65-1Z"/><path class="cls-4" d="M865.49,461.58c.5.32,1,.64,1.48,1,1.93.43,3.87.88,5.79,1.34.32-.36.64-.73.94-1.1C871,462.28,868.23,461.86,865.49,461.58Z"/><path class="cls-4" d="M879.82,448.84a27.55,27.55,0,0,0-1.3-12.42c-1.28,7.36-2.7,14.7-8.31,20.64a28.64,28.64,0,0,1-5.3,4.16l.58.36c2.74.28,5.48.7,8.21,1.22A27.36,27.36,0,0,0,879.82,448.84Z"/><path class="cls-4" d="M864.47,461.48l1,.1-.58-.36Z"/><path class="cls-4" d="M864.47,461.48l-.35.21.66.39,2.19.48c-.49-.34-1-.66-1.48-1Z"/><path class="cls-4" d="M865.57,461.59h0q.74.47,1.44,1c6,1.35,12,2.85,17.92,4.2,1.06-.21,2.11-.41,3.17-.6C880.59,464.23,873.11,462.36,865.57,461.59Z"/><path class="cls-4" d="M888.06,466.16a135.9,135.9,0,0,1,26.85-2.08,65.66,65.66,0,0,0-37.22-5.5,59.38,59.38,0,0,0-12.12,3C873.11,462.36,880.59,464.23,888.06,466.16Z"/><path class="cls-4" d="M864.58,462l.21.12,2.18.48q-.71-.49-1.44-1C865.21,461.72,864.89,461.83,864.58,462Z"/><path class="cls-4" d="M892.45,444.91c-6.75,6.55-13.64,13-23.89,16.43q-.72.23-1.44.42c3.38.41,6.75,1,10.11,1.77a43.83,43.83,0,0,0,7.44-6.16A34.52,34.52,0,0,0,892.45,444.91Z"/><path class="cls-4" d="M867.12,461.76l-1,.25.8.55c2.88.64,5.74,1.32,8.59,2,.57-.34,1.12-.69,1.67-1C873.87,462.79,870.5,462.17,867.12,461.76Z"/><path class="cls-4" d="M865.38,462.21l1.59.35-.8-.55Z"/><path class="cls-4" d="M865.49,461.58c.51.32,1,.64,1.48,1l3.36.77c-.23-.41-.46-.82-.71-1.23C868.24,461.9,866.87,461.72,865.49,461.58Z"/><path class="cls-4" d="M855.62,448.25a57.8,57.8,0,0,0-14.57-6.65c7.55,5.15,15,10.38,19.33,17.37a31.41,31.41,0,0,1,5.11,2.61c1.38.14,2.75.32,4.13.52A44.18,44.18,0,0,0,855.62,448.25Z"/><path class="cls-4" d="M863.63,461.41l1.15.67,2.19.48c-.48-.34-1-.66-1.48-1Z"/><path class="cls-4" d="M860.69,459.49c.09.15.16.3.24.45.92.47,1.81,1,2.7,1.47l1.86.17a31.41,31.41,0,0,0-5.11-2.61Z"/><path class="cls-4" d="M867,461.74c0,.25-.09.49-.15.73l.13.09c2.81.63,5.6,1.29,8.38,1.95,0-.46,0-.93-.06-1.39C872.53,462.56,869.77,462.08,867,461.74Z"/><path class="cls-4" d="M856.31,432.6c5.25,7.67,10.38,15.41,11,23.79a22.59,22.59,0,0,1-.36,5.35c2.78.34,5.54.82,8.3,1.38a36.44,36.44,0,0,0-7.41-19.22A52,52,0,0,0,856.31,432.6Z"/><path class="cls-4" d="M866.83,462.53l.14,0-.13-.09Z"/><path class="cls-4" d="M865.48,461.58c.51.31,1,.64,1.48,1,3.54.79,7.06,1.64,10.57,2.47.85-.26,1.69-.55,2.52-.86A114.69,114.69,0,0,0,865.48,461.58Z"/><path class="cls-4" d="M890.47,458.56a32.36,32.36,0,0,0,8.86-9.73c-7,4.82-14.11,9.56-23.68,11.33a46.52,46.52,0,0,1-11.92.39c.6.33,1.18.67,1.75,1a114.69,114.69,0,0,1,14.57,2.59A42.46,42.46,0,0,0,890.47,458.56Z"/><path class="cls-4" d="M863.63,461.41l1.14.67,2.19.48c-.48-.34-1-.67-1.48-1Z"/><path class="cls-4" d="M861.63,460.31l2,1.1,1.85.17c-.57-.36-1.15-.7-1.75-1Z"/><path class="cls-4" d="M195.75,430.24c.58.13,1.15.28,1.72.43,1.73-.21,3.47-.4,5.2-.59-.22-.37-.46-.74-.71-1.11C199.87,429.33,197.8,429.74,195.75,430.24Z"/><path class="cls-4" d="M186.57,416.55a51.26,51.26,0,0,0-14.83-4.05c8,3.89,15.85,7.88,20.43,14.35a21,21,0,0,1,1.69,3c.64.11,1.27.23,1.89.37,2.05-.5,4.12-.91,6.21-1.27A36,36,0,0,0,186.57,416.55Z"/><path class="cls-4" d="M194.2,430.64a.61.61,0,0,0,.05.12l1,.19,2.22-.28c-.57-.15-1.14-.3-1.72-.43Z"/><path class="cls-4" d="M194.2,430.64l1.55-.4c-.62-.14-1.25-.26-1.89-.37C194,430.13,194.09,430.38,194.2,430.64Z"/><path class="cls-4" d="M195.75,430.24c.58.13,1.16.28,1.72.43l5.91-.67c.19-.44.36-.89.53-1.34C201.16,429.08,198.43,429.59,195.75,430.24Z"/><path class="cls-4" d="M205,413.45a27.67,27.67,0,0,0-5.36-11.27c1.24,7.36,2.35,14.76-1,22.23a29,29,0,0,1-3.61,5.69l.66.14c2.68-.65,5.41-1.16,8.16-1.58A27.47,27.47,0,0,0,205,413.45Z"/><path class="cls-4" d="M194.76,430.49l1-.25-.66-.14Z"/><path class="cls-4" d="M194.76,430.49l-.26.31.76.15,2.21-.28c-.56-.15-1.14-.3-1.72-.43Z"/><path class="cls-4" d="M195.83,430.22l0,0q.84.19,1.68.42c6.12-.73,12.23-1.3,18.29-2q1.39-.82,2.79-1.62C210.87,427.71,203.2,428.44,195.83,430.22Z"/><path class="cls-4" d="M218.56,427a135.69,135.69,0,0,1,24.62-10.91,65.61,65.61,0,0,0-36.92,7.22,59.81,59.81,0,0,0-10.43,6.87C203.2,428.44,210.87,427.71,218.56,427Z"/><path class="cls-4" d="M195,430.9l.24.05,2.22-.28q-.84-.23-1.68-.42C195.54,430.46,195.27,430.68,195,430.9Z"/><path class="cls-4" d="M215.62,405.54c-4.19,8.42-8.53,16.82-17.05,23.45-.4.3-.81.59-1.22.88,3.33-.74,6.71-1.28,10.12-1.71a42.94,42.94,0,0,0,5-8.28A34.44,34.44,0,0,0,215.62,405.54Z"/><path class="cls-4" d="M197.35,429.87c-.27.19-.53.37-.81.55l.94.25c2.93-.35,5.85-.66,8.77-1,.42-.51.83-1,1.22-1.54C204.06,428.59,200.68,429.13,197.35,429.87Z"/><path class="cls-4" d="M195.86,430.87l1.62-.2-.94-.25Z"/><path class="cls-4" d="M195.76,430.24c.58.13,1.15.27,1.72.43q1.71-.21,3.42-.39c-.35-.31-.71-.62-1.08-.92C198.46,429.62,197.1,429.91,195.76,430.24Z"/><path class="cls-4" d="M182,421a57.94,57.94,0,0,0-16-1.41c8.84,2.34,17.63,4.78,24,9.94a30.62,30.62,0,0,1,5.69.75c1.34-.33,2.7-.62,4.06-.88A44.14,44.14,0,0,0,182,421Z"/><path class="cls-4" d="M194,430.7l1.3.25,2.23-.28c-.57-.16-1.14-.3-1.72-.43Z"/><path class="cls-4" d="M190.54,429.87l.37.34c1,.15,2,.31,3,.49l1.81-.46a30.62,30.62,0,0,0-5.69-.75Z"/><path class="cls-4" d="M197.23,429.9c0,.24.07.48.1.73l.15,0c2.85-.34,5.7-.65,8.55-.95-.17-.43-.34-.87-.52-1.3C202.72,428.81,200,429.29,197.23,429.9Z"/><path class="cls-4" d="M177.44,406c7.51,5.49,14.92,11.07,18.34,18.76a22.42,22.42,0,0,1,1.45,5.17c2.72-.61,5.49-1.09,8.28-1.48a36.45,36.45,0,0,0-13.39-15.64A51.8,51.8,0,0,0,177.44,406Z"/><path class="cls-4" d="M197.33,430.69l.15,0-.15,0Z"/><path class="cls-4" d="M195.75,430.24c.58.13,1.15.28,1.72.43,3.6-.43,7.2-.8,10.78-1.18.72-.54,1.42-1.09,2.1-1.67A115.47,115.47,0,0,0,195.75,430.24Z"/><path class="cls-4" d="M218.3,419.07a32.46,32.46,0,0,0,5.11-12.13c-5,6.88-10.12,13.72-18.55,18.57a46.23,46.23,0,0,1-11.11,4.34c.68.11,1.34.24,2,.39a115.47,115.47,0,0,1,14.6-2.42A42.43,42.43,0,0,0,218.3,419.07Z"/><path class="cls-4" d="M193.94,430.7l1.3.25,2.23-.28c-.57-.15-1.14-.3-1.72-.43Z"/><path class="cls-4" d="M191.69,430.33c.76.11,1.51.24,2.25.37l1.81-.46c-.66-.15-1.32-.28-2-.39C193.07,430,192.38,430.19,191.69,430.33Z"/><path class="cls-4" d="M1583.48,439.58c.51.31,1,.64,1.48,1q2.57.57,5.11,1.17c-.09-.42-.19-.85-.3-1.28C1587.68,440.09,1585.58,439.79,1583.48,439.58Z"/><path class="cls-4" d="M1579.39,423.61a51.55,51.55,0,0,0-12.63-8.76c6.21,6.32,12.32,12.71,14.48,20.34a21.55,21.55,0,0,1,.59,3.41c.57.31,1.11.64,1.65,1,2.1.21,4.2.51,6.29.87A36,36,0,0,0,1579.39,423.61Z"/><path class="cls-4" d="M1581.89,439.43c0,.05,0,.09,0,.13l.88.52,2.18.48c-.48-.34-1-.67-1.48-1Z"/><path class="cls-4" d="M1581.89,439.43l1.59.15c-.54-.34-1.08-.67-1.65-1Z"/><path class="cls-4" d="M1583.49,439.58c.5.32,1,.64,1.48,1,1.93.43,3.87.88,5.79,1.34.32-.36.64-.73.94-1.1C1589,440.28,1586.23,439.86,1583.49,439.58Z"/><path class="cls-4" d="M1597.82,426.84a27.55,27.55,0,0,0-1.3-12.42c-1.28,7.36-2.7,14.7-8.31,20.64a28.64,28.64,0,0,1-5.3,4.16l.58.36c2.74.28,5.48.7,8.21,1.22A27.36,27.36,0,0,0,1597.82,426.84Z"/><path class="cls-4" d="M1582.47,439.48l1,.1-.58-.36Z"/><path class="cls-4" d="M1582.47,439.48l-.35.21.66.39,2.19.48c-.49-.34-1-.66-1.48-1Z"/><path class="cls-4" d="M1583.57,439.59h0q.73.47,1.44,1c6,1.35,12,2.85,17.92,4.2,1.06-.21,2.11-.41,3.17-.6C1598.59,442.23,1591.11,440.36,1583.57,439.59Z"/><path class="cls-4" d="M1606.06,444.16a135.9,135.9,0,0,1,26.85-2.08,65.66,65.66,0,0,0-37.22-5.5,59.38,59.38,0,0,0-12.12,3C1591.11,440.36,1598.59,442.23,1606.06,444.16Z"/><path class="cls-4" d="M1582.58,440l.21.12,2.18.48q-.71-.49-1.44-1C1583.21,439.72,1582.89,439.83,1582.58,440Z"/><path class="cls-4" d="M1610.45,422.91c-6.75,6.55-13.64,13-23.89,16.43q-.72.23-1.44.42c3.38.41,6.75,1,10.11,1.77a43.83,43.83,0,0,0,7.44-6.16A34.52,34.52,0,0,0,1610.45,422.91Z"/><path class="cls-4" d="M1585.12,439.76l-.95.25.8.55c2.88.64,5.74,1.32,8.59,2,.57-.34,1.12-.69,1.67-1C1591.87,440.79,1588.5,440.17,1585.12,439.76Z"/><path class="cls-4" d="M1583.38,440.21l1.59.35-.8-.55Z"/><path class="cls-4" d="M1583.49,439.58c.51.32,1,.64,1.48,1l3.36.77c-.23-.41-.46-.82-.71-1.23C1586.24,439.9,1584.87,439.72,1583.49,439.58Z"/><path class="cls-4" d="M1573.62,426.25a57.8,57.8,0,0,0-14.57-6.65c7.55,5.15,15,10.38,19.33,17.37a31.41,31.41,0,0,1,5.11,2.61c1.38.14,2.75.32,4.13.52A44.18,44.18,0,0,0,1573.62,426.25Z"/><path class="cls-4" d="M1581.63,439.41l1.15.67,2.19.48c-.48-.34-1-.66-1.48-1Z"/><path class="cls-4" d="M1578.69,437.49c.09.15.16.3.24.45.92.47,1.81,1,2.7,1.47l1.86.17a31.41,31.41,0,0,0-5.11-2.61Z"/><path class="cls-4" d="M1585,439.74c0,.25-.09.49-.15.73l.13.09c2.81.63,5.6,1.29,8.38,1.95,0-.46,0-.93-.06-1.39C1590.53,440.56,1587.77,440.08,1585,439.74Z"/><path class="cls-4" d="M1574.31,410.6c5.25,7.67,10.38,15.41,11,23.79a22.59,22.59,0,0,1-.36,5.35c2.78.34,5.54.82,8.3,1.38a36.44,36.44,0,0,0-7.41-19.22A52,52,0,0,0,1574.31,410.6Z"/><path class="cls-4" d="M1584.83,440.53l.14,0-.13-.09Z"/><path class="cls-4" d="M1583.48,439.58c.51.31,1,.64,1.48,1,3.54.79,7.06,1.64,10.57,2.47.85-.26,1.69-.55,2.52-.86A114.69,114.69,0,0,0,1583.48,439.58Z"/><path class="cls-4" d="M1608.47,436.56a32.36,32.36,0,0,0,8.86-9.73c-7,4.82-14.11,9.56-23.68,11.33a46.52,46.52,0,0,1-11.92.39c.6.33,1.18.67,1.75,1a114.69,114.69,0,0,1,14.57,2.59A42.46,42.46,0,0,0,1608.47,436.56Z"/><path class="cls-4" d="M1581.63,439.41l1.14.67,2.19.48c-.48-.34-1-.67-1.48-1Z"/><path class="cls-4" d="M1579.63,438.31l2,1.1,1.85.17c-.57-.36-1.15-.7-1.75-1Z"/><path class="cls-4" d="M1774.8,588c.54.25,1.07.52,1.59.8,1.74.18,3.47.37,5.2.57-.14-.41-.28-.83-.44-1.24C1779,588,1776.91,588,1774.8,588Z"/><path class="cls-4" d="M1768.88,572.62a51.12,51.12,0,0,0-13.57-7.24c6.91,5.56,13.72,11.19,16.76,18.52a22.79,22.79,0,0,1,1,3.32c.6.24,1.18.51,1.75.78,2.11,0,4.23,0,6.35.13A36,36,0,0,0,1768.88,572.62Z"/><path class="cls-4" d="M1773.2,588l0,.13.93.41,2.23.22c-.52-.28-1.05-.55-1.59-.8Z"/><path class="cls-4" d="M1773.2,588l1.6,0c-.57-.27-1.15-.54-1.75-.78C1773.11,587.49,1773.16,587.77,1773.2,588Z"/><path class="cls-4" d="M1774.81,588c.54.25,1.06.52,1.58.8,2,.2,3.95.43,5.91.66q.42-.6.81-1.2C1780.34,588.06,1777.57,588,1774.81,588Z"/><path class="cls-4" d="M1787.56,573.67a27.73,27.73,0,0,0-2.73-12.18c-.42,7.46-1,14.92-5.86,21.48a28.6,28.6,0,0,1-4.78,4.74l.62.29c2.76,0,5.53.06,8.3.26A27.48,27.48,0,0,0,1787.56,573.67Z"/><path class="cls-4" d="M1773.79,588l1,0-.62-.29Z"/><path class="cls-4" d="M1773.79,588l-.33.25.71.31,2.22.22c-.52-.28-1-.55-1.58-.8Z"/><path class="cls-4" d="M1774.89,588l0,0c.53.25,1,.51,1.55.78,6.13.64,12.21,1.44,18.28,2.08,1-.33,2-.65,3.08-1C1790.11,588.88,1782.47,587.89,1774.89,588Z"/><path class="cls-4" d="M1797.76,589.92a135.17,135.17,0,0,1,26.42-5.19,65.6,65.6,0,0,0-37.6-1.13,59.33,59.33,0,0,0-11.69,4.4C1782.47,587.89,1790.11,588.88,1797.76,589.92Z"/><path class="cls-4" d="M1774,588.48l.22.1,2.23.22c-.51-.27-1-.53-1.55-.78C1774.55,588.17,1774.24,588.32,1774,588.48Z"/><path class="cls-4" d="M1799.65,568.31c-6,7.28-12,14.51-21.82,19.09-.45.21-.91.4-1.38.59,3.41,0,6.82.24,10.25.57a42.31,42.31,0,0,0,6.67-7A34.6,34.6,0,0,0,1799.65,568.31Z"/><path class="cls-4" d="M1776.45,588l-.91.36.86.45c2.93.3,5.85.65,8.76,1,.52-.4,1-.81,1.54-1.23C1783.27,588.23,1779.86,588,1776.45,588Z"/><path class="cls-4" d="M1774.77,588.64l1.63.16-.86-.45Z"/><path class="cls-4" d="M1774.81,588c.54.25,1.07.52,1.59.8l3.42.37c-.27-.38-.55-.76-.85-1.13C1777.58,588,1776.2,588,1774.81,588Z"/><path class="cls-4" d="M1763.46,575.91a58,58,0,0,0-15.25-4.91c8.1,4.24,16.14,8.56,21.22,15a30.93,30.93,0,0,1,5.38,2c1.39,0,2.77,0,4.16,0A44,44,0,0,0,1763.46,575.91Z"/><path class="cls-4" d="M1773,588.05l1.21.53,2.24.22c-.52-.28-1.05-.55-1.59-.8C1774.19,588,1773.57,588,1773,588.05Z"/><path class="cls-4" d="M1769.8,586.48l.29.42c1,.37,1.92.75,2.86,1.15.62,0,1.24,0,1.86,0a30.93,30.93,0,0,0-5.38-2C1769.56,586.16,1769.68,586.32,1769.8,586.48Z"/><path class="cls-4" d="M1776.32,588l-.06.73.14.08c2.86.3,5.7.63,8.54,1q-.09-.69-.21-1.38C1781.92,588.15,1779.12,588,1776.32,588Z"/><path class="cls-4" d="M1762.31,560.28c6.12,7,12.11,14.1,13.75,22.35a23.09,23.09,0,0,1,.26,5.36c2.8,0,5.6.16,8.41.39a36.4,36.4,0,0,0-9.6-18.21A51.83,51.83,0,0,0,1762.31,560.28Z"/><path class="cls-4" d="M1776.25,588.78l.15,0-.14-.08Z"/><path class="cls-4" d="M1774.81,588c.53.25,1.06.52,1.58.8,3.6.37,7.2.8,10.78,1.23.81-.37,1.62-.75,2.41-1.16A114.75,114.75,0,0,0,1774.81,588Z"/><path class="cls-4" d="M1799.27,582.09a32.31,32.31,0,0,0,7.66-10.69c-6.39,5.6-12.89,11.13-22.19,14a46.51,46.51,0,0,1-11.79,1.78c.63.25,1.25.53,1.86.82a114.75,114.75,0,0,1,14.77.87A42.33,42.33,0,0,0,1799.27,582.09Z"/><path class="cls-4" d="M1772.94,588.05l1.21.53,2.24.22c-.52-.28-1.05-.55-1.58-.8C1774.18,588,1773.56,588,1772.94,588.05Z"/><path class="cls-4" d="M1770.83,587.19c.71.27,1.41.56,2.11.86.62,0,1.24,0,1.87,0-.61-.29-1.23-.57-1.86-.82C1772.24,587.2,1771.54,587.2,1770.83,587.19Z"/><path class="cls-5" d="M1949.86,1082.89c3.79-58.78,11.92-241.09-28.88-290.24-.94,26.8,1,54.56,1,80.35,0,60-6,120-4,180,.66,16.52-2.61,33-4,49.56l16.28-.6A20.4,20.4,0,0,0,1949.86,1082.89Z"/><rect class="cls-4" x="573.74" y="443" width="14.51" height="86" rx="7.25" ry="7.25"/><rect class="cls-4" x="588.25" y="474.36" width="12.35" height="11.64"/><rect class="cls-4" x="598.43" y="443.82" width="9.57" height="43" rx="4.78" ry="4.78"/><rect class="cls-4" x="558" y="474.36" width="9.26" height="24.92" rx="4.63" ry="4.63"/><rect class="cls-4" x="564.48" y="486.82" width="11.73" height="12.46"/><rect class="cls-4" x="1206" y="472.93" width="13.97" height="45.71" rx="6.98" ry="6.98"/><rect class="cls-4" x="1217.5" y="504.5" width="24.65" height="12.9"/><rect class="cls-4" x="1239.28" y="472" width="16.02" height="91" rx="8.01" ry="8.01"/><rect class="cls-4" x="1255.3" y="506.25" width="19.31" height="8.77"/><rect class="cls-4" x="1271.32" y="481.39" width="10.68" height="33.63" rx="5.34" ry="5.34"/></svg>
