<svg id="Layer_1" data-name="Layer 1" xmlns="http://www.w3.org/2000/svg" xmlns:xlink="http://www.w3.org/1999/xlink" width="1920" height="1080" viewBox="0 0 1920 1080"><defs><style>.cls-1{fill:url(#linear-gradient);}.cls-2{fill:url(#linear-gradient-2);}.cls-3{fill:#fe6766;}.cls-4{fill:#7f435d;}</style><linearGradient id="linear-gradient" x1="1919.44" y1="494.53" x2="1919.44" y2="623.94" gradientUnits="userSpaceOnUse"><stop offset="0" stop-color="#ed8479"/><stop offset="1" stop-color="#e8aa3d"/></linearGradient><linearGradient id="linear-gradient-2" x1="1918.26" y1="945.35" x2="1918.26" y2="1080" xlink:href="#linear-gradient"/></defs><title>baggrund4</title><path class="cls-1" d="M1920,623.94V494.53c-.45,9.16-.81,18.31-1,27.47C1918.62,556,1919.24,590,1920,623.94Z"/><path class="cls-2" d="M1920,945.35c-1.53,35.88-3.2,71.77-2,107.65a174.63,174.63,0,0,1-1.49,27H1920Z"/><path class="cls-3" d="M1919,522c-.38,34,.24,68,1,101.94V494.53C1919.55,503.69,1919.19,512.84,1919,522Z"/><path class="cls-4" d="M1922,873c0-26-2-54-1-81,1.17-35.11,1-70.21.35-105.32-37.94,35.27-65.49,65.07-72.11,65.07-17.77,0,57.74-95.63-57.74-112.8s-231,53.95-315.35,79.7-66.62-40.46-97.71-79.7-315.35,0-315.35,0L783.28,744.4s40-104.22-102.16-139.78S348,766.47,308,718.65s62.18-233-115.48-163.07S-31,786.08-31,786.08v237.86c624.81,40.82,1276.79,47.1,1949,27.73C1916.1,992.11,1922,932.56,1922,873Z"/><path class="cls-4" d="M671.6,614.39c.68.41,1.34.84,2,1.28q3.39.58,6.76,1.22c-.15-.61-.3-1.21-.47-1.82Q675.76,614.58,671.6,614.39Z"/><path class="cls-4" d="M665.38,591.81a64.88,64.88,0,0,0-17-11.45c8.48,8.52,16.83,17.15,20.08,27.92a33.36,33.36,0,0,1,1,4.86c.76.39,1.5.82,2.22,1.25q4.15.18,8.28.68A50.67,50.67,0,0,0,665.38,591.81Z"/><path class="cls-4" d="M669.51,614.33a1.37,1.37,0,0,0,0,.19l1.18.66,2.88.49c-.65-.44-1.31-.87-2-1.28C670.91,614.36,670.21,614.34,669.51,614.33Z"/><path class="cls-4" d="M669.51,614.33c.7,0,1.4,0,2.09.06-.72-.43-1.46-.86-2.22-1.25C669.43,613.54,669.47,613.93,669.51,614.33Z"/><path class="cls-4" d="M671.61,614.39c.68.41,1.34.84,2,1.28,2.56.44,5.12.91,7.67,1.39.4-.54.79-1.1,1.17-1.66C678.83,614.9,675.22,614.54,671.61,614.39Z"/><path class="cls-4" d="M689.7,594.76A43.15,43.15,0,0,0,687.32,577c-1.28,10.7-2.74,21.39-9.77,30.45a39.59,39.59,0,0,1-6.72,6.46l.78.46c3.61.15,7.22.51,10.83,1A42.82,42.82,0,0,0,689.7,594.76Z"/><path class="cls-4" d="M670.27,614.35l1.34,0-.78-.46Z"/><path class="cls-4" d="M670.27,614.35l-.44.33.89.5,2.88.49c-.65-.44-1.31-.87-2-1.28Z"/><path class="cls-4" d="M671.72,614.4l-.05,0c.66.4,1.3.82,1.94,1.25,7.95,1.38,15.82,3,23.7,4.4,1.37-.4,2.75-.79,4.12-1.15C691.54,616.83,681.64,614.82,671.72,614.4Z"/><path class="cls-4" d="M701.43,618.92a164.76,164.76,0,0,1,35.06-5.46c-14.06-6.39-31.73-8.42-49.06-4.49a73.76,73.76,0,0,0-15.71,5.43C681.64,614.82,691.54,616.83,701.43,618.92Z"/><path class="cls-4" d="M670.44,615l.28.16,2.89.49c-.64-.43-1.28-.85-1.94-1.25C671.25,614.62,670.84,614.81,670.44,615Z"/><path class="cls-4" d="M706,588c-8.5,10-17.17,20-30.41,25.81-.61.26-1.23.5-1.86.74a129.06,129.06,0,0,1,13.34,1.61,60.65,60.65,0,0,0,9.41-9.54A52.76,52.76,0,0,0,706,588Z"/><path class="cls-4" d="M673.76,614.51l-1.23.45c.37.23.73.47,1.08.71,3.8.66,7.59,1.38,11.36,2.1q1.08-.81,2.13-1.65A129.06,129.06,0,0,0,673.76,614.51Z"/><path class="cls-4" d="M671.5,615.31l2.11.36c-.35-.24-.71-.48-1.08-.71Z"/><path class="cls-4" d="M671.62,614.39c.67.41,1.34.84,2,1.28,1.48.26,3,.52,4.44.8-.32-.57-.65-1.14-1-1.7C675.24,614.6,673.43,614.47,671.62,614.39Z"/><path class="cls-4" d="M658,596.13a70.73,70.73,0,0,0-19.45-8.24c10.17,6.72,20.25,13.57,26.27,23.22a38.55,38.55,0,0,1,6.84,3.28c1.81.08,3.62.21,5.43.38A58.08,58.08,0,0,0,658,596.13Z"/><path class="cls-4" d="M669.17,614.32c.52.28,1,.57,1.54.86l2.9.49c-.65-.44-1.32-.87-2-1.28Z"/><path class="cls-4" d="M665.22,611.83l.33.62c1.23.6,2.43,1.23,3.62,1.87l2.45.07a38.55,38.55,0,0,0-6.84-3.28Z"/><path class="cls-4" d="M673.59,614.49c-.05.36-.1.71-.16,1.06l.18.12c3.71.64,7.4,1.34,11.08,2,0-.67-.09-1.33-.15-2C680.89,615.15,677.24,614.72,673.59,614.49Z"/><path class="cls-4" d="M658,573.55c7.3,10.57,14.44,21.22,15.76,33.22a36.1,36.1,0,0,1-.18,7.72c3.65.23,7.3.66,10.95,1.22a53.83,53.83,0,0,0-10.76-27A68.18,68.18,0,0,0,658,573.55Z"/><path class="cls-4" d="M673.42,615.64l.19,0-.18-.12S673.42,615.61,673.42,615.64Z"/><path class="cls-4" d="M671.61,614.39c.67.41,1.33.84,2,1.28,4.67.81,9.33,1.71,14,2.59,1.1-.46,2.19-1,3.26-1.48A136.94,136.94,0,0,0,671.61,614.39Z"/><path class="cls-4" d="M704.17,607.77A47.25,47.25,0,0,0,715.25,593c-8.91,7.56-18,15-30.4,18.45a55.93,55.93,0,0,1-15.59,1.65c.8.42,1.58.86,2.35,1.32a136.94,136.94,0,0,1,19.22,2.39A56.6,56.6,0,0,0,704.17,607.77Z"/><path class="cls-4" d="M669.16,614.32l1.54.85,2.9.5c-.66-.44-1.32-.87-2-1.28Z"/><path class="cls-4" d="M666.49,612.92c.9.45,1.79.93,2.67,1.4l2.45.07c-.77-.46-1.55-.9-2.35-1.32C668.33,613,667.41,613,666.49,612.92Z"/><path class="cls-4" d="M1422.72,720.48c.77.48,1.52,1,2.26,1.5,2.58.45,5.15.93,7.71,1.42-.16-.72-.33-1.44-.52-2.15Q1427.45,720.68,1422.72,720.48Z"/><path class="cls-4" d="M1415.72,693.78a73.11,73.11,0,0,0-19.4-13.46c9.64,10,19.14,20.21,22.8,32.95a41.06,41.06,0,0,1,1.07,5.74c.86.46,1.7,1,2.53,1.47q4.72.19,9.45.77A59.88,59.88,0,0,0,1415.72,693.78Z"/><path class="cls-4" d="M1420.32,720.42l0,.22,1.34.77,3.29.57c-.74-.52-1.49-1-2.26-1.5Z"/><path class="cls-4" d="M1420.32,720.42l2.4.06c-.83-.51-1.67-1-2.53-1.47C1420.24,719.48,1420.29,720,1420.32,720.42Z"/><path class="cls-4" d="M1422.73,720.48c.77.48,1.52,1,2.26,1.5,2.93.52,5.84,1.06,8.75,1.62.47-.65.92-1.31,1.35-2A122.9,122.9,0,0,0,1422.73,720.48Z"/><path class="cls-4" d="M1443.48,697.16a52.48,52.48,0,0,0-2.63-21c-1.51,12.66-3.23,25.32-11.31,36.08a46.62,46.62,0,0,1-7.7,7.68l.89.54a122.9,122.9,0,0,1,12.36,1.15A52.34,52.34,0,0,0,1443.48,697.16Z"/><path class="cls-4" d="M1421.2,720.43l1.53.05-.89-.54Z"/><path class="cls-4" d="M1421.2,720.43l-.51.4,1,.59,3.29.56c-.74-.52-1.49-1-2.26-1.5Z"/><path class="cls-4" d="M1422.85,720.49l-.06,0c.75.47,1.49,1,2.21,1.46,9.08,1.61,18.06,3.48,27.06,5.09q2.36-.72,4.71-1.38C1445.48,723.27,1434.18,720.94,1422.85,720.49Z"/><path class="cls-4" d="M1456.77,725.69a182.92,182.92,0,0,1,40.07-6.62c-16-7.5-36.2-9.81-56-5.09a83.51,83.51,0,0,0-18,6.51C1434.18,720.94,1445.48,723.27,1456.77,725.69Z"/><path class="cls-4" d="M1421.38,721.23l.33.19,3.29.56c-.72-.5-1.46-1-2.21-1.46Z"/><path class="cls-4" d="M1462.17,689c-9.75,11.91-19.71,23.71-34.86,30.7-.7.3-1.41.59-2.13.88a143.45,143.45,0,0,1,15.23,1.84,71.57,71.57,0,0,0,10.8-11.33A63.91,63.91,0,0,0,1462.17,689Z"/><path class="cls-4" d="M1425.18,720.61l-1.4.54,1.23.83c4.34.77,8.65,1.6,13,2.43.83-.64,1.64-1.29,2.44-2A143.45,143.45,0,0,0,1425.18,720.61Z"/><path class="cls-4" d="M1422.59,721.57l2.42.41-1.23-.83Z"/><path class="cls-4" d="M1422.73,720.48c.78.48,1.53,1,2.27,1.5l5.08.92c-.37-.67-.75-1.34-1.14-2C1426.87,720.71,1424.8,720.56,1422.73,720.48Z"/><path class="cls-4" d="M1407.22,698.94a78.33,78.33,0,0,0-22.18-9.66c11.59,7.91,23.07,16,29.9,27.36a42.43,42.43,0,0,1,7.79,3.84c2.07.08,4.14.23,6.21.42A66.85,66.85,0,0,0,1407.22,698.94Z"/><path class="cls-4" d="M1419.94,720.41l1.75,1,3.31.57c-.74-.52-1.49-1-2.27-1.5C1421.8,720.45,1420.87,720.42,1419.94,720.41Z"/><path class="cls-4" d="M1415.43,717.48c.14.24.26.49.39.73q2.09,1.06,4.12,2.2c.93,0,1.86,0,2.79.07a42.43,42.43,0,0,0-7.79-3.84Z"/><path class="cls-4" d="M1425,720.59c-.06.42-.12.83-.19,1.25l.2.14c4.24.75,8.45,1.55,12.65,2.37,0-.79-.09-1.58-.16-2.37C1433.32,721.34,1429.16,720.85,1425,720.59Z"/><path class="cls-4" d="M1407.38,672.22c8.29,12.46,16.4,25,17.85,39.23a44.16,44.16,0,0,1-.24,9.14c4.17.26,8.33.75,12.5,1.39a64.49,64.49,0,0,0-12.16-31.85A78,78,0,0,0,1407.38,672.22Z"/><path class="cls-4" d="M1424.79,721.94l.21,0-.2-.14S1424.79,721.91,1424.79,721.94Z"/><path class="cls-4" d="M1422.72,720.48c.77.48,1.53,1,2.27,1.5,5.34.94,10.65,2,16,3,1.26-.55,2.51-1.14,3.73-1.77A152,152,0,0,0,1422.72,720.48Z"/><path class="cls-4" d="M1460,712.49a56.83,56.83,0,0,0,12.72-17.58c-10.21,9-20.59,17.88-34.81,22a61.88,61.88,0,0,1-17.83,2c.92.49,1.81,1,2.68,1.55a152,152,0,0,1,22,2.73A65.51,65.51,0,0,0,1460,712.49Z"/><path class="cls-4" d="M1419.93,720.41l1.75,1,3.31.57c-.74-.52-1.5-1-2.27-1.5C1421.79,720.45,1420.86,720.42,1419.93,720.41Z"/><path class="cls-4" d="M1416.88,718.76c1,.54,2,1.09,3,1.65.93,0,1.86,0,2.79.07-.87-.54-1.76-1.06-2.68-1.55C1419,718.9,1417.93,718.85,1416.88,718.76Z"/><path class="cls-4" d="M6.72,716c.76-.22,1.53-.41,2.29-.59,1.83-1.37,3.67-2.74,5.51-4.09-.54-.31-1.09-.61-1.64-.9C10.75,712.24,8.69,714.09,6.72,716Z"/><path class="cls-4" d="M-14,705.14a64.54,64.54,0,0,0-20,4.62c12-.37,24-.58,34.1,4.41a33.7,33.7,0,0,1,4.2,2.62c.81-.28,1.62-.53,2.43-.76,2-1.94,4-3.79,6.16-5.58A50.79,50.79,0,0,0-14,705.14Z"/><path class="cls-4" d="M5.24,717.51l.15.12,1.29-.41L9,715.44c-.76.18-1.53.37-2.29.59Z"/><path class="cls-4" d="M5.24,717.51,6.72,716c-.81.23-1.62.48-2.43.76Z"/><path class="cls-4" d="M6.73,716c.76-.21,1.52-.41,2.29-.58,2.08-1.57,4.16-3.11,6.26-4.64-.13-.67-.26-1.34-.42-2C12,711.1,9.31,713.49,6.73,716Z"/><path class="cls-4" d="M4.75,689.4A43.11,43.11,0,0,0-9.83,679C-2.89,687.26,3.92,695.63,5.73,707a39.66,39.66,0,0,1,.13,9.31l.87-.25c2.58-2.53,5.3-4.92,8.13-7.21A42.84,42.84,0,0,0,4.75,689.4Z"/><path class="cls-4" d="M5.78,717l1-1-.87.25C5.84,716.51,5.81,716.74,5.78,717Z"/><path class="cls-4" d="M5.78,717l-.06.55,1-.31L9,715.44c-.77.17-1.53.37-2.29.58Z"/><path class="cls-4" d="M6.8,716v0c.74-.21,1.48-.39,2.23-.56,6.45-4.86,13-9.51,19.41-14.31.64-1.27,1.3-2.54,2-3.8C22.12,703.13,13.89,709,6.8,716Z"/><path class="cls-4" d="M30.41,697.33a164.19,164.19,0,0,1,20-29.32c-14.28,5.9-27.83,17.42-36.8,32.75A74,74,0,0,0,6.8,716C13.89,709,22.12,703.13,30.41,697.33Z"/><path class="cls-4" d="M6.38,717.31l.31-.1c.78-.6,1.55-1.19,2.33-1.77-.75.17-1.49.35-2.23.56C6.65,716.44,6.51,716.87,6.38,717.31Z"/><path class="cls-4" d="M10.94,672.83c1.52,13,2.85,26.18-1.92,39.84-.24.62-.49,1.24-.74,1.86a133.93,133.93,0,0,1,10.29-8.64A60,60,0,0,0,18,692.5,52.58,52.58,0,0,0,10.94,672.83Z"/><path class="cls-4" d="M8.28,714.53l-.51,1.21L9,715.43c3.08-2.32,6.19-4.6,9.29-6.86.1-.89.19-1.78.25-2.68A133.93,133.93,0,0,0,8.28,714.53Z"/><path class="cls-4" d="M7.32,716.73,9,715.43l-1.26.31Z"/><path class="cls-4" d="M6.73,716c.76-.22,1.53-.41,2.29-.58l3.62-2.71q-.95-.22-1.92-.42Q8.68,714.11,6.73,716Z"/><path class="cls-4" d="M-15.93,713.51a70.6,70.6,0,0,0-19.31,8.58c11.86-2.84,23.74-5.52,34.91-3.32A38.15,38.15,0,0,1,6.73,716q1.95-1.9,4-3.71A58.24,58.24,0,0,0-15.93,713.51Z"/><path class="cls-4" d="M5,717.76l1.67-.54L9,715.44c-.76.17-1.53.36-2.29.58C6.15,716.59,5.58,717.17,5,717.76Z"/><path class="cls-4" d="M.49,718.94l.68.18c1.27-.48,2.56-.93,3.84-1.36.57-.59,1.14-1.17,1.72-1.74a38.15,38.15,0,0,0-7.06,2.75Z"/><path class="cls-4" d="M8.15,714.65c.23.27.45.55.67.83l.21-.05c3-2.26,6-4.48,9-6.69q-.76-.65-1.56-1.26C13.62,709.76,10.82,712.14,8.15,714.65Z"/><path class="cls-4" d="M-32.39,698.06c12.7,1.88,25.36,3.94,35,11.18a34.92,34.92,0,0,1,5.52,5.41c2.67-2.51,5.47-4.89,8.37-7.17a53.87,53.87,0,0,0-27-10.56A68.17,68.17,0,0,0-32.39,698.06Z"/><path class="cls-4" d="M8.87,715.55l.16-.12-.21.05Z"/><path class="cls-4" d="M6.72,716c.76-.22,1.53-.41,2.29-.59,3.8-2.86,7.63-5.64,11.45-8.43.41-1.12.8-2.25,1.14-3.39A135.91,135.91,0,0,0,6.72,716Z"/><path class="cls-4" d="M24.14,687.72a47.58,47.58,0,0,0-3.24-18.2c-.57,11.67-1.3,23.38-7.3,34.8a55.77,55.77,0,0,1-9.45,12.52c.86-.3,1.71-.57,2.57-.81A135.91,135.91,0,0,1,21.6,703.62,56.68,56.68,0,0,0,24.14,687.72Z"/><path class="cls-4" d="M5,717.76l1.66-.54L9,715.44c-.76.18-1.53.37-2.29.59C6.14,716.6,5.57,717.18,5,717.76Z"/><path class="cls-4" d="M2.15,718.76c1-.35,1.9-.68,2.86-1,.56-.58,1.13-1.16,1.71-1.73-.86.24-1.71.51-2.57.81C3.5,717.49,2.84,718.13,2.15,718.76Z"/><path class="cls-4" d="M1722,648.43c.73.31,1.44.65,2.14,1q3.44.14,6.86.31c-.22-.59-.45-1.17-.7-1.74C1727.49,648,1724.72,648.17,1722,648.43Z"/><path class="cls-4" d="M1712.75,626.89a65,65,0,0,0-18.42-9c9.55,7.3,19,14.72,23.67,25a32.73,32.73,0,0,1,1.6,4.68c.81.29,1.59.61,2.37.94,2.75-.26,5.52-.4,8.3-.44A50.87,50.87,0,0,0,1712.75,626.89Z"/><path class="cls-4" d="M1719.88,648.65a1.21,1.21,0,0,1,0,.18l1.26.5,2.92.09c-.7-.34-1.41-.68-2.14-1Z"/><path class="cls-4" d="M1719.88,648.65l2.09-.22c-.78-.33-1.56-.65-2.37-.94C1719.7,647.88,1719.8,648.26,1719.88,648.65Z"/><path class="cls-4" d="M1722,648.43c.72.31,1.44.65,2.14,1,2.6.1,5.2.22,7.78.35.33-.59.64-1.19.94-1.8C1729.2,648,1725.58,648.09,1722,648.43Z"/><path class="cls-4" d="M1737.24,626.53a43,43,0,0,0-4.74-17.25c.17,10.77.17,21.56-5.58,31.49a39.89,39.89,0,0,1-5.78,7.31l.84.35c3.6-.34,7.22-.47,10.86-.46A42.78,42.78,0,0,0,1737.24,626.53Z"/><path class="cls-4" d="M1720.64,648.57l1.34-.14-.84-.35Z"/><path class="cls-4" d="M1720.64,648.57l-.39.39,1,.37,2.92.09c-.7-.34-1.42-.68-2.14-1Z"/><path class="cls-4" d="M1722.08,648.42l0,0c.71.31,1.41.63,2.1,1,8.06.3,16.08.84,24.08,1.16,1.3-.58,2.61-1.15,3.93-1.7C1742.05,648.15,1732,647.5,1722.08,648.42Z"/><path class="cls-4" d="M1752.14,648.88a164.65,164.65,0,0,1,34-10.13c-14.8-4.44-32.58-4.06-49.22,2.17a73.66,73.66,0,0,0-14.84,7.5C1732,647.5,1742.05,648.15,1752.14,648.88Z"/><path class="cls-4" d="M1720.9,649.21l.3.12,2.93.09c-.69-.34-1.39-.66-2.1-1C1721.65,648.7,1721.27,649,1720.9,649.21Z"/><path class="cls-4" d="M1752.51,617.59c-7.06,11.08-14.32,22.1-26.64,29.68-.58.34-1.16.66-1.75,1a130.62,130.62,0,0,1,13.43-.2,60,60,0,0,0,8-10.72A52.81,52.81,0,0,0,1752.51,617.59Z"/><path class="cls-4" d="M1724.12,648.25c-.38.21-.77.42-1.15.61.39.19.78.37,1.16.57,3.86.14,7.7.33,11.54.54.64-.63,1.27-1.27,1.88-1.92A130.62,130.62,0,0,0,1724.12,648.25Z"/><path class="cls-4" d="M1722,649.35l2.14.08c-.38-.2-.77-.38-1.16-.57Z"/><path class="cls-4" d="M1722,648.43c.73.31,1.44.65,2.15,1l4.51.19c-.4-.52-.8-1-1.22-1.54C1725.6,648.14,1723.79,648.26,1722,648.43Z"/><path class="cls-4" d="M1706,632.18a70.34,70.34,0,0,0-20.39-5.53c11,5.28,21.9,10.7,29.16,19.46a37.85,37.85,0,0,1,7.22,2.32c1.81-.17,3.62-.29,5.44-.36A58.21,58.21,0,0,0,1706,632.18Z"/><path class="cls-4" d="M1719.55,648.69l1.64.64,2.94.09c-.71-.34-1.42-.68-2.15-1C1721.17,648.51,1720.36,648.59,1719.55,648.69Z"/><path class="cls-4" d="M1715.3,646.76c.14.18.27.37.41.56,1.29.43,2.57.89,3.84,1.37.81-.1,1.62-.18,2.43-.26a37.85,37.85,0,0,0-7.22-2.32Z"/><path class="cls-4" d="M1724,648.26c0,.36,0,.71,0,1.07l.19.09c3.76.14,7.51.33,11.25.53-.12-.65-.26-1.31-.41-2C1731.28,647.93,1727.6,648,1724,648.26Z"/><path class="cls-4" d="M1703,609.81c8.66,9.47,17.18,19.06,20.11,30.77a36.09,36.09,0,0,1,.86,7.68c3.65-.26,7.33-.33,11-.27a53.89,53.89,0,0,0-14.3-25.25A68,68,0,0,0,1703,609.81Z"/><path class="cls-4" d="M1723.94,649.42h.19l-.19-.09Z"/><path class="cls-4" d="M1722,648.43c.73.31,1.44.65,2.14,1,4.75.18,9.48.44,14.2.69,1-.61,2-1.25,3-1.91A137.58,137.58,0,0,0,1722,648.43Z"/><path class="cls-4" d="M1753.35,637.47a47.46,47.46,0,0,0,9-16.17c-7.8,8.7-15.76,17.33-27.63,22.39a55.53,55.53,0,0,1-15.23,3.75c.86.3,1.69.64,2.51,1a137.58,137.58,0,0,1,19.38-.23A57.09,57.09,0,0,0,1753.35,637.47Z"/><path class="cls-4" d="M1719.54,648.69l1.64.64,2.93.09c-.7-.34-1.41-.68-2.14-1C1721.16,648.51,1720.35,648.59,1719.54,648.69Z"/><path class="cls-4" d="M1716.7,647.66c1,.33,1.9.68,2.84,1,.81-.1,1.62-.18,2.43-.26-.82-.35-1.65-.69-2.51-1C1718.55,647.53,1717.63,647.61,1716.7,647.66Z"/><path class="cls-4" d="M876.05,593l-4,0a10.82,10.82,0,0,0-10.62,11l.45,100.1A10.81,10.81,0,0,0,872.56,715h4a10.82,10.82,0,0,0,10.62-11l-.45-100.1A10.82,10.82,0,0,0,876.05,593Z"/><rect class="cls-4" x="887" y="655.83" width="31.73" height="14.64"/><rect class="cls-4" x="912.18" y="633.46" width="20.82" height="41" rx="10.41" ry="10.41"/><rect class="cls-4" x="825.92" y="656.98" width="35.69" height="19.56"/><path class="cls-4" d="M817,617.52v47.24a11.62,11.62,0,0,0,11.46,11.77h.08A11.62,11.62,0,0,0,840,664.76V617.5c0-6.94-5.82-12.45-12.53-11.72l-.34,0A11.68,11.68,0,0,0,817,617.52Z"/><rect class="cls-4" x="368.13" y="583" width="24.08" height="136" rx="12.04" ry="12.04"/><rect class="cls-4" x="392.21" y="632.59" width="20.49" height="18.41"/><rect class="cls-4" x="409.12" y="584.3" width="15.88" height="68" rx="7.94" ry="7.94"/><rect class="cls-4" x="342" y="632.59" width="15.37" height="39.41" rx="7.69" ry="7.69"/><rect class="cls-4" x="352.76" y="652.3" width="19.47" height="19.71"/><rect class="cls-4" x="1526" y="584.02" width="16.36" height="50.23" rx="8.18" ry="8.18"/><rect class="cls-4" x="1539.47" y="618.71" width="28.86" height="14.17"/><rect class="cls-4" x="1564.97" y="583" width="18.76" height="100" rx="9.38" ry="9.38"/><rect class="cls-4" x="1583.73" y="620.64" width="22.61" height="9.64"/><rect class="cls-4" x="1602.49" y="593.32" width="12.51" height="36.96" rx="6.25" ry="6.25"/></svg>
