<svg id="Layer_1" data-name="Layer 1" xmlns="http://www.w3.org/2000/svg" xmlns:xlink="http://www.w3.org/1999/xlink" width="1920" height="1080" viewBox="0 0 1920 1080"><defs><style>.cls-1{fill:url(#linear-gradient);}.cls-2{opacity:0.69;}.cls-3{fill:#fff;}.cls-4{fill:#fe6766;}.cls-5{fill:#ea315d;}</style><linearGradient id="linear-gradient" x1="1919.44" y1="494.53" x2="1919.44" y2="623.94" gradientUnits="userSpaceOnUse"><stop offset="0" stop-color="#ed8479"/><stop offset="1" stop-color="#e8aa3d"/></linearGradient></defs><title>baggrund2</title><path class="cls-1" d="M1920,623.94V494.53c-.45,9.16-.81,18.31-1,27.47C1918.62,556,1919.24,590,1920,623.94Z"/><g class="cls-2"><path class="cls-3" d="M786.43,173.83c-24,0-43.43,13.14-43.43,29.35,0,6.7,3.33,12.88,8.93,17.82,23.71-.65,47.32-1.41,70.93-1.84,4.43-4.6,7-10.09,7-16C829.86,187,810.41,173.83,786.43,173.83Z"/><path class="cls-3" d="M831.39,180.35c-16.46,0-29.81,11.68-29.81,26.09a23.59,23.59,0,0,0,4,13.09c17.35-.42,34.68-.72,52-.73a23.51,23.51,0,0,0,3.55-12.36C861.19,192,847.85,180.35,831.39,180.35Z"/><path class="cls-3" d="M877,197.39c0-14.17-13.91-25.66-31.07-25.66s-31.08,11.49-31.08,25.66c0,9.11,5.74,17.1,14.39,21.66q16.9-.27,33.82-.25C871.44,214.21,877,206.34,877,197.39Z"/><ellipse class="cls-3" cx="897.36" cy="188.77" rx="34.64" ry="25.45"/><path class="cls-3" d="M887.81,192.55c-19.63,0-35.85,11.43-38.47,26.27q11-.06,22,0,27.48.27,55,.39C924,204.19,907.61,192.55,887.81,192.55Z"/><path class="cls-3" d="M950.59,191.92c-19.55,0-35.4,12-35.4,26.72,0,.18,0,.35,0,.53,23.59.14,47.18.26,70.77.53,0-.35,0-.71,0-1.06C986,203.88,970.15,191.92,950.59,191.92Z"/><ellipse class="cls-3" cx="946.52" cy="188.77" rx="31.33" ry="27.77"/><path class="cls-3" d="M819.16,201c-16.83,0-31.15,8-36.49,19.16,24.12-.67,48.19-1.27,72.29-1.33C849.16,208.34,835.32,201,819.16,201Z"/></g><path class="cls-4" d="M1919,522c-.38,34,.24,68,1,101.94V494.53C1919.55,503.69,1919.19,512.84,1919,522Z"/><path class="cls-5" d="M1385.33,384.05c-28.37-17.16-7,5.15,0,0Z"/><path class="cls-5" d="M1919,522c.26-13,.88-25.92,1.61-38.88C1911.06,415.17,1882.94,373,1834.5,359l-153.83,33.12-69.93,67.4-103.49,14.19c-5.77-17.34-14.45-28.89-28-30.75-5.35,23.68-30-19.46-92.3-57.94l-1.65-1c-7,5.15-28.37-17.16,0,0a4.66,4.66,0,0,0,1.65-2.54c22.61-76-82.06-28.89-86.71-18.92,0,0-54.34,10.92-55.94,28.38-7.15,78.45-152.7,81.91-176.21,47.3-12.82-18.87-105.39,65.39-114.67,35.48-8-25.58-78.31,45.1-179,14.19-37.64-11.55-136.34-26.38-184.6,0-58.65,32.07-58.74-3.55-103.49-14.19S452.78,459.56,436,457.2s-22.38-18.93-58.74-46.12-142.64-18.92-153.83-18.92H189.86c-8.39,0-128.66,49.66-128.66,49.66l-65.26,81.6c-9.57,132.26-2.37,223.4,28.9,255.43,712.85,50.44,1377.1,72.18,1882.38,0q8.15-22.44,14.61-44.4C1921.74,663.63,1918.21,592.82,1919,522Z"/><path class="cls-5" d="M1919,522c1-49,7-98,5-147a112.23,112.23,0,0,1-.17-13.88c-37-17.43-85.58-2.45-113.9,9.52a20.43,20.43,0,0,1-27.46-12.88c-6.66-21.6-24-51.05-69.24-59-57.09-10-91.34,50.9-103.9,78.93a20.19,20.19,0,0,1-16.61,11.64c-39.65,3.95-95.87,108-110.7,86.17-30.24-44.53-64-82.68-75.85-95.73a20.29,20.29,0,0,0-10.7-6.19l-208.42-45.76a20.35,20.35,0,0,0-13.65,1.75c-22,11.22-92.33,47.86-104.22,62.53-12.06,14.9-163.12,12.57-206.9,11.58a20.4,20.4,0,0,0-17.94,9.88,20.39,20.39,0,0,1-22.24,9.32l-153-36.67s12.19-.84-92.67,4.57c-57.09,2.95-96,31-119.53,56a20.43,20.43,0,0,1-34.84-9.64c-8.45-38.29-28.59-86.73-76.59-97.93-54.5-12.71-111.77,23.3-144.13,48.95A20.43,20.43,0,0,1,169,377.59c-8.05-28.94-26.51-65.51-68.34-63C36.38,318.41-2.72,508-7.43,532a20.75,20.75,0,0,0-.36,5L2.62,738.82a20.39,20.39,0,0,0,21.13,19.34l1897.62-69.95C1920.42,632.81,1918.38,577.4,1919,522Z"/><g class="cls-2"><path class="cls-3" d="M586.43,45.83C562.44,45.83,543,59,543,75.18c0,6.7,3.33,12.88,8.93,17.82,23.71-.65,47.32-1.41,70.93-1.84,4.43-4.6,7-10.09,7-16C629.86,59,610.41,45.83,586.43,45.83Z"/><path class="cls-3" d="M631.39,52.35c-16.46,0-29.81,11.68-29.81,26.09a23.59,23.59,0,0,0,4,13.09c17.35-.42,34.68-.72,52-.73a23.51,23.51,0,0,0,3.55-12.36C661.19,64,647.85,52.35,631.39,52.35Z"/><path class="cls-3" d="M677,69.39c0-14.17-13.91-25.66-31.07-25.66s-31.08,11.49-31.08,25.66c0,9.11,5.74,17.1,14.39,21.66q16.9-.27,33.82-.25C671.44,86.21,677,78.34,677,69.39Z"/><ellipse class="cls-3" cx="697.36" cy="60.77" rx="34.64" ry="25.45"/><path class="cls-3" d="M687.81,64.55C668.18,64.55,652,76,649.34,90.82q11-.06,22,0,27.48.27,55,.39C724,76.19,707.61,64.55,687.81,64.55Z"/><path class="cls-3" d="M750.59,63.92c-19.55,0-35.4,12-35.4,26.72,0,.18,0,.35,0,.53,23.59.14,47.18.26,70.77.53,0-.35,0-.71,0-1.06C786,75.88,770.15,63.92,750.59,63.92Z"/><ellipse class="cls-3" cx="746.52" cy="60.77" rx="31.33" ry="27.77"/><path class="cls-3" d="M619.16,73c-16.83,0-31.15,8-36.49,19.16,24.12-.67,48.19-1.27,72.29-1.33C649.16,80.34,635.32,73,619.16,73Z"/></g><g class="cls-2"><path class="cls-3" d="M983.78,90.19c-18.66,0-33.78,5.69-33.78,12.71,0,2.9,2.59,5.58,6.94,7.72,18.44-.28,36.81-.61,55.17-.8,3.45-2,5.45-4.37,5.45-6.92C1017.56,95.88,1002.43,90.19,983.78,90.19Z"/><path class="cls-3" d="M1018.75,93c-12.81,0-23.18,5-23.18,11.29,0,2.07,1.13,4,3.12,5.67,13.49-.18,27-.31,40.47-.31a7.34,7.34,0,0,0,2.76-5.36C1041.92,98.07,1031.55,93,1018.75,93Z"/><path class="cls-3" d="M1054.21,100.4c0-6.14-10.82-11.12-24.17-11.12s-24.17,5-24.17,11.12c0,3.94,4.46,7.4,11.19,9.37,8.77-.07,17.53-.12,26.31-.1C1049.9,107.68,1054.21,104.27,1054.21,100.4Z"/><ellipse class="cls-3" cx="1070.06" cy="96.66" rx="26.94" ry="11.02"/><path class="cls-3" d="M1062.63,98.3c-15.26,0-27.88,5-29.92,11.38q8.57,0,17.14,0,21.38.12,42.75.17C1090.74,103.34,1078,98.3,1062.63,98.3Z"/><path class="cls-3" d="M1111.46,98c-15.21,0-27.54,5.18-27.54,11.57,0,.08,0,.15,0,.23q27.52.09,55,.23c0-.16,0-.31,0-.46C1139,103.21,1126.67,98,1111.46,98Z"/><ellipse class="cls-3" cx="1108.29" cy="96.66" rx="24.37" ry="12.03"/><path class="cls-3" d="M1009.24,101.94c-13.1,0-24.23,3.47-28.38,8.3,18.76-.29,37.47-.55,56.22-.57C1032.57,105.14,1021.8,101.94,1009.24,101.94Z"/></g></svg>
