<svg id="Layer_1" data-name="Layer 1" xmlns="http://www.w3.org/2000/svg" width="155" height="105" viewBox="0 0 155 105"><defs><style>.cls-1{fill:#4dd400;}</style></defs><title>check</title><path class="cls-1" d="M55.12,101l-.24.14c-4.58,2.69-10.65,1.69-13.5-2.21L2.11,45.13c-2.84-3.9-1.43-9.29,3.14-12L5.5,33c4.57-2.69,10.65-1.7,13.5,2.21L58.26,89C61.11,92.91,59.69,98.3,55.12,101Z"/><path class="cls-1" d="M148.15,4.76l3.54,3.14c3.7,3.29,3.53,8.77-.38,12.18L60.53,99.22c-3.92,3.41-10.15,3.51-13.86.22L43.13,96.3c-3.7-3.28-3.53-8.77.38-12.18L134.29,5C138.21,1.57,144.44,1.47,148.15,4.76Z"/></svg>
