<svg id="Layer_1" data-name="Layer 1" xmlns="http://www.w3.org/2000/svg" width="465" height="655" viewBox="0 0 465 655"><defs><style>.cls-1{fill:#4d4d4d;}.cls-2{fill:#999;}.cls-3{fill:#333;}</style></defs><title>grav</title><path class="cls-1" d="M91.55,668.1l.45-.21c15-7.43,29,1.06,44-3.18v-4.25c10-3.18,24-1.06,32-2.12,72-7.43,144-3.18,216-2.12,1,0,3,4.24,4,4.24q31.32.28,62.63.64A236.08,236.08,0,0,0,464,582.48V224.91C464,101,369.31.5,252.5.5h-40C95.69.5,1,101,1,224.91V582.48a235.28,235.28,0,0,0,18.14,91H27A317,317,0,0,1,91.55,668.1Z"/><path class="cls-2" d="M136,667.14v-4.27c10-3.2,24-1.06,32-2.13,72-7.46,144-3.2,216-2.13,1,0,3,4.26,4,4.26l40.54.41A237.57,237.57,0,0,0,445,576V247.63C445,123.1,350.31,22.15,233.5,22.15h-1C115.69,22.15,21,123.1,21,247.63V576A236.91,236.91,0,0,0,41.75,673.5a332.53,332.53,0,0,1,49.78-3,4,4,0,0,0,.47-.22C107,662.87,121,671.4,136,667.14Z"/><rect class="cls-3" x="215" y="80.5" width="22" height="115"/><rect class="cls-3" x="217" y="79.5" width="19" height="83" transform="translate(347.5 -105.5) rotate(90)"/></svg>
