<svg id="Layer_1" data-name="Layer 1" xmlns="http://www.w3.org/2000/svg" width="630" height="695" viewBox="0 0 630 695"><defs><style>.cls-1{fill:#fcee21;}.cls-2{fill:#a67c52;}.cls-3{fill:aqua;}.cls-4{fill:#fff;}.cls-5{fill:red;}.cls-6{fill:#ffbd0a;}</style></defs><title>kvinde</title><ellipse class="cls-1" cx="379.33" cy="103.32" rx="56.82" ry="54.38" transform="translate(203.49 454.96) rotate(-78.67)"/><ellipse class="cls-1" cx="486.46" cy="293.25" rx="57.76" ry="55.28" transform="translate(103.35 712.61) rotate(-78.67)"/><ellipse class="cls-1" cx="485.91" cy="350.75" rx="50.72" ry="52.59" transform="matrix(0.2, -0.98, 0.98, 0.2, 46.52, 758.27)"/><ellipse class="cls-1" cx="186.83" cy="342.82" rx="58.5" ry="54"/><circle class="cls-1" cx="155.83" cy="260.32" r="61.5"/><circle class="cls-1" cx="158.83" cy="170.32" r="64.5"/><circle class="cls-1" cx="218.33" cy="118.82" r="63"/><path class="cls-2" d="M470,321.73C523.27,454.1,442,528.3,317.8,532.65c-119,4.17-174-69.57-155.36-192.85q1.34-8.87,3.19-18.07c23-114.2,68.13-210.91,152.17-210.91S426.47,213.68,470,321.73Z"/><path class="cls-3" d="M347.33,260.32c30.11,43.73,4.8,44.83-33,48.5-36.38,3.53-60-4.68-33-48.5,14-22.81,14.77-48.5,33-48.5S332.14,238.25,347.33,260.32Z"/><ellipse cx="266.33" cy="174.32" rx="14" ry="23.5"/><ellipse class="cls-4" cx="262.33" cy="160.82" rx="4" ry="6"/><ellipse cx="356.33" cy="170.32" rx="13" ry="23.5"/><ellipse class="cls-4" cx="360.04" cy="156.82" rx="3.71" ry="6"/><ellipse class="cls-5" cx="288.83" cy="350.39" rx="32.5" ry="18.57"/><ellipse class="cls-5" cx="339.83" cy="350.75" rx="32.5" ry="18.93"/><ellipse class="cls-5" cx="314.83" cy="363.6" rx="106.5" ry="13.21"/><ellipse class="cls-5" cx="340.83" cy="380.25" rx="32.5" ry="18.57"/><ellipse class="cls-5" cx="289.83" cy="379.89" rx="32.5" ry="18.93"/><ellipse class="cls-5" cx="314.83" cy="367.03" rx="106.5" ry="13.21"/><rect x="208.33" y="361.82" width="213" height="4"/><circle class="cls-1" cx="297.83" cy="81.32" r="60.5"/><ellipse class="cls-1" cx="485.42" cy="209.84" rx="60.58" ry="57.98" transform="translate(184.3 644.57) rotate(-78.67)"/><ellipse class="cls-1" cx="442.48" cy="151.9" rx="59.17" ry="56.63" transform="translate(206.61 555.91) rotate(-78.67)"/><path class="cls-2" d="M424.37,513.17A12,12,0,0,0,411,502.68l-7.94.95A12,12,0,0,0,392.59,517l12,100.28A12,12,0,0,0,418,627.74l7.95-1a12,12,0,0,0,10.48-13.34"/><rect class="cls-5" x="400.33" y="603.61" width="26.45" height="62.21" rx="7" ry="7"/><path class="cls-5" d="M490.66,659.36l-10.42,11.11c-3.42,3.65-9.05,4.08-12.51,1l-64.42-58c-3.46-3.12-3.5-8.65-.08-12.3L413.65,590c3.41-3.64,9-4.08,12.5-1l64.43,58C494,650.18,494.07,655.71,490.66,659.36Z"/><path class="cls-2" d="M424.3,582.62a8.79,8.79,0,0,0-12.39-.07l-4.23,4.11a8.78,8.78,0,0,0-.31,12.38l50.84,52.41a8.8,8.8,0,0,0,12.39.07l4.24-4.11a8.8,8.8,0,0,0,.3-12.39"/><path class="cls-2" d="M230.88,511.2A12,12,0,0,1,243.58,500l8,.48a12,12,0,0,1,11.25,12.7L256.75,614a12,12,0,0,1-12.7,11.25l-8-.48A12,12,0,0,1,224.81,612"/><rect class="cls-5" x="235.64" y="600.79" width="26.45" height="62.21" rx="7" ry="7" transform="translate(534.61 1247.99) rotate(176.61)"/><path class="cls-5" d="M173.35,661.06l11.05,10.48c3.63,3.43,9.27,3.54,12.54.22l60.89-61.7c3.27-3.32,3-8.84-.65-12.28L246.13,587.3c-3.63-3.43-9.28-3.54-12.55-.22l-60.88,61.7C169.43,652.1,169.72,657.62,173.35,661.06Z"/><path class="cls-2" d="M235.06,580.53a8.79,8.79,0,0,1,12.36-.8l4.47,3.85a8.79,8.79,0,0,1,1,12.35l-47.66,55.32a8.78,8.78,0,0,1-12.36.79l-4.47-3.84a8.8,8.8,0,0,1-1-12.35"/><rect class="cls-2" x="477.96" y="207.3" width="30.98" height="119.06" rx="12" ry="12" transform="translate(563.34 -289.78) rotate(68.76)"/><rect class="cls-2" x="115.96" y="207.3" width="30.98" height="119.06" rx="12" ry="12" transform="translate(424.55 317.55) rotate(126.05)"/><path class="cls-6" d="M147.22,212.46l14.72,8.5,60.5-104.79-14.72-8.5C175.38,180,156.18,212,147.22,212.46Z"/><path class="cls-6" d="M386,91.57,372.66,102.1l75,95L461,186.53C405.74,129.74,383.15,100.08,386,91.57Z"/><path class="cls-6" d="M127.32,140.56l-4.64.24L127,223.15l4.64-.24C126.58,169.39,125.45,144,127.32,140.56Z"/><path class="cls-6" d="M460.85,323.81l14.72,8.5,20.87-36.14-14.72-8.5C475.2,315.29,468.21,326.1,460.85,323.81Z"/><path class="cls-6" d="M126.33,351.82c4-33-11,0-11,0,8.9-49.91,5.79-49.59,0-38,0,0,22-17,11,0S122.33,384.82,126.33,351.82Z"/></svg>
