<svg id="Layer_1" data-name="Layer 1" xmlns="http://www.w3.org/2000/svg" width="180" height="180" viewBox="0 0 180 180"><defs><style>.cls-1{fill:#ff0;}.cls-2{fill:#f2e60d;}.cls-3{fill:#f74b65;}.cls-4{fill:#fcc0c8;}</style></defs><title>liv</title><polygon class="cls-1" points="140.08 166.5 90.77 141.04 42.03 167.57 50.8 112.42 10.71 73.87 65.44 65.24 89.41 14.89 114.47 64.7 169.36 72.13 130.12 111.55 140.08 166.5"/><ellipse class="cls-1" cx="90.32" cy="12.28" rx="10.19" ry="10.28"/><ellipse class="cls-1" cx="169.31" cy="72.01" rx="10.19" ry="10.28"/><ellipse class="cls-1" cx="141.92" cy="167.72" rx="10.19" ry="10.28"/><ellipse class="cls-1" cx="41.91" cy="167.72" rx="10.19" ry="10.28"/><ellipse class="cls-1" cx="10.69" cy="73.94" rx="10.19" ry="10.28"/><polygon class="cls-2" points="131.8 153.74 90.82 132.59 50.3 154.63 57.59 108.79 24.27 76.75 69.76 69.58 89.69 27.72 110.51 69.13 156.15 75.31 123.53 108.07 131.8 153.74"/><polygon class="cls-1" points="126.79 146.1 90.85 127.55 55.33 146.88 61.72 106.69 32.5 78.59 72.39 72.3 89.86 35.6 108.12 71.91 148.14 77.32 119.53 106.05 126.79 146.1"/><ellipse class="cls-3" cx="75.97" cy="85.85" rx="20.94" ry="20.85" transform="translate(-0.68 0.61) rotate(-0.46)"/><ellipse class="cls-3" cx="105.56" cy="85.85" rx="20.94" ry="20.85" transform="translate(-1.75 2.2) rotate(-1.18)"/><path class="cls-3" d="M88.46,128,61.18,99.08a1.37,1.37,0,0,1,0-1.93l27-25.3a1.38,1.38,0,0,1,1.93.06l27.28,28.92a1.36,1.36,0,0,1-.06,1.93l-27,25.3A1.37,1.37,0,0,1,88.46,128Z"/><path class="cls-4" d="M62.7,91h0c-1.15-.44-1.89-1.3-1.65-1.92-.95-7.61,1.6-12.77,6.4-16.35.24-.62,1.37-.75,2.52-.3h0c1.15.45,1.89,1.31,1.65,1.92-7.15,4.41-8.66,10.24-6.4,16.35C65,91.3,63.85,91.43,62.7,91Z"/></svg>
