<svg id="Layer_1" data-name="Layer 1" xmlns="http://www.w3.org/2000/svg" width="205" height="120" viewBox="0 0 205 120"><defs><style>.cls-1{fill:#42210b;}</style></defs><title>lyd</title><rect class="cls-1" x="1.39" y="31.03" width="64.08" height="62.62" rx="12" ry="12"/><path class="cls-1" d="M104.6.92,24,44.24a3.56,3.56,0,0,0-2,3.17c.23,10.05-.85,20.2-1.82,30.33a3.65,3.65,0,0,0,2.35,3.55l81.82,37.92c3.11,1.44,7-.33,7-3.2L111.9,4.08C111.92,1.06,107.71-.76,104.6.92Z"/><path class="cls-1" d="M138.11,35.18q29.37,29.93,0,55.25c-1.74,2.3-5,4.41-5.88,5.06h0c-10.27.62-8-4.28-5.87-5.06,23.45-17.12,21.18-35.7,0-55.25-.12-3.52,2.42-6.41,5.87-5.07h0"/><path class="cls-1" d="M161.6,25.09q29.37,40.38,0,74.54c-1.74,3.11-5,6-5.87,6.84h0c-10.27.84-8-5.78-5.88-6.84,23.46-23.08,21.19-48.15,0-74.54-.12-4.74,2.42-8.64,5.88-6.83h0"/><path class="cls-1" d="M187.75,17.55Q218.32,65,190,106.2a36.3,36.3,0,0,1-5.67,8.24h0c-10.24,1.19-8.19-6.73-6.07-8C201,78.53,198,48.75,176,17.76c-.26-5.63,2.16-10.32,5.67-8.23h0"/></svg>
