<svg id="Layer_1" data-name="Layer 1" xmlns="http://www.w3.org/2000/svg" width="630" height="695" viewBox="0 0 630 695"><defs><style>.cls-1{fill:#fbb03b;}.cls-2{fill:#39b54a;}.cls-3{fill:#ffdb9f;}.cls-4{fill:#ff0;}.cls-5{fill:#d4145a;}.cls-6{fill:#fff;}.cls-7{fill:#d6bb7a;}</style></defs><title>mexico</title><ellipse class="cls-1" cx="436.64" cy="664.97" rx="56" ry="11"/><path class="cls-1" d="M482.64,689h-92a10,10,0,0,1-10-10h0c0-15,1-15,10-10h92c4.12-10.1,10.52-8.38,10,10h0A10,10,0,0,1,482.64,689Z"/><ellipse class="cls-2" cx="433.14" cy="663.97" rx="46.5" ry="8"/><path class="cls-2" d="M472.29,356.88c53.29,132.37-28,206.57-152.17,210.92-119,4.17-174-69.57-155.37-192.85q1.35-8.86,3.19-18.07C190.9,242.68,236.07,146,320.12,146S428.78,248.83,472.29,356.88Z"/><path class="cls-3" d="M381.36,115.63c296.44,51.74,23.86,89-74.91,87.35s-401.94-93.71-74.9-87.35c58.41,1.13,48.09-72.78,74.9-87.35C477.67-64.75,344.56,109.21,381.36,115.63Z"/><path d="M463.07,398.13c22.95-4.92-51.9,22.55-95.74,4.95s-72.05-48.35-63-68.69,83.37-48.09,95.74-5C411.66,369.84,434.8,404.18,463.07,398.13Z"/><path d="M329.33,367.08c-2.32-22.94-70.07-72.58-77.83-35-21.65,104.8-84.6,18.06-69.43,48.08s37.17,38.62,77.83,35S331.65,390,329.33,367.08Z"/><path class="cls-4" d="M349.64,295.47c30.11,43.73,4.8,44.83-33,48.5-36.38,3.53-60-4.68-33-48.5,14-22.81,14.78-48.5,33-48.5S334.45,273.41,349.64,295.47Z"/><path class="cls-2" d="M416.68,550.32a12,12,0,0,0-13.34-10.49l-7.95.95a12,12,0,0,0-10.48,13.34l12,100.29a12,12,0,0,0,13.35,10.48l7.94-.95A12,12,0,0,0,428.7,650.6"/><ellipse class="cls-1" cx="210.74" cy="669.97" rx="56" ry="11" transform="matrix(1, 0, 0, 1, -0.92, 0.29)"/><path class="cls-1" d="M164.77,694l92-.12a10,10,0,0,0,10-10h0c0-15-1-15-10-10l-92,.12c-4.14-10.09-10.54-8.36-10,10h0A10,10,0,0,0,164.77,694Z"/><ellipse class="cls-2" cx="214.24" cy="668.96" rx="46.5" ry="8" transform="matrix(1, 0, 0, 1, -0.92, 0.3)"/><path class="cls-2" d="M230.54,555.29a12,12,0,0,1,13.33-10.51l7.95.94a12,12,0,0,1,10.5,13.33l-11.88,100.3a12,12,0,0,1-13.32,10.51l-8-.94a12,12,0,0,1-10.5-13.33"/><rect class="cls-2" x="473.28" y="207.45" width="30.98" height="119.06" rx="12" ry="12" transform="translate(560.5 -285.32) rotate(68.76)"/><rect class="cls-2" x="131.28" y="207.45" width="30.98" height="119.06" rx="12" ry="12" transform="translate(450.84 285.89) rotate(122.36)"/><path class="cls-5" d="M499.51,187.15c-139.1,30.44-273.29,20.1-403.07-27.34-6.59-.44-11.71-4.74-11.38-9.55h0c-2.22-26.92,4.79-25,12.56-7.93C234,193.92,368.5,206.78,500.7,169.67c12.67-23.35,16.32-13.29,11.38,9.56h0C511.75,184,506.1,187.6,499.51,187.15Z"/><ellipse cx="268.64" cy="209.47" rx="14" ry="23.5"/><ellipse class="cls-6" cx="264.64" cy="195.97" rx="4" ry="6"/><ellipse cx="358.64" cy="205.47" rx="13" ry="23.5"/><ellipse class="cls-6" cx="362.36" cy="191.97" rx="3.71" ry="6"/><circle class="cls-5" cx="149.14" cy="188.47" r="5.5"/><rect class="cls-5" x="147.64" y="173.97" width="2" height="15"/><circle class="cls-5" cx="183.14" cy="198.47" r="5.5"/><rect class="cls-5" x="181.64" y="183.97" width="2" height="15"/><circle class="cls-5" cx="90.14" cy="171.47" r="5.5"/><rect class="cls-5" x="88.64" y="156.97" width="2" height="15"/><circle class="cls-5" cx="509.14" cy="196.47" r="5.5"/><rect class="cls-5" x="507.64" y="181.97" width="2" height="15"/><circle class="cls-5" cx="117.14" cy="181.47" r="5.5"/><rect class="cls-5" x="115.64" y="166.97" width="2" height="15"/><circle class="cls-5" cx="483.14" cy="204.47" r="5.5"/><rect class="cls-5" x="481.64" y="189.97" width="2" height="15"/><circle class="cls-5" cx="454.14" cy="208.47" r="5.5"/><rect class="cls-5" x="452.64" y="193.97" width="2" height="15"/><circle class="cls-5" cx="420.14" cy="213.47" r="5.5"/><rect class="cls-5" x="418.64" y="198.97" width="2" height="15"/><ellipse class="cls-5" cx="345.35" cy="92.06" rx="6" ry="7.14" transform="translate(227.63 429.52) rotate(-85.69)"/><ellipse class="cls-5" cx="366.51" cy="91.57" rx="6" ry="7.14" transform="translate(247.68 450.18) rotate(-85.69)"/><ellipse class="cls-5" cx="318.38" cy="89.63" rx="6" ry="7.14" transform="translate(205.1 400.38) rotate(-85.69)"/><ellipse class="cls-5" cx="288.87" cy="85.5" rx="6" ry="7.14" transform="translate(181.92 367.14) rotate(-85.69)"/><path class="cls-4" d="M272.68,93.65s-28.55,20.78-19.3,21.55,28.1,6,28.1,6Z"/><polygon class="cls-5" points="282.03 120.8 301.74 98.71 270.8 93.4 282.03 120.8"/><polygon class="cls-4" points="301.7 97.41 282.22 121.28 312.11 126.41 301.7 97.41"/><polygon class="cls-4" points="333.75 103.07 312.22 127.28 346 133.07 333.75 103.07"/><path class="cls-4" d="M367.66,103.75l-21,30.22s59.06-5.89,49.53-7S368.89,105.15,367.66,103.75Z"/><polygon class="cls-5" points="312.99 126.03 332.74 103.71 301.8 98.4 312.99 126.03"/><polygon class="cls-5" points="346.95 133.91 364.85 105.55 331.18 104.31 346.95 133.91"/><path class="cls-5" d="M372.5,131.33c.87-9.41,1.43-19.18,3.28-28.41-15.77,1.41-18.77,3-19,4.51Z"/><path class="cls-7" d="M507.64,159c-124.87,10.37-244.65,11.19-358,0v1c114.61,6.92,234.29,6.41,358,0Z"/><path class="cls-7" d="M496.64,146c-135,10.37-264.46,11.19-387,0v1c123.9,6.92,253.27,6.41,387,0Z"/><path class="cls-7" d="M467.64,136c-130.8,10.37-256.26,11.19-375,0v1c120.06,6.92,245.42,6.41,375,0Z"/><path class="cls-7" d="M450.64,130c-124.87,10.37-244.65,11.19-358,0v1c114.61,6.92,234.29,6.41,358,0Z"/><path class="cls-7" d="M500.64,170c-110.57,10.37-216.63,11.19-317,0v1c101.49,6.92,207.46,6.41,317,0Z"/><path class="cls-7" d="M101.58,125.27c67.06-10.65,131.32-11.16,192.06,1.11v-1.06c-61.45-7.73-125.66-7.55-192.06-1.11Z"/></svg>
