<svg id="Layer_1" data-name="Layer 1" xmlns="http://www.w3.org/2000/svg" width="135" height="135" viewBox="0 0 135 135"><defs><style>.cls-1{fill:#f7ef34;}.cls-2{fill:#d6a908;}.cls-3{fill:#ffca0a;}.cls-4{fill:#f29a02;}</style></defs><title>point</title><ellipse class="cls-1" cx="68.5" cy="66.4" rx="66" ry="64.5"/><ellipse class="cls-2" cx="68.39" cy="66.4" rx="55.64" ry="54.46"/><ellipse class="cls-3" cx="69.92" cy="67.89" rx="54.11" ry="52.97"/><path class="cls-4" d="M65.15,89V67.19Q48.58,61.57,48.58,44q0-9,4.66-14.6a17.58,17.58,0,0,1,11.91-6.47V17.76h6.29v5.16a18,18,0,0,1,11,5.56q4.2,4.56,5.32,12.59l-11,1.72q-1-6.21-5.27-8.34V54.84q10.17,3.28,13.79,8.08,4.32,5.73,4.32,14.55,0,9.8-4.9,16.11a20.41,20.41,0,0,1-13.21,7.71v9.76H65.15v-9.49Q49.43,99.31,46.83,78.93l11.4-1.46a19.55,19.55,0,0,0,2.6,7.17A12.56,12.56,0,0,0,65.15,89Zm0-54.75a8.74,8.74,0,0,0-4.05,3.44,9.78,9.78,0,0,0-1.6,5.43,9.67,9.67,0,0,0,5.65,9.17Zm6.29,55.48a8.7,8.7,0,0,0,5.3-3.52,11.2,11.2,0,0,0,2.1-6.85q0-7.41-7.4-10Z"/></svg>
