<svg id="Layer_1" data-name="Layer 1" xmlns="http://www.w3.org/2000/svg" width="310" height="283" viewBox="0 0 310 283"><defs><style>.cls-1{opacity:0.38;}.cls-2{fill:#fff;}.cls-3{fill:#1a1a1a;}</style></defs><title>replay</title><g class="cls-1"><path class="cls-2" d="M268.17,59.69C201.85-34.1,114.82-16.8,5.12,107.62c-3.93,4.46-4.84,10.38-1.84,15q3.15,4.8,6.37,9.56C13.84,138.35,23,139,29.47,134c69.93-80.58,161-158,242.29-35.69,21.86,32.89,30,17,19.72-9.87-.42-1.11.18-2.41,0-3.62L289,70.5c-1.13-6.65-8-10.94-15.75-10.2C271.51,60.46,269.21,61.16,268.17,59.69Z"/><path class="cls-2" d="M278.18,53.82,236.72,80.55a11,11,0,0,0,.41,18.71l44.55,26.06a11,11,0,0,0,16.51-10.12l-3.1-52.8A11,11,0,0,0,278.18,53.82Z"/><path class="cls-2" d="M52,225.75c68.6,91.91,152.35,72.61,253.33-54,3.62-4.53,4.24-10.46,1.12-14.95q-3.27-4.71-6.61-9.38c-4.34-6.09-13.3-6.48-19.33-1.39-64.32,82-149.3,161.24-233.72,41.29-22.7-32.27-29.91-16.27-18.72,10.29.47,1.1-.06,2.41.2,3.61l3,14.21c1.4,6.61,8.25,10.71,15.76,9.8C48.76,225.06,51,224.31,52,225.75Z"/><path class="cls-2" d="M38.47,233l43.06-27.77a11,11,0,0,0-.72-18.88L33.23,160.58a11,11,0,0,0-16.17,10.58l4.52,53.55A11,11,0,0,0,38.47,233Z"/></g><path class="cls-3" d="M265.67,66.5C201.82-19.14,118-3.34,12.42,110.27c-3.79,4.07-4.66,9.48-1.77,13.66,2,2.92,4.06,5.84,6.13,8.73,4,5.67,12.89,6.23,19.08,1.7,67.32-73.58,155-144.27,233.26-32.6,21.06,30,28.91,15.55,19-9-.41-1,.16-2.2,0-3.3l-2.34-13.07c-1.09-6.08-7.69-10-15.17-9.32C268.89,67.21,266.67,67.85,265.67,66.5Z"/><path class="cls-3" d="M275,61.35,237,84.56a11,11,0,0,0,.4,19l40.8,22.63a11,11,0,0,0,16.28-10.27L291.66,70A11,11,0,0,0,275,61.35Z"/><path class="cls-3" d="M57.59,218.14c66,83.91,146.67,66.3,243.9-49.27,3.48-4.15,4.08-9.56,1.08-13.66q-3.17-4.31-6.37-8.56c-4.18-5.56-12.81-5.92-18.61-1.27-61.92,74.83-143.74,147.23-225,37.7-21.86-29.47-28.8-14.86-18,9.4.44,1-.06,2.2.18,3.29l2.9,13c1.34,6,7.94,9.78,15.17,8.94C54.43,217.5,56.55,216.82,57.59,218.14Z"/><path class="cls-3" d="M44.84,224.57l39.47-24.14a11,11,0,0,0-.71-19.13L40,158.89a11,11,0,0,0-16,10.74l4.15,46.55A11,11,0,0,0,44.84,224.57Z"/></svg>
