<svg id="Layer_1" data-name="Layer 1" xmlns="http://www.w3.org/2000/svg" width="895" height="650" viewBox="0 0 895 650"><defs><style>.cls-1{fill:#9f5c3f;}.cls-2{fill:#b57641;}.cls-3{fill:#452f3c;}</style></defs><title>settingsmenu</title><rect class="cls-1" x="87.77" y="99.52" width="734.04" height="460.57" rx="12" ry="12"/><rect class="cls-2" x="113.54" y="124.91" width="680.16" height="407.46" rx="12" ry="12"/><rect class="cls-3" x="80.24" y="1.09" width="73.49" height="326.86" rx="17.26" ry="17.26"/><rect class="cls-3" x="153.73" y="120.28" width="62.54" height="44.24"/><rect class="cls-3" x="205.33" y="4.21" width="48.47" height="163.43" rx="11.39" ry="11.39"/><rect class="cls-3" x="0.5" y="120.28" width="46.91" height="94.73" rx="11.02" ry="11.02"/><rect class="cls-3" x="33.34" y="167.64" width="59.42" height="47.36"/><rect class="cls-3" x="671" y="417.93" width="41.08" height="117.21" rx="9.65" ry="9.65"/><rect class="cls-3" x="704.83" y="498.9" width="72.49" height="33.07"/><rect class="cls-3" x="768.86" y="415.55" width="47.12" height="233.36" rx="11.07" ry="11.07"/><rect class="cls-3" x="815.97" y="503.39" width="56.78" height="22.49"/><rect class="cls-3" x="863.09" y="439.63" width="31.41" height="86.25" rx="7.38" ry="7.38"/></svg>
