<svg id="Layer_1" data-name="Layer 1" xmlns="http://www.w3.org/2000/svg" width="160" height="145" viewBox="0 0 160 145"><defs><style>.cls-1{opacity:0.38;}.cls-2{fill:#864b3f;}</style></defs><title>settings</title><g class="cls-1"><path d="M95.86,18.52c-32-7.57-64.65,9.86-73,38.94s10.85,58.78,42.83,66.34,64.64-9.86,73-38.94S127.83,26.09,95.86,18.52Zm-24.18,83C53.41,97.18,42.45,80.21,47.21,63.6S70.63,37,88.9,41.34s29.23,21.3,24.48,37.92S90,105.83,71.68,101.51Z"/><path d="M92.81,26.21h0c-7.14-1.69-11.47-8.39-9.61-14.89h0C85.06,4.82,92.43.88,99.58,2.57h0c7.15,1.7,11.48,8.4,9.62,14.9h0C107.33,24,100,27.9,92.81,26.21Z"/><path d="M144.17,51.49h0c-6.37,3.4-14.64,1.45-18.38-4.35h0c-3.74-5.79-1.58-13.31,4.79-16.71h0C137,27,145.22,29,149,34.78h0C152.7,40.57,150.54,48.09,144.17,51.49Z"/><path d="M141.21,98.08h0c-7.15-1.69-11.47-8.39-9.61-14.89h0c1.86-6.5,9.23-10.44,16.38-8.75h0c7.14,1.7,11.47,8.4,9.61,14.9h0C155.73,95.84,148.36,99.77,141.21,98.08Z"/><path d="M101.79,127.69h0c-3.08-6.1-.09-13.39,6.62-16.18h0c6.72-2.8,14.73-.09,17.8,6h0c3.08,6.11.1,13.39-6.62,16.19h0C112.87,136.51,104.86,133.8,101.79,127.69Z"/><path d="M50.77,127.53h0c1.86-6.5,9.23-10.43,16.38-8.74h0c7.15,1.69,11.48,8.39,9.62,14.89h0c-1.86,6.5-9.23,10.44-16.38,8.75h0C53.24,140.73,48.91,134,50.77,127.53Z"/><path d="M12.62,107.54h0C8.88,101.75,11,94.23,17.4,90.83h0c6.37-3.4,14.64-1.44,18.38,4.35h0c3.74,5.79,1.59,13.31-4.78,16.71h0C24.63,115.29,16.36,113.33,12.62,107.54Z"/><path d="M12,67.51h0c-7.14-1.7-11.47-8.4-9.61-14.9h0c1.86-6.5,9.23-10.43,16.38-8.74h0c7.15,1.69,11.47,8.39,9.61,14.89h0C26.54,65.26,19.17,69.2,12,67.51Z"/><path d="M33.79,24.42h0c-3.08-6.11-.1-13.39,6.62-16.19h0c6.72-2.79,14.73-.08,17.8,6h0c3.08,6.1.09,13.39-6.62,16.18h0C44.87,33.24,36.86,30.52,33.79,24.42Z"/></g><path class="cls-2" d="M93.44,22.38c-28.38-7-57.37,9.12-64.75,36s9.63,54.35,38,61.34,57.37-9.12,64.76-36S121.82,29.38,93.44,22.38ZM72,99.11c-16.21-4-25.94-19.69-21.72-35s20.79-24.57,37-20.57S113.21,63.18,109,78.54,88.2,103.11,72,99.11Z"/><path class="cls-2" d="M90.74,29.49h0a11.28,11.28,0,0,1-8.53-13.77h0c1.65-6,8.19-9.64,14.53-8.08h0a11.28,11.28,0,0,1,8.54,13.77h0C103.62,27.42,97.08,31.06,90.74,29.49Z"/><path class="cls-2" d="M136.32,52.87h0a12.35,12.35,0,0,1-16.32-4h0a11,11,0,0,1,4.25-15.45h0a12.32,12.32,0,0,1,16.31,4h0A11,11,0,0,1,136.32,52.87Z"/><path class="cls-2" d="M133.69,95.94h0a11.28,11.28,0,0,1-8.54-13.77h0c1.66-6,8.2-9.65,14.54-8.08h0a11.27,11.27,0,0,1,8.53,13.77h0C146.57,93.87,140,97.5,133.69,95.94Z"/><path class="cls-2" d="M98.7,123.32h0a11.08,11.08,0,0,1,5.88-15h0a12.23,12.23,0,0,1,15.8,5.57h0a11.08,11.08,0,0,1-5.88,15h0A12.24,12.24,0,0,1,98.7,123.32Z"/><path class="cls-2" d="M53.43,123.17h0c1.65-6,8.19-9.64,14.54-8.08h0a11.28,11.28,0,0,1,8.53,13.77h0c-1.65,6-8.19,9.65-14.54,8.08h0A11.28,11.28,0,0,1,53.43,123.17Z"/><path class="cls-2" d="M19.57,104.69h0a11,11,0,0,1,4.24-15.45h0a12.33,12.33,0,0,1,16.32,4h0a11,11,0,0,1-4.25,15.45h0A12.34,12.34,0,0,1,19.57,104.69Z"/><path class="cls-2" d="M19,67.67h0A11.28,11.28,0,0,1,10.51,53.9h0c1.65-6,8.19-9.64,14.54-8.08h0a11.28,11.28,0,0,1,8.53,13.77h0C31.93,65.6,25.39,69.24,19,67.67Z"/><path class="cls-2" d="M38.35,27.84h0a11.09,11.09,0,0,1,5.88-15h0A12.24,12.24,0,0,1,60,18.44h0a11.09,11.09,0,0,1-5.88,15h0A12.25,12.25,0,0,1,38.35,27.84Z"/></svg>
