<svg id="Layer_1" data-name="Layer 1" xmlns="http://www.w3.org/2000/svg" width="495" height="585" viewBox="0 0 495 585"><defs><style>.cls-1{fill:#7f435d;}.cls-2{fill:#29abe2;}.cls-3{fill:#a67c52;}.cls-4{fill:#8c6239;}.cls-5{fill:#999;}.cls-6{fill:#ff0;}.cls-7{fill:#b57641;}.cls-8{opacity:0.5;}.cls-9{fill:#a26341;}.cls-10{fill:#414544;}</style></defs><title>skilt2</title><path class="cls-1" d="M116.21,233.23c.77.48,1.53,1,2.27,1.5q3.85.69,7.71,1.42c-.16-.72-.33-1.44-.52-2.15Q120.95,233.43,116.21,233.23Z"/><path class="cls-1" d="M109.21,206.53a73,73,0,0,0-19.4-13.46c9.65,10,19.15,20.21,22.8,33a41.06,41.06,0,0,1,1.07,5.74c.87.46,1.71,1,2.53,1.47q4.74.2,9.46.77A60,60,0,0,0,109.21,206.53Z"/><path class="cls-1" d="M113.82,233.17a1.64,1.64,0,0,0,0,.22l1.35.78,3.29.56c-.74-.52-1.5-1-2.27-1.5Z"/><path class="cls-1" d="M113.82,233.17l2.39.06c-.82-.51-1.66-1-2.53-1.47C113.74,232.23,113.78,232.7,113.82,233.17Z"/><path class="cls-1" d="M116.22,233.23c.77.48,1.53,1,2.27,1.5q4.38.78,8.75,1.62c.46-.65.91-1.31,1.34-2C124.46,233.8,120.34,233.4,116.22,233.23Z"/><path class="cls-1" d="M137,209.91a52.47,52.47,0,0,0-2.62-21C132.83,201.6,131.11,214.25,123,225a46.24,46.24,0,0,1-7.7,7.68l.89.54c4.12.17,8.24.57,12.36,1.15A52.12,52.12,0,0,0,137,209.91Z"/><path class="cls-1" d="M114.69,233.19l1.53,0-.89-.54Z"/><path class="cls-1" d="M114.69,233.19l-.51.39,1,.59,3.3.56c-.74-.52-1.5-1-2.27-1.5Z"/><path class="cls-1" d="M116.34,233.24l-.06,0c.75.47,1.49,1,2.21,1.46,9.08,1.61,18.07,3.48,27.06,5.1q2.35-.72,4.72-1.38C139,236,127.67,233.7,116.34,233.24Z"/><path class="cls-1" d="M150.27,238.45a182.13,182.13,0,0,1,40.07-6.62c-16-7.5-36.21-9.82-56-5.09a83,83,0,0,0-18,6.5C127.67,233.7,139,236,150.27,238.45Z"/><path class="cls-1" d="M114.88,234l.32.19,3.29.56c-.72-.5-1.46-1-2.21-1.46Z"/><path class="cls-1" d="M155.66,201.79c-9.75,11.9-19.7,23.7-34.85,30.69-.71.31-1.42.6-2.14.88a143.45,143.45,0,0,1,15.23,1.84,71.57,71.57,0,0,0,10.8-11.33A63.69,63.69,0,0,0,155.66,201.79Z"/><path class="cls-1" d="M118.67,233.36l-1.4.54,1.23.83c4.34.77,8.66,1.6,13,2.43.82-.64,1.64-1.29,2.43-2A143.45,143.45,0,0,0,118.67,233.36Z"/><path class="cls-1" d="M116.09,234.32l2.41.41-1.23-.83Z"/><path class="cls-1" d="M116.23,233.23c.77.48,1.52,1,2.26,1.5q2.55.45,5.08.93c-.37-.68-.75-1.34-1.14-2C120.36,233.46,118.3,233.32,116.23,233.23Z"/><path class="cls-1" d="M100.72,211.69A78.27,78.27,0,0,0,78.53,202c11.59,7.9,23.08,15.95,29.9,27.36a42.53,42.53,0,0,1,7.8,3.84c2.07.09,4.13.23,6.2.42A66.81,66.81,0,0,0,100.72,211.69Z"/><path class="cls-1" d="M113.43,233.16c.59.33,1.17.67,1.75,1l3.31.56c-.74-.51-1.49-1-2.26-1.5C115.3,233.2,114.37,233.17,113.43,233.16Z"/><path class="cls-1" d="M108.93,230.23l.38.73c1.39.71,2.76,1.45,4.12,2.2.94,0,1.87,0,2.8.07a42.53,42.53,0,0,0-7.8-3.84C108.6,229.67,108.77,230,108.93,230.23Z"/><path class="cls-1" d="M118.48,233.34l-.18,1.25.2.14c4.23.75,8.44,1.56,12.64,2.37,0-.79-.09-1.58-.16-2.37C126.82,234.09,122.65,233.6,118.48,233.34Z"/><path class="cls-1" d="M100.88,185c8.28,12.46,16.39,25,17.84,39.23a44.16,44.16,0,0,1-.24,9.14c4.17.26,8.34.75,12.5,1.39a64.57,64.57,0,0,0-12.15-31.85A78.23,78.23,0,0,0,100.88,185Z"/><path class="cls-1" d="M118.28,234.7l.22,0-.2-.14A.36.36,0,0,0,118.28,234.7Z"/><path class="cls-1" d="M116.21,233.23c.77.48,1.53,1,2.27,1.5,5.34.94,10.65,2,16,3,1.26-.55,2.51-1.14,3.74-1.76A150.79,150.79,0,0,0,116.21,233.23Z"/><path class="cls-1" d="M153.45,225.24a56.52,56.52,0,0,0,12.72-17.57c-10.21,9-20.59,17.88-34.81,22a61.86,61.86,0,0,1-17.82,2c.91.49,1.8,1,2.67,1.55a150.79,150.79,0,0,1,22,2.74A65.7,65.7,0,0,0,153.45,225.24Z"/><path class="cls-1" d="M113.42,233.16l1.75,1,3.31.57c-.74-.52-1.5-1-2.27-1.5C115.28,233.2,114.35,233.17,113.42,233.16Z"/><path class="cls-1" d="M110.37,231.51c1,.54,2,1.09,3,1.65.93,0,1.86,0,2.79.07-.87-.54-1.76-1.06-2.67-1.55C112.48,231.65,111.43,231.6,110.37,231.51Z"/><path class="cls-1" d="M415.47,161.2c.72.31,1.43.64,2.14,1,2.29.08,4.57.19,6.86.3-.23-.58-.46-1.16-.71-1.74C421,160.8,418.22,160.94,415.47,161.2Z"/><path class="cls-1" d="M406.25,139.66a64.71,64.71,0,0,0-18.42-9c9.55,7.3,19,14.72,23.67,24.95a35.91,35.91,0,0,1,1.6,4.68c.8.29,1.59.61,2.37.95,2.75-.26,5.51-.4,8.29-.45A50.82,50.82,0,0,0,406.25,139.66Z"/><path class="cls-1" d="M413.38,161.42c0,.06,0,.12,0,.18l1.27.49,2.92.1c-.71-.35-1.42-.68-2.14-1C414.77,161.26,414.07,161.34,413.38,161.42Z"/><path class="cls-1" d="M413.38,161.42c.69-.08,1.39-.16,2.09-.22-.78-.34-1.57-.66-2.37-.95C413.2,160.64,413.29,161,413.38,161.42Z"/><path class="cls-1" d="M415.47,161.2c.73.31,1.44.64,2.15,1q3.9.15,7.78.35c.32-.6.64-1.2.94-1.81C422.7,160.73,419.07,160.86,415.47,161.2Z"/><path class="cls-1" d="M430.74,139.3A42.87,42.87,0,0,0,426,122.05c.18,10.77.18,21.56-5.57,31.49a39.82,39.82,0,0,1-5.78,7.3l.83.36c3.6-.34,7.23-.47,10.87-.47A42.85,42.85,0,0,0,430.74,139.3Z"/><path class="cls-1" d="M414.14,161.33l1.33-.13-.83-.36C414.48,161,414.31,161.17,414.14,161.33Z"/><path class="cls-1" d="M414.14,161.33l-.4.39.95.37,2.93.1c-.71-.35-1.42-.68-2.15-1Z"/><path class="cls-1" d="M415.58,161.19l-.05,0c.71.3,1.4.63,2.09,1,8.07.3,16.09.84,24.09,1.16,1.3-.58,2.61-1.15,3.92-1.7C435.54,160.92,425.47,160.27,415.58,161.19Z"/><path class="cls-1" d="M445.63,161.65a165,165,0,0,1,34-10.14c-14.79-4.43-32.58-4-49.21,2.17a74.2,74.2,0,0,0-14.84,7.51C425.47,160.27,435.54,160.92,445.63,161.65Z"/><path class="cls-1" d="M414.39,162l.31.12,2.92.1c-.69-.34-1.38-.67-2.09-1Z"/><path class="cls-1" d="M446,130.36c-7.07,11.08-14.32,22.1-26.64,29.68-.58.34-1.16.66-1.75,1a133.46,133.46,0,0,1,13.43-.21,60.52,60.52,0,0,0,8-10.72A52.76,52.76,0,0,0,446,130.36Z"/><path class="cls-1" d="M417.62,161l-1.16.61,1.17.56c3.85.14,7.7.34,11.54.54.64-.63,1.27-1.26,1.88-1.92A133.46,133.46,0,0,0,417.62,161Z"/><path class="cls-1" d="M415.49,162.12l2.14.07-1.17-.56Z"/><path class="cls-1" d="M415.48,161.2c.73.31,1.44.64,2.14,1l4.52.19c-.4-.52-.81-1-1.23-1.54C419.1,160.91,417.28,161,415.48,161.2Z"/><path class="cls-1" d="M399.48,145a70.59,70.59,0,0,0-20.39-5.54c11,5.29,21.91,10.7,29.17,19.46a38.59,38.59,0,0,1,7.22,2.33c1.8-.17,3.62-.29,5.43-.36A58,58,0,0,0,399.48,145Z"/><path class="cls-1" d="M413.05,161.46c.55.2,1.09.42,1.63.63l2.94.1c-.7-.35-1.41-.68-2.14-1C414.67,161.27,413.86,161.36,413.05,161.46Z"/><path class="cls-1" d="M408.79,159.52l.42.57c1.29.43,2.57.89,3.84,1.37.81-.1,1.62-.19,2.43-.26a38.59,38.59,0,0,0-7.22-2.33C408.44,159.09,408.62,159.3,408.79,159.52Z"/><path class="cls-1" d="M417.45,161c0,.35,0,.71,0,1.06l.19.1c3.76.14,7.51.33,11.25.53-.13-.66-.27-1.31-.42-2C424.77,160.7,421.1,160.76,417.45,161Z"/><path class="cls-1" d="M396.48,122.57c8.66,9.48,17.17,19.07,20.1,30.78a36,36,0,0,1,.87,7.68c3.65-.27,7.32-.33,11-.28a53.9,53.9,0,0,0-14.3-25.25A68,68,0,0,0,396.48,122.57Z"/><path class="cls-1" d="M417.43,162.18h.2l-.19-.1A.28.28,0,0,0,417.43,162.18Z"/><path class="cls-1" d="M415.47,161.2c.72.31,1.44.64,2.14,1,4.75.18,9.48.43,14.2.68,1-.61,2-1.24,3-1.9A136,136,0,0,0,415.47,161.2Z"/><path class="cls-1" d="M446.84,150.24a47.41,47.41,0,0,0,9-16.17c-7.81,8.7-15.77,17.32-27.63,22.39A56,56,0,0,1,413,160.2c.85.31,1.69.64,2.51,1a136,136,0,0,1,19.37-.23A57.09,57.09,0,0,0,446.84,150.24Z"/><path class="cls-1" d="M413,161.46c.55.2,1.09.42,1.63.63l2.94.1c-.7-.35-1.42-.68-2.14-1C414.66,161.27,413.85,161.36,413,161.46Z"/><path class="cls-1" d="M410.2,160.43c.95.33,1.9.67,2.84,1,.81-.1,1.62-.19,2.43-.26-.82-.36-1.66-.69-2.51-1C412,160.3,411.12,160.38,410.2,160.43Z"/><rect class="cls-1" x="219.5" y="96.78" width="16.36" height="50.23" rx="8.18" ry="8.18"/><rect class="cls-1" x="232.97" y="131.47" width="28.86" height="14.17"/><rect class="cls-1" x="258.46" y="95.76" width="18.76" height="100" rx="9.38" ry="9.38"/><rect class="cls-1" x="277.23" y="133.4" width="22.61" height="9.64"/><rect class="cls-1" x="295.99" y="106.08" width="12.51" height="36.96" rx="6.25" ry="6.25"/><path class="cls-2" d="M142.26,278.94a12,12,0,0,1-10-13.67l1.21-7.91a12,12,0,0,1,13.67-10.05l99.84,15.23A12,12,0,0,1,257,276.22l-1.21,7.9a12,12,0,0,1-13.67,10.06"/><path class="cls-3" d="M259.39,257l-.81,40.21A12,12,0,0,1,246.34,309l-58-1.17a12,12,0,0,1-11.76-12.24q23.74-19.64.81-40.21a12,12,0,0,1,12.24-11.75l58,1.16A12,12,0,0,1,259.39,257Z"/><rect class="cls-4" x="199.55" y="284.76" width="99" height="19.16" rx="9.58" ry="9.58" transform="translate(-50.24 537.42) rotate(-88.85)"/><rect class="cls-5" x="230.78" y="234.61" width="15" height="5" transform="translate(-3.58 470.58) rotate(-88.85)"/><polygon class="cls-5" points="249.83 225.93 244.06 230.4 245.45 237.57 238.29 233.6 231.15 236.28 232.5 229.37 226.69 223.86 234.69 223.55 238.24 217.46 241.84 224.19 249.83 225.93"/><path class="cls-2" d="M144.52,117.66a12,12,0,0,0-10.76,13.13l.8,8a12,12,0,0,0,13.12,10.76l100.51-10a12,12,0,0,0,10.75-13.13l-.79-8A12,12,0,0,0,245,107.67"/><path class="cls-3" d="M260.34,145.65l1.29-40.19A12,12,0,0,0,250,93.08l-58-1.87a12,12,0,0,0-12.38,11.61q22.68,20.85-1.29,40.2A12,12,0,0,0,190,155.4l58,1.86A12,12,0,0,0,260.34,145.65Z"/><rect class="cls-4" x="202.47" y="98.29" width="99" height="19.16" rx="9.58" ry="9.58" transform="translate(367.89 -140.5) rotate(91.84)"/><rect class="cls-5" x="230.72" y="161.95" width="15" height="5" transform="translate(410.25 -68.35) rotate(91.84)"/><polygon class="cls-5" points="249.17 176.22 243.64 171.46 245.4 164.38 238.04 167.96 231.05 164.91 232.03 171.89 225.95 177.08 233.92 177.81 237.15 184.08 241.09 177.55 249.17 176.22"/><ellipse class="cls-6" cx="190.2" cy="299.25" rx="5.41" ry="4.44" transform="translate(-112.83 483.39) rotate(-88.85)"/><ellipse class="cls-6" cx="187.9" cy="253.01" rx="5.41" ry="4.44" transform="translate(-68.84 435.77) rotate(-88.85)"/><ellipse class="cls-6" cx="199.38" cy="284.69" rx="5.41" ry="4.44" transform="translate(-89.27 478.3) rotate(-88.85)"/><ellipse class="cls-6" cx="199.77" cy="265.04" rx="5.41" ry="4.44" transform="translate(-69.24 459.44) rotate(-88.85)"/><ellipse class="cls-6" cx="191.26" cy="147.24" rx="5.41" ry="4.44" transform="translate(40.19 335.5) rotate(-88.85)"/><ellipse class="cls-6" cx="188.96" cy="101" rx="5.41" ry="4.44" transform="translate(84.17 287.88) rotate(-88.85)"/><ellipse class="cls-6" cx="200.44" cy="132.68" rx="5.41" ry="4.44" transform="translate(63.74 330.41) rotate(-88.85)"/><ellipse class="cls-6" cx="200.83" cy="113.03" rx="5.41" ry="4.44" transform="translate(83.78 311.55) rotate(-88.85)"/><rect class="cls-7" x="203.41" y="1.25" width="56.86" height="582.51"/><g class="cls-8"><path d="M493.5,159.58V122.49c-4.66,1.51-9.41,2.75-13.9,4.71a66.34,66.34,0,0,1-6.13,3.34,37,37,0,0,1,6.13-3.34c4.54-2.74,9-5.78,13.9-8.07V105.24c-14.94,5.82-28.41,14.46-43.82,15.67,13.87-8.89,28.8-14.26,43.82-20.45V75.51H1.5V99.09c19.43,1.33,37.88,10,56.34,16.32-18.63-1.28-39.42,1-56.34-8.63v27.44c11.66-6.18,25.56-5.76,37.56-10.55-12.52,5.73-25,9.56-37.56,13.86V238.71c9,1.63,18.76.87,27.54,3.28-9.54,0-18.35,2.39-27.54,2.92V296c5.42-.28,10.85-1.71,16.27-1.71C14.25,302,8.24,305.67,1.5,307.64v14.5c22.53-3.57,45.07-11.36,67.6-11.36C47,318.9,23.93,322.13,1.5,326.24v38.2h492V323.75c-24.91,2.86-50.83-1.37-75.11-4.71,25-2.29,50.07-2,75.11-1.68V167.66a88.91,88.91,0,0,1-15-1.34C483.67,163.46,488.26,160.61,493.5,159.58Z"/><ellipse cx="50.95" cy="213.78" rx="16.9" ry="18.57"/><ellipse cx="410.25" cy="213.78" rx="16.9" ry="18.57"/><polygon points="173.01 289.5 335.39 213.47 173.01 137.43 173.01 289.5"/></g><path class="cls-9" d="M240.54,583.75H222c19.45-156.33,14.62-359.9,0-582.5h18.57C249,209.41,250.64,406.28,240.54,583.75Z"/><path class="cls-7" d="M485.38,161.18V125.44A139.57,139.57,0,0,0,471.94,130,66.86,66.86,0,0,1,466,133.2a34.89,34.89,0,0,1,5.93-3.23c4.38-2.63,8.67-5.57,13.44-7.78V108.81c-14.45,5.6-27.48,13.94-42.37,15.1,13.41-8.57,27.85-13.75,42.37-19.71v-24H9.62v22.73c18.79,1.28,36.64,9.62,54.48,15.73-18-1.23-38.12,1-54.48-8.32v26.45c11.28-6,24.72-5.55,36.32-10.17-12.11,5.52-24.21,9.21-36.32,13.36v97.52c8.72,1.57,18.14.84,26.64,3.16-9.23,0-17.75,2.31-26.64,2.82v49.22c5.25-.26,10.49-1.64,15.74-1.64-3.41,7.47-9.22,11-15.74,12.88v14C31.41,314.43,53.2,306.92,75,306.92c-21.41,7.82-43.68,10.94-65.37,14.9v36.82H485.38V319.42c-24.09,2.75-49.15-1.33-72.64-4.54,24.21-2.21,48.43-1.89,72.64-1.62V169a86,86,0,0,1-14.53-1.29C475.87,164.93,480.31,162.18,485.38,161.18Z"/><ellipse class="cls-10" cx="57.44" cy="213.43" rx="16.34" ry="17.9"/><ellipse class="cls-10" cx="404.87" cy="213.43" rx="16.34" ry="17.9"/></svg>
