<svg id="Layer_1" data-name="Layer 1" xmlns="http://www.w3.org/2000/svg" width="535" height="768" viewBox="0 0 535 768"><defs><style>.cls-1{fill:#c4bca9;}.cls-2{fill:#b5bca9;}.cls-3{fill:#414544;}.cls-4{fill:#b57641;}.cls-5{opacity:0.5;}.cls-6{fill:#a26341;}.cls-7{opacity:0.35;}</style></defs><title>skilt</title><path class="cls-1" d="M155.52,506.11A17.2,17.2,0,1,0,173,523.31,17.33,17.33,0,0,0,155.52,506.11Zm.24,31.65a14.22,14.22,0,1,1,14.43-14.22A14.33,14.33,0,0,1,155.76,537.76Z"/><path class="cls-1" d="M161.41,442.26H148.47a5.9,5.9,0,0,0-5.75,6v19a5.9,5.9,0,0,0,5.75,6h12.94a5.9,5.9,0,0,0,5.76-6v-19A5.9,5.9,0,0,0,161.41,442.26Zm4.8,24a5.9,5.9,0,0,1-5.76,6h-11a5.9,5.9,0,0,1-5.75-6V449.77a5.9,5.9,0,0,1,5.75-6h11a5.9,5.9,0,0,1,5.76,6Z"/><path class="cls-1" d="M155.52,402.88a8.93,8.93,0,0,0-9.14,8.66V439.9a9.16,9.16,0,0,0,18.29,0V411.54A8.94,8.94,0,0,0,155.52,402.88ZM163,440.29a6.1,6.1,0,0,1-6.24,5.91h-2.49a6.1,6.1,0,0,1-6.24-5.91V411.15a6.1,6.1,0,0,1,6.24-5.91h2.49a6.1,6.1,0,0,1,6.24,5.91Z"/><path class="cls-1" d="M154.36,464.94a9,9,0,0,0-9.15,8.67V502a9.16,9.16,0,0,0,18.3,0V473.61A9,9,0,0,0,154.36,464.94Zm7.48,37.42a6.09,6.09,0,0,1-6.23,5.91h-2.5a6.09,6.09,0,0,1-6.23-5.91V473.21a6.09,6.09,0,0,1,6.23-5.9h2.5a6.09,6.09,0,0,1,6.23,5.9Z"/><path class="cls-2" d="M162.58,443.36h-13a5.91,5.91,0,0,0-5.75,6v19a5.91,5.91,0,0,0,5.75,6h13a5.91,5.91,0,0,0,5.75-6v-19A5.91,5.91,0,0,0,162.58,443.36Zm4.79,24a5.91,5.91,0,0,1-5.75,6h-11a5.91,5.91,0,0,1-5.75-6V450.87a5.91,5.91,0,0,1,5.75-6h11a5.91,5.91,0,0,1,5.75,6Z"/><path class="cls-2" d="M156.69,404a8.94,8.94,0,0,0-9.15,8.66V441a9.16,9.16,0,0,0,18.29,0V412.64A8.94,8.94,0,0,0,156.69,404Zm7.48,37.41a6.09,6.09,0,0,1-6.23,5.91h-2.5a6.1,6.1,0,0,1-6.24-5.91V412.25a6.1,6.1,0,0,1,6.24-5.91h2.5a6.09,6.09,0,0,1,6.23,5.91Z"/><path class="cls-2" d="M155.52,466.05a8.94,8.94,0,0,0-9.14,8.66v28.36a9.16,9.16,0,0,0,18.29,0V474.71A8.94,8.94,0,0,0,155.52,466.05ZM163,503.46a6.1,6.1,0,0,1-6.24,5.91h-2.49a6.1,6.1,0,0,1-6.24-5.91V474.32a6.1,6.1,0,0,1,6.24-5.91h2.49a6.1,6.1,0,0,1,6.24,5.91Z"/><ellipse class="cls-3" cx="55.87" cy="236.75" rx="17.61" ry="23.6"/><ellipse class="cls-3" cx="160.42" cy="593.18" rx="16.4" ry="17.01"/><rect class="cls-4" x="230.67" width="61.26" height="768"/><g class="cls-5"><path d="M532.54,168V119.09c-5,2-10.14,3.62-15,6.2a70.84,70.84,0,0,1-6.6,4.41,38.16,38.16,0,0,1,6.6-4.41c4.89-3.61,9.67-7.63,15-10.65V96.34c-16.1,7.67-30.61,19.07-47.21,20.66,14.94-11.72,31-18.81,47.21-27V57.14H2.46V88.23C23.4,90,43.28,101.39,63.16,109.75c-20.07-1.69-42.47,1.32-60.7-11.38v36.18C15,126.4,30,127,42.93,120.63c-13.49,7.56-27,12.61-40.47,18.27V272.3c9.72,2.15,20.22,1.15,29.68,4.33-10.28,0-19.77,3.16-29.68,3.86v67.33c5.85-.37,11.69-2.25,17.54-2.25-3.8,10.21-10.27,15-17.54,17.62V382.3c24.28-4.7,48.56-15,72.84-15-23.86,10.7-48.68,15-72.84,20.38v50.37H532.54V384.43c-26.84,3.77-54.77-1.81-80.93-6.21,27-3,53.95-2.58,80.93-2.22V178.63a78.37,78.37,0,0,1-16.19-1.77C522,173.1,526.9,169.34,532.54,168Z"/><ellipse cx="55.74" cy="239.45" rx="18.21" ry="24.49"/><ellipse cx="442.84" cy="239.45" rx="18.21" ry="24.49"/><polygon points="187.25 339.28 362.2 239.03 187.25 138.78 187.25 339.28"/></g><path class="cls-6" d="M270.68,768h-20c21-206.12,15.75-474.51,0-768h20C279.8,274.46,281.56,534,270.68,768Z"/><path class="cls-1" d="M387.18,502.8A17.21,17.21,0,1,0,404.64,520,17.33,17.33,0,0,0,387.18,502.8Zm.24,31.65a14.22,14.22,0,1,1,14.43-14.22A14.32,14.32,0,0,1,387.42,534.45Z"/><path class="cls-1" d="M393.07,439H380.13a5.9,5.9,0,0,0-5.75,6v19a5.91,5.91,0,0,0,5.75,6h12.94a5.9,5.9,0,0,0,5.75-6V445A5.89,5.89,0,0,0,393.07,439Zm4.8,24a5.9,5.9,0,0,1-5.76,6h-11a5.9,5.9,0,0,1-5.75-6V446.46a5.91,5.91,0,0,1,5.75-6h11a5.91,5.91,0,0,1,5.76,6Z"/><path class="cls-1" d="M387.18,399.57a8.94,8.94,0,0,0-9.14,8.66v28.36a9.16,9.16,0,0,0,18.29,0V408.23A8.94,8.94,0,0,0,387.18,399.57ZM394.67,437a6.1,6.1,0,0,1-6.24,5.91h-2.49A6.1,6.1,0,0,1,379.7,437V407.84a6.1,6.1,0,0,1,6.24-5.91h2.49a6.1,6.1,0,0,1,6.24,5.91Z"/><path class="cls-1" d="M386,461.64a8.94,8.94,0,0,0-9.15,8.66v28.36a9.16,9.16,0,0,0,18.3,0V470.3A8.94,8.94,0,0,0,386,461.64Zm7.48,37.41a6.09,6.09,0,0,1-6.23,5.91h-2.5a6.09,6.09,0,0,1-6.23-5.91V469.91a6.09,6.09,0,0,1,6.23-5.91h2.5a6.09,6.09,0,0,1,6.23,5.91Z"/><path class="cls-2" d="M394.24,440.05H381.29a5.91,5.91,0,0,0-5.75,6v19a5.9,5.9,0,0,0,5.75,6h12.95a5.9,5.9,0,0,0,5.75-6v-19A5.91,5.91,0,0,0,394.24,440.05Zm4.79,24a5.91,5.91,0,0,1-5.75,6h-11a5.91,5.91,0,0,1-5.75-6V447.56a5.9,5.9,0,0,1,5.75-6h11a5.9,5.9,0,0,1,5.75,6Z"/><path class="cls-2" d="M388.35,400.67a8.94,8.94,0,0,0-9.15,8.66v28.36a9.16,9.16,0,0,0,18.29,0V409.33A8.94,8.94,0,0,0,388.35,400.67Zm7.48,37.41a6.1,6.1,0,0,1-6.24,5.91H387.1a6.1,6.1,0,0,1-6.24-5.91V408.94A6.1,6.1,0,0,1,387.1,403h2.49a6.1,6.1,0,0,1,6.24,5.91Z"/><path class="cls-2" d="M387.18,462.74A8.94,8.94,0,0,0,378,471.4v28.36a9.16,9.16,0,0,0,18.29,0V471.4A8.94,8.94,0,0,0,387.18,462.74Zm7.49,37.41a6.1,6.1,0,0,1-6.24,5.91h-2.49a6.1,6.1,0,0,1-6.24-5.91V471a6.1,6.1,0,0,1,6.24-5.91h2.49a6.1,6.1,0,0,1,6.24,5.91Z"/><path class="cls-4" d="M526.31,161,526,113.92c-4.84,1.94-9.78,3.55-14.44,6.07a69.37,69.37,0,0,1-6.35,4.29,36.73,36.73,0,0,1,6.35-4.29c4.71-3.5,9.3-7.41,14.41-10.35L525.85,92c-15.52,7.48-29.48,18.56-45.52,20.2,14.37-11.39,29.88-18.32,45.47-26.28l-.21-31.71L13,57.49l.2,30C33.49,89,52.79,99.89,72.06,107.82c-19.41-1.51-41,1.53-58.76-10.59l.23,34.86c12.1-7.93,26.58-7.49,39-13.66-13,7.37-26,12.32-39,17.86l.87,128.58c9.41,2,19.55,1,28.72,4-9.93.06-19.09,3.16-28.67,3.9l.44,64.89c5.65-.39,11.29-2.24,16.94-2.28C28.26,345.24,22,349.92,15,352.46l.13,18.43C38.59,366.21,62,356.16,85.48,356c-23,10.46-47,14.72-70.3,20.09l.33,48.55,512.56-3.27-.35-51.71c-25.93,3.79-53-1.41-78.29-5.49,26.06-3.08,52.15-2.82,78.24-2.64l-1.29-190.23a75.63,75.63,0,0,1-15.66-1.6C516.1,166.05,520.87,162.4,526.31,161Z"/><ellipse class="cls-3" cx="479" cy="236.75" rx="17.61" ry="23.6"/><path class="cls-7" d="M422,514.64H347.69a11.8,11.8,0,0,0-.9,4.56c-2.05-1-2.82-2.69-3.28-4.56H117.63v23.18c3.7.69,7.39,2.19,11.09,3-3.79,0-7.59.43-11.09-.3v15.77c6.26-2.4,11.59-5.66,18.48-7.49-5.48,3.39-11.64,8-18.48,9.72V576.3c4-2.84,7.64-5.91,12.32-8.07l-12.32,11.4v54.86c2.46-.43,4.93-.71,7.39-1.28-1.4,3.24-4.39,5-7.39,6.55v9.08c7-.89,14-3.31,20.94-4.23-6.17,3.26-13.6,4.77-20.94,5.79v22.71H384.89c-1.28-4.56-4-9.12-2.37-13.68.92,4.24,1.84,9.12,3.26,13.68H422v-21c-6.86-2.53-12.74.45-19.72-.63A63.53,63.53,0,0,0,422,647.78v-31c-3,.51-6.1,1-9.12,1.55a40.92,40.92,0,0,1-9.36,2.38,65.47,65.47,0,0,1,9.36-2.38c3.07-1.12,6-2.41,9.12-3.49V541.91C417.8,545,414.79,550,408.39,550c4.21-3.11,9-5.7,13.56-8.47Z"/><path class="cls-6" d="M412.79,518.35H342.63a11.59,11.59,0,0,0-.85,4.41c-1.93-.92-2.66-2.6-3.1-4.41H125.26v22.42c3.49.67,7,2.11,10.47,2.94-3.58,0-7.16.42-10.47-.29v15.25c5.91-2.32,11-5.48,17.46-7.24-5.18,3.27-11,7.75-17.46,9.4V578c3.73-2.74,7.22-5.71,11.64-7.8l-11.64,11v53.07c2.33-.41,4.65-.69,7-1.24-1.32,3.14-4.15,4.84-7,6.34v8.78c6.59-.86,13.19-3.2,19.79-4.09-5.83,3.16-12.86,4.62-19.79,5.6v22H377.78c-1.21-4.41-3.79-8.82-2.24-13.23.87,4.1,1.74,8.81,3.08,13.23h34.17V651.29c-6.47-2.45-12,.43-18.62-.61a58.71,58.71,0,0,0,18.62-3.55v-30c-2.87.5-5.75.95-8.61,1.5a37.84,37.84,0,0,1-8.85,2.3,61.83,61.83,0,0,1,8.85-2.3c2.9-1.08,5.7-2.33,8.61-3.37v-70.5c-3.91,2.95-6.76,7.8-12.8,7.8,4-3,8.48-5.51,12.8-8.2Z"/><ellipse class="cls-3" cx="383.93" cy="593.18" rx="16.4" ry="17.01"/></svg>
