<svg id="Layer_1" data-name="Layer 1" xmlns="http://www.w3.org/2000/svg" width="630" height="695" viewBox="0 0 630 695"><defs><style>.cls-1{fill:#29abe2;}.cls-2{fill:#603813;}.cls-3{fill:#a67c52;}.cls-4{fill:#8c6239;}.cls-5{fill:#999;}.cls-6{fill:#fff;}.cls-7{fill:#c1272d;}.cls-8{fill:#ccc;}.cls-14,.cls-8{opacity:0.46;}.cls-9{fill:#666;}.cls-10{fill:gray;}.cls-11{stroke:#000;stroke-miterlimit:10;opacity:0.58;}.cls-12{fill:#42210b;}.cls-13{fill:#754c24;}.cls-15{fill:#ff0;}.cls-16{fill:#ed1e79;}.cls-17{fill:#4d4d4d;}</style></defs><title>skurk</title><path class="cls-1" d="M472.1,337.92c53.29,132.37-28,206.57-152.17,210.91-119,4.17-174-69.57-155.37-192.85q1.35-8.87,3.19-18.06C190.71,223.71,235.88,127,319.93,127S428.59,229.86,472.1,337.92Z"/><path class="cls-2" d="M363.9,145H258c-6.92,0-12.58-4.11-12.58-9.13,5.64-15.09,13.33-24.8,0-89.74,0-5,5.66-9.13,12.58-9.13,33.56,12.22,67.2,23.88,105.87,0,6.92,0,12.58,4.11,12.58,9.13,30.81,98.63,3,89.62,0,89.74S370.82,145,363.9,145Z"/><path class="cls-1" d="M236.2,541.34A12.05,12.05,0,0,1,249.67,531l7.93,1a12.05,12.05,0,0,1,10.33,13.47L254.7,645.66A12,12,0,0,1,241.24,656l-7.94-1A12,12,0,0,1,223,641.47"/><rect class="cls-1" x="477.09" y="200.48" width="30.98" height="119.06" rx="12" ry="12" transform="translate(556.43 -293.31) rotate(68.76)"/><rect class="cls-1" x="116.09" y="205.48" width="30.98" height="119.06" rx="12" ry="12" transform="translate(427.02 248.95) rotate(113.29)"/><path class="cls-3" d="M260.45,658H220.24a12,12,0,0,1-12-12V588a12,12,0,0,1,12-12q20.1,23.34,40.21,0a12,12,0,0,1,12,12v58A12,12,0,0,1,260.45,658Z"/><rect class="cls-4" x="173.45" y="638.84" width="99" height="19.16" rx="9.58" ry="9.58"/><rect class="cls-5" x="272.45" y="634" width="15" height="5"/><polygon class="cls-5" points="291.36 647.82 286.78 642.14 279.64 643.68 283.46 636.44 280.64 629.35 287.58 630.56 292.97 624.65 293.44 632.63 299.6 636.06 292.95 639.79 291.36 647.82"/><rect class="cls-5" x="3.84" y="200.72" width="56" height="18" transform="translate(53.61 -1.28) rotate(14.52)"/><ellipse class="cls-5" cx="57.96" cy="232.85" rx="7.99" ry="13.84" transform="translate(-164.53 142.98) rotate(-54.03)"/><ellipse class="cls-6" cx="58.28" cy="231.76" rx="5.29" ry="10" transform="translate(-121.03 73.78) rotate(-34.5)"/><rect class="cls-7" x="60.36" y="225.25" width="25" height="47" rx="12" ry="12" transform="translate(64.71 -10.32) rotate(14.52)"/><rect class="cls-8" x="5.12" y="200.26" width="50.96" height="10.13" transform="translate(52.47 -1.11) rotate(14.52)"/><path class="cls-9" d="M60.43,207.75h25a12,12,0,0,1,12,12v2a12,12,0,0,1-12,12h-22a12,12,0,0,1-12-12v-5A9,9,0,0,1,60.43,207.75Z" transform="translate(57.74 -11.61) rotate(14.52)"/><path class="cls-10" d="M88.24,226.08,68,222.93c-6.11-1-12-5.8-13.17-10.77l-.52-2.26c-.85-3.73,2.21-6.19,6.79-5.48l23,3.59c6.11,1,12,5.8,13.17,10.77h0C98.43,223.75,94.35,227,88.24,226.08Z"/><line class="cls-11" x1="58.79" y1="264.67" x2="67.95" y2="232.5"/><line class="cls-11" x1="62.79" y1="269.67" x2="72.95" y2="233.5"/><line class="cls-11" x1="67.79" y1="271.67" x2="77.95" y2="235.5"/><line class="cls-11" x1="74.79" y1="271.67" x2="83.95" y2="236.5"/><ellipse cx="268.45" cy="190.5" rx="14" ry="23.5"/><ellipse class="cls-6" cx="264.45" cy="177" rx="4" ry="6"/><path class="cls-1" d="M397.49,540.35a12,12,0,0,0-13.34-10.49l-7.94.95a12,12,0,0,0-10.49,13.34l12,100.29a12,12,0,0,0,13.35,10.48L399,654a12,12,0,0,0,10.49-13.34"/><path class="cls-3" d="M371.84,656.71l40.21.48a12,12,0,0,0,12.14-11.85l.7-58A12,12,0,0,0,413,575.2q-20.39,23.09-40.22-.49a12,12,0,0,0-12.14,11.86l-.7,58A12,12,0,0,0,371.84,656.71Z"/><rect class="cls-4" x="359.95" y="638" width="99" height="19.16" rx="9.58" ry="9.58" transform="translate(811.07 1300.05) rotate(-179.31)"/><rect class="cls-5" x="345.1" y="632.47" width="15" height="5" transform="translate(697.52 1274.15) rotate(-179.31)"/><polygon class="cls-5" points="341.05 646.16 345.7 640.54 352.82 642.15 349.08 634.87 352 627.82 345.04 628.94 339.72 622.96 339.15 630.94 332.95 634.3 339.56 638.11 341.05 646.16"/><rect class="cls-5" x="570.22" y="196.44" width="56" height="18" transform="translate(1227.29 271.24) rotate(167.02)"/><ellipse class="cls-5" cx="571.48" cy="227.87" rx="13.84" ry="7.99" transform="translate(-28.71 363.06) rotate(-34.43)"/><ellipse class="cls-6" cx="571.19" cy="226.77" rx="10" ry="5.29" transform="translate(51.73 555.17) rotate(-53.95)"/><rect class="cls-7" x="543.66" y="219.86" width="25" height="47" rx="12" ry="12" transform="translate(1152.77 355.56) rotate(167.02)"/><rect class="cls-8" x="574.09" y="196.02" width="50.96" height="10.13" transform="translate(1228.99 262.34) rotate(167.02)"/><path class="cls-9" d="M544.34,202.33h22a12,12,0,0,1,12,12v2a12,12,0,0,1-12,12h-25a9,9,0,0,1-9-9v-5A12,12,0,0,1,544.34,202.33Z" transform="translate(1144.86 300.39) rotate(167.02)"/><path class="cls-10" d="M541.4,220.28l20.28-2.6c6.14-.79,12.2-5.48,13.46-10.41l.58-2.25c.95-3.7-2-6.25-6.64-5.66l-23.08,3c-6.13.79-12.19,5.47-13.46,10.41h0C531.28,217.68,535.26,221.07,541.4,220.28Z"/><line class="cls-11" x1="569.8" y1="259.65" x2="561.5" y2="227.25"/><line class="cls-11" x1="565.67" y1="264.54" x2="556.48" y2="228.11"/><line class="cls-11" x1="560.62" y1="266.4" x2="551.43" y2="229.98"/><line class="cls-11" x1="553.62" y1="266.22" x2="545.4" y2="230.82"/><rect x="238.45" y="160" width="53" height="6" transform="matrix(0.87, 0.5, -0.5, 0.87, 117, -110.64)"/><ellipse cx="363.45" cy="190.5" rx="14" ry="23.5"/><ellipse class="cls-6" cx="359.45" cy="177" rx="4" ry="6"/><rect x="341.45" y="160" width="53" height="6" transform="translate(768.11 120.19) rotate(150)"/><rect class="cls-12" x="251.45" y="109" width="142" height="30"/><path class="cls-13" d="M418.73,138.18c-5.68,3.68-50,14.82-111.6,14.82S201,142.32,195.54,138.18c-75.33-56.82,21.94-14.24,111.59-14.82C425.51,122.59,530.87,65.6,418.73,138.18Z"/><polygon class="cls-9" points="460.45 396.5 178.45 396.5 319.45 548.77 460.45 396.5"/><path class="cls-9" d="M460,397.5H179q-24.84-59.43,0-94H460C474.06,322.88,478.3,350.61,460,397.5Z"/><g class="cls-14"><polygon class="cls-10" points="460.83 383.76 181.35 383.76 321.09 516 460.83 383.76"/><path class="cls-10" d="M460.34,384.63H181.84q-24.61-51.6,0-81.63h278.5C474.32,319.83,478.52,343.91,460.34,384.63Z"/></g><ellipse class="cls-15" cx="216.86" cy="589.67" rx="5.41" ry="4.44"/><ellipse class="cls-15" cx="263.05" cy="586.44" rx="5.41" ry="4.44"/><ellipse class="cls-15" cx="231.6" cy="598.56" rx="5.41" ry="4.44"/><ellipse class="cls-15" cx="251.25" cy="598.56" rx="5.41" ry="4.44"/><ellipse class="cls-15" cx="368.86" cy="587.67" rx="5.41" ry="4.44"/><ellipse class="cls-15" cx="415.05" cy="584.44" rx="5.41" ry="4.44"/><ellipse class="cls-15" cx="383.6" cy="596.56" rx="5.41" ry="4.44"/><ellipse class="cls-15" cx="403.25" cy="596.56" rx="5.41" ry="4.44"/><path class="cls-16" d="M349.45,276.5c30.11,43.73,4.8,44.83-33,48.5-36.37,3.53-60-4.68-33-48.5,14.05-22.81,14.78-48.5,33-48.5S334.26,254.44,349.45,276.5Z"/><path class="cls-17" d="M450.39,376.09l-2.75-2.9c-28.73,45.8-70,82.21-119.12,112.72l2.75,2.9Z"/><path class="cls-17" d="M420.39,387.09l-2.75-2.9c-19.37,36.94-50.79,64-89.78,84.95l2.75,2.91Z"/><path class="cls-17" d="M393.39,396.09l-2.75-2.9c-7.25,25.47-25.94,40.52-51.82,49l2.75,2.91Z"/></svg>
