<svg id="Layer_1" data-name="Layer 1" xmlns="http://www.w3.org/2000/svg" xmlns:xlink="http://www.w3.org/1999/xlink" width="1920" height="1080" viewBox="0 0 1920 1080"><defs><style>.cls-1{fill:#c64ab5;}.cls-2{fill:#fff;}.cls-3{fill:url(#linear-gradient);}.cls-4{opacity:0.61;}.cls-5{opacity:0.33;}.cls-6{opacity:0.69;}.cls-7{fill:#019899;stroke:#fff;stroke-miterlimit:10;stroke-width:0.5px;}.cls-8{fill:#15cea2;}.cls-9{fill:#47be92;}.cls-10{fill:#80bca2;}.cls-11{fill:#bad0c3;}.cls-12,.cls-13,.cls-17,.cls-18{opacity:0.67;}.cls-12{fill:url(#linear-gradient-2);}.cls-13{fill:url(#linear-gradient-3);}.cls-14{fill:#ffdb9f;}.cls-15{fill:#ff0;}.cls-16{fill:#d4145a;}.cls-17{fill:#f00011;}.cls-18{fill:#e9e600;}.cls-19{fill:#f40090;}.cls-20{opacity:0.43;}.cls-21{fill:red;}.cls-22{fill:#d6bb7a;}.cls-23{fill:#4d4d4d;}</style><linearGradient id="linear-gradient" x1="956" y1="-13.07" x2="956" y2="1067.02" gradientUnits="userSpaceOnUse"><stop offset="0" stop-color="#127b86"/><stop offset="1" stop-color="#1755c2"/></linearGradient><linearGradient id="linear-gradient-2" x1="1962.29" y1="1091.98" x2="1325.56" y2="1091.98" gradientUnits="userSpaceOnUse"><stop offset="0" stop-color="#fff"/><stop offset="0"/></linearGradient><linearGradient id="linear-gradient-3" x1="1970.71" y1="533.07" x2="-81" y2="533.07" xlink:href="#linear-gradient-2"/></defs><title>taber</title><path class="cls-1" d="M8,1070.5A11.51,11.51,0,0,1-3.5,1059V-8A11.51,11.51,0,0,1,8-19.5H1937.09c3,21.27,2,42.41,1.08,62.85-.24,5.12-.49,10.42-.67,15.63-.07.32-1.15,1.13-1.8,1.62-1.36,1-2.2,1.69-2.2,2.4-1,99.59-1,196.41,0,296,0,.71.84,1.38,2.2,2.4.65.49,1.73,1.3,1.8,1.61.2,17,.52,34.24.84,50.94,1.26,67,2.56,136.21-3.84,205a131,131,0,0,0,.33,17.11c.57,9,1.11,17.44-1.22,26.44h-4.1V663c-1,39-1,77,0,116,0,.86,1.13,1.85,2.87,3.25.44.36.87.71,1.16,1a65.64,65.64,0,0,1,0,11.73,65.1,65.1,0,0,0,0,12.09l0,.17,4,4a36.85,36.85,0,0,1-.12,8.14c-.36,4-.7,7.78,1.16,10.89A15.62,15.62,0,0,1,1941,841.2a12.24,12.24,0,0,0,.52,6,8,8,0,0,0,2.71,2.71c.47.33,1.25.89,1.25,1.1.35,15.72-.17,31.72-.66,47.2-.93,29-1.9,58.9,2.67,88.88a57.48,57.48,0,0,1,.19,13.53c-.43,6.48-.83,12.59,2.8,17.56V1059a11.51,11.51,0,0,1-11.5,11.5Z"/><path class="cls-2" d="M1936.66-19c2.93,21.08,1.95,42.05,1,62.33-.24,5.08-.49,10.32-.66,15.52a11.68,11.68,0,0,1-1.61,1.35c-1.34,1-2.4,1.8-2.4,2.79-1,99.6-1,196.42,0,296,0,1,1.06,1.79,2.4,2.8a11.54,11.54,0,0,1,1.6,1.34c.2,16.94.53,34.17.84,50.82,1.26,67,2.56,136.18-3.84,205a131.84,131.84,0,0,0,.33,17.16c.56,8.8,1.09,17.13-1.1,25.91H1929l0,1c-1,39-1,77,0,116,0,1.09,1.15,2.11,3,3.65.37.3.73.59,1,.83a65.45,65.45,0,0,1,0,11.46,65.21,65.21,0,0,0,0,12.18l0,.34.24.25,3.76,3.76a36.83,36.83,0,0,1-.14,7.86c-.37,4.08-.71,7.94,1.24,11.2a15,15,0,0,1,2.37,10.63,12.82,12.82,0,0,0,.55,6.21l0,0,0,0a8.38,8.38,0,0,0,2.85,2.86,7.1,7.1,0,0,1,1,.82c.35,15.66-.17,31.62-.66,47-.93,29-1.9,59,2.67,89a56.54,56.54,0,0,1,.19,13.42c-.43,6.51-.84,12.67,2.8,17.75V1059a11,11,0,0,1-11,11H8a11,11,0,0,1-11-11V-8A11,11,0,0,1,8-19H1936.66m.86-1H8A12,12,0,0,0-4-8V1059a12,12,0,0,0,12,12H1939a12,12,0,0,0,12-12v-41c-6-8-1-19-3-31-7-46-1-91-2-136,0-1-3-2-4-4-2-5,2-9-3-17-3-5,0-12-1-19l-4-4c-1-8,1-16,0-24-1-1-4-3-4-4-1-39-1-77,0-116h4c4-15,0-29,1-44,8-86,4-171,3-256,0-1-4-3-4-4-1-99-1-197,0-296,0-1,4-3,4-4,.9-26.09,3.4-52.18-.48-79Z"/><path class="cls-1" d="M484,572c-71.2,105.23-7.33,104.88,88.26,109.08,92,4,150.59-17.77,78-116.66C612.47,512.94,607.9,453.23,562,455.33S519.94,518.89,484,572Z"/><path class="cls-1" d="M438,612c-71.2,105.23-7.33,104.88,88.26,109.08,92,4,150.59-17.77,78-116.66C566.47,552.94,561.9,493.23,516,495.33S473.94,558.89,438,612Z"/><rect class="cls-3" x="-4" y="-13.03" width="1920" height="1080"/><ellipse class="cls-4" cx="1479.02" cy="220.5" rx="295" ry="269.5"/><ellipse class="cls-5" cx="1484.02" cy="239.5" rx="280" ry="269.5"/><circle cx="1479.02" cy="239" r="251"/><g class="cls-6"><path d="M791.45,163.8c-24,0-43.43,13.13-43.43,29.34,0,6.7,3.33,12.88,8.92,17.82,23.71-.64,47.33-1.4,70.94-1.84,4.42-4.59,7-10.08,7-16C834.88,176.94,815.43,163.8,791.45,163.8Z"/><path d="M836.41,170.32C820,170.32,806.6,182,806.6,196.4a23.54,23.54,0,0,0,4,13.09c17.35-.41,34.68-.71,52-.73a23.37,23.37,0,0,0,3.56-12.35C866.21,182,852.86,170.32,836.41,170.32Z"/><path d="M882,187.36c0-14.17-13.91-25.66-31.08-25.66s-31.07,11.49-31.07,25.66c0,9.1,5.74,17.1,14.39,21.65q16.9-.27,33.82-.24C876.46,204.18,882,196.3,882,187.36Z"/><ellipse cx="902.38" cy="178.74" rx="34.64" ry="25.45"/><path d="M892.82,182.52c-19.62,0-35.84,11.43-38.47,26.27q11-.06,22,0,27.5.27,55,.39C929,194.17,912.63,182.53,892.82,182.52Z"/><path d="M955.61,181.9c-19.55,0-35.4,12-35.4,26.71v.53c23.6.14,47.19.26,70.78.53,0-.35,0-.7,0-1.06C991,193.86,975.17,181.9,955.61,181.9Z"/><ellipse cx="951.54" cy="178.74" rx="31.33" ry="27.77"/><path d="M824.18,190.94c-16.83,0-31.16,8-36.49,19.16,24.12-.68,48.18-1.27,72.29-1.33C854.17,198.3,840.33,190.94,824.18,190.94Z"/></g><g class="cls-6"><path d="M238.48,132.78c-20.14,0-36.46,7-36.46,15.65,0,3.58,2.79,6.87,7.49,9.51,19.91-.35,39.73-.75,59.55-1,3.72-2.46,5.88-5.38,5.88-8.52C274.94,139.79,258.62,132.78,238.48,132.78Z"/><path d="M276.22,136.26c-13.82,0-25,6.23-25,13.91a9.7,9.7,0,0,0,3.38,7c14.56-.22,29.11-.38,43.68-.38a9.52,9.52,0,0,0,3-6.59C301.24,142.49,290,136.26,276.22,136.26Z"/><path d="M314.5,145.35c0-7.56-11.68-13.69-26.09-13.69s-26.09,6.13-26.09,13.69c0,4.85,4.82,9.12,12.08,11.55q14.19-.15,28.4-.13C309.85,154.32,314.5,150.12,314.5,145.35Z"/><ellipse cx="331.61" cy="140.75" rx="29.08" ry="13.58"/><path d="M323.59,142.77c-16.48,0-30.1,6.09-32.3,14q9.24,0,18.5,0,23.08.13,46.15.2C353.93,149,340.21,142.77,323.59,142.77Z"/><path d="M376.3,142.44c-16.42,0-29.73,6.38-29.73,14.24,0,.1,0,.19,0,.29q29.71.1,59.41.28a5.25,5.25,0,0,0,0-.56C406,148.82,392.71,142.44,376.3,142.44Z"/><ellipse cx="372.88" cy="140.75" rx="26.3" ry="14.81"/><path d="M266,147.26c-14.13,0-26.16,4.26-30.63,10.22,20.24-.36,40.44-.68,60.68-.71C291.14,151.19,279.52,147.26,266,147.26Z"/></g><path class="cls-7" d="M1925,177l-19-10-10-22h-26v52l-34,36-10-88-16-34h-38l-42,34V295l-88,60V247l-10-26-20-56V145h-18l-18-18v94h-66V137l-20-28-38-20-56,16V251l-48,72-62,42H1118l-20-74-114-4L872,341l16-186-48-32v70l-20,40-40,10V97l-74,4v44s-16-12-28-20-42-12-42-12l-36,2L580,311H524l-48-14-70-12H322l-10-75v-157H244v141l-26,79-36-18v-45l-10-65,10-68H130v21l-12,25v33l-12,41-26-24v-40H38v126l-33,52H-26L5,724.43l1920,.09Z"/><path class="cls-8" d="M1390.33,374c-28.36-17.16-7,5.15,0,0Z"/><path class="cls-8" d="M1839.51,349.06l-153.84,33.1-69.92,67.41-103.49,14.18c-5.78-17.34-14.45-28.89-28-30.75-5.35,23.68-30-19.47-92.3-57.95l-1.66-1c-7,5.15-28.36-17.16,0,0a4.62,4.62,0,0,0,1.66-2.53c22.61-76.05-82.06-28.9-86.71-18.93,0,0-54.34,10.92-55.94,28.38-7.16,78.45-152.71,81.9-176.21,47.29-12.82-18.88-105.4,65.38-114.68,35.47-7.94-25.58-78.31,45.1-179,14.19-37.64-11.56-136.34-26.4-184.6,0-58.65,32.06-58.74-3.55-103.49-14.2S457.79,449.51,441,447.14,418.63,428.22,382.27,401s-142.65-18.93-153.83-18.93H194.87c-8.39,0-128.66,49.66-128.66,49.66L.94,513.34C-8.63,645.61-1.44,736.75,29.83,768.77c712.85,50.48,1377.1,72.25,1882.38.1,6.5-17.9,12.23-35.57,17.06-53,0-17.54.27-35.11.73-52.88h4c4-15,0-29,1-44,2.28-24.55,3.59-49,4.26-73.43A221.42,221.42,0,0,0,1929,513.44C1925.77,421.74,1896.9,365.61,1839.51,349.06Z"/><path class="cls-8" d="M1814.94,360.65a20.41,20.41,0,0,1-27.46-12.88c-6.66-21.59-24-51-69.24-59-57.09-10-91.33,50.9-103.9,78.93a20.18,20.18,0,0,1-16.61,11.63c-39.65,3.95-95.88,108-110.7,86.17-30.24-44.53-64-82.68-75.85-95.74a20.41,20.41,0,0,0-10.71-6.19l-208.41-45.77a20.41,20.41,0,0,0-13.65,1.76c-22,11.21-92.33,47.85-104.22,62.52-12.06,14.89-163.13,12.56-206.9,11.57a20.38,20.38,0,0,0-17.94,9.88h0a20.42,20.42,0,0,1-22.24,9.32l-153-36.68s12.19-.83-92.67,4.57c-57.09,2.94-96,31-119.54,56a20.43,20.43,0,0,1-34.84-9.64c-8.44-38.3-28.58-86.73-76.58-97.93C296,316.48,238.74,352.48,206.38,378.13a20.42,20.42,0,0,1-32.4-10.6c-8-28.94-26.51-65.52-68.34-63C41.39,308.33,2.28,497.88-2.43,522a20.67,20.67,0,0,0-.36,5L7.61,728.75a20.4,20.4,0,0,0,21.13,19.34l1900.92-70q.15-7.53.34-15.11h4c4-15,0-29,1-44,8-86,4-171,3-256,0-1-4-3-4-4,0-1.74,0-3.47,0-5.2C1896.41,332.29,1844.58,348.13,1814.94,360.65Z"/><path class="cls-9" d="M1797.91,578.77c-25.12,20.41,6.42-106.88-74.66-73.7-53.38,21.83-20.1-32.43-57.44-70.76s-64.66,14.14-80.4-11.8c-24.64-40.59-54.81,107.24-120.62,57.48-22.11-16.71-90.78,15.12-146.46,42.74-69.94,34.7-92.51,9.69-117.89,73.86-22.7,57.37-34.32-.16-60.16-32.59s-130.1-54.32-74.67-84c20.21-10.84-6.85-86.08-91.89-57.5-144.2,48.48-44.06,41-140.72,0-48.43-20.54-42.69,36.44-106.25,57.48-63.94,21.16-40.89,34.13-91.9,84C614,584.34,650.4,434.66,497,578.71c-51.55,48.4-54.56-17.69-97.64-75.18s-48.81-66.34-117.73-81.08-68.93-7.37-103.39,0-63.18,45.69-94.77,57.48c-12.55,4.68-31.14,23.32-49,44.09C.55,563.48-18,614.72-18,667.7h0c0,81.5,43.9,156.3,113.82,192.87,561.55,293.7,1152.87,196.22,1742.68-85.42A198.29,198.29,0,0,1,1894,758.31c14.22-2.18,25.94-6.34,35.4-12.3-.31-27.65-.12-55.07.6-83h4c4-15,0-29,1-44,2.15-23.14,3.43-46.21,4.14-69.23C1906.53,534.24,1837.15,546.88,1797.91,578.77Z"/><path class="cls-9" d="M870.49,451.55c.5.31,1,.64,1.48,1l5.1,1.17c-.09-.42-.19-.85-.3-1.28C874.68,452.06,872.59,451.76,870.49,451.55Z"/><path class="cls-9" d="M866.4,435.58a51.14,51.14,0,0,0-12.64-8.76c6.21,6.32,12.32,12.71,14.49,20.34a21.52,21.52,0,0,1,.58,3.41c.57.31,1.12.64,1.66,1,2.1.21,4.19.51,6.28.87A35.94,35.94,0,0,0,866.4,435.58Z"/><path class="cls-9" d="M868.89,451.4a.62.62,0,0,1,0,.13l.88.52,2.19.48c-.49-.34-1-.67-1.48-1C870,451.49,869.43,451.44,868.89,451.4Z"/><path class="cls-9" d="M868.89,451.4c.54,0,1.07.09,1.6.15-.54-.34-1.09-.67-1.66-1C868.86,450.85,868.88,451.12,868.89,451.4Z"/><path class="cls-9" d="M870.49,451.55c.51.31,1,.64,1.48,1q2.91.64,5.8,1.34c.32-.36.63-.73.94-1.1C876,452.25,873.24,451.83,870.49,451.55Z"/><path class="cls-9" d="M884.83,438.81a27.69,27.69,0,0,0-1.3-12.42c-1.28,7.36-2.7,14.7-8.32,20.64a28,28,0,0,1-5.3,4.16l.58.36c2.75.28,5.49.7,8.22,1.22A27.57,27.57,0,0,0,884.83,438.81Z"/><path class="cls-9" d="M869.48,451.45l1,.1-.58-.36Z"/><path class="cls-9" d="M869.48,451.45l-.35.21.66.39,2.18.48c-.48-.34-1-.67-1.48-1Z"/><path class="cls-9" d="M870.57,451.56h0c.49.31,1,.63,1.45,1,6,1.35,12,2.85,17.92,4.2,1.05-.21,2.11-.41,3.17-.6C885.59,454.2,878.11,452.33,870.57,451.56Z"/><path class="cls-9" d="M893.07,456.13a135.74,135.74,0,0,1,26.84-2.08,65.63,65.63,0,0,0-37.21-5.5,59.31,59.31,0,0,0-12.13,3C878.11,452.33,885.59,454.2,893.07,456.13Z"/><path class="cls-9" d="M869.58,451.93l.21.12,2.19.48c-.48-.33-1-.65-1.45-1C870.22,451.69,869.89,451.8,869.58,451.93Z"/><path class="cls-9" d="M897.46,434.88c-6.76,6.55-13.65,13-23.89,16.43l-1.44.42c3.37.41,6.74,1,10.1,1.77a43.06,43.06,0,0,0,7.44-6.16A34.42,34.42,0,0,0,897.46,434.88Z"/><path class="cls-9" d="M872.13,451.73l-1,.25.8.55c2.87.64,5.73,1.32,8.59,2,.56-.34,1.12-.69,1.66-1C878.87,452.76,875.5,452.14,872.13,451.73Z"/><path class="cls-9" d="M870.38,452.18l1.6.35-.8-.55Z"/><path class="cls-9" d="M870.5,451.55c.5.31,1,.64,1.48,1l3.36.77q-.35-.62-.72-1.23C873.25,451.87,871.87,451.69,870.5,451.55Z"/><path class="cls-9" d="M860.63,438.22a58.35,58.35,0,0,0-14.57-6.66c7.55,5.16,15,10.39,19.33,17.38a32.25,32.25,0,0,1,5.11,2.61c1.37.14,2.75.32,4.12.52A44,44,0,0,0,860.63,438.22Z"/><path class="cls-9" d="M868.64,451.38l1.14.67,2.2.48c-.49-.34-1-.67-1.48-1Z"/><path class="cls-9" d="M865.7,449.46l.24.45c.91.47,1.81,1,2.7,1.47l1.86.17a32.25,32.25,0,0,0-5.11-2.61C865.49,449.12,865.6,449.29,865.7,449.46Z"/><path class="cls-9" d="M872,451.71l-.15.73.13.09c2.8.63,5.59,1.29,8.37,2,0-.46,0-.93-.05-1.39C877.54,452.52,874.77,452.05,872,451.71Z"/><path class="cls-9" d="M861.31,422.56c5.26,7.68,10.39,15.42,11.05,23.8a23.13,23.13,0,0,1-.36,5.35c2.77.34,5.54.81,8.3,1.38a36.41,36.41,0,0,0-7.41-19.22A52.05,52.05,0,0,0,861.31,422.56Z"/><path class="cls-9" d="M871.83,452.5l.15,0-.13-.09Z"/><path class="cls-9" d="M870.49,451.55c.5.31,1,.64,1.48,1,3.54.79,7,1.64,10.56,2.47.85-.26,1.7-.55,2.53-.86A113,113,0,0,0,870.49,451.55Z"/><path class="cls-9" d="M895.47,448.53a32.1,32.1,0,0,0,8.86-9.73c-7,4.82-14.1,9.56-23.67,11.33a47,47,0,0,1-11.92.39c.6.32,1.18.67,1.75,1a113,113,0,0,1,14.57,2.59A42.4,42.4,0,0,0,895.47,448.53Z"/><path class="cls-9" d="M868.63,451.38l1.14.67c.74.15,1.47.31,2.2.48-.49-.34-1-.67-1.48-1C869.87,451.48,869.25,451.43,868.63,451.38Z"/><path class="cls-9" d="M866.64,450.28c.67.36,1.33.73,2,1.1.62.05,1.24.1,1.86.17-.57-.36-1.15-.71-1.75-1Q867.69,450.42,866.64,450.28Z"/><path class="cls-10" d="M1965,1020c-3-3-12,1-14-2-6-8-1-19-3-31-7-46-1-91-2-136,0-1-3-2-4-4-2-5,2-9-3-17-3-5,0-12-1-19l-4-4c-1-8,1-16,0-24-1-1-4-3-4-4-.91-35.48-1-70.14-.24-105.47-39.7,36.63-68.71,68.24-75.53,68.24-17.77,0,57.74-95.63-57.73-112.8s-231,53.93-315.36,79.68-66.62-40.47-97.7-79.7-315.35,0-315.35,0L788.27,734.36s40-104.21-102.15-139.78S353,756.41,313,708.59s62.19-233-115.47-163.08S-26,776-26,776v237.86c639.55,41.81,1307.57,47.44,1996.59,26.4C1971.05,1032.37,1970.45,1024.67,1965,1020Z"/><path class="cls-11" d="M711.13,811.33c.94.75,1.86,1.54,2.75,2.35q5,1.35,9.89,2.77c-.12-1-.24-2.08-.39-3.12C719.31,812.49,715.23,811.81,711.13,811.33Z"/><path class="cls-11" d="M705.6,772.56a93,93,0,0,0-23.52-21.09c11.24,15.27,22.27,30.69,25.33,49.21A63,63,0,0,1,708,809c1.07.75,2.1,1.53,3.11,2.35,4.1.48,8.18,1.16,12.25,2A85.4,85.4,0,0,0,705.6,772.56Z"/><path class="cls-11" d="M708,811c0,.11,0,.21,0,.32l1.66,1.24,4.22,1.12c-.89-.81-1.81-1.6-2.75-2.35Q709.57,811.14,708,811Z"/><path class="cls-11" d="M708,811q1.56.13,3.12.33c-1-.82-2-1.6-3.11-2.35C708,809.65,708,810.33,708,811Z"/><path class="cls-11" d="M711.14,811.33c.94.76,1.86,1.54,2.76,2.35q5.63,1.53,11.21,3.16c.69-.89,1.37-1.78,2-2.69A151.84,151.84,0,0,0,711.14,811.33Z"/><path class="cls-11" d="M741.42,780.06a81.26,81.26,0,0,0-.59-30.18c-3.69,17.92-7.66,35.81-19.68,50.38a66.32,66.32,0,0,1-11.1,10.21c.37.28.73.57,1.09.86a151.84,151.84,0,0,1,16,2.82A81.08,81.08,0,0,0,741.42,780.06Z"/><path class="cls-11" d="M709.15,811.11l2,.22c-.36-.29-.72-.58-1.09-.86Z"/><path class="cls-11" d="M709.15,811.11c-.24.17-.48.35-.73.51l1.25.94,4.23,1.12c-.9-.81-1.82-1.59-2.76-2.35Z"/><path class="cls-11" d="M711.29,811.35l-.08,0c.92.74,1.82,1.51,2.69,2.31,11.65,3.16,23.13,6.7,34.67,9.88,2.11-.54,4.22-1,6.34-1.52C740.48,817.5,726,813.09,711.29,811.35Z"/><path class="cls-11" d="M754.91,822.05a223.23,223.23,0,0,1,53.26-5.57c-19.93-12.25-46-17.5-72.5-12.67a105.16,105.16,0,0,0-24.38,7.54C726,813.09,740.48,817.5,754.91,822.05Z"/><path class="cls-11" d="M709.28,812.26l.4.3c1.41.37,2.82.74,4.22,1.13-.87-.8-1.77-1.57-2.69-2.31Z"/><path class="cls-11" d="M766.94,770.28c-14.36,16-29,31.91-49.71,40.41-1,.37-1.93.72-2.9,1a174.38,174.38,0,0,1,19.64,4.1,102,102,0,0,0,15.65-15.12A97.39,97.39,0,0,0,766.94,770.28Z"/><path class="cls-11" d="M714.33,811.74c-.64.22-1.27.43-1.91.63.5.43,1,.87,1.49,1.32,5.57,1.51,11.1,3.11,16.61,4.71,1.17-.83,2.32-1.67,3.45-2.56A174.38,174.38,0,0,0,714.33,811.74Z"/><path class="cls-11" d="M710.82,812.86l3.09.83c-.49-.45-1-.89-1.49-1.32Z"/><path class="cls-11" d="M711.15,811.33c.94.76,1.86,1.55,2.75,2.36q3.27.88,6.51,1.8c-.39-1-.79-2-1.22-3C716.52,812.05,713.84,811.64,711.15,811.33Z"/><path class="cls-11" d="M693.81,779.09a96,96,0,0,0-27.68-15.92c14.07,12.4,28,25,35.35,41.92a52.47,52.47,0,0,1,9.67,6.24c2.69.31,5.37.72,8,1.2A89.51,89.51,0,0,0,693.81,779.09Z"/><path class="cls-11" d="M707.51,811c.72.52,1.43,1.06,2.15,1.6,1.42.37,2.83.74,4.24,1.13-.89-.81-1.81-1.6-2.75-2.36C709.94,811.19,708.72,811.06,707.51,811Z"/><path class="cls-11" d="M702,806.34c.14.36.26.72.4,1.08,1.72,1.14,3.41,2.33,5.09,3.54,1.21.1,2.43.23,3.64.37a52.47,52.47,0,0,0-9.67-6.24Z"/><path class="cls-11" d="M714.07,811.7c-.12.59-.26,1.18-.4,1.76l.24.23c5.43,1.47,10.82,3,16.2,4.59.06-1.13.1-2.26.11-3.39A163.41,163.41,0,0,0,714.07,811.7Z"/><path class="cls-11" d="M697.64,741c9.13,18.59,18,37.3,18,57.7a68.36,68.36,0,0,1-1.56,13,163.41,163.41,0,0,1,16.15,3.19,96,96,0,0,0-11.56-46.61A104.34,104.34,0,0,0,697.64,741Z"/><path class="cls-11" d="M713.63,813.61l.28.08-.24-.23A.83.83,0,0,0,713.63,813.61Z"/><path class="cls-11" d="M711.13,811.33c.94.76,1.86,1.54,2.76,2.35,6.85,1.86,13.65,3.85,20.43,5.83,1.73-.67,3.43-1.39,5.12-2.16A178.91,178.91,0,0,0,711.13,811.33Z"/><path class="cls-11" d="M760.86,803.52a83.43,83.43,0,0,0,19-23.84c-14.56,11.85-29.33,23.52-48.47,28a75,75,0,0,1-23.56,1.17c1.13.79,2.22,1.62,3.29,2.48a178.91,178.91,0,0,1,28.31,6A89.19,89.19,0,0,0,760.86,803.52Z"/><path class="cls-11" d="M707.49,811c.72.52,1.44,1.06,2.15,1.59l4.25,1.13c-.9-.81-1.82-1.59-2.76-2.35C709.92,811.18,708.71,811.06,707.49,811Z"/><path class="cls-11" d="M703.73,808.31c1.27.86,2.52,1.75,3.76,2.65,1.22.1,2.43.22,3.64.37-1.07-.86-2.16-1.69-3.29-2.48Q705.79,808.64,703.73,808.31Z"/><path class="cls-11" d="M1457,885.42c1.11.5,2.2,1,3.27,1.58,3.42,0,6.84.1,10.26.18-.37-1-.76-1.95-1.16-2.92C1465.2,884.48,1461.08,884.85,1457,885.42Z"/><path class="cls-11" d="M1441.83,849.31a92.91,92.91,0,0,0-28.09-14.44c14.74,11.92,29.31,24,37,41.2a63,63,0,0,1,2.7,7.87c1.22.45,2.41.95,3.59,1.48,4.1-.57,8.22-.94,12.37-1.16A85.56,85.56,0,0,0,1441.83,849.31Z"/><path class="cls-11" d="M1453.88,885.89c0,.11.06.21.08.31l1.92.78,4.37,0c-1.07-.55-2.16-1.08-3.27-1.58C1456,885.57,1454.92,885.72,1453.88,885.89Z"/><path class="cls-11" d="M1453.88,885.89c1-.17,2.07-.32,3.1-.47-1.18-.53-2.37-1-3.59-1.48C1453.56,884.59,1453.73,885.24,1453.88,885.89Z"/><path class="cls-11" d="M1457,885.42c1.1.5,2.19,1,3.26,1.58,3.89,0,7.77.12,11.65.21.44-1,.87-2.06,1.28-3.11A150.35,150.35,0,0,0,1457,885.42Z"/><path class="cls-11" d="M1478.38,847.5a81.51,81.51,0,0,0-8.2-29c1,18.28,1.64,36.59-6.3,53.72a65.63,65.63,0,0,1-8.15,12.69l1.27.56a150.35,150.35,0,0,1,16.19-1.32A81,81,0,0,0,1478.38,847.5Z"/><path class="cls-11" d="M1455,885.71l2-.29-1.27-.56C1455.5,885.15,1455.25,885.43,1455,885.71Z"/><path class="cls-11" d="M1455,885.71l-.57.68,1.44.59,4.37,0c-1.07-.56-2.16-1.08-3.26-1.58Z"/><path class="cls-11" d="M1457.15,885.4l-.07.05c1.08.49,2.14,1,3.19,1.55,12.06.12,24.07.63,36,.79,1.9-1,3.82-2.08,5.75-3.07C1487,884,1471.86,883.36,1457.15,885.4Z"/><path class="cls-11" d="M1502.06,884.72a223,223,0,0,1,50.11-18.87c-22.38-6.81-48.91-5.3-73.34,6.09a105.09,105.09,0,0,0-21.68,13.46C1471.86,883.36,1487,884,1502.06,884.72Z"/><path class="cls-11" d="M1455.44,886.79l.45.19,4.38,0c-1-.54-2.11-1.06-3.19-1.55Z"/><path class="cls-11" d="M1500.59,831.58c-9.83,19.16-19.94,38.21-37.86,51.68-.83.6-1.69,1.18-2.54,1.75a173.41,173.41,0,0,1,20-1,102,102,0,0,0,11.31-18.59A97.16,97.16,0,0,0,1500.59,831.58Z"/><path class="cls-11" d="M1460.19,885c-.56.37-1.12.74-1.69,1.1l1.78.89c5.77.06,11.52.2,17.26.36.92-1.1,1.82-2.21,2.69-3.35A173.41,173.41,0,0,0,1460.19,885Z"/><path class="cls-11" d="M1457.07,887l3.21,0-1.78-.89Z"/><path class="cls-11" d="M1457,885.42c1.1.49,2.19,1,3.26,1.58,2.25,0,4.5.06,6.75.1-.63-.86-1.27-1.72-1.93-2.56C1462.39,884.75,1459.69,885,1457,885.42Z"/><path class="cls-11" d="M1432.07,858.62a95.67,95.67,0,0,0-30.8-8.4c16.75,8.43,33.39,17.09,44.81,31.6a53.06,53.06,0,0,1,10.93,3.6c2.68-.38,5.38-.67,8.08-.88A89.4,89.4,0,0,0,1432.07,858.62Z"/><path class="cls-11" d="M1453.39,886c.83.32,1.66.67,2.49,1l4.39,0c-1.07-.56-2.16-1.09-3.26-1.58C1455.8,885.59,1454.59,885.77,1453.39,886Z"/><path class="cls-11" d="M1446.91,882.9c.23.31.44.63.66,1,2,.66,3.9,1.38,5.82,2.13,1.2-.21,2.41-.39,3.62-.56a53.06,53.06,0,0,0-10.93-3.6Z"/><path class="cls-11" d="M1459.93,885c0,.6,0,1.2,0,1.8l.3.16c5.62,0,11.23.19,16.83.35-.23-1.11-.48-2.21-.75-3.32A163.36,163.36,0,0,0,1459.93,885Z"/><path class="cls-11" d="M1426.14,820.78c13.54,15.67,26.88,31.53,32,51.26a68.43,68.43,0,0,1,1.79,13,163.36,163.36,0,0,1,16.43-1,96,96,0,0,0-23-42.16A104.39,104.39,0,0,0,1426.14,820.78Z"/><path class="cls-11" d="M1460,887h.3l-.3-.16Z"/><path class="cls-11" d="M1457,885.42c1.1.5,2.19,1,3.26,1.58,7.1.07,14.18.27,21.25.47,1.49-1.09,3-2.21,4.4-3.39A180.58,180.58,0,0,0,1457,885.42Z"/><path class="cls-11" d="M1503.13,865.28a83.76,83.76,0,0,0,12.36-27.87c-11.1,15.15-22.43,30.17-39.81,39.35a75.17,75.17,0,0,1-22.5,7.1c1.29.47,2.56,1,3.81,1.56a180.58,180.58,0,0,1,28.91-1.34A88.61,88.61,0,0,0,1503.13,865.28Z"/><path class="cls-11" d="M1453.38,886l2.48,1,4.39,0c-1.07-.55-2.16-1.08-3.26-1.58C1455.78,885.59,1454.58,885.78,1453.38,886Z"/><path class="cls-11" d="M1449.07,884.37c1.44.51,2.88,1.06,4.31,1.61,1.2-.2,2.4-.39,3.61-.56-1.25-.56-2.52-1.09-3.81-1.56C1451.82,884.06,1450.45,884.24,1449.07,884.37Z"/><path class="cls-11" d="M138.83,790.69c.87.84,1.71,1.71,2.53,2.6q4.8,1.8,9.58,3.67c0-1,0-2.09-.1-3.14C146.87,792.61,142.87,791.55,138.83,790.69Z"/><path class="cls-11" d="M136.92,751.57a93,93,0,0,0-21.46-23.17c9.78,16.24,19.33,32.62,20.65,51.35a62.16,62.16,0,0,1-.15,8.31c1,.85,1.94,1.73,2.87,2.63,4,.86,8,1.92,12,3.13A85.47,85.47,0,0,0,136.92,751.57Z"/><path class="cls-11" d="M135.75,790.07l0,.32,1.54,1.39,4.1,1.51c-.82-.89-1.66-1.76-2.53-2.6C137.81,790.47,136.78,790.27,135.75,790.07Z"/><path class="cls-11" d="M135.75,790.07c1,.2,2.06.4,3.08.62-.93-.9-1.88-1.78-2.87-2.63Q135.87,789.08,135.75,790.07Z"/><path class="cls-11" d="M138.84,790.69c.87.84,1.71,1.71,2.53,2.6q5.46,2.06,10.87,4.18c.77-.81,1.53-1.64,2.27-2.48A146.62,146.62,0,0,0,138.84,790.69Z"/><path class="cls-11" d="M171.89,762.36a81.33,81.33,0,0,0,2.22-30.1c-5.35,17.5-11,35-24.27,48.34a66.82,66.82,0,0,1-12,9.13l1,1a146.62,146.62,0,0,1,15.67,4.3A81,81,0,0,0,171.89,762.36Z"/><path class="cls-11" d="M136.88,790.29l2,.4-1-1Z"/><path class="cls-11" d="M136.88,790.29l-.77.44,1.16,1,4.1,1.51c-.82-.89-1.66-1.76-2.53-2.6Z"/><path class="cls-11" d="M139,790.72l-.08,0c.85.83,1.67,1.68,2.47,2.55,11.3,4.23,22.41,8.82,33.6,13.05,2.15-.34,4.3-.64,6.45-.92C167.49,799.56,153.51,793.83,139,790.72Z"/><path class="cls-11" d="M181.43,805.43a223.26,223.26,0,0,1,53.55-.61c-18.71-14-44.16-21.69-71-19.34a105.73,105.73,0,0,0-25,5.24C153.51,793.83,167.49,799.56,181.43,805.43Z"/><path class="cls-11" d="M136.91,791.45l.36.33,4.11,1.52c-.8-.87-1.62-1.72-2.47-2.55Z"/><path class="cls-11" d="M198.21,755c-15.78,14.64-31.8,29.09-53.24,35.63-1,.28-2,.54-3,.78a171.63,171.63,0,0,1,19.18,5.91,102.91,102.91,0,0,0,17-13.61A97.3,97.3,0,0,0,198.21,755Z"/><path class="cls-11" d="M142,791.4l-2,.45c.46.48.92,1,1.36,1.45,5.41,2,10.77,4.12,16.11,6.23,1.23-.72,2.46-1.45,3.67-2.22A171.63,171.63,0,0,0,142,791.4Z"/><path class="cls-11" d="M138.38,792.19q1.5.54,3,1.11c-.44-.49-.9-1-1.36-1.45Z"/><path class="cls-11" d="M138.85,790.69c.87.85,1.71,1.72,2.53,2.61q3.17,1.19,6.31,2.4c-.3-1-.61-2.05-.94-3.07Q142.82,791.55,138.85,790.69Z"/><path class="cls-11" d="M124.57,757a96,96,0,0,0-26.08-18.41c12.86,13.65,25.55,27.47,31.32,45a52.8,52.8,0,0,1,9,7.11q4,.85,7.9,1.94A89.45,89.45,0,0,0,124.57,757Z"/><path class="cls-11" d="M135.26,790c.67.59,1.33,1.19,2,1.79,1.38.5,2.76,1,4.13,1.52-.82-.89-1.66-1.76-2.53-2.61C137.66,790.44,136.46,790.2,135.26,790Z"/><path class="cls-11" d="M130.22,784.88c.11.37.2.74.3,1.11q2.41,1.95,4.74,4c1.2.21,2.4.45,3.59.7a52.8,52.8,0,0,0-9-7.11C130,784,130.09,784.44,130.22,784.88Z"/><path class="cls-11" d="M141.73,791.34q-.27.85-.57,1.71c.08.08.15.17.22.25,5.27,2,10.49,4,15.7,6.08.17-1.12.31-2.25.43-3.37A161.71,161.71,0,0,0,141.73,791.34Z"/><path class="cls-11" d="M131.92,719.4c7.38,19.35,14.49,38.81,12.57,59.11a69,69,0,0,1-2.76,12.83A161.71,161.71,0,0,1,157.51,796a95.91,95.91,0,0,0-7.19-47.48A104.37,104.37,0,0,0,131.92,719.4Z"/><path class="cls-11" d="M141.11,793.2l.27.1c-.07-.08-.14-.17-.22-.25Z"/><path class="cls-11" d="M138.83,790.69c.87.84,1.71,1.71,2.53,2.6,6.65,2.49,13.23,5.1,19.81,7.7q2.67-.76,5.29-1.68A178.67,178.67,0,0,0,138.83,790.69Z"/><path class="cls-11" d="M189.08,787.53a83.78,83.78,0,0,0,21.13-22c-15.6,10.45-31.38,20.7-50.85,23.38a74.8,74.8,0,0,1-23.57-1c1.05.89,2.06,1.82,3,2.77a178.67,178.67,0,0,1,27.63,8.62A89.06,89.06,0,0,0,189.08,787.53Z"/><path class="cls-11" d="M135.25,790c.67.59,1.33,1.19,2,1.79l4.12,1.52c-.82-.89-1.66-1.76-2.53-2.6C137.64,790.44,136.45,790.2,135.25,790Z"/><path class="cls-11" d="M131.75,787c1.18,1,2.34,2,3.5,3,1.2.22,2.39.46,3.58.71-1-1-2-1.88-3-2.77C134.43,787.65,133.09,787.34,131.75,787Z"/><path class="cls-11" d="M1258.83,773.74c.87.85,1.71,1.71,2.53,2.6q4.82,1.8,9.58,3.68c0-1,0-2.1-.1-3.14C1266.87,775.66,1262.87,774.6,1258.83,773.74Z"/><path class="cls-11" d="M1256.92,734.63a92.8,92.8,0,0,0-21.46-23.17c9.78,16.24,19.33,32.62,20.65,51.34a62.31,62.31,0,0,1-.15,8.32c1,.84,1.94,1.72,2.87,2.62,4,.86,8,1.92,12,3.14A85.44,85.44,0,0,0,1256.92,734.63Z"/><path class="cls-11" d="M1255.75,773.13c0,.1,0,.21,0,.32.52.45,1,.92,1.54,1.38l4.1,1.51c-.82-.89-1.66-1.75-2.53-2.6C1257.81,773.53,1256.78,773.32,1255.75,773.13Z"/><path class="cls-11" d="M1255.75,773.13c1,.19,2.06.4,3.08.61-.93-.9-1.88-1.78-2.87-2.62Q1255.87,772.13,1255.75,773.13Z"/><path class="cls-11" d="M1258.84,773.74c.87.85,1.71,1.72,2.53,2.61,3.64,1.36,7.26,2.76,10.87,4.17.77-.81,1.53-1.63,2.27-2.48A151.48,151.48,0,0,0,1258.84,773.74Z"/><path class="cls-11" d="M1291.89,745.42a81.17,81.17,0,0,0,2.22-30.11c-5.34,17.51-10.95,35-24.27,48.34a66.06,66.06,0,0,1-12,9.14c.34.31.67.63,1,1a151.48,151.48,0,0,1,15.67,4.3A81,81,0,0,0,1291.89,745.42Z"/><path class="cls-11" d="M1256.88,773.34l2,.4c-.33-.32-.66-.64-1-1Z"/><path class="cls-11" d="M1256.88,773.34c-.26.15-.51.31-.77.45.39.34.77.7,1.16,1.05,1.37.49,2.74,1,4.1,1.51-.82-.89-1.66-1.76-2.53-2.61Z"/><path class="cls-11" d="M1259,773.78l-.09,0c.85.82,1.67,1.67,2.47,2.54,11.3,4.23,22.41,8.82,33.6,13q3.23-.49,6.45-.92C1287.49,782.61,1273.51,776.88,1259,773.78Z"/><path class="cls-11" d="M1301.43,788.48a223.26,223.26,0,0,1,53.55-.61c-18.71-14-44.16-21.69-71-19.34a105.13,105.13,0,0,0-25,5.25C1273.51,776.88,1287.49,782.61,1301.43,788.48Z"/><path class="cls-11" d="M1256.91,774.5l.36.34,4.11,1.51c-.8-.87-1.62-1.72-2.47-2.54C1258.24,774,1257.57,774.26,1256.91,774.5Z"/><path class="cls-11" d="M1318.21,738.05c-15.78,14.64-31.8,29.09-53.24,35.63-1,.28-2,.53-3,.77a173.75,173.75,0,0,1,19.18,5.91,102.39,102.39,0,0,0,17-13.61A97.39,97.39,0,0,0,1318.21,738.05Z"/><path class="cls-11" d="M1262,774.45l-2,.46c.46.47.92,1,1.36,1.44,5.41,2,10.77,4.13,16.11,6.24,1.23-.72,2.46-1.46,3.67-2.23A173.75,173.75,0,0,0,1262,774.45Z"/><path class="cls-11" d="M1258.38,775.24l3,1.11c-.44-.49-.9-1-1.36-1.44Z"/><path class="cls-11" d="M1258.85,773.75c.87.84,1.71,1.71,2.53,2.6q3.16,1.18,6.31,2.4c-.3-1-.61-2-.94-3.06Q1262.82,774.6,1258.85,773.75Z"/><path class="cls-11" d="M1244.57,740a96,96,0,0,0-26.08-18.42c12.86,13.65,25.55,27.48,31.32,45a52.8,52.8,0,0,1,9,7.11q4,.84,7.9,1.94A89.31,89.31,0,0,0,1244.57,740Z"/><path class="cls-11" d="M1255.26,773l2,1.79,4.12,1.52c-.82-.89-1.66-1.76-2.53-2.6C1257.66,773.49,1256.46,773.26,1255.26,773Z"/><path class="cls-11" d="M1250.22,767.93c.11.37.2.75.3,1.12,1.61,1.29,3.19,2.63,4.74,4,1.2.22,2.4.45,3.59.71a52.8,52.8,0,0,0-9-7.11C1250,767.07,1250.09,767.5,1250.22,767.93Z"/><path class="cls-11" d="M1261.73,774.39c-.18.58-.37,1.15-.57,1.72l.22.24c5.27,2,10.49,4,15.71,6.08.16-1.12.3-2.24.42-3.37A161.71,161.71,0,0,0,1261.73,774.39Z"/><path class="cls-11" d="M1251.92,702.45c7.38,19.36,14.49,38.81,12.57,59.12a68.94,68.94,0,0,1-2.76,12.82,161.71,161.71,0,0,1,15.78,4.67,95.91,95.91,0,0,0-7.19-47.48A104.14,104.14,0,0,0,1251.92,702.45Z"/><path class="cls-11" d="M1261.11,776.25l.27.1-.22-.24A1.21,1.21,0,0,1,1261.11,776.25Z"/><path class="cls-11" d="M1258.83,773.74c.87.85,1.71,1.72,2.53,2.6,6.65,2.49,13.23,5.11,19.81,7.7,1.78-.51,3.54-1.06,5.3-1.68A181,181,0,0,0,1258.83,773.74Z"/><path class="cls-11" d="M1309.08,770.59a83.83,83.83,0,0,0,21.14-22c-15.6,10.44-31.39,20.69-50.86,23.38a75.41,75.41,0,0,1-23.57-1c1,.88,2.06,1.81,3,2.76a181,181,0,0,1,27.64,8.62A89.14,89.14,0,0,0,1309.08,770.59Z"/><path class="cls-11" d="M1255.25,773c.67.59,1.33,1.19,2,1.79l4.12,1.51c-.82-.88-1.66-1.75-2.53-2.6C1257.64,773.49,1256.45,773.25,1255.25,773Z"/><path class="cls-11" d="M1251.75,770.05c1.18,1,2.34,2,3.5,3,1.2.21,2.39.45,3.58.7-1-1-2-1.88-3-2.76C1254.44,770.7,1253.09,770.4,1251.75,770.05Z"/><path class="cls-10" d="M676.6,604.35c.68.41,1.34.84,2,1.28q3.39.58,6.76,1.22c-.15-.61-.3-1.21-.47-1.82Q680.74,604.54,676.6,604.35Z"/><path class="cls-10" d="M670.38,581.77a64.88,64.88,0,0,0-17-11.45c8.48,8.52,16.83,17.15,20.08,27.92a33.36,33.36,0,0,1,1,4.86c.76.39,1.5.82,2.22,1.25q4.14.18,8.28.68A50.76,50.76,0,0,0,670.38,581.77Z"/><path class="cls-10" d="M674.51,604.29c0,.06,0,.12,0,.19.4.21.79.44,1.19.66l2.88.49c-.65-.44-1.31-.87-2-1.28Z"/><path class="cls-10" d="M674.51,604.29l2.09.06c-.72-.43-1.46-.86-2.22-1.25C674.43,603.49,674.47,603.89,674.51,604.29Z"/><path class="cls-10" d="M676.61,604.35c.68.41,1.34.84,2,1.28,2.56.44,5.12.91,7.66,1.39.41-.54.8-1.1,1.18-1.66C683.83,604.86,680.22,604.5,676.61,604.35Z"/><path class="cls-10" d="M694.7,584.72A43.17,43.17,0,0,0,692.32,567c-1.28,10.7-2.74,21.39-9.78,30.45a39.16,39.16,0,0,1-6.71,6.46l.78.46c3.61.15,7.22.51,10.83,1A42.82,42.82,0,0,0,694.7,584.72Z"/><path class="cls-10" d="M675.27,604.31l1.34,0-.78-.46Z"/><path class="cls-10" d="M675.27,604.31l-.45.33.89.5,2.89.49c-.65-.44-1.31-.87-2-1.28Z"/><path class="cls-10" d="M676.71,604.36l-.05,0c.66.4,1.31.82,1.94,1.25,8,1.38,15.83,3,23.71,4.4,1.37-.4,2.74-.79,4.12-1.15C696.53,606.79,686.64,604.78,676.71,604.36Z"/><path class="cls-10" d="M706.43,608.88a164.11,164.11,0,0,1,35.06-5.45c-14.06-6.4-31.73-8.43-49.06-4.5a73.49,73.49,0,0,0-15.72,5.43C686.64,604.78,696.53,606.79,706.43,608.88Z"/><path class="cls-10" d="M675.44,605l.28.16,2.88.49c-.63-.43-1.28-.85-1.94-1.25C676.25,604.58,675.84,604.77,675.44,605Z"/><path class="cls-10" d="M711,577.92c-8.5,10-17.17,20-30.41,25.81-.61.26-1.24.5-1.86.74a129.06,129.06,0,0,1,13.34,1.61,61.08,61.08,0,0,0,9.41-9.54A52.76,52.76,0,0,0,711,577.92Z"/><path class="cls-10" d="M678.76,604.47l-1.23.45,1.08.71c3.8.66,7.59,1.38,11.36,2.1q1.08-.81,2.13-1.65A129.06,129.06,0,0,0,678.76,604.47Z"/><path class="cls-10" d="M676.5,605.27l2.11.36-1.08-.71Z"/><path class="cls-10" d="M676.62,604.35c.67.41,1.33.84,2,1.28,1.49.26,3,.52,4.45.8-.32-.57-.66-1.14-1-1.7C680.24,604.56,678.43,604.43,676.62,604.35Z"/><path class="cls-10" d="M663,586.09a70.73,70.73,0,0,0-19.45-8.24c10.17,6.72,20.25,13.56,26.27,23.22a38.55,38.55,0,0,1,6.84,3.28c1.81.08,3.62.21,5.43.38A58.18,58.18,0,0,0,663,586.09Z"/><path class="cls-10" d="M674.17,604.28c.52.28,1,.57,1.54.86l2.89.49c-.65-.44-1.31-.87-2-1.28Z"/><path class="cls-10" d="M670.21,601.79l.34.62c1.22.6,2.43,1.23,3.62,1.87l2.45.07a38.55,38.55,0,0,0-6.84-3.28Z"/><path class="cls-10" d="M678.59,604.45c-.05.36-.1.71-.16,1.06l.18.12c3.7.64,7.39,1.34,11.07,2,0-.67-.08-1.33-.14-2C685.89,605.11,682.24,604.68,678.59,604.45Z"/><path class="cls-10" d="M663,563.51c7.3,10.57,14.45,21.22,15.77,33.22a36.1,36.1,0,0,1-.18,7.72c3.65.23,7.3.66,10.95,1.22a53.83,53.83,0,0,0-10.76-26.95A68,68,0,0,0,663,563.51Z"/><path class="cls-10" d="M678.42,605.59l.19,0-.18-.12S678.42,605.56,678.42,605.59Z"/><path class="cls-10" d="M676.6,604.35c.68.41,1.34.84,2,1.28,4.68.81,9.34,1.71,14,2.59,1.1-.46,2.19-1,3.26-1.48A136.9,136.9,0,0,0,676.6,604.35Z"/><path class="cls-10" d="M709.17,597.73a47.41,47.41,0,0,0,11.08-14.8c-8.91,7.56-18,15-30.4,18.45a56,56,0,0,1-15.6,1.65c.81.42,1.59.86,2.35,1.32a136.9,136.9,0,0,1,19.23,2.39A56.6,56.6,0,0,0,709.17,597.73Z"/><path class="cls-10" d="M674.16,604.28l1.53.85,2.9.5c-.65-.44-1.31-.87-2-1.28Z"/><path class="cls-10" d="M671.49,602.88c.9.45,1.79.92,2.67,1.4l2.44.07c-.76-.46-1.54-.9-2.35-1.32Q672.87,603,671.49,602.88Z"/><path class="cls-10" d="M1427.71,710.48c.77.48,1.53,1,2.27,1.5,2.57.45,5.14.93,7.71,1.41-.16-.71-.33-1.43-.52-2.15C1434,710.87,1430.87,710.6,1427.71,710.48Z"/><path class="cls-10" d="M1420.71,683.78a73,73,0,0,0-19.4-13.47c9.65,10.05,19.15,20.22,22.8,33a41.2,41.2,0,0,1,1.07,5.75c.87.46,1.71,1,2.53,1.47,3.16.12,6.31.39,9.46.76A59.91,59.91,0,0,0,1420.71,683.78Z"/><path class="cls-10" d="M1425.32,710.41a1.79,1.79,0,0,0,0,.23l1.35.77,3.29.57c-.74-.52-1.5-1-2.27-1.5C1426.91,710.45,1426.11,710.42,1425.32,710.41Z"/><path class="cls-10" d="M1425.32,710.41c.79,0,1.59,0,2.39.07-.82-.51-1.66-1-2.53-1.47C1425.24,709.47,1425.28,709.94,1425.32,710.41Z"/><path class="cls-10" d="M1427.72,710.48c.77.48,1.53,1,2.27,1.5,2.92.51,5.84,1.06,8.75,1.61.46-.65.91-1.3,1.34-2C1436,711.05,1431.84,710.64,1427.72,710.48Z"/><path class="cls-10" d="M1448.47,687.15a52.43,52.43,0,0,0-2.62-21c-1.52,12.66-3.24,25.32-11.32,36.08a46.62,46.62,0,0,1-7.7,7.68c.3.17.6.36.89.54,4.12.16,8.24.57,12.36,1.14A52.08,52.08,0,0,0,1448.47,687.15Z"/><path class="cls-10" d="M1426.19,710.43l1.53.05c-.29-.18-.59-.37-.89-.54Z"/><path class="cls-10" d="M1426.19,710.43l-.51.4,1,.58,3.3.57c-.74-.52-1.5-1-2.27-1.5Z"/><path class="cls-10" d="M1427.84,710.48l-.06,0c.75.47,1.49,1,2.21,1.47,9.08,1.6,18.07,3.48,27.06,5.09q2.35-.72,4.72-1.38C1450.47,713.27,1439.17,710.94,1427.84,710.48Z"/><path class="cls-10" d="M1461.77,715.69a182.72,182.72,0,0,1,40.07-6.62c-16-7.5-36.21-9.81-56-5.09a83.5,83.5,0,0,0-18,6.5C1439.17,710.94,1450.47,713.27,1461.77,715.69Z"/><path class="cls-10" d="M1426.38,711.22a3.37,3.37,0,0,0,.32.19l3.29.57c-.72-.51-1.46-1-2.21-1.47Z"/><path class="cls-10" d="M1467.16,679c-9.75,11.91-19.7,23.71-34.85,30.69-.71.31-1.42.6-2.14.88a146.13,146.13,0,0,1,15.23,1.85,71.64,71.64,0,0,0,10.8-11.34A63.6,63.6,0,0,0,1467.16,679Z"/><path class="cls-10" d="M1430.17,710.6c-.46.19-.93.37-1.4.54.41.27.82.56,1.23.84,4.34.77,8.66,1.59,13,2.43.82-.64,1.64-1.29,2.43-2A146.13,146.13,0,0,0,1430.17,710.6Z"/><path class="cls-10" d="M1427.59,711.56l2.41.42c-.41-.28-.82-.57-1.23-.84C1428.38,711.29,1428,711.42,1427.59,711.56Z"/><path class="cls-10" d="M1427.73,710.48c.77.48,1.52,1,2.26,1.5l5.08.92c-.37-.67-.75-1.34-1.14-2C1431.86,710.7,1429.8,710.56,1427.73,710.48Z"/><path class="cls-10" d="M1412.22,688.93a78.55,78.55,0,0,0-22.19-9.66c11.59,7.91,23.08,16,29.9,27.36a43.21,43.21,0,0,1,7.8,3.85c2.07.08,4.13.22,6.2.42A66.75,66.75,0,0,0,1412.22,688.93Z"/><path class="cls-10" d="M1424.93,710.41l1.75,1c1.11.19,2.21.37,3.31.57-.74-.52-1.49-1-2.26-1.5C1426.8,710.44,1425.87,710.42,1424.93,710.41Z"/><path class="cls-10" d="M1420.43,707.48l.38.73c1.39.7,2.76,1.44,4.12,2.2.94,0,1.87,0,2.8.07a43.21,43.21,0,0,0-7.8-3.85C1420.1,706.91,1420.27,707.19,1420.43,707.48Z"/><path class="cls-10" d="M1430,710.59l-.18,1.24.2.15c4.23.75,8.44,1.55,12.64,2.36,0-.78-.09-1.57-.16-2.37C1438.32,711.33,1434.15,710.84,1430,710.59Z"/><path class="cls-10" d="M1412.38,662.21c8.28,12.47,16.39,25,17.84,39.23a44.26,44.26,0,0,1-.24,9.15c4.17.25,8.34.74,12.5,1.38a64.57,64.57,0,0,0-12.15-31.84A78.28,78.28,0,0,0,1412.38,662.21Z"/><path class="cls-10" d="M1429.78,711.94l.22,0-.2-.15A.52.52,0,0,0,1429.78,711.94Z"/><path class="cls-10" d="M1427.71,710.48c.77.48,1.53,1,2.27,1.5,5.34.94,10.65,2,16,3,1.26-.55,2.51-1.14,3.74-1.77A152.15,152.15,0,0,0,1427.71,710.48Z"/><path class="cls-10" d="M1465,702.49a56.67,56.67,0,0,0,12.72-17.58c-10.21,9-20.59,17.88-34.81,22a62.21,62.21,0,0,1-17.82,2c.91.48,1.8,1,2.67,1.55a152.15,152.15,0,0,1,22,2.73A65.66,65.66,0,0,0,1465,702.49Z"/><path class="cls-10" d="M1424.92,710.41l1.75,1c1.11.18,2.21.37,3.31.57-.74-.52-1.5-1-2.27-1.5C1426.78,710.44,1425.85,710.42,1424.92,710.41Z"/><path class="cls-10" d="M1421.87,708.76c1,.53,2,1.09,3.05,1.65.93,0,1.86,0,2.79.07-.87-.54-1.76-1.07-2.67-1.55C1424,708.89,1422.93,708.84,1421.87,708.76Z"/><path class="cls-9" d="M200.75,420.18c.58.13,1.16.27,1.72.43,1.74-.21,3.48-.4,5.21-.59-.23-.38-.46-.75-.71-1.11C204.88,419.26,202.8,419.68,200.75,420.18Z"/><path class="cls-9" d="M191.58,406.49a51.33,51.33,0,0,0-14.84-4.05c8,3.89,15.86,7.87,20.44,14.34a22.61,22.61,0,0,1,1.69,3c.64.1,1.26.23,1.88.37,2.05-.5,4.13-.92,6.22-1.27A36,36,0,0,0,191.58,406.49Z"/><path class="cls-9" d="M199.2,420.57l.06.12,1,.19,2.21-.27c-.56-.16-1.14-.3-1.72-.43Z"/><path class="cls-9" d="M199.2,420.57l1.55-.39c-.62-.14-1.24-.27-1.88-.37C199,420.06,199.1,420.32,199.2,420.57Z"/><path class="cls-9" d="M200.76,420.18c.58.13,1.15.27,1.72.43q3-.36,5.91-.67c.18-.45.36-.89.52-1.35C206.16,419,203.44,419.53,200.76,420.18Z"/><path class="cls-9" d="M210,403.39a27.71,27.71,0,0,0-5.36-11.28c1.24,7.37,2.35,14.76-1,22.24a27.74,27.74,0,0,1-3.61,5.68l.67.15c2.68-.65,5.4-1.17,8.15-1.59A27.43,27.43,0,0,0,210,403.39Z"/><path class="cls-9" d="M199.77,420.43l1-.25-.67-.15Z"/><path class="cls-9" d="M199.77,420.43l-.26.31.75.14,2.22-.27c-.57-.16-1.14-.3-1.72-.43Z"/><path class="cls-9" d="M200.84,420.16l0,0c.56.13,1.12.28,1.67.43,6.12-.74,12.23-1.3,18.3-2,.92-.54,1.85-1.09,2.79-1.62C215.88,417.65,208.21,418.38,200.84,420.16Z"/><path class="cls-9" d="M223.57,417a136.07,136.07,0,0,1,24.62-10.91,65.7,65.7,0,0,0-36.92,7.23,58.33,58.33,0,0,0-10.43,6.87C208.21,418.38,215.88,417.65,223.57,417Z"/><path class="cls-9" d="M200,420.84l.24,0,2.21-.27c-.55-.15-1.11-.3-1.67-.43Z"/><path class="cls-9" d="M220.63,395.48c-4.19,8.42-8.53,16.82-17,23.45-.4.3-.81.59-1.22.88,3.32-.74,6.7-1.28,10.12-1.71a43.22,43.22,0,0,0,5-8.29A34.56,34.56,0,0,0,220.63,395.48Z"/><path class="cls-9" d="M202.36,419.81l-.81.55.94.25c2.92-.35,5.85-.67,8.76-1,.42-.51.83-1,1.23-1.54C209.06,418.53,205.68,419.07,202.36,419.81Z"/><path class="cls-9" d="M200.86,420.81l1.63-.2-.94-.25Z"/><path class="cls-9" d="M200.76,420.18c.58.13,1.16.27,1.72.43l3.43-.4c-.35-.31-.71-.61-1.08-.91C203.46,419.56,202.11,419.85,200.76,420.18Z"/><path class="cls-9" d="M187,410.9a58,58,0,0,0-16-1.42c8.84,2.34,17.63,4.79,24,9.94a31.37,31.37,0,0,1,5.68.76c1.35-.33,2.7-.62,4.07-.88A44,44,0,0,0,187,410.9Z"/><path class="cls-9" d="M199,420.64l1.3.24,2.22-.27c-.56-.16-1.14-.3-1.72-.43C200.16,420.32,199.56,420.48,199,420.64Z"/><path class="cls-9" d="M195.54,419.81l.38.34c1,.14,2,.31,3,.49.6-.16,1.2-.32,1.8-.46a31.37,31.37,0,0,0-5.68-.76Z"/><path class="cls-9" d="M202.23,419.83c0,.25.07.49.1.73l.16.05c2.85-.34,5.7-.65,8.54-.95-.16-.44-.33-.87-.51-1.3C207.73,418.75,205,419.22,202.23,419.83Z"/><path class="cls-9" d="M182.44,395.91c7.52,5.49,14.93,11.07,18.35,18.76a23,23,0,0,1,1.44,5.16c2.73-.61,5.5-1.08,8.29-1.47a36.41,36.41,0,0,0-13.4-15.64A51.68,51.68,0,0,0,182.44,395.91Z"/><path class="cls-9" d="M202.34,420.63l.15,0-.16-.05Z"/><path class="cls-9" d="M200.76,420.18c.58.13,1.15.27,1.72.43,3.6-.43,7.19-.81,10.78-1.19.72-.53,1.42-1.09,2.09-1.66A115.62,115.62,0,0,0,200.76,420.18Z"/><path class="cls-9" d="M223.31,409a32.46,32.46,0,0,0,5.11-12.13c-5,6.87-10.12,13.71-18.55,18.57a46.4,46.4,0,0,1-11.11,4.34c.68.11,1.34.24,2,.39a115.62,115.62,0,0,1,14.59-2.42A42.74,42.74,0,0,0,223.31,409Z"/><path class="cls-9" d="M199,420.64l1.3.25,2.23-.28c-.57-.16-1.14-.3-1.72-.43Z"/><path class="cls-9" d="M196.7,420.26l2.25.38,1.81-.46c-.66-.15-1.32-.28-2-.39C198.08,420,197.39,420.12,196.7,420.26Z"/><path class="cls-9" d="M1588.49,429.58c.5.32,1,.65,1.48,1,1.7.38,3.41.78,5.1,1.18-.09-.43-.19-.86-.3-1.28Q1591.64,429.91,1588.49,429.58Z"/><path class="cls-9" d="M1584.4,413.62a51.31,51.31,0,0,0-12.63-8.77c6.21,6.32,12.32,12.71,14.48,20.34a22.67,22.67,0,0,1,.59,3.42c.56.31,1.11.63,1.65,1q3.15.33,6.28.88A35.94,35.94,0,0,0,1584.4,413.62Z"/><path class="cls-9" d="M1586.89,429.44a.53.53,0,0,1,0,.13l.89.51,2.18.48c-.49-.33-1-.66-1.48-1Z"/><path class="cls-9" d="M1586.89,429.44l1.6.14c-.54-.34-1.09-.66-1.65-1C1586.86,428.88,1586.88,429.16,1586.89,429.44Z"/><path class="cls-9" d="M1588.49,429.58c.51.32,1,.65,1.48,1l5.8,1.34c.32-.36.63-.72.94-1.09C1594,430.29,1591.24,429.86,1588.49,429.58Z"/><path class="cls-9" d="M1602.83,416.84a27.63,27.63,0,0,0-1.3-12.41c-1.28,7.35-2.7,14.7-8.32,20.64a28.19,28.19,0,0,1-5.29,4.15l.57.36c2.75.28,5.49.71,8.22,1.23A27.48,27.48,0,0,0,1602.83,416.84Z"/><path class="cls-9" d="M1587.48,429.49l1,.09-.57-.36Z"/><path class="cls-9" d="M1587.48,429.49l-.35.2.66.39,2.18.48c-.48-.33-1-.66-1.48-1Z"/><path class="cls-9" d="M1588.57,429.59l0,0c.5.3,1,.63,1.45.95,6,1.35,12,2.85,17.92,4.2,1-.21,2.11-.41,3.17-.59C1603.59,432.24,1596.11,430.37,1588.57,429.59Z"/><path class="cls-9" d="M1611.07,434.17a135.75,135.75,0,0,1,26.84-2.09,65.71,65.71,0,0,0-37.21-5.49,58.67,58.67,0,0,0-12.13,3C1596.11,430.37,1603.59,432.24,1611.07,434.17Z"/><path class="cls-9" d="M1587.58,430l.21.12,2.19.48c-.47-.32-1-.65-1.45-.95Z"/><path class="cls-9" d="M1615.46,412.92c-6.76,6.54-13.65,13-23.89,16.43l-1.44.42c3.38.41,6.74,1,10.1,1.76a42.61,42.61,0,0,0,7.44-6.16A34.46,34.46,0,0,0,1615.46,412.92Z"/><path class="cls-9" d="M1590.13,429.77l-1,.25c.27.18.54.36.8.55,2.88.64,5.74,1.32,8.59,2,.56-.34,1.12-.68,1.66-1C1596.87,430.8,1593.51,430.18,1590.13,429.77Z"/><path class="cls-9" d="M1588.38,430.21l1.6.36c-.26-.19-.53-.37-.8-.55Z"/><path class="cls-9" d="M1588.5,429.58c.5.32,1,.65,1.48,1l3.36.77c-.23-.41-.47-.82-.72-1.22C1591.25,429.9,1589.88,429.72,1588.5,429.58Z"/><path class="cls-9" d="M1578.63,416.26a58,58,0,0,0-14.57-6.66c7.55,5.15,15,10.39,19.33,17.38a31,31,0,0,1,5.11,2.6c1.38.14,2.75.32,4.12.53A43.84,43.84,0,0,0,1578.63,416.26Z"/><path class="cls-9" d="M1586.64,429.42l1.14.66,2.2.48c-.49-.33-1-.66-1.48-1C1587.88,429.52,1587.26,429.46,1586.64,429.42Z"/><path class="cls-9" d="M1583.7,427.5l.24.44c.91.48,1.81,1,2.7,1.48.62,0,1.24.1,1.86.16a31,31,0,0,0-5.11-2.6C1583.49,427.15,1583.6,427.32,1583.7,427.5Z"/><path class="cls-9" d="M1590,429.75l-.15.72.13.09c2.8.63,5.59,1.29,8.37,2,0-.47,0-.93,0-1.4C1595.54,430.56,1592.77,430.08,1590,429.75Z"/><path class="cls-9" d="M1579.31,400.6c5.26,7.68,10.39,15.41,11,23.8a23.16,23.16,0,0,1-.36,5.35c2.77.33,5.54.81,8.3,1.37a36.38,36.38,0,0,0-7.41-19.21A51.83,51.83,0,0,0,1579.31,400.6Z"/><path class="cls-9" d="M1589.83,430.53l.15,0-.13-.09Z"/><path class="cls-9" d="M1588.49,429.58c.5.32,1,.65,1.48,1,3.54.79,7,1.64,10.56,2.48.86-.27,1.7-.56,2.53-.87A114.69,114.69,0,0,0,1588.49,429.58Z"/><path class="cls-9" d="M1613.48,426.57a32.31,32.31,0,0,0,8.85-9.73c-7,4.81-14.1,9.55-23.67,11.32a46.1,46.1,0,0,1-11.92.39c.6.33,1.18.68,1.75,1a114.69,114.69,0,0,1,14.57,2.59A43,43,0,0,0,1613.48,426.57Z"/><path class="cls-9" d="M1586.63,429.42c.39.21.77.44,1.15.66l2.19.48c-.48-.33-1-.66-1.48-1C1587.87,429.52,1587.25,429.46,1586.63,429.42Z"/><path class="cls-9" d="M1584.64,428.31c.67.36,1.33.73,2,1.11.62,0,1.24.1,1.86.16-.57-.35-1.15-.7-1.75-1Q1585.69,428.46,1584.64,428.31Z"/><path class="cls-9" d="M1779.8,578c.54.26,1.07.52,1.58.8,1.74.18,3.48.38,5.21.58-.14-.42-.28-.83-.44-1.24Q1783,578,1779.8,578Z"/><path class="cls-9" d="M1773.88,562.63a51.09,51.09,0,0,0-13.57-7.23c6.91,5.55,13.72,11.19,16.76,18.51a22.79,22.79,0,0,1,1,3.32c.6.25,1.18.51,1.75.78q3.17,0,6.35.14A36.06,36.06,0,0,0,1773.88,562.63Z"/><path class="cls-9" d="M1778.2,578.05l0,.13.93.41,2.22.22c-.51-.28-1-.54-1.58-.8Z"/><path class="cls-9" d="M1778.2,578.05l1.6,0c-.57-.27-1.15-.53-1.75-.78C1778.1,577.51,1778.16,577.78,1778.2,578.05Z"/><path class="cls-9" d="M1779.81,578c.54.26,1.06.52,1.58.8q3,.32,5.91.66c.28-.4.55-.79.81-1.2C1785.34,578.07,1782.57,578,1779.81,578Z"/><path class="cls-9" d="M1792.56,563.69a27.67,27.67,0,0,0-2.73-12.18c-.42,7.45-1,14.91-5.86,21.47a28.23,28.23,0,0,1-4.78,4.74l.62.29c2.76,0,5.53.06,8.3.26A27.45,27.45,0,0,0,1792.56,563.69Z"/><path class="cls-9" d="M1778.79,578l1,0-.62-.29Z"/><path class="cls-9" d="M1778.79,578l-.33.25.71.31,2.22.22c-.52-.28-1-.54-1.58-.8Z"/><path class="cls-9" d="M1779.89,578l0,0c.52.25,1,.51,1.54.78,6.14.64,12.22,1.44,18.29,2.09,1-.33,2-.66,3.08-1C1795.11,578.89,1787.47,577.9,1779.89,578Z"/><path class="cls-9" d="M1802.76,579.93a136.66,136.66,0,0,1,26.42-5.19,65.69,65.69,0,0,0-37.6-1.13,60,60,0,0,0-11.69,4.4C1787.47,577.9,1795.11,578.89,1802.76,579.93Z"/><path class="cls-9" d="M1779,578.49l.22.1,2.22.22c-.5-.27-1-.53-1.54-.78C1779.55,578.18,1779.24,578.33,1779,578.49Z"/><path class="cls-9" d="M1804.65,558.32c-6,7.28-12,14.51-21.82,19.1-.45.2-.91.39-1.38.58,3.41,0,6.82.24,10.25.58a43.54,43.54,0,0,0,6.67-7A34.7,34.7,0,0,0,1804.65,558.32Z"/><path class="cls-9" d="M1781.45,578c-.3.13-.61.25-.91.36l.86.45c2.93.31,5.85.65,8.76,1,.52-.4,1-.8,1.54-1.22C1788.27,578.24,1784.86,578,1781.45,578Z"/><path class="cls-9" d="M1779.77,578.65l1.63.16-.86-.45Z"/><path class="cls-9" d="M1779.81,578c.54.26,1.07.52,1.59.8l3.42.38c-.27-.39-.56-.76-.85-1.14C1782.58,578,1781.2,578,1779.81,578Z"/><path class="cls-9" d="M1768.46,565.92a58,58,0,0,0-15.25-4.91c8.1,4.24,16.14,8.57,21.22,15a30.93,30.93,0,0,1,5.38,2c1.39,0,2.77,0,4.16,0A44.12,44.12,0,0,0,1768.46,565.92Z"/><path class="cls-9" d="M1778,578.06l1.21.53,2.24.22c-.52-.28-1.05-.54-1.59-.8Z"/><path class="cls-9" d="M1774.8,576.5c.1.13.2.27.29.41,1,.37,1.92.75,2.86,1.15l1.86,0a30.93,30.93,0,0,0-5.38-2Z"/><path class="cls-9" d="M1781.32,578l-.06.74.14.07c2.85.3,5.7.63,8.54,1q-.09-.69-.21-1.38C1786.92,578.16,1784.11,578,1781.32,578Z"/><path class="cls-9" d="M1767.32,550.29c6.11,7,12.1,14.1,13.73,22.36a22.46,22.46,0,0,1,.27,5.35c2.79,0,5.6.16,8.41.4a36.39,36.39,0,0,0-9.6-18.22A52,52,0,0,0,1767.32,550.29Z"/><path class="cls-9" d="M1781.25,578.8h.15l-.14-.07Z"/><path class="cls-9" d="M1779.8,578c.54.26,1.07.52,1.59.8,3.6.38,7.19.81,10.78,1.23.81-.36,1.62-.75,2.41-1.16A116.63,116.63,0,0,0,1779.8,578Z"/><path class="cls-9" d="M1804.27,572.11a32.34,32.34,0,0,0,7.66-10.7c-6.39,5.6-12.89,11.14-22.19,14a46.2,46.2,0,0,1-11.79,1.78c.63.26,1.25.53,1.85.82a116.63,116.63,0,0,1,14.78.87A42.6,42.6,0,0,0,1804.27,572.11Z"/><path class="cls-9" d="M1777.94,578.06l1.21.53,2.24.22c-.52-.28-1.05-.54-1.59-.8Z"/><path class="cls-9" d="M1775.83,577.2l2.11.86,1.86,0c-.6-.29-1.22-.56-1.85-.82C1777.24,577.21,1776.54,577.21,1775.83,577.2Z"/><path class="cls-10" d="M11.72,706c.76-.21,1.52-.4,2.28-.58q2.75-2.07,5.51-4.09c-.54-.31-1.08-.62-1.64-.91C15.75,702.16,13.69,704,11.72,706Z"/><path class="cls-10" d="M-9,695.07a64.88,64.88,0,0,0-20,4.61c12-.36,24-.57,34.11,4.42a33.58,33.58,0,0,1,4.19,2.62c.81-.29,1.62-.53,2.44-.77,2-1.93,4-3.79,6.15-5.58A50.77,50.77,0,0,0-9,695.07Z"/><path class="cls-10" d="M10.24,707.44l.15.12,1.29-.42L14,705.37c-.76.18-1.52.37-2.28.58C11.22,706.45,10.72,706.94,10.24,707.44Z"/><path class="cls-10" d="M10.24,707.44c.48-.5,1-1,1.48-1.49-.82.24-1.63.48-2.44.77C9.61,707,9.92,707.2,10.24,707.44Z"/><path class="cls-10" d="M11.72,706c.76-.22,1.53-.41,2.29-.58,2.08-1.57,4.17-3.11,6.26-4.65-.13-.66-.26-1.33-.41-2C17,701,14.3,703.42,11.72,706Z"/><path class="cls-10" d="M9.74,679.33A42.93,42.93,0,0,0-4.83,669c6.93,8.24,13.74,16.61,15.55,27.94a39.66,39.66,0,0,1,.13,9.31l.87-.25c2.58-2.53,5.31-4.92,8.14-7.22A42.92,42.92,0,0,0,9.74,679.33Z"/><path class="cls-10" d="M10.77,706.9l1-.95-.87.25C10.83,706.43,10.8,706.66,10.77,706.9Z"/><path class="cls-10" d="M10.77,706.9l-.06.55,1-.31c.78-.6,1.55-1.19,2.33-1.77-.76.17-1.53.36-2.29.58Z"/><path class="cls-10" d="M11.8,705.88l0,0c.74-.21,1.49-.4,2.24-.57,6.44-4.86,13-9.5,19.4-14.3.65-1.27,1.31-2.54,2-3.8C27.11,693.06,18.89,698.92,11.8,705.88Z"/><path class="cls-10" d="M35.4,687.26a164.35,164.35,0,0,1,20-29.32c-14.28,5.9-27.83,17.42-36.8,32.75a73.69,73.69,0,0,0-6.77,15.19C18.89,698.92,27.11,693.06,35.4,687.26Z"/><path class="cls-10" d="M11.38,707.23l.31-.09c.77-.6,1.55-1.19,2.33-1.78-.75.17-1.5.36-2.24.57C11.64,706.36,11.5,706.8,11.38,707.23Z"/><path class="cls-10" d="M15.94,662.76c1.51,13,2.84,26.17-1.93,39.83-.23.63-.48,1.25-.74,1.87a131.69,131.69,0,0,1,10.29-8.64A60.62,60.62,0,0,0,23,682.43,52.69,52.69,0,0,0,15.94,662.76Z"/><path class="cls-10" d="M13.27,704.46c-.17.4-.33.8-.51,1.2l1.26-.3c3.08-2.32,6.19-4.6,9.29-6.86.1-.89.19-1.79.25-2.68A131.69,131.69,0,0,0,13.27,704.46Z"/><path class="cls-10" d="M12.31,706.66l1.71-1.3-1.26.3C12.62,706,12.46,706.33,12.31,706.66Z"/><path class="cls-10" d="M11.73,705.94c.76-.21,1.52-.4,2.29-.58l3.62-2.7c-.64-.15-1.28-.29-1.93-.42Q13.67,704,11.73,705.94Z"/><path class="cls-10" d="M-10.94,703.44A70.43,70.43,0,0,0-30.25,712c11.86-2.84,23.75-5.53,34.91-3.32a38.73,38.73,0,0,1,7.07-2.76q1.93-1.91,4-3.7A58,58,0,0,0-10.94,703.44Z"/><path class="cls-10" d="M10,707.68l1.68-.54c.77-.59,1.55-1.19,2.34-1.78-.77.18-1.53.37-2.29.58C11.14,706.52,10.57,707.1,10,707.68Z"/><path class="cls-10" d="M5.48,708.87c.23,0,.46.12.68.18,1.28-.49,2.56-.94,3.84-1.37.57-.58,1.14-1.16,1.73-1.74a38.73,38.73,0,0,0-7.07,2.76Z"/><path class="cls-10" d="M13.15,704.57l.66.84.21,0c3-2.26,6-4.48,9.06-6.69q-.76-.64-1.56-1.26C18.62,699.69,15.81,702.06,13.15,704.57Z"/><path class="cls-10" d="M-27.39,688c12.7,1.89,25.35,3.95,35,11.18a36.73,36.73,0,0,1,5.52,5.41c2.66-2.51,5.47-4.88,8.37-7.16a53.85,53.85,0,0,0-27-10.56A67.86,67.86,0,0,0-27.39,688Z"/><path class="cls-10" d="M13.86,705.48l.16-.12-.21,0Z"/><path class="cls-10" d="M11.72,706c.76-.21,1.52-.4,2.29-.58,3.79-2.86,7.62-5.65,11.44-8.43.41-1.12.8-2.26,1.15-3.4A137.24,137.24,0,0,0,11.72,706Z"/><path class="cls-10" d="M29.13,677.65a47.2,47.2,0,0,0-3.24-18.2c-.56,11.67-1.29,23.38-7.3,34.8a56,56,0,0,1-9.44,12.52c.85-.31,1.71-.57,2.57-.82A137.24,137.24,0,0,1,26.6,693.54,56.54,56.54,0,0,0,29.13,677.65Z"/><path class="cls-10" d="M10,707.69c.55-.19,1.11-.36,1.67-.54.77-.6,1.55-1.19,2.34-1.78-.77.18-1.53.37-2.29.58C11.14,706.52,10.56,707.1,10,707.69Z"/><path class="cls-10" d="M7.14,708.68c1-.34,1.9-.67,2.86-1,.56-.59,1.14-1.17,1.72-1.74-.86.25-1.72.51-2.57.82C8.49,707.42,7.83,708.06,7.14,708.68Z"/><path class="cls-10" d="M1727,638.44c.72.32,1.43.65,2.14,1,2.29.08,4.57.18,6.86.3-.23-.59-.46-1.17-.71-1.74C1732.48,638.05,1729.72,638.18,1727,638.44Z"/><path class="cls-10" d="M1717.75,616.9a65,65,0,0,0-18.42-9c9.55,7.3,19,14.72,23.67,25a35.41,35.41,0,0,1,1.6,4.68c.8.29,1.59.61,2.37.94,2.75-.26,5.51-.39,8.29-.44A50.84,50.84,0,0,0,1717.75,616.9Z"/><path class="cls-10" d="M1724.88,638.66c0,.06,0,.12,0,.19l1.27.49,2.92.1c-.71-.35-1.42-.68-2.14-1Z"/><path class="cls-10" d="M1724.88,638.66l2.09-.22c-.78-.33-1.57-.65-2.37-.94C1724.7,637.89,1724.79,638.27,1724.88,638.66Z"/><path class="cls-10" d="M1727,638.44c.73.32,1.44.65,2.15,1,2.6.09,5.19.21,7.78.34.32-.59.64-1.19.94-1.8C1734.2,638,1730.57,638.1,1727,638.44Z"/><path class="cls-10" d="M1742.24,616.54a42.87,42.87,0,0,0-4.75-17.25c.18,10.77.18,21.56-5.57,31.49a39.89,39.89,0,0,1-5.78,7.31l.83.35c3.6-.34,7.23-.47,10.87-.46A42.88,42.88,0,0,0,1742.24,616.54Z"/><path class="cls-10" d="M1725.64,638.58l1.33-.14-.83-.35Z"/><path class="cls-10" d="M1725.64,638.58l-.4.39,1,.37,2.93.1c-.71-.35-1.42-.68-2.15-1Z"/><path class="cls-10" d="M1727.08,638.43l0,0c.71.31,1.4.64,2.09,1,8.07.3,16.09.83,24.09,1.15,1.3-.58,2.61-1.14,3.92-1.69C1747,638.16,1737,637.51,1727.08,638.43Z"/><path class="cls-10" d="M1757.13,638.9a164.43,164.43,0,0,1,34-10.14c-14.79-4.44-32.58-4.06-49.21,2.17a74.18,74.18,0,0,0-14.84,7.5C1737,637.51,1747,638.16,1757.13,638.9Z"/><path class="cls-10" d="M1725.89,639.22l.31.12,2.92.1c-.69-.34-1.38-.67-2.09-1Z"/><path class="cls-10" d="M1757.51,607.6c-7.07,11.08-14.32,22.1-26.64,29.68-.58.34-1.16.67-1.75,1a133.47,133.47,0,0,1,13.43-.2,60.52,60.52,0,0,0,8-10.72A52.75,52.75,0,0,0,1757.51,607.6Z"/><path class="cls-10" d="M1729.12,638.26l-1.16.62c.39.18.78.36,1.17.56,3.85.14,7.7.34,11.54.54.64-.63,1.27-1.27,1.88-1.92A133.47,133.47,0,0,0,1729.12,638.26Z"/><path class="cls-10" d="M1727,639.36l2.14.08c-.39-.2-.78-.38-1.17-.56Z"/><path class="cls-10" d="M1727,638.44c.73.31,1.44.65,2.14,1,1.51,0,3,.12,4.52.19-.4-.52-.81-1-1.23-1.55C1730.6,638.15,1728.78,638.27,1727,638.44Z"/><path class="cls-10" d="M1711,622.19a70.26,70.26,0,0,0-20.39-5.53c11,5.28,21.91,10.7,29.17,19.46a37.85,37.85,0,0,1,7.22,2.32c1.8-.17,3.62-.29,5.43-.36A58.21,58.21,0,0,0,1711,622.19Z"/><path class="cls-10" d="M1724.55,638.7l1.63.64,2.94.1c-.7-.35-1.41-.69-2.14-1C1726.17,638.52,1725.36,638.6,1724.55,638.7Z"/><path class="cls-10" d="M1720.29,636.77l.42.57c1.29.43,2.57.88,3.84,1.36.81-.1,1.62-.18,2.43-.26a37.85,37.85,0,0,0-7.22-2.32C1719.94,636.33,1720.12,636.55,1720.29,636.77Z"/><path class="cls-10" d="M1729,638.27c0,.36,0,.71,0,1.07l.19.1c3.76.14,7.51.33,11.25.52-.13-.65-.27-1.31-.42-2C1736.27,637.94,1732.6,638,1729,638.27Z"/><path class="cls-10" d="M1708,599.82c8.66,9.47,17.17,19.06,20.1,30.77a36.11,36.11,0,0,1,.87,7.68c3.65-.26,7.32-.33,11-.27a53.8,53.8,0,0,0-14.3-25.25A68,68,0,0,0,1708,599.82Z"/><path class="cls-10" d="M1728.93,639.43h.2l-.19-.1A.28.28,0,0,0,1728.93,639.43Z"/><path class="cls-10" d="M1727,638.44c.72.32,1.44.65,2.14,1,4.75.17,9.48.43,14.2.68,1-.61,2-1.25,3-1.91A137.44,137.44,0,0,0,1727,638.44Z"/><path class="cls-10" d="M1758.34,627.48a47.37,47.37,0,0,0,9-16.16c-7.81,8.7-15.77,17.32-27.63,22.38a55.62,55.62,0,0,1-15.23,3.75c.85.3,1.69.64,2.51,1a137.44,137.44,0,0,1,19.37-.23A56.81,56.81,0,0,0,1758.34,627.48Z"/><path class="cls-10" d="M1724.54,638.7l1.63.64,2.94.1c-.7-.35-1.42-.68-2.14-1Z"/><path class="cls-10" d="M1721.7,637.67c1,.33,1.9.68,2.84,1l2.43-.26c-.82-.35-1.66-.69-2.51-1C1723.54,637.55,1722.62,637.62,1721.7,637.67Z"/><rect class="cls-11" x="1024.66" y="530.98" width="52.22" height="280" rx="26.11" ry="26.11"/><rect class="cls-11" x="1076.88" y="633.08" width="44.44" height="37.9"/><rect class="cls-11" x="1113.55" y="533.66" width="34.44" height="140" rx="17.22" ry="17.22"/><rect class="cls-11" x="967.99" y="633.08" width="33.33" height="81.15" rx="16.67" ry="16.67"/><rect class="cls-11" x="991.33" y="673.65" width="42.22" height="40.57"/><rect class="cls-11" x="1765" y="562.22" width="29.41" height="108.49" rx="14.7" ry="14.7"/><rect class="cls-11" x="1789.21" y="637.16" width="51.89" height="30.61"/><rect class="cls-11" x="1835.05" y="560.02" width="33.73" height="216" rx="16.86" ry="16.86"/><rect class="cls-11" x="1868.78" y="641.32" width="40.65" height="20.82"/><path class="cls-11" d="M1913.75,662.14A11.25,11.25,0,0,0,1925,650.9V593.55a11.24,11.24,0,0,0-11.24-11.24h0a11.25,11.25,0,0,0-11.25,11.24V650.9A11.24,11.24,0,0,0,1913.75,662.14Z"/><path class="cls-11" d="M535.65,599l-4.43,0c-6.45,0-11.66,9.39-11.63,20.85l.49,189.5c0,11.46,5.29,20.71,11.74,20.66l4.42,0c6.45-.05,11.66-9.39,11.63-20.85l-.49-189.5C547.35,608.15,542.1,598.9,535.65,599Z"/><rect class="cls-11" x="547.63" y="717.9" width="34.74" height="27.71"/><rect class="cls-11" x="575.2" y="675.55" width="22.79" height="77.62" rx="11.4" ry="11.4"/><rect class="cls-11" x="480.76" y="720.07" width="39.08" height="37.02"/><path class="cls-11" d="M471,645.36v89.43c0,12.31,5.62,22.3,12.55,22.3h.08c6.93,0,12.55-10,12.55-22.3V645.34c0-13.14-6.37-23.58-13.73-22.2l-.36.07C475.77,624.55,471,634.05,471,645.36Z"/><path class="cls-10" d="M881.05,583l-4,0a10.82,10.82,0,0,0-10.62,11l.45,100.1A10.8,10.8,0,0,0,877.56,705h4a10.83,10.83,0,0,0,10.62-11l-.45-100.1A10.82,10.82,0,0,0,881.05,583Z"/><rect class="cls-10" x="891.99" y="645.8" width="31.73" height="14.64"/><rect class="cls-10" x="917.18" y="623.43" width="20.82" height="41" rx="10.41" ry="10.41"/><rect class="cls-10" x="830.92" y="646.94" width="35.69" height="19.56"/><path class="cls-10" d="M822,607.48v47.24a11.61,11.61,0,0,0,11.46,11.78h.07A11.63,11.63,0,0,0,845,654.72V607.47a11.54,11.54,0,0,0-12.54-11.72l-.33,0A11.68,11.68,0,0,0,822,607.48Z"/><rect class="cls-10" x="373.13" y="572.95" width="24.08" height="136" rx="12.04" ry="12.04"/><rect class="cls-10" x="397.21" y="622.54" width="20.49" height="18.41"/><rect class="cls-10" x="414.11" y="574.25" width="15.88" height="68" rx="7.94" ry="7.94"/><rect class="cls-10" x="347" y="622.54" width="15.37" height="39.41" rx="7.69" ry="7.69"/><rect class="cls-10" x="357.75" y="642.24" width="19.47" height="19.71"/><rect class="cls-10" x="1531" y="574.02" width="16.36" height="50.23" rx="8.18" ry="8.18"/><rect class="cls-10" x="1544.47" y="608.72" width="28.86" height="14.17"/><rect class="cls-10" x="1569.96" y="573" width="18.76" height="100" rx="9.38" ry="9.38"/><rect class="cls-10" x="1588.73" y="610.65" width="22.61" height="9.64"/><rect class="cls-10" x="1607.49" y="583.32" width="12.51" height="36.96" rx="6.25" ry="6.25"/><path class="cls-11" d="M30,1079c1,0,3,3,4,4,12,1,24-1,36,0,1,1,2,3,4,4,5,1,11-1,16,1,9,4,16,2,24,3,2,1,2,3,4,4,13,3,29,0,40,1,87,8,173,5,260,2,8,0,16-3,24-3,3,0,5-3,8-4,37-1,75-1,112,0,1,0,3,4,4,4,171,1,341,1,512,0,3,0,5-4,8-4,58.33-.81,116.66.35,175,.29a335.93,335.93,0,0,1,64.57-5.1l.44-.19c15-7,29,1,44-3v-4c10-3,24-1,32-2,72-7,144-3,216-2,1,0,3,4,4,4,110.56,1,221.11,2.8,331.67-.49a20.67,20.67,0,0,0,1.16-5.59c.83-12.91,1.88-31.79,2.56-53.9-2.79.24-5.42.44-6.39-1-6-8-1-19-3-31-7-46-1-91-2-136,0-1-3-2-4-4-2-5,2-9-3-17-3-5,0-12-1-19l-4-4a63.29,63.29,0,0,1,0-11.84c-3.43-6.73-7.3-12.31-11.7-16.45-37.57-35.44-99-17.15-132.37-3.06a20.41,20.41,0,0,1-27.46-12.88c-6.66-21.6-24-51-69.24-59-57.09-10-91.34,50.9-103.9,78.93a20.18,20.18,0,0,1-16.61,11.63c-39.65,4-95.88,108-110.7,86.17-30.24-44.53-64-82.68-75.85-95.74a20.41,20.41,0,0,0-10.71-6.19L1167,732.84a20.35,20.35,0,0,0-13.65,1.76c-22,11.21-92.33,47.85-104.22,62.52C1037.11,812,886,809.68,842.27,808.69a20.38,20.38,0,0,0-17.94,9.88h0a20.42,20.42,0,0,1-22.24,9.32l-153-36.68s12.19-.84-92.67,4.57c-57.09,2.94-96,31-119.54,56a20.43,20.43,0,0,1-34.84-9.65c-8.44-38.29-28.58-86.72-76.58-97.92C271,731.48,213.72,767.48,181.36,793.13a20.42,20.42,0,0,1-32.4-10.6c-8.05-28.94-26.51-65.52-68.34-63C16.37,723.33-22.74,912.88-27.45,937a20.79,20.79,0,0,0-.36,5l7.1,137.8C-4.08,1080.81,13,1078.26,30,1079Z"/><path class="cls-11" d="M1622,1079c-1,0-3-4-4-4-72-1-144-5-216,2-8,1-22-1-32,2v4c-15,4-29-4-44,3l-.44.19c14.06.16,28.1,1,41.94,2.31,16.94,1.61,33.88,3.93,50.67,7.06q25.65-.32,51.3-.41c101.15-6.12,202.87-7.8,303.53,2.81l162.22-6a20.41,20.41,0,0,0,18.45-13.47C1843.11,1081.8,1732.56,1080,1622,1079Z"/><g class="cls-6"><path d="M591.45,35.79c-24,0-43.43,13.13-43.43,29.34C548,71.84,551.35,78,557,83c23.71-.64,47.32-1.4,70.93-1.84,4.43-4.59,7-10.08,7-16C634.88,48.93,615.44,35.79,591.45,35.79Z"/><path d="M636.41,42.31c-16.46,0-29.8,11.68-29.8,26.08a23.46,23.46,0,0,0,4,13.09c17.34-.41,34.67-.71,52-.73a23.36,23.36,0,0,0,3.55-12.35C666.21,54,652.87,42.31,636.41,42.31Z"/><path d="M682,59.35c0-14.17-13.92-25.66-31.08-25.66s-31.07,11.49-31.08,25.66c0,9.1,5.74,17.1,14.39,21.65,11.27-.17,22.54-.27,33.83-.24C676.47,76.17,682,68.3,682,59.35Z"/><ellipse cx="702.38" cy="50.73" rx="34.64" ry="25.45"/><path d="M692.83,54.52c-19.62,0-35.84,11.42-38.47,26.26q11-.06,22,0,27.48.27,55,.39C729,66.16,712.64,54.52,692.83,54.52Z"/><path d="M755.62,53.89c-19.56,0-35.41,12-35.41,26.71,0,.18,0,.36,0,.53,23.59.14,47.18.26,70.77.53,0-.35,0-.7,0-1.06C791,65.85,775.17,53.89,755.62,53.89Z"/><ellipse cx="751.54" cy="50.73" rx="31.33" ry="27.77"/><path d="M624.18,62.93c-16.83,0-31.15,8-36.48,19.16,24.12-.68,48.18-1.27,72.28-1.33C654.18,70.29,640.34,62.93,624.18,62.93Z"/></g><g class="cls-6"><path d="M988.8,80.17c-18.65,0-33.78,5.68-33.78,12.7,0,2.91,2.59,5.58,7,7.72,18.44-.27,36.8-.6,55.17-.79,3.44-2,5.44-4.37,5.44-6.92C1022.58,85.86,1007.46,80.17,988.8,80.17Z"/><path d="M1023.77,83c-12.8,0-23.18,5.06-23.18,11.3,0,2.07,1.14,4,3.12,5.67,13.49-.18,27-.31,40.47-.32a7.28,7.28,0,0,0,2.77-5.35C1047,88.05,1036.57,83,1023.77,83Z"/><path d="M1059.23,90.37c0-6.14-10.82-11.11-24.17-11.11s-24.17,5-24.17,11.11c0,3.94,4.46,7.41,11.19,9.38q13.15-.12,26.31-.1C1054.92,97.66,1059.23,94.25,1059.23,90.37Z"/><ellipse cx="1075.08" cy="86.64" rx="26.94" ry="11.02"/><path d="M1067.65,88.28c-15.26,0-27.88,5-29.92,11.37q8.57,0,17.14,0,21.38.1,42.76.17C1095.76,93.32,1083.05,88.28,1067.65,88.28Z"/><path d="M1116.49,88c-15.21,0-27.54,5.18-27.54,11.57v.23q27.52.09,55,.23c0-.15,0-.31,0-.46C1144,93.19,1131.69,88,1116.49,88Z"/><ellipse cx="1113.32" cy="86.64" rx="24.37" ry="12.03"/><path d="M1014.26,91.92c-13.09,0-24.23,3.46-28.38,8.3,18.76-.29,37.47-.55,56.22-.57C1037.59,95.11,1026.82,91.92,1014.26,91.92Z"/></g><rect class="cls-9" x="578.74" y="432.96" width="14.51" height="86" rx="7.25" ry="7.25"/><rect class="cls-9" x="593.25" y="464.32" width="12.35" height="11.64"/><rect class="cls-9" x="603.44" y="433.78" width="9.57" height="43" rx="4.78" ry="4.78"/><rect class="cls-9" x="563" y="464.31" width="9.26" height="24.92" rx="4.63" ry="4.63"/><rect class="cls-9" x="569.49" y="476.78" width="11.73" height="12.46"/><rect class="cls-9" x="1211" y="462.91" width="13.97" height="45.71" rx="6.98" ry="6.98"/><rect class="cls-9" x="1222.51" y="494.49" width="24.65" height="12.9"/><rect class="cls-9" x="1244.28" y="461.99" width="16.02" height="91" rx="8.01" ry="8.01"/><rect class="cls-9" x="1260.3" y="496.24" width="19.31" height="8.77"/><rect class="cls-9" x="1276.32" y="471.38" width="10.68" height="33.63" rx="5.34" ry="5.34"/><path class="cls-12" d="M1622,1079c-1,0-3-4-4-4-72-1-144-5-216,2-8,1-22-1-32,2v4c-15,4-29-4-44,3l-.44.19c14.06.16,28.1,1,41.94,2.31,16.94,1.61,33.88,3.93,50.67,7.06q25.65-.32,51.3-.41c122.08-7.39,245-8.33,365.86,11a4,4,0,0,1,3.54,4.82H1958c1-5-1-11,1-16a41.46,41.46,0,0,0,3-16c.09-.26.19-.51.29-.76C1848.86,1081.9,1735.43,1080,1622,1079Z"/><path class="cls-13" d="M-38,1077c22,6,45,1,68,2,1,0,3,3,4,4,12,1,24-1,36,0,1,1,2,3,4,4,5,1,11-1,16,1,9,4,16,2,24,3,2,1,2,3,4,4,13,3,29,0,40,1,87,8,173,5,260,2,8,0,16-3,24-3,3,0,5-3,8-4,37-1,75-1,112,0,1,0,3,4,4,4,171,1,341,1,512,0,3,0,5-4,8-4,58.33-.81,116.66.35,175,.29a335.93,335.93,0,0,1,64.57-5.1l.44-.19c15-7,29,1,44-3v-4c10-3,24-1,32-2,72-7,144-3,216-2,1,0,3,4,4,4,113.43,1,226.86,2.9,340.29-.76,1.06-2.59,2.8-4.5,3.71-7.24,1-7-1-13,0-20,1-1,3-2,4-4,1-10,2-21-5-27-3-3-12,1-14-2-6-8-1-19-3-31-7-46-1-91-2-136,0-1-3-2-4-4-2-5,2-9-3-17-3-5,0-12-1-19l-4-4c-1-8,1-16,0-24-1-1-4-3-4-4-1-39-1-77,0-116h4c4-15,0-29,1-44,8-86,4-171,3-256,0-1-4-3-4-4-1-99-1-197,0-296,0-1,4-3,4-4,1-29,4-58-2-88-.34-2-.63-4-.9-6H-69A12,12,0,0,0-81-23V1075.91C-66.27,1076.53-50.42,1073.69-38,1077Z"/><path class="cls-14" d="M168.6,591c-2.77-5.24-5.74-10.29-8.86-15.14a16.07,16.07,0,0,0,1.44,2.65Q165.08,584.7,168.6,591Z"/><path class="cls-14" d="M168.6,591q-3.51-6.3-7.42-12.49a16.07,16.07,0,0,1-1.44-2.65c-37.83-58.81-99.86-88.71-151.68-68.39-61.87,24.27-85.75,110.94-53.33,193.58q3.87,9.87,8.55,19.06a6.78,6.78,0,0,1,2,3.67s0,.07,0,.11l.21.39c4.61,5.78,7.83,12.11,11.22,18.51l1.76,2.55a41.85,41.85,0,0,1,4.65,6.33c38.17,49.89,94.59,73.81,142.34,55.08,61.87-24.26,85.75-110.93,53.34-193.57A215.64,215.64,0,0,0,168.6,591Z"/><rect class="cls-14" x="103.46" y="759.84" width="85.69" height="179.79" rx="12" ry="12" transform="translate(-300.16 112.09) rotate(-21.42)"/><path class="cls-15" d="M178.84,785.59s13.56-35.49,4-32.2-31.67,6-31.67,6Z"/><polygon class="cls-16" points="150.87 760.03 146.88 793.02 180.86 785.02 150.87 760.03"/><polygon class="cls-15" points="147.82 794.42 150.35 759.59 117.53 767.31 147.82 794.42"/><polygon class="cls-15" points="112.51 802.51 116.82 766.4 79.73 775.12 112.51 802.51"/><path class="cls-15" d="M78.84,816.89l-.36-42.46s-53.75,32.79-43.69,29.7S76.67,815.91,78.84,816.89Z"/><polygon class="cls-16" points="116.93 768.12 113.06 801.37 147.04 793.37 116.93 768.12"/><polygon class="cls-16" points="78.22 774.64 80.34 813.67 114.17 800.01 78.22 774.64"/><path class="cls-16" d="M55,788.86c5.68,10.69,11.9,21.63,16.49,32.57,14.46-8.58,16.33-11.6,15.45-13.41Z"/><path class="cls-17" d="M161.18,578.51a20.84,20.84,0,0,1-3-7.74,8.77,8.77,0,0,0-.94.33L-56.65,655a14.63,14.63,0,0,0-2.06,1c3,11.81,5.31,23.9,8.84,35.61a12.16,12.16,0,0,0,7.35-.6l213.91-83.9a13,13,0,0,0,4.21-2.65A258.21,258.21,0,0,0,161.18,578.51Z"/><path class="cls-17" d="M182.69,635.94l-213.91,83.9a13,13,0,0,0-4,2.44,5.13,5.13,0,0,1,.44,1.5c0,.09,0,.18,0,.27,5,6.25,8.43,13.15,12.13,20.1,3,3.33,5.74,6.79,7.37,11l209-82A167,167,0,0,0,187.34,635,13.16,13.16,0,0,0,182.69,635.94Z"/><path class="cls-18" d="M174.07,601.35a13.92,13.92,0,0,0-3,.79L-42.87,686a11.09,11.09,0,0,0-6.72,6.51A109.35,109.35,0,0,0-39,717.12c.78,2,3.22,3.32,4,5.76a12.57,12.57,0,0,0,6.23-.82l213.9-83.89a13,13,0,0,0,2.67-1.41A199.69,199.69,0,0,0,174.07,601.35Z"/><ellipse class="cls-19" cx="48.33" cy="591.44" rx="16.15" ry="13.1" transform="matrix(0.93, -0.37, 0.37, 0.93, -212.61, 58.48)"/><ellipse class="cls-19" cx="112.15" cy="566.41" rx="16.15" ry="13.1" transform="translate(-199.07 80.05) rotate(-21.42)"/><path class="cls-14" d="M820.07,885.59q6.45-6.14,12.19-12.63a16.63,16.63,0,0,0-2.17,2.1Q825.19,880.51,820.07,885.59Z"/><path class="cls-14" d="M620.05,744.29c-1.67,2-3.28,4.11-4.84,6.19A42.36,42.36,0,0,0,620.05,744.29Z"/><path class="cls-14" d="M637.23,725.74a6.81,6.81,0,0,0,3-2.88q-1.58,1.46-3.1,2.92Z"/><path class="cls-14" d="M622,741.9c5.24-5,10.46-9.81,14.78-15.81A204.23,204.23,0,0,0,622,741.9Z"/><path class="cls-14" d="M820.07,885.59q5.11-5.08,10-10.53a16.63,16.63,0,0,1,2.17-2.1c46.37-52.33,58.38-120.13,24.79-164.52-40.1-53-130-52.54-200.78,1q-8.46,6.4-16,13.4a6.81,6.81,0,0,1-3,2.88l-.1,0-.32.31c-4.32,6-9.54,10.82-14.78,15.81-.67.79-1.33,1.59-2,2.39a42.36,42.36,0,0,1-4.84,6.19c-37.7,50.24-45.47,111-14.52,151.93,40.1,53,130,52.54,200.79-1A213.77,213.77,0,0,0,820.07,885.59Z"/><rect class="cls-14" x="522.11" y="844.22" width="85.69" height="179.79" rx="12" ry="12" transform="translate(968.99 -80.04) rotate(52.89)"/><path class="cls-15" d="M635.51,948.1s37.84,3.44,32.08-4.91-14.31-28.88-14.31-28.88Z"/><polygon class="cls-16" points="652.55 914.25 619.72 919.33 636.61 949.88 652.55 914.25"/><polygon class="cls-15" points="618.62 920.62 652.84 913.63 636.52 884.12 618.62 920.62"/><polygon class="cls-15" points="601.27 888.81 637.21 883.19 618.77 849.85 601.27 888.81"/><path class="cls-15" d="M578.32,860.29l40.78-11.84s-46.11-42.87-40.41-34S578.68,857.93,578.32,860.29Z"/><polygon class="cls-16" points="635.59 883.77 602.52 889.03 619.41 919.58 635.59 883.77"/><polygon class="cls-16" points="618.83 848.26 581.83 860.86 604.13 889.73 618.83 848.26"/><path class="cls-16" d="M598.86,829.74c-8.76,8.36-17.61,17.3-26.9,24.68,12.17,11.6,15.59,12.58,17.09,11.25Z"/><path class="cls-17" d="M830.09,875.06a21,21,0,0,1,6.65-5c-.18-.27-.37-.55-.57-.82L697.53,686.05a14,14,0,0,0-1.54-1.7c-10.56,6.07-21.57,11.57-31.89,18.14a12.15,12.15,0,0,0,2.57,6.91L805.31,892.63A13,13,0,0,0,809,896,255,255,0,0,0,830.09,875.06Z"/><path class="cls-17" d="M620.91,743c5.69-5.44,11.41-10.58,16.07-17.11C629,729.19,625.19,736.3,620.91,743Z"/><path class="cls-17" d="M780.62,911.31,642,728.08a13.06,13.06,0,0,0-3.42-3.17,5.25,5.25,0,0,1-1.33.83l-.25.11c-4.66,6.53-10.38,11.67-16.07,17.11-2.41,3.76-5,7.37-8.58,10.07l135.48,179a166.52,166.52,0,0,0,35-16.53A13.24,13.24,0,0,0,780.62,911.31Z"/><path class="cls-18" d="M811.59,893.66A13,13,0,0,0,810,891L671.37,707.72a11.12,11.12,0,0,0-8.09-4.71,109.23,109.23,0,0,0-20.78,16.87c-1.7,1.29-2.33,4-4.46,5.41a12.54,12.54,0,0,0,2.47,5.78L779.15,914.3a14,14,0,0,0,2.07,2.19A200.29,200.29,0,0,0,811.59,893.66Z"/><ellipse class="cls-19" cx="737.22" cy="703.85" rx="13.31" ry="16.75" transform="translate(-274.62 581.08) rotate(-36.76)"/><ellipse class="cls-19" cx="787.12" cy="769.92" rx="13.1" ry="16.15" transform="translate(-305.13 630.87) rotate(-37.11)"/><ellipse class="cls-19" cx="828.48" cy="824.59" rx="13.1" ry="16.15" transform="translate(-329.73 666.9) rotate(-37.11)"/><g class="cls-20"><path d="M779.76,566.94c-39.35,142.42-282.41,264.91-420.94,216C211.58,730.89,127.94,497.33,168.41,342,248.73,33.71,428.83,70,589.35,126,744.14,180.1,862.13,268.88,779.76,566.94Z"/><path d="M242.66,565.76c100.67,97.19,219.91,136,361,106.09,5.18,1.52,8,7.57,6.28,13.44q52.47,29.78-92.48,315c-1.72,5.88-7.37,9.44-12.55,7.91l-361-106.08c-5.18-1.53-8-7.58-6.28-13.45,21.8-213.75,49.33-358.42,92.47-315C231.83,567.8,237.48,564.24,242.66,565.76Z"/><ellipse cx="344.03" cy="383.68" rx="134.94" ry="119.02" transform="translate(-120.82 606.12) rotate(-73.69)"/><ellipse cx="627.34" cy="472.67" rx="134.94" ry="119.02" transform="translate(-2.49 942.02) rotate(-73.69)"/><ellipse cx="381.11" cy="586.33" rx="26.89" ry="23.72" transform="translate(-288.66 787.44) rotate(-73.69)"/><path d="M403.74,593.44l-15.61-4.9c17-18,30.3-53.67,19.73-63.79s15.61,4.9,15.61,4.9Z"/><ellipse cx="473.71" cy="616.39" rx="26.89" ry="23.72" transform="translate(-250.91 897.93) rotate(-73.69)"/><path d="M451.21,609.69l15.68,4.67c-4.12-24.45,4.61-61.53,19-64s-15.68-4.67-15.68-4.67Z"/><path d="M498.51,945.93A1255.55,1255.55,0,0,1,179.3,845.66c-5.15-1.61-7.88-7.72-6.08-13.57-16.34-65.15,23.32-121.45,55.36-179,1.81-5.84,7.5-9.3,12.65-7.69Q380.36,761.23,560.45,745.7c5.15,1.62,7.88,7.73,6.07,13.57,7.91,57.25-17.25,117.52-55.35,179C509.36,944.09,503.66,947.55,498.51,945.93Z"/><path d="M483.83,932.24a1180.6,1180.6,0,0,1-290.25-91.17c-4.69-1.47-7.22-6.88-5.63-12-15.37-57.58,20.1-106.89,48.66-157.32,1.59-5.14,6.72-8.14,11.41-6.67q127.11,103.31,290.25,91.17c4.68,1.47,7.21,6.88,5.62,12,7.66,50.55-14.64,103.47-48.66,157.32C493.64,930.71,488.51,933.71,483.83,932.24Z"/><polygon points="534.94 847.53 197 741.38 195.35 746.7 533.3 852.85 534.94 847.53"/><polygon points="233.66 863.71 227.42 861.75 280.85 688.99 287.1 690.95 233.66 863.71"/><polygon points="303.12 885.53 293.76 882.59 342.81 724 352.18 726.94 303.12 885.53"/><polygon points="390.92 922.82 379.99 919.39 431.78 751.94 442.71 755.38 390.92 922.82"/><polygon points="456.87 933.82 445.17 930.14 499.7 753.84 511.41 757.51 456.87 933.82"/><path d="M554.17,409l1,.31c2.31.73,3.72,2,4.24,3.71a6.91,6.91,0,0,1,5.77-.52,4.63,4.63,0,0,1,2.6,1.72,6.61,6.61,0,0,0-3.8,4.31l-5.51,17.83q-1.73,5.58.52,8,.48.48.45.57l0,.09q-3.75.38-5.21,5.1l-3,9.6c-.56,1.82-.4,3.17.5,4.05l1.28.73.67.12,16,5c1.83.57,3.66,0,5.48-1.65l.19.06a6.81,6.81,0,0,1-.21,1.5l-.37,1.21a11.2,11.2,0,0,1-4.25,5.88l0,.09c.85,1.31.94,3,.29,5.12-.7,1.81-1.15,2.68-1.35,2.62a4.24,4.24,0,0,0-2.56-2.94Q543,474,543.24,473.34c-.57-.33-1.07-1.28-1.5-2.84,0-.06,0-.1-.09-.13q-3.51,2.13-9.18.35l0-.09a12.78,12.78,0,0,0,3.9-6.41l5.23-16.92c1-3.2.72-5.82-.83-7.85l-.24-.56c2.61-.53,4.46-2.53,5.53-6l5.15-16.66c.93-3,1-5.46.16-7.4l0-.09A6,6,0,0,1,554.17,409Z"/><path d="M613.88,425.14l0,0a4.38,4.38,0,0,0,2.77,2.81,19.34,19.34,0,0,1,6.24,4.81c.92.92,2,2.89,3.11,5.91a23.82,23.82,0,0,1,.75,7.59,61.76,61.76,0,0,1-2.54,12.26,9.71,9.71,0,0,0,.91,5.84l.52.87,0,.13q-2.61,1.19-5.18,5.83c-.27.48-1.1,2.77-2.5,6.85a45.67,45.67,0,0,1-3.23,6.53q-4.53,6.66-10.19,8.05a19.25,19.25,0,0,1-4.76.79,50.41,50.41,0,0,1-5.46-.58,4.76,4.76,0,0,0-2.54,1,5.1,5.1,0,0,0-2-2.56,25.49,25.49,0,0,1-5.23-3.49,16.34,16.34,0,0,1-4.08-5.75,18.56,18.56,0,0,1-1.46-8.24,62,62,0,0,1,2.9-14.37,13.65,13.65,0,0,0,0-4.5,20.46,20.46,0,0,0-1.35-3.74l0-.13q4.07-1.67,4.59-3.35a11.43,11.43,0,0,0,1.23-2.89l.12-.53q5.22-16.87,16.77-18.8a17,17,0,0,1,6,.12,10.14,10.14,0,0,0,4-.18C613.34,425.4,613.53,425.29,613.88,425.14ZM599.8,445.92l-1,3.12c-1.1,3.55-1,6.14.35,7.8l0,.08a8.31,8.31,0,0,0-3.23,2.88,16.83,16.83,0,0,0-1.61,3.86l-1.22,3.94q-2.58,8.29-.16,11a3.37,3.37,0,0,0,1.22.91,2.89,2.89,0,0,0,2.42-.52c.39,1.19.93,1.9,1.64,2.13q1.46.45,3.91-1.39,2.05-1.68,4-8.08l1.3-4.19q1.74-5.62.1-7.76l-.08,0,.08-.26q2.43-.14,3.7-4.25l1.72-5.58q2.22-7.14.19-9.1a2,2,0,0,0-1.1-.92,4.43,4.43,0,0,0-3.08.51l-.08,0c-.62-1.24-1.25-2-1.88-2.16-1.15-.36-2.59.31-4.34,2A16.69,16.69,0,0,0,599.8,445.92Z"/><path d="M655.86,438a7.88,7.88,0,0,0,3.49,3.7,19.18,19.18,0,0,1,7.57,7.56c2.09,3.34,3.94,5.27,5.54,5.77l0,.13c-3.38,1.63-5.75,2.23-7.13,1.8l-.91-.29-.41-.18q-.71,2.29-4.06,3.95a13.56,13.56,0,0,1-3.24,1l.16-.52q.36-1.17.87-2.67.56-1.81-1.44-4.15a5.18,5.18,0,0,0-2.38-2,2.83,2.83,0,0,0-2.84,1l0,0c-.39-1.45-1-2.29-1.69-2.52a4.66,4.66,0,0,0-3.16.76,6.12,6.12,0,0,0-2.37,3.2l-.13.43q-1.68,5.42,6.14,10.43a4.58,4.58,0,0,0,.89.37,7.77,7.77,0,0,0,3.78.05l0,.16c0,.17-.11.25-.16.23q-.76,2.46,3.18,6.5,6.32,8,3,18.57-3.78,12.24-15.74,14A42.29,42.29,0,0,1,639,505a5.42,5.42,0,0,0-3.53,1.79l-.07,0a6.14,6.14,0,0,0-2.29-3.29,48.76,48.76,0,0,0-4.46-2.87,18.65,18.65,0,0,1-3.78-3.75,37.41,37.41,0,0,1-2.67-4.87,24.88,24.88,0,0,0-5.07-4.82l0-.13q5.6-3.14,8.27-2.29l.31.09,1,.44.13-.43c.87-2.79,3.09-4.64,6.69-5.54l.08,0c-.46,1-.7,1.57-.72,1.62q-1.26,4.11,1.93,8.77a5.59,5.59,0,0,0,2.65,2.26,2.93,2.93,0,0,0,2.84-.82c.27,1.32.83,2.11,1.69,2.38l.23.08c.84.26,2.15-.09,3.92-1.05a7.06,7.06,0,0,0,2.8-4.06,5.93,5.93,0,0,0-2.39-7.25,8.12,8.12,0,0,0-2.16-1.15,7.39,7.39,0,0,0-3.36-.06c.4-1.93.5-3.12.3-3.56a14.53,14.53,0,0,0-3-3,33.51,33.51,0,0,1-4.92-6.29q-3.63-6.51-1-15.11l.13-.43a17.34,17.34,0,0,1,9.58-11.23c2.09-1,5-1.46,8.68-1.31A8.7,8.7,0,0,0,655.86,438Z"/><path d="M714,456.58l.19.06a14.3,14.3,0,0,1-.56,3l-.12.39a12.47,12.47,0,0,1-3.06,5,8.17,8.17,0,0,1-.13,5c-.48,1.46-.78,2.39-.91,2.8l-.22.31-.12,0a11.56,11.56,0,0,0-5.28-4.13l-4.4-1.33-5.89-1.9c-2.8-.88-4.72-.64-5.78.7a11.31,11.31,0,0,0-.94,2.22l-2.58,8.35.28.18,1.07.34c3,1,5.13.88,6.25-.22a7.44,7.44,0,0,0,2.06-1.53,5.17,5.17,0,0,1,0,3.61,10,10,0,0,1-3.7,5.05,10,10,0,0,1-.15,6.32,13.12,13.12,0,0,1-1.57,3.3h0q-1-3.48-5.31-4.85l-2.14-.67a.11.11,0,0,0-.15.09l-3.08,9.95c-.76,2.45-.38,4.24,1.15,5.35l.81.35a16.39,16.39,0,0,1,1.6.36l13.19,4.14a8.26,8.26,0,0,0,6.35-.81,26,26,0,0,1-1,3.83l0,.09a6.84,6.84,0,0,1-2.85,3.8,7,7,0,0,1,.38,3.25,40.57,40.57,0,0,1-1.15,4.38l-.08.26-.08.12a8.74,8.74,0,0,0-4.6-3.1L675,515.47a10.08,10.08,0,0,1-5.91-5.36,5.4,5.4,0,0,1-5.89,1.33l-.53-.17a16.81,16.81,0,0,1-3.79-1.81l0-.08a10.11,10.11,0,0,0,4-5.78l5.06-16.36q2-6.36-.95-9.64v-.24c3-1,4.85-2.7,5.6-5.13l3.76-12.15a21.91,21.91,0,0,0,.56-10.74,7.62,7.62,0,0,1,2.53.46l.61.19c3,1,5,2.39,5.86,4.31a9.83,9.83,0,0,1,8-.94c.53.16,1.35.39,2.47.68q5.11,1.69,9.76,3.16l1.26.39Q709.85,458.37,714,456.58Z"/><path d="M712,514.42l.42.13q3.46,1.1,4.08,5.89a8.37,8.37,0,0,1-.35,2.45l-.14.48a7,7,0,0,1-5.59,4.94,6.09,6.09,0,0,1-2.19-.22l-.42-.13c-2.31-.72-3.67-2.69-4.07-5.88a8.4,8.4,0,0,1,.34-2.46l.15-.47a7,7,0,0,1,5.58-4.94A5.86,5.86,0,0,1,712,514.42Zm24.84-47.59a11.22,11.22,0,0,0-6.1,7.15l-1.29,4.16-1.27,4.11-2,6.44q-2.08,6.75.62,9.07c-2.2-.28-3.89.93-5.09,3.62a34.34,34.34,0,0,0-2.38,6.95,20.2,20.2,0,0,0-.07,6.67q-4.76-2.07-5.91-5.37-2.53,2.1-7.7,1.09a23.76,23.76,0,0,0,3.8-5.73,31.46,31.46,0,0,0,1.88-6.89q.78-4.34-2.31-6,3.19,0,5.73-7l2-6.44,2.56-8.27a13,13,0,0,0-.25-9.19,15.71,15.71,0,0,1,5,1.11,4.68,4.68,0,0,1,2.88,3.4c1.17-1.09,2.86-1.35,5-.79A16.33,16.33,0,0,1,736.79,466.83Z"/><path d="M308.16,326.74l.69.22a7.09,7.09,0,0,1,4.21,4.08,4.49,4.49,0,0,1,.2,2.34,13.14,13.14,0,0,1,7.48-.26,3,3,0,0,1,2,1.58l-1.82.47a13.34,13.34,0,0,0-3.9,3.43q-10.14,11.53-10.88,12.58a6.87,6.87,0,0,0-.77,1.56l-.06.17a5.49,5.49,0,0,0,0,3.33,7.48,7.48,0,0,0-2.39.15q-2,.28-5.88,5.08c-3.27,3.72-4.91,5.63-4.94,5.71l-4.63,15q-1.54,5-.13,7.17l0,.09a4.53,4.53,0,0,1-2.4-.19l-.39-.12a7,7,0,0,1-4.55-3.66,7.32,7.32,0,0,1-5.7.59l-.65-.21a4.54,4.54,0,0,1-2-1.23l0-.09a5.51,5.51,0,0,0,3.07-3.83c.05,0,.17-.29.37-.92l4.92-15.92q.06-.22-1.82-13.72-1-3.17-3-3.81l0-.09a6.13,6.13,0,0,0,1.53-2.36q.69-2.25-.43-8.63-1.05-9-1.63-11.2a11,11,0,0,0-2.27-3.6l0-.2a5.24,5.24,0,0,1,4-.06,10.53,10.53,0,0,1,4.63,3.11l0-.08a5.6,5.6,0,0,1,2.59-2.42,7.86,7.86,0,0,1,4.82,0,6.91,6.91,0,0,0-1.16,1.87l-.08.26q-.45,1.42.47,6.46,1,9,1.36,10.58a4.1,4.1,0,0,0,2.38,2.46l0,.08a4.65,4.65,0,0,0-1.46,2.3q-.42,1.33.18,6.32l0,.09.31.09a10.65,10.65,0,0,0,1.45-1.73,10.87,10.87,0,0,0,2.4-3.28l.13-.43a5.3,5.3,0,0,0-.05-2.53h0c1.71.53,3.23-.25,4.58-2.36q7-8,7.74-9.06a9.17,9.17,0,0,0,.93-1.79,17.25,17.25,0,0,0,.34-3.26Z"/><path d="M343.42,336.3h0a4.36,4.36,0,0,0,2.76,2.82,19.36,19.36,0,0,1,6.25,4.81q1.36,1.38,3.11,5.91a23.56,23.56,0,0,1,.74,7.59,61.14,61.14,0,0,1-2.53,12.26,9.64,9.64,0,0,0,.91,5.84l.52.87,0,.13c-1.75.78-3.47,2.72-5.19,5.82q-.39.74-2.49,6.86a47.29,47.29,0,0,1-3.24,6.53q-4.51,6.64-10.18,8.05a19.82,19.82,0,0,1-4.76.79,50.15,50.15,0,0,1-5.46-.58,4.79,4.79,0,0,0-2.55,1.05,5.08,5.08,0,0,0-2-2.56,25.18,25.18,0,0,1-5.23-3.5,16.07,16.07,0,0,1-4.08-5.74,18.73,18.73,0,0,1-1.47-8.24,62.71,62.71,0,0,1,2.9-14.38,13.33,13.33,0,0,0,0-4.49,19.73,19.73,0,0,0-1.35-3.74l0-.13q4.08-1.66,4.59-3.36A11.26,11.26,0,0,0,316,356l.13-.53q5.2-16.86,16.76-18.79a17.1,17.1,0,0,1,6,.12,10.27,10.27,0,0,0,3.94-.18C342.88,336.56,343.07,336.44,343.42,336.3Zm-14.08,20.78-1,3.12q-1.65,5.31.34,7.79l0,.09a8.16,8.16,0,0,0-3.23,2.88,17.24,17.24,0,0,0-1.62,3.86l-1.21,3.93q-2.58,8.31-.16,11.06a3.29,3.29,0,0,0,1.22.91,2.9,2.9,0,0,0,2.42-.52,2.94,2.94,0,0,0,1.64,2.13q1.46.45,3.9-1.39,2.07-1.68,4-8.08l1.3-4.2c1.15-3.74,1.19-6.33.09-7.75l-.07,0,.08-.26c1.61-.09,2.85-1.51,3.69-4.25l1.73-5.58q2.21-7.14.18-9.1a1.91,1.91,0,0,0-1.09-.92,4.45,4.45,0,0,0-3.09.5l-.07,0q-.93-1.86-1.89-2.16-1.71-.54-4.34,2A16.87,16.87,0,0,0,329.34,357.08Z"/><path d="M370.46,347l.83.27a5.75,5.75,0,0,1,4,3.63c1.33-.88,3.07-1,5.2-.31l.53.17a4.88,4.88,0,0,1,2.62,1.67l0,.09c-1.82.5-3.13,2-3.91,4.56L374.19,375q-1.28,4.11.21,5.95s.33.51,1,1.46a5.23,5.23,0,0,0-2.42,1.18c-1.25.9-2.36,2.93-3.34,6.07l-.29.95q-2.14,6.93-1.11,9.15a4.88,4.88,0,0,0,1.92,3.11.51.51,0,0,1,.27.19c1.15.36,2.44-.08,3.88-1.3l.15,0q.54,2.82,1.38,3.09,1.41.44,4.09-1.71,2.22-2.06,4-7.81c.14-.27.47-1.26,1-3,1-3.23,1-5.42,0-6.59-.21-.13-.3-.25-.26-.36q2.48-.6,3.54-4l6.13-19.81a6.31,6.31,0,0,0-.85-6.06,3.62,3.62,0,0,1,2.18.12l.76.24a.38.38,0,0,0,.3,0,13.89,13.89,0,0,1,4.73,2.95l.55.65a6.35,6.35,0,0,1,5.48-.41,11.36,11.36,0,0,1,2.21,1l0,0c-1.51,1-2.74,3.05-3.68,6.1l-5.65,18.26c-.8,2.59-.81,4.46,0,5.59a3.76,3.76,0,0,0,.8.54l-.08.26c-.59-.19-1.39.3-2.42,1.47a17,17,0,0,0-2.19,4.63c-.1.41-.19.75-.27,1l-.42,1.39q-3,9.69-7.26,13.33c-2.46,2.52-6.06,4-10.82,4.29q-5.06-.3-6.59.5a9.25,9.25,0,0,0-2.32,1.69,8.15,8.15,0,0,0-2.68-4.88A30.63,30.63,0,0,1,360,410a16.86,16.86,0,0,1-4.62-9.8q-.87-4.78,1.88-13.65l.77-2.51c.95-3.06.73-5.59-.65-7.61,2.13-.41,3.58-1.86,4.36-4.37l5.93-19.17q.72-2.32-1-6.11A7.81,7.81,0,0,1,370.46,347Z"/></g><path class="cls-2" d="M757.37,566.32c-37.34,135-264,252.17-392.49,206.59-136.62-48.44-213.14-269-174.69-416.21C266.5,64.54,433.75,97.9,582.69,150.1,726.3,200.44,835.53,283.83,757.37,566.32Z"/><path class="cls-2" d="M258,568c93.08,91.44,203.73,127.55,335.09,98.48,4.81,1.41,7.4,7.12,5.77,12.69q48.63,27.88-87.65,298.58c-1.63,5.56-6.91,9-11.71,7.55L164.44,886.87c-4.81-1.42-7.41-7.13-5.77-12.69,21.4-202.39,47.77-339.43,87.65-298.58C248,570,253.22,566.63,258,568Z"/><ellipse cx="353.25" cy="395.21" rx="127.9" ry="110.47" transform="translate(-125.26 623.25) rotate(-73.69)"/><ellipse cx="616.17" cy="477.91" rx="127.9" ry="110.47" transform="translate(-15.56 935.07) rotate(-73.69)"/><ellipse cx="386.64" cy="586.78" rx="25.49" ry="22.02" transform="translate(-285.11 793.07) rotate(-73.69)"/><path d="M407.64,593.39l-14.48-4.56c15.88-17.12,28.45-51,18.68-60.47s14.49,4.56,14.49,4.56Z"/><ellipse cx="472.57" cy="614.73" rx="25.49" ry="22.02" transform="translate(-250.13 895.64) rotate(-73.69)"/><path d="M451.69,608.51l14.55,4.34c-3.7-23.12,4.61-58.25,18-60.68s-14.55-4.34-14.55-4.34Z"/><path d="M493.88,926.43a1141.68,1141.68,0,0,1-296.24-93.18c-4.78-1.51-7.29-7.27-5.58-12.81-14.85-61.56,22.32-115.06,52.42-169.65,1.71-5.54,7-8.85,11.8-7.34Q385,752.28,552.53,736.63c4.78,1.51,7.29,7.27,5.57,12.81,7,54.14-16.66,111.3-52.41,169.65C504,924.63,498.66,927.94,493.88,926.43Z"/><path class="cls-2" d="M480.3,913.55a1073,1073,0,0,1-269.36-84.73c-4.35-1.36-6.67-6.47-5.17-11.34-14-54.41,19.26-101.25,46.08-149.12,1.5-4.88,6.29-7.74,10.64-6.38q117.63,97.08,269.36,84.73c4.35,1.37,6.67,6.48,5.17,11.35,6.85,47.79-14.17,98-46.08,149.12C489.44,912.05,484.65,914.92,480.3,913.55Z"/><polygon points="528.27 833.13 214.65 734.47 213.09 739.51 526.72 838.17 528.27 833.13"/><polygon points="248.08 850.04 242.29 848.21 292.89 684.45 298.68 686.27 248.08 850.04"/><polygon points="312.55 870.31 303.86 867.58 350.3 717.25 358.99 719.99 312.55 870.31"/><polygon points="393.97 905.14 383.83 901.95 432.87 743.22 443.01 746.41 393.97 905.14"/><polygon points="455.24 915.2 444.37 911.78 496.01 744.65 506.87 748.07 455.24 915.2"/><path class="cls-21" d="M548.56,418.07l.92.29c2.15.67,3.46,1.84,3.93,3.48a6.32,6.32,0,0,1,5.36-.51,4.21,4.21,0,0,1,2.41,1.61,6.27,6.27,0,0,0-3.55,4.1l-5.22,16.9c-1.09,3.52-.95,6.06.44,7.6q.43.46.42.54l0,.08c-2.33.26-4,1.88-4.88,4.86l-2.81,9.1c-.53,1.72-.38,3,.45,3.83l1.18.69.63.11,14.85,4.67q2.55.79,5.11-1.59l.18.06a7.62,7.62,0,0,1-.21,1.42l-.35,1.14a10.79,10.79,0,0,1-4,5.59l0,.08a5.65,5.65,0,0,1,.25,4.85c-.66,1.71-1.08,2.54-1.27,2.48a3.93,3.93,0,0,0-2.36-2.77q-22.14-7-21.94-7.62c-.52-.31-1-1.21-1.38-2.68,0-.06,0-.1-.08-.12q-3.27,2-8.54.38l0-.09a12.25,12.25,0,0,0,3.66-6.09l5-16c.93-3,.69-5.51-.74-7.43l-.22-.52c2.44-.52,4.16-2.42,5.18-5.71L545.8,425c.88-2.85.94-5.18.19-7l0-.08A5.35,5.35,0,0,1,548.56,418.07Z"/><path class="cls-21" d="M604,433.08h0a4,4,0,0,0,2.56,2.65,17.76,17.76,0,0,1,5.78,4.52c.84.86,1.8,2.72,2.85,5.57a22.63,22.63,0,0,1,.66,7.18,59.33,59.33,0,0,1-2.43,11.61,9.39,9.39,0,0,0,.82,5.53l.48.82,0,.12q-2.43,1.13-4.85,5.54-.36.69-2.36,6.5a43.21,43.21,0,0,1-3,6.2q-4.23,6.32-9.51,7.67a17.75,17.75,0,0,1-4.42.77,46.22,46.22,0,0,1-5.08-.52,4.46,4.46,0,0,0-2.37,1,4.71,4.71,0,0,0-1.82-2.41,23.21,23.21,0,0,1-4.84-3.28,15.1,15.1,0,0,1-3.76-5.41,17.93,17.93,0,0,1-1.32-7.8,60.27,60.27,0,0,1,2.77-13.61,13.07,13.07,0,0,0,.07-4.26A18.55,18.55,0,0,0,573,458l0-.13c2.53-1.06,4-2.13,4.29-3.19a11.29,11.29,0,0,0,1.16-2.74l.11-.51q5-16,15.69-17.87a15.68,15.68,0,0,1,5.56.08,9.27,9.27,0,0,0,3.67-.19C603.49,433.32,603.67,433.22,604,433.08Zm-13.2,19.74-.91,2.95c-1,3.36-.94,5.82.28,7.38l0,.08a7.77,7.77,0,0,0-3,2.74,16.59,16.59,0,0,0-1.52,3.66l-1.15,3.73c-1.63,5.25-1.69,8.74-.21,10.47a3.21,3.21,0,0,0,1.13.85,2.72,2.72,0,0,0,2.26-.51c.35,1.13.85,1.8,1.51,2,.9.28,2.11-.17,3.63-1.34,1.29-1.06,2.56-3.62,3.81-7.66l1.23-4c1.09-3.55,1.14-6,.13-7.34l-.07,0,.07-.25q2.26-.13,3.46-4l1.64-5.29q2.09-6.76.22-8.61a1.81,1.81,0,0,0-1-.86,4.07,4.07,0,0,0-2.87.49l-.07,0c-.57-1.17-1.15-1.85-1.74-2q-1.59-.51-4,1.92A16.41,16.41,0,0,0,590.79,452.82Z"/><path class="cls-21" d="M643,445a7.38,7.38,0,0,0,3.23,3.49,17.71,17.71,0,0,1,7,7.1c1.92,3.16,3.63,5,5.11,5.44l0,.12q-4.71,2.34-6.62,1.74l-.85-.27-.38-.16c-.45,1.45-1.71,2.7-3.8,3.75a12.41,12.41,0,0,1-3,1l.15-.5c.23-.73.5-1.58.82-2.53.36-1.15-.08-2.45-1.31-3.92a4.83,4.83,0,0,0-2.2-1.91,2.65,2.65,0,0,0-2.65.92h0c-.35-1.37-.87-2.16-1.55-2.38a4.3,4.3,0,0,0-2.95.74,6,6,0,0,0-2.22,3l-.12.41q-1.59,5.13,5.65,9.83a4.4,4.4,0,0,0,.82.35,7.16,7.16,0,0,0,3.53,0l0,.14c0,.17-.1.24-.15.23q-.72,2.34,2.92,6.13,5.84,7.51,2.73,17.55-3.6,11.61-14.71,13.33a38.1,38.1,0,0,1-5.37-.21,5.08,5.08,0,0,0-3.29,1.72l-.07,0a5.66,5.66,0,0,0-2.11-3.09,43.86,43.86,0,0,0-4.13-2.69,17,17,0,0,1-3.49-3.53,35.78,35.78,0,0,1-2.46-4.6,23,23,0,0,0-4.69-4.53l0-.13q5.22-3,7.7-2.21l.28.09s.35.15.89.41l.12-.41q1.23-4,6.25-5.28l.07,0c-.43,1-.65,1.49-.67,1.54q-1.2,3.9,1.75,8.29a5.14,5.14,0,0,0,2.45,2.12,2.72,2.72,0,0,0,2.65-.79c.23,1.25.75,2,1.55,2.25l.22.06c.77.25,2-.09,3.64-1a6.74,6.74,0,0,0,2.63-3.85q1.35-4.35-2.19-6.85a7.27,7.27,0,0,0-2-1.08,6.77,6.77,0,0,0-3.14,0,7.9,7.9,0,0,0,.31-3.37,13.8,13.8,0,0,0-2.73-2.84,30.82,30.82,0,0,1-4.54-5.93q-3.33-6.12-.82-14.29l.13-.41a16.61,16.61,0,0,1,9-10.68,17.09,17.09,0,0,1,8.08-1.28A8,8,0,0,0,643,445Z"/><path class="cls-21" d="M696.87,462.29l.17.06a13.76,13.76,0,0,1-.53,2.85l-.11.36a12,12,0,0,1-2.87,4.77,7.92,7.92,0,0,1-.15,4.77c-.46,1.38-.75,2.27-.86,2.65l-.21.3-.11,0a10.66,10.66,0,0,0-4.89-3.88l-4.08-1.23-5.47-1.77q-3.88-1.23-5.38.69a11.74,11.74,0,0,0-.88,2.11l-2.44,7.91.25.18,1,.31q4.25,1.34,5.82-.24a6.83,6.83,0,0,0,1.93-1.47,5,5,0,0,1,0,3.42,9.66,9.66,0,0,1-3.46,4.81,9.6,9.6,0,0,1-.18,6,13,13,0,0,1-1.47,3.14l0,0q-.89-3.29-4.92-4.56l-2-.62c-.07,0-.11,0-.14.09l-2.91,9.43c-.72,2.33-.38,4,1,5.05l.75.33c.8.16,1.3.27,1.49.33l12.23,3.85a7.64,7.64,0,0,0,5.92-.79,26.09,26.09,0,0,1-.93,3.62l0,.08a6.55,6.55,0,0,1-2.67,3.62,6.71,6.71,0,0,1,.34,3.07,40.36,40.36,0,0,1-1.1,4.16l-.07.24-.07.11a8.09,8.09,0,0,0-4.26-2.91l-15.28-4.81a9.3,9.3,0,0,1-5.47-5,5,5,0,0,1-5.48,1.28l-.49-.15a15.35,15.35,0,0,1-3.52-1.69l0-.08a9.69,9.69,0,0,0,3.71-5.49l4.79-15.5q1.86-6-.83-9.13v-.22c2.77-1,4.52-2.59,5.23-4.88l3.56-11.53a21.14,21.14,0,0,0,.58-10.16,7.17,7.17,0,0,1,2.35.42l.57.18q4.23,1.33,5.42,4.05a9.05,9.05,0,0,1,7.47-.94c.49.16,1.26.37,2.29.63q4.74,1.59,9.06,2.94l1.17.37Q693,464,696.87,462.29Z"/><path class="cls-21" d="M694.7,517l.39.12q3.21,1,3.75,5.55a8.29,8.29,0,0,1-.33,2.33l-.14.45a6.67,6.67,0,0,1-5.21,4.7,5.5,5.5,0,0,1-2-.19l-.39-.12c-2.14-.68-3.4-2.53-3.76-5.55a8.29,8.29,0,0,1,.33-2.33l.14-.45a6.68,6.68,0,0,1,5.22-4.7A5.5,5.5,0,0,1,694.7,517ZM718,471.88a10.7,10.7,0,0,0-5.71,6.8l-1.21,3.93-1.21,3.9L708,492.62q-2,6.39.53,8.58-3.06-.37-4.75,3.45a33.79,33.79,0,0,0-2.25,6.58,19.62,19.62,0,0,0-.1,6.31q-4.41-1.92-5.47-5-2.36,2-7.16,1.07a23,23,0,0,0,3.57-5.44,31.63,31.63,0,0,0,1.78-6.53q.75-4.11-2.12-5.64,3-.06,5.36-6.68l1.89-6.11,2.42-7.83a12.44,12.44,0,0,0-.18-8.7,14.73,14.73,0,0,1,4.61,1,4.35,4.35,0,0,1,2.66,3.2q1.63-1.55,4.7-.77A14.74,14.74,0,0,1,718,471.88Z"/><path class="cls-21" d="M320.28,341.59l.64.2a6.51,6.51,0,0,1,3.9,3.83,4.35,4.35,0,0,1,.17,2.21,12.08,12.08,0,0,1,7-.28,2.71,2.71,0,0,1,1.86,1.49l-1.69.45a12.79,12.79,0,0,0-3.65,3.27q-9.48,11-10.17,12a7,7,0,0,0-.73,1.48l-.05.16a5.29,5.29,0,0,0,0,3.15,6.73,6.73,0,0,0-2.23.16c-1.22.18-3.05,1.8-5.49,4.84q-4.59,5.3-4.63,5.43l-4.38,14.19q-1.46,4.71-.16,6.78l0,.09a4.22,4.22,0,0,1-2.24-.17l-.35-.11a6.41,6.41,0,0,1-4.22-3.44,6.69,6.69,0,0,1-5.3.58l-.6-.19a4.16,4.16,0,0,1-1.82-1.15l0-.08a5.29,5.29,0,0,0,2.87-3.65s.16-.27.35-.88L294,376.82q.06-.19-1.62-13-.9-3-2.81-3.58l0-.08a6.13,6.13,0,0,0,1.43-2.25q.66-2.15-.35-8.17-.94-8.52-1.46-10.58a10.19,10.19,0,0,0-2.1-3.4l0-.19a4.74,4.74,0,0,1,3.75-.08,9.65,9.65,0,0,1,4.3,2.93l0-.09a5.42,5.42,0,0,1,2.42-2.3,7.26,7.26,0,0,1,4.49-.07,6.7,6.7,0,0,0-1.09,1.77l-.08.25q-.42,1.35.4,6.11c.61,5.65,1,9,1.22,10a3.75,3.75,0,0,0,2.19,2.31l0,.08a4.38,4.38,0,0,0-1.37,2.18c-.27.85-.22,2.84.13,6l0,.08.29.09a10.72,10.72,0,0,0,1.36-1.64,10.31,10.31,0,0,0,2.24-3.12l.13-.41a5.22,5.22,0,0,0,0-2.39h0q2.37.74,4.26-2.26,6.54-7.57,7.24-8.61a8.44,8.44,0,0,0,.88-1.71,16.53,16.53,0,0,0,.33-3.09Z"/><path class="cls-21" d="M353,350.44h0a4,4,0,0,0,2.56,2.65,17.89,17.89,0,0,1,5.78,4.52c.84.87,1.8,2.73,2.86,5.58a22.92,22.92,0,0,1,.65,7.18A59.63,59.63,0,0,1,362.47,382a9.34,9.34,0,0,0,.82,5.52l.48.83,0,.12c-1.63.75-3.25,2.59-4.86,5.54-.25.46-1,2.63-2.36,6.5a44.28,44.28,0,0,1-3,6.2q-4.23,6.32-9.51,7.67a18.28,18.28,0,0,1-4.42.76,43.59,43.59,0,0,1-5.08-.51,4.41,4.41,0,0,0-2.37,1,4.74,4.74,0,0,0-1.82-2.42,23.48,23.48,0,0,1-4.84-3.28,15,15,0,0,1-3.76-5.41,17.89,17.89,0,0,1-1.32-7.79,60.35,60.35,0,0,1,2.77-13.62,12.74,12.74,0,0,0,.07-4.25,18.37,18.37,0,0,0-1.23-3.54l0-.12c2.52-1.07,3.95-2.13,4.28-3.2a11.12,11.12,0,0,0,1.16-2.74l.12-.5q4.94-16,15.68-17.88a15.44,15.44,0,0,1,5.57.09,9.21,9.21,0,0,0,3.66-.2C352.51,350.69,352.69,350.58,353,350.44Zm-13.2,19.74-.91,2.95c-1,3.37-.94,5.83.28,7.38l0,.08a7.93,7.93,0,0,0-3,2.74,17,17,0,0,0-1.52,3.66l-1.15,3.73q-2.43,7.88-.21,10.47a3.1,3.1,0,0,0,1.13.85,2.66,2.66,0,0,0,2.26-.51c.35,1.13.85,1.8,1.51,2,.9.28,2.11-.16,3.63-1.33,1.29-1.07,2.56-3.62,3.81-7.67l1.23-4c1.09-3.55,1.14-6,.13-7.33l-.07,0L347,383c1.51-.1,2.66-1.44,3.46-4l1.64-5.29q2.08-6.76.22-8.62a1.81,1.81,0,0,0-1-.86,4.08,4.08,0,0,0-2.87.5l-.07,0c-.57-1.17-1.15-1.84-1.74-2q-1.59-.49-4,1.92A16.31,16.31,0,0,0,339.81,370.18Z"/><path class="cls-21" d="M378.09,360.45l.78.24a5.31,5.31,0,0,1,3.72,3.42,5.39,5.39,0,0,1,4.83-.32l.5.15a4.48,4.48,0,0,1,2.42,1.57l0,.09c-1.7.48-2.93,1.93-3.67,4.33l-5.23,16.94q-1.2,3.88.16,5.63s.3.48.93,1.37a4.76,4.76,0,0,0-2.25,1.14q-1.75,1.29-3.14,5.76l-.28.9q-2,6.56-1.08,8.66a4.65,4.65,0,0,0,1.77,2.94.5.5,0,0,1,.26.17c1.06.33,2.26-.08,3.6-1.25l.15,0c.32,1.79.75,2.76,1.27,2.92.87.28,2.14-.27,3.8-1.63q2.08-2,3.76-7.41c.13-.26.45-1.2.95-2.81.94-3.06,1-5.14.06-6.23-.19-.13-.27-.24-.24-.35,1.54-.39,2.65-1.66,3.31-3.82l5.81-18.78a6,6,0,0,0-.76-5.73,3.35,3.35,0,0,1,2,.1l.71.23a.35.35,0,0,0,.27,0,12.75,12.75,0,0,1,4.38,2.77l.51.61a5.86,5.86,0,0,1,5.1-.42,10.66,10.66,0,0,1,2,.92v0c-1.41,1-2.56,2.9-3.46,5.79l-5.35,17.31q-1.14,3.69,0,5.29a3.42,3.42,0,0,0,.74.51l-.08.24c-.54-.17-1.29.3-2.26,1.41a16.07,16.07,0,0,0-2.05,4.39c-.1.39-.18.71-.26.95l-.4,1.31q-2.85,9.19-6.82,12.66-3.45,3.6-10.08,4.12c-3.13-.17-5.18,0-6.13.5a9,9,0,0,0-2.17,1.61,7.56,7.56,0,0,0-2.46-4.59,28.47,28.47,0,0,1-5.71-4,15.86,15.86,0,0,1-4.24-9.26q-.78-4.51,1.82-12.92l.73-2.38q1.35-4.35-.57-7.2,3-.58,4.08-4.16L375.43,366q.69-2.21-.93-5.78A6.94,6.94,0,0,1,378.09,360.45Z"/><path class="cls-14" d="M695.84,181.64c524.71,273.9,12.67,222.82-167.57,168.45S-175-77,421.55,105.1C528.1,137.62,534.94-42.57,589.12-63.35,935-196,630.69,147.63,695.84,181.64Z"/><path class="cls-16" d="M887.24,411.27c-265.27,1-507.36-92.06-728.44-270.64-11.9-4.42-19.78-17.21-17.51-28.42h0c5.31-64.84,17.48-56.75,25.77-12.34C398.85,291.65,640.55,390.78,895.5,370.51c31.34-48.8,34.51-23.13,17.51,28.42h0C910.74,410.14,899.14,415.69,887.24,411.27Z"/><ellipse class="cls-16" cx="245.31" cy="235.37" rx="10.24" ry="13.32" transform="translate(-10.65 11.63) rotate(-2.66)"/><polygon class="cls-16" points="246.05 236.81 242.39 235.79 247.61 200.29 251.28 201.31 246.05 236.81"/><ellipse class="cls-16" cx="304.08" cy="276.41" rx="10.24" ry="13.32" transform="translate(-12.49 14.4) rotate(-2.66)"/><polygon class="cls-16" points="304.82 277.85 301.15 276.82 306.38 241.33 310.04 242.35 304.82 277.85"/><ellipse class="cls-16" cx="143.21" cy="165" rx="10.24" ry="13.32" transform="translate(-7.5 6.82) rotate(-2.66)"/><polygon class="cls-16" points="143.95 166.44 140.29 165.41 145.52 129.91 149.18 130.94 143.95 166.44"/><ellipse class="cls-16" cx="901.63" cy="438.23" rx="10.24" ry="13.32" transform="translate(-19.35 42.28) rotate(-2.66)"/><polygon class="cls-16" points="902.37 439.67 898.71 438.65 903.93 403.15 907.59 404.17 902.37 439.67"/><ellipse class="cls-16" cx="189.16" cy="202.46" rx="10.24" ry="13.32" transform="translate(-9.18 8.99) rotate(-2.66)"/><polygon class="cls-16" points="189.9 203.9 186.24 202.87 191.47 167.38 195.13 168.4 189.9 203.9"/><ellipse class="cls-16" cx="851.24" cy="443.88" rx="10.24" ry="13.32" transform="translate(-19.67 39.95) rotate(-2.66)"/><polygon class="cls-16" points="851.98 445.32 848.32 444.3 853.54 408.8 857.2 409.82 851.98 445.32"/><ellipse class="cls-16" cx="796.75" cy="438.53" rx="10.24" ry="13.32" transform="translate(-19.48 37.42) rotate(-2.66)"/><polygon class="cls-16" points="797.49 439.97 793.83 438.95 799.05 403.45 802.72 404.47 797.49 439.97"/><ellipse class="cls-16" cx="732.76" cy="432.99" rx="10.24" ry="13.32" transform="translate(-19.29 34.45) rotate(-2.66)"/><polygon class="cls-16" points="733.5 434.43 729.84 433.41 735.06 397.91 738.73 398.93 733.5 434.43"/><ellipse class="cls-16" cx="638.12" cy="107.45" rx="12.81" ry="15.08" transform="translate(7.61 253.06) rotate(-22.56)"/><ellipse class="cls-16" cx="677.03" cy="117.12" rx="12.81" ry="15.08" transform="translate(6.88 268.73) rotate(-22.56)"/><ellipse class="cls-16" cx="589.58" cy="87.92" rx="12.81" ry="15.08" transform="translate(11.39 232.94) rotate(-22.56)"/><ellipse class="cls-16" cx="536.99" cy="63.08" rx="12.81" ry="15.08" transform="translate(16.89 210.86) rotate(-22.56)"/><path class="cls-15" d="M504.51,74.08s-59.51,34.6-42.83,41.15S511,143.79,511,143.79Z"/><polygon class="cls-16" points="512.17 143.12 555.96 100.91 501.15 72.54 512.17 143.12"/><polygon class="cls-15" points="556.33 97.81 512.35 144.36 565.29 171.76 556.33 97.81"/><polygon class="cls-15" points="613.05 127.6 565.19 173.89 625.01 204.85 613.05 127.6"/><path class="cls-15" d="M674.88,146.53l-49,60.77s110.19,16.24,93.1,8.87S676.66,150.46,674.88,146.53Z"/><polygon class="cls-16" points="567.03 171.31 610.98 128.58 556.17 100.21 567.03 171.31"/><polygon class="cls-16" points="626.47 207.31 669.12 149.35 607.91 129.22 626.47 207.31"/><path class="cls-16" d="M674.15,214.26c4.86-21.83,9.28-44.65,15.89-65.55-29.36-4.72-35.39-2.62-36.32,1Z"/><path class="cls-22" d="M911.94,348.72c-232.23-39.26-451.81-98.5-655.44-182.91l-.35,2.37c207.43,74.94,426.72,134.87,655.44,182.9Z"/><path class="cls-22" d="M896.33,312.33C645.58,267.9,408.24,203.71,187.79,114.61l-.34,2.37C411.87,196.66,648.91,261.55,896,314.7Z"/><path class="cls-22" d="M846.72,273.85C603.63,231.56,373.64,169.41,160.15,82.26l-.35,2.37c217.39,77.71,447.09,140.56,686.57,191.59Z"/><path class="cls-22" d="M817.68,251C585.45,211.7,365.88,152.46,162.24,68.06l-.35,2.37c207.43,74.94,426.72,134.87,655.44,182.9Z"/><path class="cls-22" d="M895.29,371.17c-206-31.95-400.51-84.18-580.37-162l-.35,2.36c183.39,68.23,377.59,121.17,580.37,162Z"/><path class="cls-22" d="M180.25,61.51c126.47,9.06,244.3,40.69,351.24,100.76l.38-2.52C422.07,110.08,304.45,77.68,180.63,59Z"/><path class="cls-23" d="M1618,1075c-72-1-144-5-216,2-8,1-22-1-32,2v4c-15,4-29-4-44,3-.15.08-.3.13-.45.2,14.06.15,28.1,1,42,2.3,16.94,1.61,33.88,3.93,50.67,7.06q25.65-.32,51.3-.41c70-4.24,140.31-6.35,210.34-3.73,1.72-3.88,3.32-7.83,4.82-11.82q-31.32-.31-62.63-.6C1621,1079,1619,1075,1618,1075Z"/></svg>
