<svg id="Layer_1" data-name="Layer 1" xmlns="http://www.w3.org/2000/svg" width="100" height="175" viewBox="0 0 100 175"><defs><style>.cls-1{fill:#e25136;}.cls-2{fill:#dd2b2d;}.cls-3{fill:#fff;}.cls-4{fill:#f7e38c;}</style></defs><title>tid</title><path class="cls-1" d="M1.57,1.3V14.7h49.3c0-4.51.68-8.88.87-13.4Z"/><path class="cls-2" d="M96.43,1.3H51.74c-.19,4.52-.9,8.89-.87,13.4H96.43Z"/><path d="M45.66,96H46l-.56-.14Z"/><path class="cls-3" d="M40.1,91.43a7.89,7.89,0,0,0-1.38-.92Z"/><path class="cls-3" d="M63.08,92.58a4.37,4.37,0,0,1,0-1.8c-.57-7.73,46.63-33.24,29-74A2.88,2.88,0,0,0,89.11,14l-38.23-.18a32.05,32.05,0,0,0,.69,7.53,32.05,32.05,0,0,1-.69-7.53l-44.2-.21a2.89,2.89,0,0,0-2.93,2.81c-2.34,32.91,11,53.07,23.42,64.89a39.38,39.38,0,0,1,4.74.18v.71c1.7.24,3.65-.45,5.11.26a7.06,7.06,0,0,0,2.18.48A7.06,7.06,0,0,1,37,82.41c-1.46-.71-3.41,0-5.11-.26v-.71a39.38,39.38,0,0,0-4.74-.18,90.3,90.3,0,0,0,11.55,9.25,7.89,7.89,0,0,1,1.38.92c2.45,1.61,4.4,2.76,5.51,3.51l.6.15c2.27,0,4.53,0,6.8-.14.24,0,.49-.7.73-.7,2.19-.22,4.38.26,6.57-.2,1.09-.16,2.17-.3,3.24-.44a4.76,4.76,0,0,1-.19-.53A5.14,5.14,0,0,1,63.08,92.58Z"/><path d="M57.8,90.15l-.37,0,.56.17Z"/><path class="cls-3" d="M95.42,171c4.45-31.94-7.28-52.78-18.72-65.42a38.16,38.16,0,0,1-4.76-.57l.06-.7c-1.7-.38-3.71.15-5.12-.68a7.63,7.63,0,0,0-2.17-.66,7.63,7.63,0,0,1,2.17.66c1.41.83,3.42.3,5.12.68l-.06.7a38.16,38.16,0,0,0,4.76.57A92.19,92.19,0,0,0,64.29,94.3l.06.1-.06-.1c-2.26-1.74-4.06-3-5.1-3.82l-.59-.2c-2.28-.21-4.56-.36-6.85-.42-.25,0-.55.66-.8.64-2.22,0-4.38-.61-6.62-.33q-2.92.17-5.76.26a7.94,7.94,0,0,1,1.66,1.12C50,97.49-9.4,119,6.45,164.52a2.91,2.91,0,0,0,2.71,3.06l50.44,4.35C71.79,170,83.28,173.44,95.42,171Z"/><path class="cls-4" d="M96.57,163.3c-.16-6.08-20.92-11-46.5-11-25.39,0-46,4.84-46.5,10.86C34.78,160.47,65.31,159.76,96.57,163.3Z"/><path class="cls-1" d="M3.57,160.3v13.4h49.3c0-4.51.68-8.88.87-13.4Z"/><path class="cls-2" d="M98.43,160.3H53.74c-.19,4.52-.9,8.89-.87,13.4H98.43Z"/><path class="cls-4" d="M26.57,72.3h48q-13.86,13.88-24,35.93C45.48,94.39,37.9,82.14,26.57,72.3Z"/><rect class="cls-4" x="22.57" y="47.3" width="56" height="29" rx="12" ry="12"/></svg>
