<svg id="Layer_1" data-name="Layer 1" xmlns="http://www.w3.org/2000/svg" xmlns:xlink="http://www.w3.org/1999/xlink" width="1920" height="1080" viewBox="0 0 1920 1080"><defs><style>.cls-1{fill:#39b54a;}.cls-2{fill:url(#linear-gradient);}.cls-3{fill:url(#linear-gradient-2);}.cls-4,.cls-5,.cls-6{fill:#fff;}.cls-4{opacity:0.61;}.cls-5{opacity:0.33;}.cls-7{opacity:0.69;}.cls-8{fill:#fe6766;stroke:#000;stroke-miterlimit:10;stroke-width:0.5px;}.cls-9{fill:#ea315d;}.cls-10{fill:#b8416d;}.cls-11{fill:#7f435d;}.cls-12{fill:#452f3c;}.cls-13{fill:#29abe2;}.cls-14{fill:#603813;}.cls-15{fill:#a67c52;}.cls-16{fill:#8c6239;}.cls-17{fill:#999;}.cls-18{fill:#42210b;}.cls-19{fill:#754c24;}.cls-20{fill:#666;}.cls-21{opacity:0.46;}.cls-22{fill:gray;}.cls-23{fill:#ff0;}.cls-24{fill:#ed1e79;}.cls-25{fill:#4d4d4d;}.cls-26{fill:#414544;}.cls-27{fill:#ffee21;}.cls-28{fill:#f2f2f2;}.cls-29{fill:#f2e60d;}.cls-30{fill:red;}</style><linearGradient id="linear-gradient" x1="1917.89" y1="2.02" x2="1917.89" y2="270.03" gradientUnits="userSpaceOnUse"><stop offset="0" stop-color="#ed8479"/><stop offset="1" stop-color="#e8aa3d"/></linearGradient><linearGradient id="linear-gradient-2" x1="961.99" y1="1.93" x2="961.99" y2="1082.02" xlink:href="#linear-gradient"/></defs><title>vinder</title><path class="cls-1" d="M490,587c-71.2,105.23-7.33,104.88,88.26,109.08,92,4,150.59-17.77,78-116.66C618.47,527.94,613.9,468.23,568,470.33S525.94,533.89,490,587Z"/><path class="cls-1" d="M444,627c-71.2,105.23-7.33,104.88,88.26,109.08,92,4,150.59-17.77,78-116.66C572.47,567.94,567.9,508.23,522,510.33S479.94,573.89,444,627Z"/><path class="cls-2" d="M1915.45,2c-3,63.33-1.74,126.65,1.55,190,1,15-1,30,3,45,3,11,1,22,2,33v0l0-268Z"/><path class="cls-3" d="M1920,237c-4-15-2-30-3-45-3.29-63.33-4.54-126.65-1.55-190L2,1.93l0,1080,1920,.09,0-812v0C1921,259,1923,248,1920,237Z"/><ellipse class="cls-4" cx="1485.02" cy="235.5" rx="295" ry="269.5"/><ellipse class="cls-5" cx="1490.02" cy="254.5" rx="280" ry="269.5"/><circle class="cls-6" cx="1485.02" cy="254" r="251"/><g class="cls-7"><path class="cls-6" d="M797.45,178.8c-24,0-43.43,13.13-43.43,29.34,0,6.7,3.33,12.88,8.92,17.82,23.71-.64,47.33-1.4,70.94-1.84,4.42-4.59,7-10.08,7-16C840.88,191.94,821.43,178.8,797.45,178.8Z"/><path class="cls-6" d="M842.41,185.32C826,185.32,812.6,197,812.6,211.4a23.54,23.54,0,0,0,4,13.09c17.35-.41,34.68-.71,52-.73a23.37,23.37,0,0,0,3.56-12.35C872.21,197,858.86,185.32,842.41,185.32Z"/><path class="cls-6" d="M888,202.36c0-14.17-13.91-25.66-31.08-25.66s-31.07,11.49-31.07,25.66c0,9.1,5.74,17.1,14.39,21.65q16.9-.27,33.82-.24C882.46,219.18,888,211.3,888,202.36Z"/><ellipse class="cls-6" cx="908.38" cy="193.74" rx="34.64" ry="25.45"/><path class="cls-6" d="M898.82,197.52c-19.62,0-35.84,11.43-38.47,26.27q11-.06,22,0,27.5.27,55,.39C935,209.17,918.63,197.53,898.82,197.52Z"/><path class="cls-6" d="M961.61,196.9c-19.55,0-35.4,12-35.4,26.71v.53c23.6.14,47.19.26,70.78.53,0-.35,0-.7,0-1.06C997,208.86,981.17,196.9,961.61,196.9Z"/><ellipse class="cls-6" cx="957.54" cy="193.74" rx="31.33" ry="27.77"/><path class="cls-6" d="M830.18,205.94c-16.83,0-31.16,8-36.49,19.16,24.12-.68,48.18-1.27,72.29-1.33C860.17,213.3,846.33,205.94,830.18,205.94Z"/></g><g class="cls-7"><path class="cls-6" d="M244.48,147.78c-20.14,0-36.46,7-36.46,15.65,0,3.58,2.79,6.87,7.49,9.51,19.91-.35,39.73-.75,59.55-1,3.72-2.46,5.88-5.38,5.88-8.52C280.94,154.79,264.62,147.78,244.48,147.78Z"/><path class="cls-6" d="M282.22,151.26c-13.82,0-25,6.23-25,13.91a9.7,9.7,0,0,0,3.38,7c14.56-.22,29.11-.38,43.68-.38a9.52,9.52,0,0,0,3-6.59C307.24,157.49,296,151.26,282.22,151.26Z"/><path class="cls-6" d="M320.5,160.35c0-7.56-11.68-13.69-26.09-13.69s-26.09,6.13-26.09,13.69c0,4.85,4.82,9.12,12.08,11.55q14.19-.15,28.4-.13C315.85,169.32,320.5,165.12,320.5,160.35Z"/><ellipse class="cls-6" cx="337.61" cy="155.75" rx="29.08" ry="13.58"/><path class="cls-6" d="M329.59,157.77c-16.48,0-30.1,6.09-32.3,14q9.24,0,18.5,0,23.08.13,46.15.2C359.93,164,346.21,157.77,329.59,157.77Z"/><path class="cls-6" d="M382.3,157.44c-16.42,0-29.73,6.38-29.73,14.24,0,.1,0,.19,0,.29q29.71.1,59.41.28a5.25,5.25,0,0,0,0-.56C412,163.82,398.71,157.44,382.3,157.44Z"/><ellipse class="cls-6" cx="378.88" cy="155.75" rx="26.3" ry="14.81"/><path class="cls-6" d="M272,162.26c-14.13,0-26.16,4.26-30.63,10.22,20.24-.36,40.44-.68,60.68-.71C297.14,166.19,285.52,162.26,272,162.26Z"/></g><path class="cls-8" d="M1927,406q.46-48.81.6-97.68c-.81-.77-2.6-1.55-2.6-2.32-1-10,1-20,0-30,0-2-2-4-3-6-1-11,1-22-2-33-4-15-2-30-3-45q-.2-3.78-.37-7.56L1912,182l-10-22h-26v52l-34,36-10-88-16-34h-38l-42,34V310l-88,60V262l-10-26-20-56V160h-18l-18-18v94h-66V152l-20-28-38-20-56,16V266l-48,72-62,42H1124l-20-74-114-4L878,356l16-186-48-32v70l-20,40-40,10V112l-74,4v44s-16-12-28-20-42-12-42-12l-36,2L586,326H530l-48-14-70-12H328l-10-75v-157H250v141l-26,79-36-18v-45l-10-65,10-68H136v21l-12,25v33l-12,41-26-24v-40H44v126l-33,52H-20l31,413.5,1920,.09v-226C1928.56,477.66,1926.3,441.83,1927,406Z"/><path class="cls-8" d="M1927.73,190.29l-11.1-5.85q.18,3.78.37,7.56c1,15-1,30,3,45,3,11,1,22,2,33,1,2,3,4,3,6,1,10-1,20,0,30,0,.77,1.79,1.55,2.6,2.32Q1927.81,249.34,1927.73,190.29Z"/><path class="cls-9" d="M1396.33,389c-28.36-17.16-7,5.15,0,0Z"/><path class="cls-9" d="M1937.08,638.88Q1936.77,630,1936,621c-2-21-1-41-2-62-1.77-30-4.22-60.07-5.74-90.1-11.91-56.7-39.06-92.24-82.75-104.84l-153.84,33.1-69.92,67.41-103.49,14.18c-5.78-17.34-14.45-28.89-28-30.75-5.35,23.68-30-19.47-92.3-57.95l-1.66-1c-7,5.15-28.36-17.16,0,0a4.62,4.62,0,0,0,1.66-2.53c22.61-76.05-82.06-28.9-86.71-18.93,0,0-54.34,10.92-55.94,28.38-7.16,78.45-152.71,81.9-176.21,47.29-12.82-18.88-105.4,65.38-114.68,35.47-7.94-25.58-78.31,45.1-179,14.19-37.64-11.56-136.34-26.4-184.6,0-58.65,32.06-58.74-3.55-103.49-14.2S463.79,464.51,447,462.14,424.63,443.22,388.27,416s-142.65-18.93-153.83-18.93H200.87c-8.39,0-128.66,49.66-128.66,49.66L6.94,528.34C-2.63,660.61,4.56,751.75,35.83,783.77c712.85,50.48,1377.1,72.25,1882.38.1q7.69-21.2,13.89-42c1.75-22.41,3.87-44.85,4.78-67.44Q1936.93,656.67,1937.08,638.88Z"/><path class="cls-9" d="M1937.08,638.79c-.22-5.91-.56-11.84-1.08-17.79-2-21-1-41-2-62-3-51-8-102-7-153q.21-21.44.34-42.9c-35.86-12.42-80,1.38-106.4,12.55a20.41,20.41,0,0,1-27.46-12.88c-6.66-21.59-24-51-69.24-59-57.09-10-91.33,50.9-103.9,78.93a20.18,20.18,0,0,1-16.61,11.63c-39.65,3.95-95.88,108-110.7,86.17-30.24-44.53-64-82.68-75.85-95.74a20.41,20.41,0,0,0-10.71-6.19l-208.41-45.77a20.41,20.41,0,0,0-13.65,1.76c-22,11.21-92.33,47.85-104.22,62.52-12.06,14.89-163.13,12.56-206.9,11.57a20.38,20.38,0,0,0-17.94,9.88h0a20.42,20.42,0,0,1-22.24,9.32l-153-36.68s12.19-.83-92.67,4.57c-57.09,2.94-96,31-119.54,56a20.43,20.43,0,0,1-34.84-9.64c-8.44-38.3-28.58-86.73-76.58-97.93C302,331.48,244.74,367.48,212.38,393.13a20.42,20.42,0,0,1-32.4-10.6c-8-28.94-26.51-65.52-68.34-63C47.39,323.33,8.28,512.88,3.57,537a20.67,20.67,0,0,0-.36,5l10.4,201.81a20.4,20.4,0,0,0,21.13,19.34l1901.15-70q.6-9.2,1-18.41Q1936.92,656.74,1937.08,638.79Z"/><path class="cls-10" d="M1931.41,751.1c-.14,2-.28,3.93-.41,5.9a39.8,39.8,0,0,1,.41-5.9c1.83-25.4,4.43-50.82,5.46-76.42q0-18,.2-35.95c-.21-5.9-.55-11.8-1.07-17.73-1.94-20.37-1.06-39.8-1.92-60.11-35.4-8.87-94.93,4.24-130.17,32.88-25.12,20.41,6.42-106.88-74.66-73.7-53.38,21.83-20.1-32.43-57.44-70.76s-64.66,14.14-80.4-11.8c-24.64-40.59-54.81,107.24-120.62,57.48-22.11-16.71-90.78,15.12-146.46,42.74-69.94,34.7-92.51,9.69-117.89,73.86-22.7,57.37-34.32-.16-60.16-32.59s-130.1-54.32-74.67-84c20.21-10.84-6.85-86.08-91.89-57.5-144.2,48.48-44.06,41-140.72,0-48.43-20.54-42.69,36.44-106.25,57.48-63.94,21.16-40.89,34.13-91.9,84C620,599.34,656.4,449.66,503,593.71c-51.55,48.4-54.56-17.69-97.64-75.18s-48.81-66.34-117.73-81.08-68.93-7.37-103.39,0-63.18,45.69-94.77,57.48c-12.55,4.68-31.14,23.32-49,44.09C6.55,578.48-12,629.72-12,682.7h0c0,81.5,43.9,156.3,113.82,192.87,561.55,293.7,1152.87,196.22,1742.68-85.42A198.29,198.29,0,0,1,1900,773.31c15.45-2.36,27.94-7.09,37.79-13.9A58.85,58.85,0,0,0,1935,741,26.84,26.84,0,0,0,1931.41,751.1Z"/><path class="cls-10" d="M876.49,466.55c.5.31,1,.64,1.48,1l5.1,1.17c-.09-.42-.19-.85-.3-1.28C880.68,467.06,878.59,466.76,876.49,466.55Z"/><path class="cls-10" d="M872.4,450.58a51.14,51.14,0,0,0-12.64-8.76c6.21,6.32,12.32,12.71,14.49,20.34a21.52,21.52,0,0,1,.58,3.41c.57.31,1.12.64,1.66,1,2.1.21,4.19.51,6.28.87A35.94,35.94,0,0,0,872.4,450.58Z"/><path class="cls-10" d="M874.89,466.4a.62.62,0,0,1,0,.13l.88.52,2.19.48c-.49-.34-1-.67-1.48-1C876,466.49,875.43,466.44,874.89,466.4Z"/><path class="cls-10" d="M874.89,466.4c.54,0,1.07.09,1.6.15-.54-.34-1.09-.67-1.66-1C874.86,465.85,874.88,466.12,874.89,466.4Z"/><path class="cls-10" d="M876.49,466.55c.51.31,1,.64,1.48,1q2.91.64,5.8,1.34c.32-.36.63-.73.94-1.1C882,467.25,879.24,466.83,876.49,466.55Z"/><path class="cls-10" d="M890.83,453.81a27.69,27.69,0,0,0-1.3-12.42c-1.28,7.36-2.7,14.7-8.32,20.64a28,28,0,0,1-5.3,4.16l.58.36c2.75.28,5.49.7,8.22,1.22A27.57,27.57,0,0,0,890.83,453.81Z"/><path class="cls-10" d="M875.48,466.45l1,.1-.58-.36Z"/><path class="cls-10" d="M875.48,466.45l-.35.21.66.39,2.18.48c-.48-.34-1-.67-1.48-1Z"/><path class="cls-10" d="M876.57,466.56h0c.49.31,1,.63,1.45,1,6,1.35,12,2.85,17.92,4.2,1.05-.21,2.11-.41,3.17-.6C891.59,469.2,884.11,467.33,876.57,466.56Z"/><path class="cls-10" d="M899.07,471.13a135.74,135.74,0,0,1,26.84-2.08,65.63,65.63,0,0,0-37.21-5.5,59.31,59.31,0,0,0-12.13,3C884.11,467.33,891.59,469.2,899.07,471.13Z"/><path class="cls-10" d="M875.58,466.93l.21.12,2.19.48c-.48-.33-1-.65-1.45-1C876.22,466.69,875.89,466.8,875.58,466.93Z"/><path class="cls-10" d="M903.46,449.88c-6.76,6.55-13.65,13-23.89,16.43l-1.44.42c3.37.41,6.74,1,10.1,1.77a43.06,43.06,0,0,0,7.44-6.16A34.42,34.42,0,0,0,903.46,449.88Z"/><path class="cls-10" d="M878.13,466.73l-1,.25.8.55c2.87.64,5.73,1.32,8.59,2,.56-.34,1.12-.69,1.66-1C884.87,467.76,881.5,467.14,878.13,466.73Z"/><path class="cls-10" d="M876.38,467.18l1.6.35-.8-.55Z"/><path class="cls-10" d="M876.5,466.55c.5.31,1,.64,1.48,1l3.36.77q-.35-.62-.72-1.23C879.25,466.87,877.87,466.69,876.5,466.55Z"/><path class="cls-10" d="M866.63,453.22a58.35,58.35,0,0,0-14.57-6.66c7.55,5.16,15,10.39,19.33,17.38a32.25,32.25,0,0,1,5.11,2.61c1.37.14,2.75.32,4.12.52A44,44,0,0,0,866.63,453.22Z"/><path class="cls-10" d="M874.64,466.38l1.14.67,2.2.48c-.49-.34-1-.67-1.48-1Z"/><path class="cls-10" d="M871.7,464.46l.24.45c.91.47,1.81,1,2.7,1.47l1.86.17a32.25,32.25,0,0,0-5.11-2.61C871.49,464.12,871.6,464.29,871.7,464.46Z"/><path class="cls-10" d="M878,466.71l-.15.73.13.09c2.8.63,5.59,1.29,8.37,2,0-.46,0-.93-.05-1.39C883.54,467.52,880.77,467.05,878,466.71Z"/><path class="cls-10" d="M867.31,437.56c5.26,7.68,10.39,15.42,11.05,23.8a23.13,23.13,0,0,1-.36,5.35c2.77.34,5.54.81,8.3,1.38a36.41,36.41,0,0,0-7.41-19.22A52.05,52.05,0,0,0,867.31,437.56Z"/><path class="cls-10" d="M877.83,467.5l.15,0-.13-.09Z"/><path class="cls-10" d="M876.49,466.55c.5.31,1,.64,1.48,1,3.54.79,7,1.64,10.56,2.47.85-.26,1.7-.55,2.53-.86A113,113,0,0,0,876.49,466.55Z"/><path class="cls-10" d="M901.47,463.53a32.1,32.1,0,0,0,8.86-9.73c-7,4.82-14.1,9.56-23.67,11.33a47,47,0,0,1-11.92.39c.6.32,1.18.67,1.75,1a113,113,0,0,1,14.57,2.59A42.4,42.4,0,0,0,901.47,463.53Z"/><path class="cls-10" d="M874.63,466.38l1.14.67c.74.15,1.47.31,2.2.48-.49-.34-1-.67-1.48-1C875.87,466.48,875.25,466.43,874.63,466.38Z"/><path class="cls-10" d="M872.64,465.28c.67.36,1.33.73,2,1.1.62.05,1.24.1,1.86.17-.57-.36-1.15-.71-1.75-1Q873.69,465.42,872.64,465.28Z"/><path class="cls-11" d="M1926,949c6-55,7-109,10-163,1-15,4-30-1-45a26.84,26.84,0,0,0-3.59,10.1c-.14,2-.28,3.93-.41,5.9a39.8,39.8,0,0,1,.41-5.9c1.51-21,3.54-41.9,4.79-63-39.92,36.8-69.13,68.64-76,68.64-17.77,0,57.74-95.63-57.73-112.8s-231,53.93-315.36,79.68-66.62-40.47-97.7-79.7-315.35,0-315.35,0L794.27,749.36s40-104.21-102.15-139.78S359,771.41,319,723.59s62.19-233-115.47-163.08S-20,791-20,791v237.86c623.95,40.79,1275,47.12,1946.24,27.87C1924.09,1021.12,1921.44,985.49,1926,949Z"/><path class="cls-12" d="M717.13,826.33c.94.75,1.86,1.54,2.75,2.35q5,1.35,9.89,2.77c-.12-1-.24-2.08-.39-3.12C725.31,827.49,721.23,826.81,717.13,826.33Z"/><path class="cls-12" d="M711.6,787.56a93,93,0,0,0-23.52-21.09c11.24,15.27,22.27,30.69,25.33,49.21A63,63,0,0,1,714,824c1.07.75,2.1,1.53,3.11,2.35,4.1.48,8.18,1.16,12.25,2A85.4,85.4,0,0,0,711.6,787.56Z"/><path class="cls-12" d="M714,826c0,.11,0,.21,0,.32l1.66,1.24,4.22,1.12c-.89-.81-1.81-1.6-2.75-2.35Q715.57,826.14,714,826Z"/><path class="cls-12" d="M714,826q1.56.13,3.12.33c-1-.82-2-1.6-3.11-2.35C714,824.65,714,825.33,714,826Z"/><path class="cls-12" d="M717.14,826.33c.94.76,1.86,1.54,2.76,2.35q5.63,1.53,11.21,3.16c.69-.89,1.37-1.78,2-2.69A151.84,151.84,0,0,0,717.14,826.33Z"/><path class="cls-12" d="M747.42,795.06a81.26,81.26,0,0,0-.59-30.18c-3.69,17.92-7.66,35.81-19.68,50.38a66.32,66.32,0,0,1-11.1,10.21c.37.28.73.57,1.09.86a151.84,151.84,0,0,1,16,2.82A81.08,81.08,0,0,0,747.42,795.06Z"/><path class="cls-12" d="M715.15,826.11l2,.22c-.36-.29-.72-.58-1.09-.86Z"/><path class="cls-12" d="M715.15,826.11c-.24.17-.48.35-.73.51l1.25.94,4.23,1.12c-.9-.81-1.82-1.59-2.76-2.35Z"/><path class="cls-12" d="M717.29,826.35l-.08,0c.92.74,1.82,1.51,2.69,2.31,11.65,3.16,23.13,6.7,34.67,9.88,2.11-.54,4.22-1,6.34-1.52C746.48,832.5,732,828.09,717.29,826.35Z"/><path class="cls-12" d="M760.91,837.05a223.23,223.23,0,0,1,53.26-5.57c-19.93-12.25-46-17.5-72.5-12.67a105.16,105.16,0,0,0-24.38,7.54C732,828.09,746.48,832.5,760.91,837.05Z"/><path class="cls-12" d="M715.28,827.26l.4.3c1.41.37,2.82.74,4.22,1.13-.87-.8-1.77-1.57-2.69-2.31Z"/><path class="cls-12" d="M772.94,785.28c-14.36,16-29,31.91-49.71,40.41-1,.37-1.93.72-2.9,1a174.38,174.38,0,0,1,19.64,4.1,102,102,0,0,0,15.65-15.12A97.39,97.39,0,0,0,772.94,785.28Z"/><path class="cls-12" d="M720.33,826.74c-.64.22-1.27.43-1.91.63.5.43,1,.87,1.49,1.32,5.57,1.51,11.1,3.11,16.61,4.71,1.17-.83,2.32-1.67,3.45-2.56A174.38,174.38,0,0,0,720.33,826.74Z"/><path class="cls-12" d="M716.82,827.86l3.09.83c-.49-.45-1-.89-1.49-1.32Z"/><path class="cls-12" d="M717.15,826.33c.94.76,1.86,1.55,2.75,2.36q3.27.88,6.51,1.8c-.39-1-.79-2-1.22-3C722.52,827.05,719.84,826.64,717.15,826.33Z"/><path class="cls-12" d="M699.81,794.09a96,96,0,0,0-27.68-15.92c14.07,12.4,28,25,35.35,41.92a52.47,52.47,0,0,1,9.67,6.24c2.69.31,5.37.72,8,1.2A89.51,89.51,0,0,0,699.81,794.09Z"/><path class="cls-12" d="M713.51,826c.72.52,1.43,1.06,2.15,1.6,1.42.37,2.83.74,4.24,1.13-.89-.81-1.81-1.6-2.75-2.36C715.94,826.19,714.72,826.06,713.51,826Z"/><path class="cls-12" d="M708,821.34c.14.36.26.72.4,1.08,1.72,1.14,3.41,2.33,5.09,3.54,1.21.1,2.43.23,3.64.37a52.47,52.47,0,0,0-9.67-6.24Z"/><path class="cls-12" d="M720.07,826.7c-.12.59-.26,1.18-.4,1.76l.24.23c5.43,1.47,10.82,3,16.2,4.59.06-1.13.1-2.26.11-3.39A163.41,163.41,0,0,0,720.07,826.7Z"/><path class="cls-12" d="M703.64,756c9.13,18.59,18,37.3,18,57.7a68.36,68.36,0,0,1-1.56,13,163.41,163.41,0,0,1,16.15,3.19,96,96,0,0,0-11.56-46.61A104.34,104.34,0,0,0,703.64,756Z"/><path class="cls-12" d="M719.63,828.61l.28.08-.24-.23A.83.83,0,0,0,719.63,828.61Z"/><path class="cls-12" d="M717.13,826.33c.94.76,1.86,1.54,2.76,2.35,6.85,1.86,13.65,3.85,20.43,5.83,1.73-.67,3.43-1.39,5.12-2.16A178.91,178.91,0,0,0,717.13,826.33Z"/><path class="cls-12" d="M766.86,818.52a83.43,83.43,0,0,0,19-23.84c-14.56,11.85-29.33,23.52-48.47,28a75,75,0,0,1-23.56,1.17c1.13.79,2.22,1.62,3.29,2.48a178.91,178.91,0,0,1,28.31,6A89.19,89.19,0,0,0,766.86,818.52Z"/><path class="cls-12" d="M713.49,826c.72.52,1.44,1.06,2.15,1.59l4.25,1.13c-.9-.81-1.82-1.59-2.76-2.35C715.92,826.18,714.71,826.06,713.49,826Z"/><path class="cls-12" d="M709.73,823.31c1.27.86,2.52,1.75,3.76,2.65,1.22.1,2.43.22,3.64.37-1.07-.86-2.16-1.69-3.29-2.48Q711.79,823.64,709.73,823.31Z"/><path class="cls-12" d="M1463,900.42c1.11.5,2.2,1,3.27,1.58,3.42,0,6.84.1,10.26.18-.37-1-.76-1.95-1.16-2.92C1471.2,899.48,1467.08,899.85,1463,900.42Z"/><path class="cls-12" d="M1447.83,864.31a92.91,92.91,0,0,0-28.09-14.44c14.74,11.92,29.31,24,37,41.2a63,63,0,0,1,2.7,7.87c1.22.45,2.41.95,3.59,1.48,4.1-.57,8.22-.94,12.37-1.16A85.56,85.56,0,0,0,1447.83,864.31Z"/><path class="cls-12" d="M1459.88,900.89c0,.11.06.21.08.31l1.92.78,4.37,0c-1.07-.55-2.16-1.08-3.27-1.58C1462,900.57,1460.92,900.72,1459.88,900.89Z"/><path class="cls-12" d="M1459.88,900.89c1-.17,2.07-.32,3.1-.47-1.18-.53-2.37-1-3.59-1.48C1459.56,899.59,1459.73,900.24,1459.88,900.89Z"/><path class="cls-12" d="M1463,900.42c1.1.5,2.19,1,3.26,1.58,3.89,0,7.77.12,11.65.21.44-1,.87-2.06,1.28-3.11A150.35,150.35,0,0,0,1463,900.42Z"/><path class="cls-12" d="M1484.38,862.5a81.51,81.51,0,0,0-8.2-29c1,18.28,1.64,36.59-6.3,53.72a65.63,65.63,0,0,1-8.15,12.69l1.27.56a150.35,150.35,0,0,1,16.19-1.32A81,81,0,0,0,1484.38,862.5Z"/><path class="cls-12" d="M1461,900.71l2-.29-1.27-.56C1461.5,900.15,1461.25,900.43,1461,900.71Z"/><path class="cls-12" d="M1461,900.71l-.57.68,1.44.59,4.37,0c-1.07-.56-2.16-1.08-3.26-1.58Z"/><path class="cls-12" d="M1463.15,900.4l-.07.05c1.08.49,2.14,1,3.19,1.55,12.06.12,24.07.63,36,.79,1.9-1,3.82-2.08,5.75-3.07C1493,899,1477.86,898.36,1463.15,900.4Z"/><path class="cls-12" d="M1508.06,899.72a223,223,0,0,1,50.11-18.87c-22.38-6.81-48.91-5.3-73.34,6.09a105.09,105.09,0,0,0-21.68,13.46C1477.86,898.36,1493,899,1508.06,899.72Z"/><path class="cls-12" d="M1461.44,901.79l.45.19,4.38,0c-1-.54-2.11-1.06-3.19-1.55Z"/><path class="cls-12" d="M1506.59,846.58c-9.83,19.16-19.94,38.21-37.86,51.68-.83.6-1.69,1.18-2.54,1.75a173.41,173.41,0,0,1,20-1,102,102,0,0,0,11.31-18.59A97.16,97.16,0,0,0,1506.59,846.58Z"/><path class="cls-12" d="M1466.19,900c-.56.37-1.12.74-1.69,1.1l1.78.89c5.77.06,11.52.2,17.26.36.92-1.1,1.82-2.21,2.69-3.35A173.41,173.41,0,0,0,1466.19,900Z"/><path class="cls-12" d="M1463.07,902l3.21,0-1.78-.89Z"/><path class="cls-12" d="M1463,900.42c1.1.49,2.19,1,3.26,1.58,2.25,0,4.5.06,6.75.1-.63-.86-1.27-1.72-1.93-2.56C1468.39,899.75,1465.69,900,1463,900.42Z"/><path class="cls-12" d="M1438.07,873.62a95.67,95.67,0,0,0-30.8-8.4c16.75,8.43,33.39,17.09,44.81,31.6a53.06,53.06,0,0,1,10.93,3.6c2.68-.38,5.38-.67,8.08-.88A89.4,89.4,0,0,0,1438.07,873.62Z"/><path class="cls-12" d="M1459.39,901c.83.32,1.66.67,2.49,1l4.39,0c-1.07-.56-2.16-1.09-3.26-1.58C1461.8,900.59,1460.59,900.77,1459.39,901Z"/><path class="cls-12" d="M1452.91,897.9c.23.31.44.63.66,1,2,.66,3.9,1.38,5.82,2.13,1.2-.21,2.41-.39,3.62-.56a53.06,53.06,0,0,0-10.93-3.6Z"/><path class="cls-12" d="M1465.93,900c0,.6,0,1.2,0,1.8l.3.16c5.62,0,11.23.19,16.83.35-.23-1.11-.48-2.21-.75-3.32A163.36,163.36,0,0,0,1465.93,900Z"/><path class="cls-12" d="M1432.14,835.78c13.54,15.67,26.88,31.53,32,51.26a68.43,68.43,0,0,1,1.79,13,163.36,163.36,0,0,1,16.43-1,96,96,0,0,0-23-42.16A104.39,104.39,0,0,0,1432.14,835.78Z"/><path class="cls-12" d="M1466,902h.3l-.3-.16Z"/><path class="cls-12" d="M1463,900.42c1.1.5,2.19,1,3.26,1.58,7.1.07,14.18.27,21.25.47,1.49-1.09,3-2.21,4.4-3.39A180.58,180.58,0,0,0,1463,900.42Z"/><path class="cls-12" d="M1509.13,880.28a83.76,83.76,0,0,0,12.36-27.87c-11.1,15.15-22.43,30.17-39.81,39.35a75.17,75.17,0,0,1-22.5,7.1c1.29.47,2.56,1,3.81,1.56a180.58,180.58,0,0,1,28.91-1.34A88.61,88.61,0,0,0,1509.13,880.28Z"/><path class="cls-12" d="M1459.38,901l2.48,1,4.39,0c-1.07-.55-2.16-1.08-3.26-1.58C1461.78,900.59,1460.58,900.78,1459.38,901Z"/><path class="cls-12" d="M1455.07,899.37c1.44.51,2.88,1.06,4.31,1.61,1.2-.2,2.4-.39,3.61-.56-1.25-.56-2.52-1.09-3.81-1.56C1457.82,899.06,1456.45,899.24,1455.07,899.37Z"/><path class="cls-12" d="M144.83,805.69c.87.84,1.71,1.71,2.53,2.6q4.8,1.8,9.58,3.67c0-1,0-2.09-.1-3.14C152.87,807.61,148.87,806.55,144.83,805.69Z"/><path class="cls-12" d="M142.92,766.57a93,93,0,0,0-21.46-23.17c9.78,16.24,19.33,32.62,20.65,51.35a62.16,62.16,0,0,1-.15,8.31c1,.85,1.94,1.73,2.87,2.63,4,.86,8,1.92,12,3.13A85.47,85.47,0,0,0,142.92,766.57Z"/><path class="cls-12" d="M141.75,805.07l0,.32,1.54,1.39,4.1,1.51c-.82-.89-1.66-1.76-2.53-2.6C143.81,805.47,142.78,805.27,141.75,805.07Z"/><path class="cls-12" d="M141.75,805.07c1,.2,2.06.4,3.08.62-.93-.9-1.88-1.78-2.87-2.63Q141.87,804.08,141.75,805.07Z"/><path class="cls-12" d="M144.84,805.69c.87.84,1.71,1.71,2.53,2.6q5.46,2.06,10.87,4.18c.77-.81,1.53-1.64,2.27-2.48A146.62,146.62,0,0,0,144.84,805.69Z"/><path class="cls-12" d="M177.89,777.36a81.33,81.33,0,0,0,2.22-30.1c-5.35,17.5-11,35-24.27,48.34a66.82,66.82,0,0,1-12,9.13l1,1a146.62,146.62,0,0,1,15.67,4.3A81,81,0,0,0,177.89,777.36Z"/><path class="cls-12" d="M142.88,805.29l2,.4-1-1Z"/><path class="cls-12" d="M142.88,805.29l-.77.44,1.16,1,4.1,1.51c-.82-.89-1.66-1.76-2.53-2.6Z"/><path class="cls-12" d="M145,805.72l-.08,0c.85.83,1.67,1.68,2.47,2.55,11.3,4.23,22.41,8.82,33.6,13.05,2.15-.34,4.3-.64,6.45-.92C173.49,814.56,159.51,808.83,145,805.72Z"/><path class="cls-12" d="M187.43,820.43a223.26,223.26,0,0,1,53.55-.61c-18.71-14-44.16-21.69-71-19.34a105.73,105.73,0,0,0-25,5.24C159.51,808.83,173.49,814.56,187.43,820.43Z"/><path class="cls-12" d="M142.91,806.45l.36.33,4.11,1.52c-.8-.87-1.62-1.72-2.47-2.55Z"/><path class="cls-12" d="M204.21,770c-15.78,14.64-31.8,29.09-53.24,35.63-1,.28-2,.54-3,.78a171.63,171.63,0,0,1,19.18,5.91,102.91,102.91,0,0,0,17-13.61A97.3,97.3,0,0,0,204.21,770Z"/><path class="cls-12" d="M148,806.4l-2,.45c.46.48.92,1,1.36,1.45,5.41,2,10.77,4.12,16.11,6.23,1.23-.72,2.46-1.45,3.67-2.22A171.63,171.63,0,0,0,148,806.4Z"/><path class="cls-12" d="M144.38,807.19q1.5.54,3,1.11c-.44-.49-.9-1-1.36-1.45Z"/><path class="cls-12" d="M144.85,805.69c.87.85,1.71,1.72,2.53,2.61q3.17,1.19,6.31,2.4c-.3-1-.61-2.05-.94-3.07Q148.82,806.55,144.85,805.69Z"/><path class="cls-12" d="M130.57,772a96,96,0,0,0-26.08-18.41c12.86,13.65,25.55,27.47,31.32,45a52.8,52.8,0,0,1,9,7.11q4,.85,7.9,1.94A89.45,89.45,0,0,0,130.57,772Z"/><path class="cls-12" d="M141.26,805c.67.59,1.33,1.19,2,1.79,1.38.5,2.76,1,4.13,1.52-.82-.89-1.66-1.76-2.53-2.61C143.66,805.44,142.46,805.2,141.26,805Z"/><path class="cls-12" d="M136.22,799.88c.11.37.2.74.3,1.11q2.41,1.95,4.74,4c1.2.21,2.4.45,3.59.7a52.8,52.8,0,0,0-9-7.11C136,799,136.09,799.44,136.22,799.88Z"/><path class="cls-12" d="M147.73,806.34q-.27.85-.57,1.71c.08.08.15.17.22.25,5.27,2,10.49,4,15.7,6.08.17-1.12.31-2.25.43-3.37A161.71,161.71,0,0,0,147.73,806.34Z"/><path class="cls-12" d="M137.92,734.4c7.38,19.35,14.49,38.81,12.57,59.11a69,69,0,0,1-2.76,12.83A161.71,161.71,0,0,1,163.51,811a95.91,95.91,0,0,0-7.19-47.48A104.37,104.37,0,0,0,137.92,734.4Z"/><path class="cls-12" d="M147.11,808.2l.27.1c-.07-.08-.14-.17-.22-.25Z"/><path class="cls-12" d="M144.83,805.69c.87.84,1.71,1.71,2.53,2.6,6.65,2.49,13.23,5.1,19.81,7.7q2.67-.76,5.29-1.68A178.67,178.67,0,0,0,144.83,805.69Z"/><path class="cls-12" d="M195.08,802.53a83.78,83.78,0,0,0,21.13-22c-15.6,10.45-31.38,20.7-50.85,23.38a74.8,74.8,0,0,1-23.57-1c1.05.89,2.06,1.82,3,2.77a178.67,178.67,0,0,1,27.63,8.62A89.06,89.06,0,0,0,195.08,802.53Z"/><path class="cls-12" d="M141.25,805c.67.59,1.33,1.19,2,1.79l4.12,1.52c-.82-.89-1.66-1.76-2.53-2.6C143.64,805.44,142.45,805.2,141.25,805Z"/><path class="cls-12" d="M137.75,802c1.18,1,2.34,2,3.5,3,1.2.22,2.39.46,3.58.71-1-1-2-1.88-3-2.77C140.43,802.65,139.09,802.34,137.75,802Z"/><path class="cls-12" d="M1264.83,788.74c.87.85,1.71,1.71,2.53,2.6q4.82,1.8,9.58,3.68c0-1,0-2.1-.1-3.14C1272.87,790.66,1268.87,789.6,1264.83,788.74Z"/><path class="cls-12" d="M1262.92,749.63a92.8,92.8,0,0,0-21.46-23.17c9.78,16.24,19.33,32.62,20.65,51.34a62.31,62.31,0,0,1-.15,8.32c1,.84,1.94,1.72,2.87,2.62,4,.86,8,1.92,12,3.14A85.44,85.44,0,0,0,1262.92,749.63Z"/><path class="cls-12" d="M1261.75,788.13c0,.1,0,.21,0,.32.52.45,1,.92,1.54,1.38l4.1,1.51c-.82-.89-1.66-1.75-2.53-2.6C1263.81,788.53,1262.78,788.32,1261.75,788.13Z"/><path class="cls-12" d="M1261.75,788.13c1,.19,2.06.4,3.08.61-.93-.9-1.88-1.78-2.87-2.62Q1261.87,787.13,1261.75,788.13Z"/><path class="cls-12" d="M1264.84,788.74c.87.85,1.71,1.72,2.53,2.61,3.64,1.36,7.26,2.76,10.87,4.17.77-.81,1.53-1.63,2.27-2.48A151.48,151.48,0,0,0,1264.84,788.74Z"/><path class="cls-12" d="M1297.89,760.42a81.17,81.17,0,0,0,2.22-30.11c-5.34,17.51-10.95,35-24.27,48.34a66.06,66.06,0,0,1-12,9.14c.34.31.67.63,1,1a151.48,151.48,0,0,1,15.67,4.3A81,81,0,0,0,1297.89,760.42Z"/><path class="cls-12" d="M1262.88,788.34l2,.4c-.33-.32-.66-.64-1-1Z"/><path class="cls-12" d="M1262.88,788.34c-.26.15-.51.31-.77.45.39.34.77.7,1.16,1.05,1.37.49,2.74,1,4.1,1.51-.82-.89-1.66-1.76-2.53-2.61Z"/><path class="cls-12" d="M1265,788.78l-.09,0c.85.82,1.67,1.67,2.47,2.54,11.3,4.23,22.41,8.82,33.6,13q3.23-.49,6.45-.92C1293.49,797.61,1279.51,791.88,1265,788.78Z"/><path class="cls-12" d="M1307.43,803.48a223.26,223.26,0,0,1,53.55-.61c-18.71-14-44.16-21.69-71-19.34a105.13,105.13,0,0,0-25,5.25C1279.51,791.88,1293.49,797.61,1307.43,803.48Z"/><path class="cls-12" d="M1262.91,789.5l.36.34,4.11,1.51c-.8-.87-1.62-1.72-2.47-2.54C1264.24,789,1263.57,789.26,1262.91,789.5Z"/><path class="cls-12" d="M1324.21,753.05c-15.78,14.64-31.8,29.09-53.24,35.63-1,.28-2,.53-3,.77a173.75,173.75,0,0,1,19.18,5.91,102.39,102.39,0,0,0,17-13.61A97.39,97.39,0,0,0,1324.21,753.05Z"/><path class="cls-12" d="M1268,789.45l-2,.46c.46.47.92,1,1.36,1.44,5.41,2,10.77,4.13,16.11,6.24,1.23-.72,2.46-1.46,3.67-2.23A173.75,173.75,0,0,0,1268,789.45Z"/><path class="cls-12" d="M1264.38,790.24l3,1.11c-.44-.49-.9-1-1.36-1.44Z"/><path class="cls-12" d="M1264.85,788.75c.87.84,1.71,1.71,2.53,2.6q3.16,1.18,6.31,2.4c-.3-1-.61-2-.94-3.06Q1268.82,789.6,1264.85,788.75Z"/><path class="cls-12" d="M1250.57,755a96,96,0,0,0-26.08-18.42c12.86,13.65,25.55,27.48,31.32,45a52.8,52.8,0,0,1,9,7.11q4,.84,7.9,1.94A89.31,89.31,0,0,0,1250.57,755Z"/><path class="cls-12" d="M1261.26,788l2,1.79,4.12,1.52c-.82-.89-1.66-1.76-2.53-2.6C1263.66,788.49,1262.46,788.26,1261.26,788Z"/><path class="cls-12" d="M1256.22,782.93c.11.37.2.75.3,1.12,1.61,1.29,3.19,2.63,4.74,4,1.2.22,2.4.45,3.59.71a52.8,52.8,0,0,0-9-7.11C1256,782.07,1256.09,782.5,1256.22,782.93Z"/><path class="cls-12" d="M1267.73,789.39c-.18.58-.37,1.15-.57,1.72l.22.24c5.27,2,10.49,4,15.71,6.08.16-1.12.3-2.24.42-3.37A161.71,161.71,0,0,0,1267.73,789.39Z"/><path class="cls-12" d="M1257.92,717.45c7.38,19.36,14.49,38.81,12.57,59.12a68.94,68.94,0,0,1-2.76,12.82,161.71,161.71,0,0,1,15.78,4.67,95.91,95.91,0,0,0-7.19-47.48A104.14,104.14,0,0,0,1257.92,717.45Z"/><path class="cls-12" d="M1267.11,791.25l.27.1-.22-.24A1.21,1.21,0,0,1,1267.11,791.25Z"/><path class="cls-12" d="M1264.83,788.74c.87.85,1.71,1.72,2.53,2.6,6.65,2.49,13.23,5.11,19.81,7.7,1.78-.51,3.54-1.06,5.3-1.68A181,181,0,0,0,1264.83,788.74Z"/><path class="cls-12" d="M1315.08,785.59a83.83,83.83,0,0,0,21.14-22c-15.6,10.44-31.39,20.69-50.86,23.38a75.41,75.41,0,0,1-23.57-1c1,.88,2.06,1.81,3,2.76a181,181,0,0,1,27.64,8.62A89.14,89.14,0,0,0,1315.08,785.59Z"/><path class="cls-12" d="M1261.25,788c.67.59,1.33,1.19,2,1.79l4.12,1.51c-.82-.88-1.66-1.75-2.53-2.6C1263.64,788.49,1262.45,788.25,1261.25,788Z"/><path class="cls-12" d="M1257.75,785.05c1.18,1,2.34,2,3.5,3,1.2.21,2.39.45,3.58.7-1-1-2-1.88-3-2.76C1260.44,785.7,1259.09,785.4,1257.75,785.05Z"/><path class="cls-11" d="M682.6,619.35c.68.41,1.34.84,2,1.28q3.39.58,6.76,1.22c-.15-.61-.3-1.21-.47-1.82Q686.74,619.54,682.6,619.35Z"/><path class="cls-11" d="M676.38,596.77a64.88,64.88,0,0,0-17-11.45c8.48,8.52,16.83,17.15,20.08,27.92a33.36,33.36,0,0,1,1,4.86c.76.39,1.5.82,2.22,1.25q4.14.18,8.28.68A50.76,50.76,0,0,0,676.38,596.77Z"/><path class="cls-11" d="M680.51,619.29c0,.06,0,.12,0,.19.4.21.79.44,1.19.66l2.88.49c-.65-.44-1.31-.87-2-1.28Z"/><path class="cls-11" d="M680.51,619.29l2.09.06c-.72-.43-1.46-.86-2.22-1.25C680.43,618.49,680.47,618.89,680.51,619.29Z"/><path class="cls-11" d="M682.61,619.35c.68.41,1.34.84,2,1.28,2.56.44,5.12.91,7.66,1.39.41-.54.8-1.1,1.18-1.66C689.83,619.86,686.22,619.5,682.61,619.35Z"/><path class="cls-11" d="M700.7,599.72A43.17,43.17,0,0,0,698.32,582c-1.28,10.7-2.74,21.39-9.78,30.45a39.16,39.16,0,0,1-6.71,6.46l.78.46c3.61.15,7.22.51,10.83,1A42.82,42.82,0,0,0,700.7,599.72Z"/><path class="cls-11" d="M681.27,619.31l1.34,0-.78-.46Z"/><path class="cls-11" d="M681.27,619.31l-.45.33.89.5,2.89.49c-.65-.44-1.31-.87-2-1.28Z"/><path class="cls-11" d="M682.71,619.36l-.05,0c.66.4,1.31.82,1.94,1.25,8,1.38,15.83,3,23.71,4.4,1.37-.4,2.74-.79,4.12-1.15C702.53,621.79,692.64,619.78,682.71,619.36Z"/><path class="cls-11" d="M712.43,623.88a164.11,164.11,0,0,1,35.06-5.45c-14.06-6.4-31.73-8.43-49.06-4.5a73.49,73.49,0,0,0-15.72,5.43C692.64,619.78,702.53,621.79,712.43,623.88Z"/><path class="cls-11" d="M681.44,620l.28.16,2.88.49c-.63-.43-1.28-.85-1.94-1.25C682.25,619.58,681.84,619.77,681.44,620Z"/><path class="cls-11" d="M717,592.92c-8.5,10-17.17,20-30.41,25.81-.61.26-1.24.5-1.86.74a129.06,129.06,0,0,1,13.34,1.61,61.08,61.08,0,0,0,9.41-9.54A52.76,52.76,0,0,0,717,592.92Z"/><path class="cls-11" d="M684.76,619.47l-1.23.45,1.08.71c3.8.66,7.59,1.38,11.36,2.1q1.08-.81,2.13-1.65A129.06,129.06,0,0,0,684.76,619.47Z"/><path class="cls-11" d="M682.5,620.27l2.11.36-1.08-.71Z"/><path class="cls-11" d="M682.62,619.35c.67.41,1.33.84,2,1.28,1.49.26,3,.52,4.45.8-.32-.57-.66-1.14-1-1.7C686.24,619.56,684.43,619.43,682.62,619.35Z"/><path class="cls-11" d="M669,601.09a70.73,70.73,0,0,0-19.45-8.24c10.17,6.72,20.25,13.56,26.27,23.22a38.55,38.55,0,0,1,6.84,3.28c1.81.08,3.62.21,5.43.38A58.18,58.18,0,0,0,669,601.09Z"/><path class="cls-11" d="M680.17,619.28c.52.28,1,.57,1.54.86l2.89.49c-.65-.44-1.31-.87-2-1.28Z"/><path class="cls-11" d="M676.21,616.79l.34.62c1.22.6,2.43,1.23,3.62,1.87l2.45.07a38.55,38.55,0,0,0-6.84-3.28Z"/><path class="cls-11" d="M684.59,619.45c-.05.36-.1.71-.16,1.06l.18.12c3.7.64,7.39,1.34,11.07,2,0-.67-.08-1.33-.14-2C691.89,620.11,688.24,619.68,684.59,619.45Z"/><path class="cls-11" d="M669,578.51c7.3,10.57,14.45,21.22,15.77,33.22a36.1,36.1,0,0,1-.18,7.72c3.65.23,7.3.66,10.95,1.22a53.83,53.83,0,0,0-10.76-26.95A68,68,0,0,0,669,578.51Z"/><path class="cls-11" d="M684.42,620.59l.19,0-.18-.12S684.42,620.56,684.42,620.59Z"/><path class="cls-11" d="M682.6,619.35c.68.41,1.34.84,2,1.28,4.68.81,9.34,1.71,14,2.59,1.1-.46,2.19-1,3.26-1.48A136.9,136.9,0,0,0,682.6,619.35Z"/><path class="cls-11" d="M715.17,612.73a47.41,47.41,0,0,0,11.08-14.8c-8.91,7.56-18,15-30.4,18.45a56,56,0,0,1-15.6,1.65c.81.42,1.59.86,2.35,1.32a136.9,136.9,0,0,1,19.23,2.39A56.6,56.6,0,0,0,715.17,612.73Z"/><path class="cls-11" d="M680.16,619.28l1.53.85,2.9.5c-.65-.44-1.31-.87-2-1.28Z"/><path class="cls-11" d="M677.49,617.88c.9.45,1.79.92,2.67,1.4l2.44.07c-.76-.46-1.54-.9-2.35-1.32Q678.87,618,677.49,617.88Z"/><path class="cls-11" d="M1433.71,725.48c.77.48,1.53,1,2.27,1.5,2.57.45,5.14.93,7.71,1.41-.16-.71-.33-1.43-.52-2.15C1440,725.87,1436.87,725.6,1433.71,725.48Z"/><path class="cls-11" d="M1426.71,698.78a73,73,0,0,0-19.4-13.47c9.65,10.05,19.15,20.22,22.8,33a41.2,41.2,0,0,1,1.07,5.75c.87.46,1.71,1,2.53,1.47,3.16.12,6.31.39,9.46.76A59.91,59.91,0,0,0,1426.71,698.78Z"/><path class="cls-11" d="M1431.32,725.41a1.79,1.79,0,0,0,0,.23l1.35.77,3.29.57c-.74-.52-1.5-1-2.27-1.5C1432.91,725.45,1432.11,725.42,1431.32,725.41Z"/><path class="cls-11" d="M1431.32,725.41c.79,0,1.59,0,2.39.07-.82-.51-1.66-1-2.53-1.47C1431.24,724.47,1431.28,724.94,1431.32,725.41Z"/><path class="cls-11" d="M1433.72,725.48c.77.48,1.53,1,2.27,1.5,2.92.51,5.84,1.06,8.75,1.61.46-.65.91-1.3,1.34-2C1442,726.05,1437.84,725.64,1433.72,725.48Z"/><path class="cls-11" d="M1454.47,702.15a52.43,52.43,0,0,0-2.62-21c-1.52,12.66-3.24,25.32-11.32,36.08a46.62,46.62,0,0,1-7.7,7.68c.3.17.6.36.89.54,4.12.16,8.24.57,12.36,1.14A52.08,52.08,0,0,0,1454.47,702.15Z"/><path class="cls-11" d="M1432.19,725.43l1.53.05c-.29-.18-.59-.37-.89-.54Z"/><path class="cls-11" d="M1432.19,725.43l-.51.4,1,.58,3.3.57c-.74-.52-1.5-1-2.27-1.5Z"/><path class="cls-11" d="M1433.84,725.48l-.06,0c.75.47,1.49,1,2.21,1.47,9.08,1.6,18.07,3.48,27.06,5.09q2.35-.72,4.72-1.38C1456.47,728.27,1445.17,725.94,1433.84,725.48Z"/><path class="cls-11" d="M1467.77,730.69a182.72,182.72,0,0,1,40.07-6.62c-16-7.5-36.21-9.81-56-5.09a83.5,83.5,0,0,0-18,6.5C1445.17,725.94,1456.47,728.27,1467.77,730.69Z"/><path class="cls-11" d="M1432.38,726.22a3.37,3.37,0,0,0,.32.19l3.29.57c-.72-.51-1.46-1-2.21-1.47Z"/><path class="cls-11" d="M1473.16,694c-9.75,11.91-19.7,23.71-34.85,30.69-.71.31-1.42.6-2.14.88a146.13,146.13,0,0,1,15.23,1.85,71.64,71.64,0,0,0,10.8-11.34A63.6,63.6,0,0,0,1473.16,694Z"/><path class="cls-11" d="M1436.17,725.6c-.46.19-.93.37-1.4.54.41.27.82.56,1.23.84,4.34.77,8.66,1.59,13,2.43.82-.64,1.64-1.29,2.43-2A146.13,146.13,0,0,0,1436.17,725.6Z"/><path class="cls-11" d="M1433.59,726.56l2.41.42c-.41-.28-.82-.57-1.23-.84C1434.38,726.29,1434,726.42,1433.59,726.56Z"/><path class="cls-11" d="M1433.73,725.48c.77.48,1.52,1,2.26,1.5l5.08.92c-.37-.67-.75-1.34-1.14-2C1437.86,725.7,1435.8,725.56,1433.73,725.48Z"/><path class="cls-11" d="M1418.22,703.93a78.55,78.55,0,0,0-22.19-9.66c11.59,7.91,23.08,16,29.9,27.36a43.21,43.21,0,0,1,7.8,3.85c2.07.08,4.13.22,6.2.42A66.75,66.75,0,0,0,1418.22,703.93Z"/><path class="cls-11" d="M1430.93,725.41l1.75,1c1.11.19,2.21.37,3.31.57-.74-.52-1.49-1-2.26-1.5C1432.8,725.44,1431.87,725.42,1430.93,725.41Z"/><path class="cls-11" d="M1426.43,722.48l.38.73c1.39.7,2.76,1.44,4.12,2.2.94,0,1.87,0,2.8.07a43.21,43.21,0,0,0-7.8-3.85C1426.1,721.91,1426.27,722.19,1426.43,722.48Z"/><path class="cls-11" d="M1436,725.59l-.18,1.24.2.15c4.23.75,8.44,1.55,12.64,2.36,0-.78-.09-1.57-.16-2.37C1444.32,726.33,1440.15,725.84,1436,725.59Z"/><path class="cls-11" d="M1418.38,677.21c8.28,12.47,16.39,25,17.84,39.23a44.26,44.26,0,0,1-.24,9.15c4.17.25,8.34.74,12.5,1.38a64.57,64.57,0,0,0-12.15-31.84A78.28,78.28,0,0,0,1418.38,677.21Z"/><path class="cls-11" d="M1435.78,726.94l.22,0-.2-.15A.52.52,0,0,0,1435.78,726.94Z"/><path class="cls-11" d="M1433.71,725.48c.77.48,1.53,1,2.27,1.5,5.34.94,10.65,2,16,3,1.26-.55,2.51-1.14,3.74-1.77A152.15,152.15,0,0,0,1433.71,725.48Z"/><path class="cls-11" d="M1471,717.49a56.67,56.67,0,0,0,12.72-17.58c-10.21,9-20.59,17.88-34.81,22a62.21,62.21,0,0,1-17.82,2c.91.48,1.8,1,2.67,1.55a152.15,152.15,0,0,1,22,2.73A65.66,65.66,0,0,0,1471,717.49Z"/><path class="cls-11" d="M1430.92,725.41l1.75,1c1.11.18,2.21.37,3.31.57-.74-.52-1.5-1-2.27-1.5C1432.78,725.44,1431.85,725.42,1430.92,725.41Z"/><path class="cls-11" d="M1427.87,723.76c1,.53,2,1.09,3.05,1.65.93,0,1.86,0,2.79.07-.87-.54-1.76-1.07-2.67-1.55C1430,723.89,1428.93,723.84,1427.87,723.76Z"/><path class="cls-10" d="M206.75,435.18c.58.13,1.16.27,1.72.43,1.74-.21,3.48-.4,5.21-.59-.23-.38-.46-.75-.71-1.11C210.88,434.26,208.8,434.68,206.75,435.18Z"/><path class="cls-10" d="M197.58,421.49a51.33,51.33,0,0,0-14.84-4.05c8,3.89,15.86,7.87,20.44,14.34a22.61,22.61,0,0,1,1.69,3c.64.1,1.26.23,1.88.37,2.05-.5,4.13-.92,6.22-1.27A36,36,0,0,0,197.58,421.49Z"/><path class="cls-10" d="M205.2,435.57l.06.12,1,.19,2.21-.27c-.56-.16-1.14-.3-1.72-.43Z"/><path class="cls-10" d="M205.2,435.57l1.55-.39c-.62-.14-1.24-.27-1.88-.37C205,435.06,205.1,435.32,205.2,435.57Z"/><path class="cls-10" d="M206.76,435.18c.58.13,1.15.27,1.72.43q3-.36,5.91-.67c.18-.45.36-.89.52-1.35C212.16,434,209.44,434.53,206.76,435.18Z"/><path class="cls-10" d="M216,418.39a27.71,27.71,0,0,0-5.36-11.28c1.24,7.37,2.35,14.76-1,22.24a27.74,27.74,0,0,1-3.61,5.68l.67.15c2.68-.65,5.4-1.17,8.15-1.59A27.43,27.43,0,0,0,216,418.39Z"/><path class="cls-10" d="M205.77,435.43l1-.25-.67-.15Z"/><path class="cls-10" d="M205.77,435.43l-.26.31.75.14,2.22-.27c-.57-.16-1.14-.3-1.72-.43Z"/><path class="cls-10" d="M206.84,435.16l0,0c.56.13,1.12.28,1.67.43,6.12-.74,12.23-1.3,18.3-2,.92-.54,1.85-1.09,2.79-1.62C221.88,432.65,214.21,433.38,206.84,435.16Z"/><path class="cls-10" d="M229.57,432a136.07,136.07,0,0,1,24.62-10.91,65.7,65.7,0,0,0-36.92,7.23,58.33,58.33,0,0,0-10.43,6.87C214.21,433.38,221.88,432.65,229.57,432Z"/><path class="cls-10" d="M206,435.84l.24,0,2.21-.27c-.55-.15-1.11-.3-1.67-.43Z"/><path class="cls-10" d="M226.63,410.48c-4.19,8.42-8.53,16.82-17,23.45-.4.3-.81.59-1.22.88,3.32-.74,6.7-1.28,10.12-1.71a43.22,43.22,0,0,0,5-8.29A34.56,34.56,0,0,0,226.63,410.48Z"/><path class="cls-10" d="M208.36,434.81l-.81.55.94.25c2.92-.35,5.85-.67,8.76-1,.42-.51.83-1,1.23-1.54C215.06,433.53,211.68,434.07,208.36,434.81Z"/><path class="cls-10" d="M206.86,435.81l1.63-.2-.94-.25Z"/><path class="cls-10" d="M206.76,435.18c.58.13,1.16.27,1.72.43l3.43-.4c-.35-.31-.71-.61-1.08-.91C209.46,434.56,208.11,434.85,206.76,435.18Z"/><path class="cls-10" d="M193,425.9a58,58,0,0,0-16-1.42c8.84,2.34,17.63,4.79,24,9.94a31.37,31.37,0,0,1,5.68.76c1.35-.33,2.7-.62,4.07-.88A44,44,0,0,0,193,425.9Z"/><path class="cls-10" d="M205,435.64l1.3.24,2.22-.27c-.56-.16-1.14-.3-1.72-.43C206.16,435.32,205.56,435.48,205,435.64Z"/><path class="cls-10" d="M201.54,434.81l.38.34c1,.14,2,.31,3,.49.6-.16,1.2-.32,1.8-.46a31.37,31.37,0,0,0-5.68-.76Z"/><path class="cls-10" d="M208.23,434.83c0,.25.07.49.1.73l.16.05c2.85-.34,5.7-.65,8.54-.95-.16-.44-.33-.87-.51-1.3C213.73,433.75,211,434.22,208.23,434.83Z"/><path class="cls-10" d="M188.44,410.91c7.52,5.49,14.93,11.07,18.35,18.76a23,23,0,0,1,1.44,5.16c2.73-.61,5.5-1.08,8.29-1.47a36.41,36.41,0,0,0-13.4-15.64A51.68,51.68,0,0,0,188.44,410.91Z"/><path class="cls-10" d="M208.34,435.63l.15,0-.16-.05Z"/><path class="cls-10" d="M206.76,435.18c.58.13,1.15.27,1.72.43,3.6-.43,7.19-.81,10.78-1.19.72-.53,1.42-1.09,2.09-1.66A115.62,115.62,0,0,0,206.76,435.18Z"/><path class="cls-10" d="M229.31,424a32.46,32.46,0,0,0,5.11-12.13c-5,6.87-10.12,13.71-18.55,18.57a46.4,46.4,0,0,1-11.11,4.34c.68.11,1.34.24,2,.39a115.62,115.62,0,0,1,14.59-2.42A42.74,42.74,0,0,0,229.31,424Z"/><path class="cls-10" d="M205,435.64l1.3.25,2.23-.28c-.57-.16-1.14-.3-1.72-.43Z"/><path class="cls-10" d="M202.7,435.26l2.25.38,1.81-.46c-.66-.15-1.32-.28-2-.39C204.08,435,203.39,435.12,202.7,435.26Z"/><path class="cls-10" d="M1594.49,444.58c.5.32,1,.65,1.48,1,1.7.38,3.41.78,5.1,1.18-.09-.43-.19-.86-.3-1.28Q1597.64,444.91,1594.49,444.58Z"/><path class="cls-10" d="M1590.4,428.62a51.31,51.31,0,0,0-12.63-8.77c6.21,6.32,12.32,12.71,14.48,20.34a22.67,22.67,0,0,1,.59,3.42c.56.31,1.11.63,1.65,1q3.15.33,6.28.88A35.94,35.94,0,0,0,1590.4,428.62Z"/><path class="cls-10" d="M1592.89,444.44a.53.53,0,0,1,0,.13l.89.51,2.18.48c-.49-.33-1-.66-1.48-1Z"/><path class="cls-10" d="M1592.89,444.44l1.6.14c-.54-.34-1.09-.66-1.65-1C1592.86,443.88,1592.88,444.16,1592.89,444.44Z"/><path class="cls-10" d="M1594.49,444.58c.51.32,1,.65,1.48,1l5.8,1.34c.32-.36.63-.72.94-1.09C1600,445.29,1597.24,444.86,1594.49,444.58Z"/><path class="cls-10" d="M1608.83,431.84a27.63,27.63,0,0,0-1.3-12.41c-1.28,7.35-2.7,14.7-8.32,20.64a28.19,28.19,0,0,1-5.29,4.15l.57.36c2.75.28,5.49.71,8.22,1.23A27.48,27.48,0,0,0,1608.83,431.84Z"/><path class="cls-10" d="M1593.48,444.49l1,.09-.57-.36Z"/><path class="cls-10" d="M1593.48,444.49l-.35.2.66.39,2.18.48c-.48-.33-1-.66-1.48-1Z"/><path class="cls-10" d="M1594.57,444.59l0,0c.5.3,1,.63,1.45.95,6,1.35,12,2.85,17.92,4.2,1-.21,2.11-.41,3.17-.59C1609.59,447.24,1602.11,445.37,1594.57,444.59Z"/><path class="cls-10" d="M1617.07,449.17a135.75,135.75,0,0,1,26.84-2.09,65.71,65.71,0,0,0-37.21-5.49,58.67,58.67,0,0,0-12.13,3C1602.11,445.37,1609.59,447.24,1617.07,449.17Z"/><path class="cls-10" d="M1593.58,445l.21.12,2.19.48c-.47-.32-1-.65-1.45-.95Z"/><path class="cls-10" d="M1621.46,427.92c-6.76,6.54-13.65,13-23.89,16.43l-1.44.42c3.38.41,6.74,1,10.1,1.76a42.61,42.61,0,0,0,7.44-6.16A34.46,34.46,0,0,0,1621.46,427.92Z"/><path class="cls-10" d="M1596.13,444.77l-1,.25c.27.18.54.36.8.55,2.88.64,5.74,1.32,8.59,2,.56-.34,1.12-.68,1.66-1C1602.87,445.8,1599.51,445.18,1596.13,444.77Z"/><path class="cls-10" d="M1594.38,445.21l1.6.36c-.26-.19-.53-.37-.8-.55Z"/><path class="cls-10" d="M1594.5,444.58c.5.32,1,.65,1.48,1l3.36.77c-.23-.41-.47-.82-.72-1.22C1597.25,444.9,1595.88,444.72,1594.5,444.58Z"/><path class="cls-10" d="M1584.63,431.26a58,58,0,0,0-14.57-6.66c7.55,5.15,15,10.39,19.33,17.38a31,31,0,0,1,5.11,2.6c1.38.14,2.75.32,4.12.53A43.84,43.84,0,0,0,1584.63,431.26Z"/><path class="cls-10" d="M1592.64,444.42l1.14.66,2.2.48c-.49-.33-1-.66-1.48-1C1593.88,444.52,1593.26,444.46,1592.64,444.42Z"/><path class="cls-10" d="M1589.7,442.5l.24.44c.91.48,1.81,1,2.7,1.48.62,0,1.24.1,1.86.16a31,31,0,0,0-5.11-2.6C1589.49,442.15,1589.6,442.32,1589.7,442.5Z"/><path class="cls-10" d="M1596,444.75l-.15.72.13.09c2.8.63,5.59,1.29,8.37,2,0-.47,0-.93,0-1.4C1601.54,445.56,1598.77,445.08,1596,444.75Z"/><path class="cls-10" d="M1585.31,415.6c5.26,7.68,10.39,15.41,11,23.8a23.16,23.16,0,0,1-.36,5.35c2.77.33,5.54.81,8.3,1.37a36.38,36.38,0,0,0-7.41-19.21A51.83,51.83,0,0,0,1585.31,415.6Z"/><path class="cls-10" d="M1595.83,445.53l.15,0-.13-.09Z"/><path class="cls-10" d="M1594.49,444.58c.5.32,1,.65,1.48,1,3.54.79,7,1.64,10.56,2.48.86-.27,1.7-.56,2.53-.87A114.69,114.69,0,0,0,1594.49,444.58Z"/><path class="cls-10" d="M1619.48,441.57a32.31,32.31,0,0,0,8.85-9.73c-7,4.81-14.1,9.55-23.67,11.32a46.1,46.1,0,0,1-11.92.39c.6.33,1.18.68,1.75,1a114.69,114.69,0,0,1,14.57,2.59A43,43,0,0,0,1619.48,441.57Z"/><path class="cls-10" d="M1592.63,444.42c.39.21.77.44,1.15.66l2.19.48c-.48-.33-1-.66-1.48-1C1593.87,444.52,1593.25,444.46,1592.63,444.42Z"/><path class="cls-10" d="M1590.64,443.31c.67.36,1.33.73,2,1.11.62,0,1.24.1,1.86.16-.57-.35-1.15-.7-1.75-1Q1591.69,443.46,1590.64,443.31Z"/><path class="cls-10" d="M1785.8,593c.54.26,1.07.52,1.58.8,1.74.18,3.48.38,5.21.58-.14-.42-.28-.83-.44-1.24Q1789,593,1785.8,593Z"/><path class="cls-10" d="M1779.88,577.63a51.09,51.09,0,0,0-13.57-7.23c6.91,5.55,13.72,11.19,16.76,18.51a22.79,22.79,0,0,1,1,3.32c.6.25,1.18.51,1.75.78q3.17,0,6.35.14A36.06,36.06,0,0,0,1779.88,577.63Z"/><path class="cls-10" d="M1784.2,593.05l0,.13.93.41,2.22.22c-.51-.28-1-.54-1.58-.8Z"/><path class="cls-10" d="M1784.2,593.05l1.6,0c-.57-.27-1.15-.53-1.75-.78C1784.1,592.51,1784.16,592.78,1784.2,593.05Z"/><path class="cls-10" d="M1785.81,593c.54.26,1.06.52,1.58.8q3,.32,5.91.66c.28-.4.55-.79.81-1.2C1791.34,593.07,1788.57,593,1785.81,593Z"/><path class="cls-10" d="M1798.56,578.69a27.67,27.67,0,0,0-2.73-12.18c-.42,7.45-1,14.91-5.86,21.47a28.23,28.23,0,0,1-4.78,4.74l.62.29c2.76,0,5.53.06,8.3.26A27.45,27.45,0,0,0,1798.56,578.69Z"/><path class="cls-10" d="M1784.79,593l1,0-.62-.29Z"/><path class="cls-10" d="M1784.79,593l-.33.25.71.31,2.22.22c-.52-.28-1-.54-1.58-.8Z"/><path class="cls-10" d="M1785.89,593l0,0c.52.25,1,.51,1.54.78,6.14.64,12.22,1.44,18.29,2.09,1-.33,2-.66,3.08-1C1801.11,593.89,1793.47,592.9,1785.89,593Z"/><path class="cls-10" d="M1808.76,594.93a136.66,136.66,0,0,1,26.42-5.19,65.69,65.69,0,0,0-37.6-1.13,60,60,0,0,0-11.69,4.4C1793.47,592.9,1801.11,593.89,1808.76,594.93Z"/><path class="cls-10" d="M1785,593.49l.22.1,2.22.22c-.5-.27-1-.53-1.54-.78C1785.55,593.18,1785.24,593.33,1785,593.49Z"/><path class="cls-10" d="M1810.65,573.32c-6,7.28-12,14.51-21.82,19.1-.45.2-.91.39-1.38.58,3.41,0,6.82.24,10.25.58a43.54,43.54,0,0,0,6.67-7A34.7,34.7,0,0,0,1810.65,573.32Z"/><path class="cls-10" d="M1787.45,593c-.3.13-.61.25-.91.36l.86.45c2.93.31,5.85.65,8.76,1,.52-.4,1-.8,1.54-1.22C1794.27,593.24,1790.86,593,1787.45,593Z"/><path class="cls-10" d="M1785.77,593.65l1.63.16-.86-.45Z"/><path class="cls-10" d="M1785.81,593c.54.26,1.07.52,1.59.8l3.42.38c-.27-.39-.56-.76-.85-1.14C1788.58,593,1787.2,593,1785.81,593Z"/><path class="cls-10" d="M1774.46,580.92a58,58,0,0,0-15.25-4.91c8.1,4.24,16.14,8.57,21.22,15a30.93,30.93,0,0,1,5.38,2c1.39,0,2.77,0,4.16,0A44.12,44.12,0,0,0,1774.46,580.92Z"/><path class="cls-10" d="M1784,593.06l1.21.53,2.24.22c-.52-.28-1.05-.54-1.59-.8Z"/><path class="cls-10" d="M1780.8,591.5c.1.13.2.27.29.41,1,.37,1.92.75,2.86,1.15l1.86,0a30.93,30.93,0,0,0-5.38-2Z"/><path class="cls-10" d="M1787.32,593l-.06.74.14.07c2.85.3,5.7.63,8.54,1q-.09-.69-.21-1.38C1792.92,593.16,1790.11,593,1787.32,593Z"/><path class="cls-10" d="M1773.32,565.29c6.11,7,12.1,14.1,13.73,22.36a22.46,22.46,0,0,1,.27,5.35c2.79,0,5.6.16,8.41.4a36.39,36.39,0,0,0-9.6-18.22A52,52,0,0,0,1773.32,565.29Z"/><path class="cls-10" d="M1787.25,593.8h.15l-.14-.07Z"/><path class="cls-10" d="M1785.8,593c.54.26,1.07.52,1.59.8,3.6.38,7.19.81,10.78,1.23.81-.36,1.62-.75,2.41-1.16A116.63,116.63,0,0,0,1785.8,593Z"/><path class="cls-10" d="M1810.27,587.11a32.34,32.34,0,0,0,7.66-10.7c-6.39,5.6-12.89,11.14-22.19,14a46.2,46.2,0,0,1-11.79,1.78c.63.26,1.25.53,1.85.82a116.63,116.63,0,0,1,14.78.87A42.6,42.6,0,0,0,1810.27,587.11Z"/><path class="cls-10" d="M1783.94,593.06l1.21.53,2.24.22c-.52-.28-1.05-.54-1.59-.8Z"/><path class="cls-10" d="M1781.83,592.2l2.11.86,1.86,0c-.6-.29-1.22-.56-1.85-.82C1783.24,592.21,1782.54,592.21,1781.83,592.2Z"/><path class="cls-11" d="M17.72,721c.76-.21,1.52-.4,2.28-.58q2.74-2.07,5.51-4.09c-.54-.31-1.08-.62-1.64-.91C21.75,717.16,19.69,719,17.72,721Z"/><path class="cls-11" d="M-3,710.07a64.88,64.88,0,0,0-20,4.61c12-.36,24-.57,34.11,4.42a33.58,33.58,0,0,1,4.19,2.62c.81-.29,1.62-.53,2.44-.77,2-1.93,4-3.79,6.15-5.58A50.77,50.77,0,0,0-3,710.07Z"/><path class="cls-11" d="M16.24,722.44l.15.12,1.29-.42L20,720.37c-.76.18-1.52.37-2.28.58C17.22,721.45,16.72,721.94,16.24,722.44Z"/><path class="cls-11" d="M16.24,722.44c.48-.5,1-1,1.48-1.49-.82.24-1.63.48-2.44.77C15.61,722,15.92,722.2,16.24,722.44Z"/><path class="cls-11" d="M17.72,721c.76-.22,1.53-.41,2.29-.58,2.08-1.57,4.17-3.11,6.26-4.65-.13-.66-.26-1.33-.41-2C23,716,20.3,718.42,17.72,721Z"/><path class="cls-11" d="M15.74,694.33A42.93,42.93,0,0,0,1.17,684c6.93,8.24,13.74,16.61,15.55,27.94a39.66,39.66,0,0,1,.13,9.31l.87-.25c2.58-2.53,5.31-4.92,8.14-7.22A42.92,42.92,0,0,0,15.74,694.33Z"/><path class="cls-11" d="M16.77,721.9l.95-.95-.87.25C16.83,721.43,16.8,721.66,16.77,721.9Z"/><path class="cls-11" d="M16.77,721.9l-.06.55,1-.31c.78-.6,1.55-1.19,2.33-1.77-.76.17-1.53.36-2.29.58Z"/><path class="cls-11" d="M17.8,720.88l0,0c.74-.21,1.49-.4,2.24-.57,6.44-4.86,13-9.5,19.4-14.3.65-1.27,1.31-2.54,2-3.8C33.11,708.06,24.89,713.92,17.8,720.88Z"/><path class="cls-11" d="M41.4,702.26a164.35,164.35,0,0,1,20-29.32c-14.28,5.9-27.83,17.42-36.8,32.75a73.69,73.69,0,0,0-6.77,15.19C24.89,713.92,33.11,708.06,41.4,702.26Z"/><path class="cls-11" d="M17.38,722.23l.31-.09c.77-.6,1.55-1.19,2.33-1.78-.75.17-1.5.36-2.24.57C17.64,721.36,17.5,721.8,17.38,722.23Z"/><path class="cls-11" d="M21.94,677.76c1.51,13,2.84,26.17-1.93,39.83-.23.63-.48,1.25-.74,1.87a131.69,131.69,0,0,1,10.29-8.64A60.62,60.62,0,0,0,29,697.43,52.69,52.69,0,0,0,21.94,677.76Z"/><path class="cls-11" d="M19.27,719.46c-.17.4-.33.8-.51,1.2l1.26-.3c3.08-2.32,6.19-4.6,9.29-6.86.1-.89.19-1.79.25-2.68A131.69,131.69,0,0,0,19.27,719.46Z"/><path class="cls-11" d="M18.31,721.66l1.71-1.3-1.26.3C18.62,721,18.46,721.33,18.31,721.66Z"/><path class="cls-11" d="M17.73,720.94c.76-.21,1.52-.4,2.29-.58l3.62-2.7c-.64-.15-1.28-.29-1.93-.42Q19.67,719,17.73,720.94Z"/><path class="cls-11" d="M-4.94,718.44A70.43,70.43,0,0,0-24.25,727c11.86-2.84,23.75-5.53,34.91-3.32a38.73,38.73,0,0,1,7.07-2.76q1.93-1.91,4-3.7A58,58,0,0,0-4.94,718.44Z"/><path class="cls-11" d="M16,722.68l1.68-.54c.77-.59,1.55-1.19,2.34-1.78-.77.18-1.53.37-2.29.58C17.14,721.52,16.57,722.1,16,722.68Z"/><path class="cls-11" d="M11.48,723.87c.23,0,.46.12.68.18,1.28-.49,2.56-.94,3.84-1.37.57-.58,1.14-1.16,1.73-1.74a38.73,38.73,0,0,0-7.07,2.76Z"/><path class="cls-11" d="M19.15,719.57l.66.84.21,0c3-2.26,6-4.48,9.06-6.69q-.76-.64-1.56-1.26C24.62,714.69,21.81,717.06,19.15,719.57Z"/><path class="cls-11" d="M-21.39,703c12.7,1.89,25.35,3.95,35,11.18a36.73,36.73,0,0,1,5.52,5.41c2.66-2.51,5.47-4.88,8.37-7.16a53.85,53.85,0,0,0-27-10.56A67.86,67.86,0,0,0-21.39,703Z"/><path class="cls-11" d="M19.86,720.48l.16-.12-.21,0Z"/><path class="cls-11" d="M17.72,721c.76-.21,1.52-.4,2.29-.58,3.79-2.86,7.62-5.65,11.44-8.43.41-1.12.8-2.26,1.15-3.4A137.24,137.24,0,0,0,17.72,721Z"/><path class="cls-11" d="M35.13,692.65a47.2,47.2,0,0,0-3.24-18.2c-.56,11.67-1.29,23.38-7.3,34.8a56,56,0,0,1-9.44,12.52c.85-.31,1.71-.57,2.57-.82A137.24,137.24,0,0,1,32.6,708.54,56.54,56.54,0,0,0,35.13,692.65Z"/><path class="cls-11" d="M16,722.69c.55-.19,1.11-.36,1.67-.54.77-.6,1.55-1.19,2.34-1.78-.77.18-1.53.37-2.29.58C17.14,721.52,16.56,722.1,16,722.69Z"/><path class="cls-11" d="M13.14,723.68c.95-.34,1.9-.67,2.86-1,.56-.59,1.14-1.17,1.72-1.74-.86.25-1.72.51-2.57.82C14.49,722.42,13.83,723.06,13.14,723.68Z"/><path class="cls-11" d="M1733,653.44c.72.32,1.43.65,2.14,1,2.29.08,4.57.18,6.86.3-.23-.59-.46-1.17-.71-1.74C1738.48,653.05,1735.72,653.18,1733,653.44Z"/><path class="cls-11" d="M1723.75,631.9a65,65,0,0,0-18.42-9c9.55,7.3,19,14.72,23.67,25a35.41,35.41,0,0,1,1.6,4.68c.8.29,1.59.61,2.37.94,2.75-.26,5.51-.39,8.29-.44A50.84,50.84,0,0,0,1723.75,631.9Z"/><path class="cls-11" d="M1730.88,653.66c0,.06,0,.12,0,.19l1.27.49,2.92.1c-.71-.35-1.42-.68-2.14-1Z"/><path class="cls-11" d="M1730.88,653.66l2.09-.22c-.78-.33-1.57-.65-2.37-.94C1730.7,652.89,1730.79,653.27,1730.88,653.66Z"/><path class="cls-11" d="M1733,653.44c.73.32,1.44.65,2.15,1,2.6.09,5.19.21,7.78.34.32-.59.64-1.19.94-1.8C1740.2,653,1736.57,653.1,1733,653.44Z"/><path class="cls-11" d="M1748.24,631.54a42.87,42.87,0,0,0-4.75-17.25c.18,10.77.18,21.56-5.57,31.49a39.89,39.89,0,0,1-5.78,7.31l.83.35c3.6-.34,7.23-.47,10.87-.46A42.88,42.88,0,0,0,1748.24,631.54Z"/><path class="cls-11" d="M1731.64,653.58l1.33-.14-.83-.35Z"/><path class="cls-11" d="M1731.64,653.58l-.4.39,1,.37,2.93.1c-.71-.35-1.42-.68-2.15-1Z"/><path class="cls-11" d="M1733.08,653.43l0,0c.71.31,1.4.64,2.09,1,8.07.3,16.09.83,24.09,1.15,1.3-.58,2.61-1.14,3.92-1.69C1753,653.16,1743,652.51,1733.08,653.43Z"/><path class="cls-11" d="M1763.13,653.9a164.43,164.43,0,0,1,34-10.14c-14.79-4.44-32.58-4.06-49.21,2.17a74.18,74.18,0,0,0-14.84,7.5C1743,652.51,1753,653.16,1763.13,653.9Z"/><path class="cls-11" d="M1731.89,654.22l.31.12,2.92.1c-.69-.34-1.38-.67-2.09-1Z"/><path class="cls-11" d="M1763.51,622.6c-7.07,11.08-14.32,22.1-26.64,29.68-.58.34-1.16.67-1.75,1a133.47,133.47,0,0,1,13.43-.2,60.52,60.52,0,0,0,8-10.72A52.75,52.75,0,0,0,1763.51,622.6Z"/><path class="cls-11" d="M1735.12,653.26l-1.16.62c.39.18.78.36,1.17.56,3.85.14,7.7.34,11.54.54.64-.63,1.27-1.27,1.88-1.92A133.47,133.47,0,0,0,1735.12,653.26Z"/><path class="cls-11" d="M1733,654.36l2.14.08c-.39-.2-.78-.38-1.17-.56Z"/><path class="cls-11" d="M1733,653.44c.73.31,1.44.65,2.14,1,1.51,0,3,.12,4.52.19-.4-.52-.81-1-1.23-1.55C1736.6,653.15,1734.78,653.27,1733,653.44Z"/><path class="cls-11" d="M1717,637.19a70.26,70.26,0,0,0-20.39-5.53c11,5.28,21.91,10.7,29.17,19.46a37.85,37.85,0,0,1,7.22,2.32c1.8-.17,3.62-.29,5.43-.36A58.21,58.21,0,0,0,1717,637.19Z"/><path class="cls-11" d="M1730.55,653.7l1.63.64,2.94.1c-.7-.35-1.41-.69-2.14-1C1732.17,653.52,1731.36,653.6,1730.55,653.7Z"/><path class="cls-11" d="M1726.29,651.77l.42.57c1.29.43,2.57.88,3.84,1.36.81-.1,1.62-.18,2.43-.26a37.85,37.85,0,0,0-7.22-2.32C1725.94,651.33,1726.12,651.55,1726.29,651.77Z"/><path class="cls-11" d="M1735,653.27c0,.36,0,.71,0,1.07l.19.1c3.76.14,7.51.33,11.25.52-.13-.65-.27-1.31-.42-2C1742.27,652.94,1738.6,653,1735,653.27Z"/><path class="cls-11" d="M1714,614.82c8.66,9.47,17.17,19.06,20.1,30.77a36.11,36.11,0,0,1,.87,7.68c3.65-.26,7.32-.33,11-.27a53.8,53.8,0,0,0-14.3-25.25A68,68,0,0,0,1714,614.82Z"/><path class="cls-11" d="M1734.93,654.43h.2l-.19-.1A.28.28,0,0,0,1734.93,654.43Z"/><path class="cls-11" d="M1733,653.44c.72.32,1.44.65,2.14,1,4.75.17,9.48.43,14.2.68,1-.61,2-1.25,3-1.91A137.44,137.44,0,0,0,1733,653.44Z"/><path class="cls-11" d="M1764.34,642.48a47.37,47.37,0,0,0,9-16.16c-7.81,8.7-15.77,17.32-27.63,22.38a55.62,55.62,0,0,1-15.23,3.75c.85.3,1.69.64,2.51,1a137.44,137.44,0,0,1,19.37-.23A56.81,56.81,0,0,0,1764.34,642.48Z"/><path class="cls-11" d="M1730.54,653.7l1.63.64,2.94.1c-.7-.35-1.42-.68-2.14-1Z"/><path class="cls-11" d="M1727.7,652.67c1,.33,1.9.68,2.84,1l2.43-.26c-.82-.35-1.66-.69-2.51-1C1729.54,652.55,1728.62,652.62,1727.7,652.67Z"/><rect class="cls-12" x="1030.66" y="545.98" width="52.22" height="280" rx="26.11" ry="26.11"/><rect class="cls-12" x="1082.88" y="648.08" width="44.44" height="37.9"/><rect class="cls-12" x="1119.55" y="548.66" width="34.44" height="140" rx="17.22" ry="17.22"/><rect class="cls-12" x="973.99" y="648.08" width="33.33" height="81.15" rx="16.67" ry="16.67"/><rect class="cls-12" x="997.33" y="688.65" width="42.22" height="40.57"/><rect class="cls-12" x="1771" y="577.22" width="29.41" height="108.49" rx="14.7" ry="14.7"/><rect class="cls-12" x="1795.21" y="652.16" width="51.89" height="30.61"/><rect class="cls-12" x="1841.05" y="575.02" width="33.73" height="216" rx="16.86" ry="16.86"/><rect class="cls-12" x="1874.78" y="656.32" width="40.65" height="20.82"/><path class="cls-12" d="M1931,665.9V608.55a11.24,11.24,0,0,0-11.24-11.24h0a11.25,11.25,0,0,0-11.25,11.24V665.9a11.25,11.25,0,0,0,22.49,0Z"/><path class="cls-12" d="M541.65,614l-4.43,0c-6.45,0-11.66,9.39-11.63,20.85l.49,189.5c0,11.46,5.29,20.71,11.74,20.66l4.42,0c6.45-.05,11.66-9.39,11.63-20.85l-.49-189.5C553.35,623.15,548.1,613.9,541.65,614Z"/><rect class="cls-12" x="553.63" y="732.9" width="34.74" height="27.71"/><rect class="cls-12" x="581.2" y="690.55" width="22.79" height="77.62" rx="11.4" ry="11.4"/><rect class="cls-12" x="486.76" y="735.07" width="39.08" height="37.02"/><path class="cls-12" d="M477,660.36v89.43c0,12.31,5.62,22.3,12.55,22.3h.08c6.93,0,12.55-10,12.55-22.3V660.34c0-13.14-6.37-23.58-13.73-22.2l-.36.07C481.77,639.55,477,649.05,477,660.36Z"/><path class="cls-11" d="M887.05,598l-4,0a10.82,10.82,0,0,0-10.62,11l.45,100.1A10.8,10.8,0,0,0,883.56,720h4a10.83,10.83,0,0,0,10.62-11l-.45-100.1A10.82,10.82,0,0,0,887.05,598Z"/><rect class="cls-11" x="897.99" y="660.8" width="31.73" height="14.64"/><rect class="cls-11" x="923.18" y="638.43" width="20.82" height="41" rx="10.41" ry="10.41"/><rect class="cls-11" x="836.92" y="661.94" width="35.69" height="19.56"/><path class="cls-11" d="M828,622.48v47.24a11.61,11.61,0,0,0,11.46,11.78h.07A11.63,11.63,0,0,0,851,669.72V622.47a11.54,11.54,0,0,0-12.54-11.72l-.33,0A11.68,11.68,0,0,0,828,622.48Z"/><rect class="cls-11" x="379.13" y="587.95" width="24.08" height="136" rx="12.04" ry="12.04"/><rect class="cls-11" x="403.21" y="637.54" width="20.49" height="18.41"/><rect class="cls-11" x="420.11" y="589.25" width="15.88" height="68" rx="7.94" ry="7.94"/><rect class="cls-11" x="353" y="637.54" width="15.37" height="39.41" rx="7.69" ry="7.69"/><rect class="cls-11" x="363.75" y="657.24" width="19.47" height="19.71"/><rect class="cls-11" x="1537" y="589.02" width="16.36" height="50.23" rx="8.18" ry="8.18"/><rect class="cls-11" x="1550.47" y="623.72" width="28.86" height="14.17"/><rect class="cls-11" x="1575.96" y="588" width="18.76" height="100" rx="9.38" ry="9.38"/><rect class="cls-11" x="1594.73" y="625.65" width="22.61" height="9.64"/><rect class="cls-11" x="1613.49" y="598.32" width="12.51" height="36.96" rx="6.25" ry="6.25"/><path class="cls-13" d="M1261.13,531.24c133.41-50.62,206,32.1,207.81,156.39,1.77,119.1-73.06,172.57-195.94,151.45q-8.84-1.53-18-3.56c-113.71-25.25-209.5-72.36-207.81-156.39S1152.22,572.56,1261.13,531.24Z"/><path class="cls-14" d="M1066.07,635.53l-2.13,105.85c-.14,6.92-4.36,12.49-9.38,12.39-15-5.94-24.53-13.82-89.72-1.8-5-.1-9-5.85-8.88-12.76,12.9-33.31,25.23-66.71,2.14-105.85.13-6.92,4.35-12.49,9.37-12.39,99.24-28.82,89.67-1.22,89.73,1.8S1066.21,628.62,1066.07,635.53Z"/><rect class="cls-10" x="1217" y="477.91" width="13.97" height="45.71" rx="6.98" ry="6.98"/><rect class="cls-10" x="1228.51" y="509.49" width="24.65" height="12.9"/><rect class="cls-10" x="1250.28" y="476.99" width="16.02" height="91" rx="8.01" ry="8.01"/><rect class="cls-10" x="1266.3" y="511.24" width="19.31" height="8.77"/><rect class="cls-10" x="1282.32" y="486.38" width="10.68" height="33.63" rx="5.34" ry="5.34"/><path class="cls-13" d="M1459.76,771.19a12,12,0,0,1-10-13.68l1.21-7.91a12,12,0,0,1,13.67-10.05l99.84,15.24a12,12,0,0,1,10.06,13.67l-1.21,7.91a12,12,0,0,1-13.67,10"/><rect class="cls-13" x="1209.16" y="473.66" width="30.98" height="119.06" rx="12" ry="12" transform="translate(1188.2 -802) rotate(64.91)"/><rect class="cls-13" x="1165.89" y="810.69" width="30.98" height="119.06" rx="12" ry="12" transform="translate(466.04 -410.89) rotate(24.45)"/><path class="cls-15" d="M1576.89,749.29l-.81,40.21a12,12,0,0,1-12.24,11.75l-58-1.17a12,12,0,0,1-11.76-12.23q23.75-19.64.81-40.21a12,12,0,0,1,12.24-11.76l58,1.17A12,12,0,0,1,1576.89,749.29Z"/><rect class="cls-16" x="1517.05" y="777.01" width="99" height="19.16" rx="9.58" ry="9.58" transform="translate(748.59 2336.99) rotate(-88.85)"/><rect class="cls-17" x="1548.28" y="726.86" width="15" height="5" transform="translate(795.25 2270.14) rotate(-88.85)"/><polygon class="cls-17" points="1567.33 718.18 1561.57 722.65 1562.95 729.81 1555.79 725.85 1548.65 728.53 1549.99 721.61 1544.19 716.11 1552.18 715.79 1555.74 709.71 1559.34 716.43 1567.33 718.18"/><path class="cls-13" d="M1462,609.91A12,12,0,0,0,1451.26,623l.8,8a12,12,0,0,0,13.12,10.75l100.51-10a12,12,0,0,0,10.75-13.13l-.79-8a12,12,0,0,0-13.13-10.76"/><path class="cls-15" d="M1577.84,637.9l1.29-40.2a12,12,0,0,0-11.61-12.38l-58-1.86a12,12,0,0,0-12.38,11.61q22.68,20.85-1.29,40.19a12,12,0,0,0,11.61,12.38l58,1.87A12,12,0,0,0,1577.84,637.9Z"/><rect class="cls-16" x="1519.97" y="590.53" width="99" height="19.16" rx="9.58" ry="9.58" transform="translate(2219.77 -949.23) rotate(91.84)"/><rect class="cls-17" x="1548.22" y="654.2" width="15" height="5" transform="translate(2262.14 -877.09) rotate(91.84)"/><polygon class="cls-17" points="1566.67 668.47 1561.14 663.7 1562.9 656.62 1555.54 660.21 1548.55 657.15 1549.53 664.13 1543.45 669.33 1551.42 670.06 1554.65 676.32 1558.59 669.79 1566.67 668.47"/><rect x="1083.58" y="736.82" width="53" height="6" transform="translate(-97.33 1307.07) rotate(-58.85)"/><rect x="1077.65" y="636.84" width="53" height="6" transform="translate(1131.89 -636) rotate(61.15)"/><path class="cls-12" d="M1687.46,570.18c-1-.75-1.88-1.52-2.79-2.32q-5-1.27-9.92-2.63c.13,1,.26,2.07.43,3.11C1679.25,569.12,1683.35,569.75,1687.46,570.18Z"/><path class="cls-12" d="M1693.5,608.87a92.88,92.88,0,0,0,23.79,20.77c-11.44-15.11-22.67-30.39-26-48.87a62.85,62.85,0,0,1-.73-8.28c-1.08-.74-2.12-1.51-3.13-2.31-4.11-.43-8.21-1.06-12.28-1.84A85.38,85.38,0,0,0,1693.5,608.87Z"/><path class="cls-12" d="M1690.58,570.46v-.31l-1.67-1.22c-1.42-.35-2.83-.7-4.24-1.07.91.8,1.83,1.57,2.79,2.32C1688.5,570.29,1689.54,570.38,1690.58,570.46Z"/><path class="cls-12" d="M1690.58,570.46c-1-.08-2.08-.17-3.12-.28,1,.8,2,1.57,3.13,2.31C1690.58,571.81,1690.57,571.14,1690.58,570.46Z"/><path class="cls-12" d="M1687.45,570.18c-1-.75-1.89-1.52-2.8-2.32-3.76-1-7.51-2-11.25-3-.68.89-1.35,1.79-2,2.71A151.34,151.34,0,0,0,1687.45,570.18Z"/><path class="cls-12" d="M1657.58,601.85a81.32,81.32,0,0,0,1,30.17c3.46-18,7.18-35.91,19-50.64a65.88,65.88,0,0,1,11-10.35l-1.09-.85a151.34,151.34,0,0,1-16-2.61A81.08,81.08,0,0,0,1657.58,601.85Z"/><path class="cls-12" d="M1689.44,570.37l-2-.19,1.09.85C1688.84,570.8,1689.14,570.59,1689.44,570.37Z"/><path class="cls-12" d="M1689.44,570.37l.71-.52-1.26-.92-4.24-1.07c.91.8,1.84,1.57,2.8,2.32Z"/><path class="cls-12" d="M1687.29,570.16l.08,0c-.93-.73-1.84-1.49-2.72-2.27-11.69-3-23.22-6.4-34.8-9.42q-3.15.84-6.32,1.6C1658,564.4,1672.52,568.61,1687.29,570.16Z"/><path class="cls-12" d="M1643.53,560a223,223,0,0,1-53.18,6.28c20.1,12,46.21,16.89,72.66,11.71a105.29,105.29,0,0,0,24.28-7.87C1672.52,568.61,1658,564.4,1643.53,560Z"/><path class="cls-12" d="M1689.29,569.22l-.4-.29-4.24-1.07c.88.78,1.79,1.54,2.72,2.27C1688,569.83,1688.66,569.53,1689.29,569.22Z"/><path class="cls-12" d="M1632.19,612c14.15-16.23,28.54-32.3,49.17-41.07,1-.39,1.92-.75,2.89-1.09a174.29,174.29,0,0,1-19.7-3.84,101.68,101.68,0,0,0-15.44,15.33A97.32,97.32,0,0,0,1632.19,612Z"/><path class="cls-12" d="M1684.25,569.81c.63-.23,1.26-.45,1.9-.66-.51-.42-1-.86-1.51-1.29-5.59-1.44-11.14-3-16.68-4.5-1.15.85-2.29,1.71-3.41,2.61A174.29,174.29,0,0,0,1684.25,569.81Z"/><path class="cls-12" d="M1687.74,568.64l-3.1-.78c.5.43,1,.87,1.51,1.29Z"/><path class="cls-12" d="M1687.43,570.18c-1-.75-1.88-1.52-2.78-2.32-2.18-.56-4.36-1.14-6.53-1.72.4,1,.81,2,1.25,3C1682.05,569.53,1684.74,569.9,1687.43,570.18Z"/><path class="cls-12" d="M1705.2,602.18a95.87,95.87,0,0,0,27.89,15.55c-14.24-12.21-28.31-24.61-35.91-41.44a52.71,52.71,0,0,1-9.75-6.11c-2.69-.28-5.38-.65-8.06-1.09A89.43,89.43,0,0,0,1705.2,602.18Z"/><path class="cls-12" d="M1691.08,570.5c-.73-.51-1.45-1-2.17-1.57l-4.26-1.07c.9.8,1.83,1.57,2.78,2.32C1688.65,570.3,1689.86,570.41,1691.08,570.5Z"/><path class="cls-12" d="M1696.63,575c-.14-.35-.28-.71-.41-1.07q-2.61-1.68-5.14-3.47c-1.22-.09-2.43-.2-3.65-.32a52.71,52.71,0,0,0,9.75,6.11C1697,575.88,1696.81,575.46,1696.63,575Z"/><path class="cls-12" d="M1684.5,569.84c.12-.59.25-1.18.39-1.76l-.25-.22c-5.44-1.41-10.86-2.89-16.26-4.38,0,1.13-.07,2.26-.07,3.39A162,162,0,0,0,1684.5,569.84Z"/><path class="cls-12" d="M1701.88,640.34c-9.38-18.47-18.52-37.06-18.76-57.45a69.51,69.51,0,0,1,1.38-13,162,162,0,0,1-16.19-3,96,96,0,0,0,12.19,46.45A104.15,104.15,0,0,0,1701.88,640.34Z"/><path class="cls-12" d="M1684.92,567.93l-.28-.07.25.22Z"/><path class="cls-12" d="M1687.45,570.18c-1-.75-1.88-1.52-2.79-2.32-6.87-1.77-13.7-3.67-20.51-5.55q-2.57,1-5.09,2.23A180.52,180.52,0,0,0,1687.45,570.18Z"/><path class="cls-12" d="M1637.83,578.65a83.57,83.57,0,0,0-18.69,24.09c14.4-12,29-23.91,48.09-28.64a75.24,75.24,0,0,1,23.54-1.49c-1.14-.77-2.24-1.59-3.32-2.43a180.52,180.52,0,0,1-28.39-5.64A88.69,88.69,0,0,0,1637.83,578.65Z"/><path class="cls-12" d="M1691.09,570.5c-.73-.51-1.44-1-2.17-1.56l-4.26-1.08c.91.8,1.84,1.57,2.79,2.32C1688.66,570.31,1689.88,570.41,1691.09,570.5Z"/><path class="cls-12" d="M1694.89,573.1c-1.28-.84-2.54-1.72-3.8-2.6-1.21-.09-2.43-.19-3.64-.32,1.08.84,2.18,1.66,3.32,2.43C1692.15,572.74,1693.52,572.9,1694.89,573.1Z"/><path class="cls-13" d="M1692.27,522.62q-9.33-1.05-18.27-1.62c-124.43-8-193.17,53.11-178.79,171.36,15,123.39,95.92,197.95,223.22,133.48,103.92-52.63,204.28-86,197.06-169.74S1808,535.68,1692.27,522.62Z"/><path class="cls-14" d="M1937.08,638.8c-.22-5.92-.56-11.85-1.08-17.8-1.09-11.49-1.29-22.67-1.41-33.89-17.75,1.56-25.14-1.88-34.35-4.44-5,.43-8.6,6.42-8,13.31l9.1,105.48c.6,6.89,9.79,8.74,10.18,11.75.25,1.95-2.42,14.63,21.89,12.54,1.4-17,2.79-34.07,3.48-51.2Q1936.93,656.67,1937.08,638.8Z"/><path class="cls-13" d="M1495.48,608.3a12,12,0,0,1,11.45,12.53l-.36,8A12,12,0,0,1,1494,640.27l-100.9-4.57a12,12,0,0,1-11.45-12.53l.37-8a12,12,0,0,1,12.53-11.45"/><rect class="cls-13" x="1739" y="760.5" width="30.98" height="119.06" rx="12" ry="12" transform="translate(1961.12 2745.65) rotate(-121.18)"/><rect class="cls-13" x="1746.31" y="420.78" width="30.98" height="119.06" rx="12" ry="12" transform="matrix(-0.95, -0.32, 0.32, -0.95, 3282.58, 1491.18)"/><path class="cls-15" d="M1381.34,642.49l-3.46-40.07a12,12,0,0,1,10.93-13l57.78-5a12,12,0,0,1,13,10.92q-21.52,22,3.46,40.07a12,12,0,0,1-10.93,13l-57.78,5A12,12,0,0,1,1381.34,642.49Z"/><rect class="cls-16" x="1338.16" y="594.72" width="99" height="19.16" rx="9.58" ry="9.58" transform="translate(1870.46 -830.16) rotate(85.07)"/><rect class="cls-17" x="1396.94" y="657.57" width="15" height="5" transform="translate(1941.35 -795.9) rotate(85.07)"/><polygon class="cls-17" points="1394.13 672.41 1399.4 667.35 1397.26 660.38 1404.8 663.56 1411.62 660.13 1411.01 667.16 1417.36 672.02 1409.45 673.17 1406.56 679.61 1402.27 673.3 1394.13 672.41"/><path class="cls-13" d="M1510.33,768.91a12,12,0,0,0,9.31-14.2l-1.64-7.83a12,12,0,0,0-14.19-9.3l-98.88,20.59a12,12,0,0,0-9.3,14.19l1.63,7.84a12,12,0,0,0,14.19,9.3"/><path class="cls-15" d="M1392.2,753.35l3,40.1A12,12,0,0,0,1408,804.53l57.84-4.28A12,12,0,0,0,1477,787.39q-24.77-18.33-3-40.1a12,12,0,0,0-12.86-11.08l-57.84,4.28A12,12,0,0,0,1392.2,753.35Z"/><rect class="cls-16" x="1355.03" y="780.46" width="99" height="19.16" rx="9.58" ry="9.58" transform="translate(720.5 2249.13) rotate(-94.24)"/><rect class="cls-17" x="1404.7" y="729.81" width="15" height="5" transform="translate(786.3 2194.79) rotate(-94.24)"/><polygon class="cls-17" points="1400.06 721.77 1406.07 725.92 1405.07 733.15 1412 728.8 1419.28 731.1 1417.56 724.26 1423.06 718.45 1415.06 718.57 1411.18 712.68 1407.96 719.6 1400.06 721.77"/><rect x="1820.02" y="599.42" width="53" height="6" transform="translate(3174.6 -814.89) rotate(115.07)"/><rect x="1836.51" y="698.21" width="53" height="6" transform="matrix(-0.57, -0.82, 0.82, -0.57, 2354.85, 2630.1)"/><path class="cls-18" d="M1927.53,586.34l-29.89,2.57,12.21,141.48,23.34-2c1.12-13.66,2.25-27.34,3-41.06Z"/><path class="cls-19" d="M1935,741a26.84,26.84,0,0,0-3.59,10.1c-.14,2-.28,3.93-.41,5.9a39.8,39.8,0,0,1,.41-5.9c.62-8.54,1.32-17.08,2-25.62-6.46-24.38-12.67-52.84-15.42-82.43-8.28-89.27,25.78-189.84-24.35-109.91-3.65,5.82-10.47,51.05-5.18,112.45s20.21,104.56,24.36,109.91c9.73,12.52,17.36,22.13,23.26,29.17C1937.18,770.11,1939.85,755.56,1935,741Z"/><polygon class="cls-20" points="1659.06 819.27 1634.82 538.32 1495.23 691.88 1659.06 819.27"/><path class="cls-20" d="M1658,818.86l-24.15-280q57.08-29.85,93.65-8.08l24.15,280C1733.58,826.5,1706.31,833.11,1658,818.86Z"/><g class="cls-21"><polygon class="cls-22" points="1671.78 818.56 1647.76 540.1 1528.03 690.7 1671.78 818.56"/><path class="cls-22" d="M1670.88,818.14l-23.94-277.47q49.3-28.95,81.33-7l23.93,277.46C1736.64,826.5,1713,832.76,1670.88,818.14Z"/></g><ellipse class="cls-23" cx="1445.67" cy="593.18" rx="4.44" ry="5.41" transform="matrix(1, -0.09, 0.09, 1, -45.63, 126.44)"/><ellipse class="cls-23" cx="1452.85" cy="638.92" rx="4.44" ry="5.41" transform="translate(-49.54 127.23) rotate(-4.93)"/><ellipse class="cls-23" cx="1438.08" cy="608.63" rx="4.44" ry="5.41" transform="translate(-46.99 125.85) rotate(-4.93)"/><ellipse class="cls-23" cx="1439.77" cy="628.21" rx="4.44" ry="5.41" transform="translate(-48.67 126.07) rotate(-4.93)"/><ellipse class="cls-23" cx="1460.72" cy="744.45" rx="4.44" ry="5.41" transform="translate(-58.58 128.3) rotate(-4.93)"/><ellipse class="cls-23" cx="1467.91" cy="790.19" rx="4.44" ry="5.41" transform="translate(-62.48 129.09) rotate(-4.93)"/><ellipse class="cls-23" cx="1453.14" cy="759.9" rx="4.44" ry="5.41" transform="translate(-59.93 127.7) rotate(-4.93)"/><ellipse class="cls-23" cx="1454.83" cy="779.48" rx="4.44" ry="5.41" transform="translate(-61.61 127.92) rotate(-4.93)"/><path class="cls-24" d="M1769.08,698.37c-41,33.76-44.26,8.63-51.16-28.71-6.64-35.94-.5-60.16,45.48-37,23.94,12,49.59,10.55,51.16,28.71S1789.75,681.34,1769.08,698.37Z"/><path class="cls-25" d="M1678.53,807.49l2.66-3c-48.11-24.69-87.93-62.66-122.55-109l-2.65,3Z"/><path class="cls-25" d="M1665,778.55l2.66-3c-38.47-16.12-68.17-45.09-92.36-82.15l-2.66,3Z"/><path class="cls-25" d="M1653.7,752.42l2.66-3c-26-5-42.61-22.35-53.3-47.41l-2.66,3Z"/><rect x="1836.59" y="698.22" width="53" height="6" transform="translate(3781.75 170.62) rotate(143.92)"/><rect x="1820.02" y="599.42" width="53" height="6" transform="matrix(-0.95, -0.32, 0.32, -0.95, 3409.25, 1755.87)"/><ellipse class="cls-26" cx="1586.77" cy="664.45" rx="16.34" ry="17.9" transform="translate(-61.49 171.92) rotate(-6.08)"/><path class="cls-12" d="M1377.79,561.38c-.93.77-1.88,1.52-2.85,2.24q-2.3,4.59-4.65,9.15c1,.09,2.09.17,3.13.23C1375,569.18,1376.51,565.31,1377.79,561.38Z"/><path class="cls-12" d="M1416.89,563.55a93.37,93.37,0,0,0,25.28-18.94c-17.17,8-34.46,15.83-53.22,15.2a62.61,62.61,0,0,1-8.25-1c-.94.9-1.92,1.76-2.91,2.59-1.28,3.93-2.75,7.8-4.37,11.62A85.51,85.51,0,0,0,1416.89,563.55Z"/><path class="cls-12" d="M1378.72,558.38l-.31-.06-1.54,1.38c-.64,1.31-1.28,2.62-1.93,3.92,1-.72,1.92-1.47,2.85-2.24Q1378.27,559.88,1378.72,558.38Z"/><path class="cls-12" d="M1378.72,558.38q-.45,1.5-.93,3c1-.83,2-1.69,2.91-2.59C1380,558.66,1379.38,558.53,1378.72,558.38Z"/><path class="cls-12" d="M1377.79,561.39c-.93.77-1.89,1.52-2.86,2.24-1.73,3.48-3.5,6.94-5.28,10.38.73.85,1.47,1.69,2.23,2.51A149.91,149.91,0,0,0,1377.79,561.39Z"/><path class="cls-12" d="M1402.53,597.2a81.1,81.1,0,0,0,29.71,5.33c-16.86-7.13-33.63-14.52-45.56-29.16a66.28,66.28,0,0,1-7.84-12.88l-1,.9a149.91,149.91,0,0,1-5.91,15.13A81,81,0,0,0,1402.53,597.2Z"/><path class="cls-12" d="M1378.39,559.48l-.6,1.91,1-.9Z"/><path class="cls-12" d="M1378.39,559.48l-.37-.81-1.16,1c-.63,1.31-1.28,2.62-1.93,3.92,1-.72,1.93-1.47,2.86-2.24Z"/><path class="cls-12" d="M1377.74,561.54a.29.29,0,0,1,0-.09c-.91.76-1.84,1.48-2.79,2.19-5.38,10.8-11.1,21.37-16.47,32.06q.16,3.25.24,6.52C1366,589,1373.14,575.65,1377.74,561.54Z"/><path class="cls-12" d="M1358.7,602.22a223,223,0,0,1-5,53.31c15.91-17.15,26.16-41.66,26.62-68.61a105.45,105.45,0,0,0-2.62-25.38C1373.14,575.65,1366,589,1358.7,602.22Z"/><path class="cls-12" d="M1377.23,559.38l-.37.33c-.64,1.31-1.28,2.62-1.93,3.93,1-.71,1.88-1.43,2.79-2.19C1377.56,560.76,1377.41,560.07,1377.23,559.38Z"/><path class="cls-12" d="M1407.12,624.14c-12.92-17.22-25.63-34.65-29.9-56.65-.18-1-.33-2-.46-3.06a175.63,175.63,0,0,1-7.87,18.47,101.46,101.46,0,0,0,11.77,18.3A97.26,97.26,0,0,0,1407.12,624.14Z"/><path class="cls-12" d="M1376.76,564.43c-.09-.66-.18-1.33-.25-2-.52.41-1,.81-1.58,1.2-2.58,5.17-5.22,10.28-7.88,15.37.59,1.31,1.19,2.6,1.84,3.89A175.63,175.63,0,0,0,1376.76,564.43Z"/><path class="cls-12" d="M1376.35,560.77c-.48,1-.95,1.92-1.42,2.87.53-.39,1.06-.79,1.58-1.2C1376.45,561.88,1376.4,561.33,1376.35,560.77Z"/><path class="cls-12" d="M1377.78,561.4c-.93.77-1.88,1.52-2.85,2.24-1,2-2,4-3,6,1-.18,2.1-.38,3.14-.61Q1376.53,565.26,1377.78,561.4Z"/><path class="cls-12" d="M1412.79,550.7a96.1,96.1,0,0,0,21-24c-14.91,11.37-30,22.54-48,26.46a52.79,52.79,0,0,1-8,8.26q-1.24,3.86-2.75,7.65A89.34,89.34,0,0,0,1412.79,550.7Z"/><path class="cls-12" d="M1378.86,557.9c-.66.61-1.33,1.2-2,1.8-.64,1.31-1.29,2.63-1.94,3.94,1-.72,1.92-1.47,2.85-2.24C1378.16,560.24,1378.52,559.07,1378.86,557.9Z"/><path class="cls-12" d="M1384.46,553.42l-1.14.18c-1.45,1.47-3,2.9-4.46,4.3-.34,1.17-.7,2.34-1.08,3.5a52.79,52.79,0,0,0,8-8.26Z"/><path class="cls-12" d="M1376.84,564.19l-1.64-.74-.27.19c-2.51,5-5.09,10-7.68,15,1.1.28,2.2.54,3.31.78A164.11,164.11,0,0,0,1376.84,564.19Z"/><path class="cls-12" d="M1449.41,561.91c-20,5.33-40.11,10.38-60.1,6.36a69.47,69.47,0,0,1-12.47-4.08,164.11,164.11,0,0,1-6.28,15.22,96.12,96.12,0,0,0,48-2.22A104.36,104.36,0,0,0,1449.41,561.91Z"/><path class="cls-12" d="M1375.06,563.38l-.13.26.27-.19Z"/><path class="cls-12" d="M1377.79,561.38c-.93.77-1.88,1.52-2.85,2.24-3.17,6.36-6.45,12.63-9.71,18.9.31,1.82.68,3.64,1.11,5.44A179.91,179.91,0,0,0,1377.79,561.38Z"/><path class="cls-12" d="M1375.71,611.68A83.73,83.73,0,0,0,1395.37,635c-8.77-16.61-17.32-33.37-18-53a75,75,0,0,1,3.46-23.34c-1,1-2,1.86-3.07,2.74A179.91,179.91,0,0,1,1366.34,588,88.93,88.93,0,0,0,1375.71,611.68Z"/><path class="cls-12" d="M1378.86,557.88c-.65.61-1.32,1.2-2,1.8-.64,1.32-1.29,2.63-1.94,3.94,1-.72,1.92-1.47,2.85-2.24C1378.16,560.22,1378.52,559.05,1378.86,557.88Z"/><path class="cls-12" d="M1382.2,554.72q-1.65,1.6-3.34,3.16c-.34,1.17-.7,2.34-1.07,3.5,1-.88,2.08-1.79,3.07-2.74C1381.27,557.32,1381.71,556,1382.2,554.72Z"/><path class="cls-13" d="M1634.28,584.46C1670.76,722.41,1581,786,1457.14,774.89c-118.64-10.62-164-90.6-130.26-210.62q2.43-8.62,5.4-17.53c36.93-110.48,93.75-200.85,177.14-190.43S1604.51,471.84,1634.28,584.46Z"/><path class="cls-14" d="M1550.83,379.62,1445.77,366.5c-6.86-.86-12-5.64-11.35-10.62,7.47-14.28,16.3-23,11.13-89.05.62-5,6.74-8.36,13.61-7.5,31.79,16.29,63.72,32,105,13.12,6.87.86,12,5.64,11.35,10.62,18.35,101.69-8.1,89.3-11.12,89.05S1557.69,380.48,1550.83,379.62Z"/><path class="cls-13" d="M1375,757.08a12,12,0,0,1,14.64-8.58l7.74,2a12,12,0,0,1,8.58,14.65l-25.53,97.71a12,12,0,0,1-14.64,8.58l-7.74-2a12,12,0,0,1-8.58-14.64"/><rect class="cls-13" x="1620.64" y="488.44" width="30.98" height="119.06" rx="12" ry="12" transform="translate(3361.49 529.64) rotate(160.87)"/><rect class="cls-13" x="1289.93" y="410.38" width="30.98" height="119.06" rx="12" ry="12" transform="translate(2371.5 -418.02) rotate(120.41)"/><path class="cls-15" d="M1384.6,875.84l-39.91-5a12,12,0,0,1-10.42-13.4l7.19-57.55a12,12,0,0,1,13.39-10.42q17.07,25.65,39.91,5a12,12,0,0,1,10.42,13.4L1398,865.42A12,12,0,0,1,1384.6,875.84Z"/><rect class="cls-16" x="1299.07" y="852.11" width="99" height="19.16" rx="9.58" ry="9.58" transform="translate(117.2 -160.5) rotate(7.12)"/><rect class="cls-17" x="1399.11" y="854.42" width="15" height="5" transform="translate(117.05 -167.73) rotate(7.12)"/><polygon class="cls-17" points="1416.53 869.58 1412.68 863.37 1405.41 864.01 1410.1 857.3 1408.17 849.92 1414.92 851.97 1421 846.77 1420.48 854.76 1426.16 858.92 1419.1 861.8 1416.53 869.58"/><path class="cls-13" d="M1535.16,776.08A12,12,0,0,0,1523.22,764l-8,0a12,12,0,0,0-12.06,11.94l-.51,101A12,12,0,0,0,1514.59,889l8,0a12,12,0,0,0,12.06-11.94"/><path class="cls-15" d="M1495.28,888.36l39.84,5.47a12,12,0,0,0,13.52-10.26l7.89-57.46a12,12,0,0,0-10.26-13.52q-23.1,20.38-39.85-5.47a12,12,0,0,0-13.52,10.26L1485,874.84A12,12,0,0,0,1495.28,888.36Z"/><rect class="cls-16" x="1484.24" y="874.39" width="99" height="19.16" rx="9.58" ry="9.58" transform="translate(2933.12 1968.15) rotate(-172.19)"/><rect class="cls-17" x="1471.38" y="861.91" width="15" height="5" transform="translate(2826.59 1921.77) rotate(-172.19)"/><polygon class="cls-17" points="1466.04 874.08 1471.35 869.08 1478.21 871.57 1475.41 863.87 1479.18 857.24 1472.13 857.49 1467.6 850.9 1466.04 858.75 1459.48 861.31 1465.56 865.91 1466.04 874.08"/><rect x="1416.03" y="409.55" width="53" height="6" transform="translate(541.25 -786.95) rotate(37.12)"/><rect x="1516.08" y="414.04" width="53" height="6" transform="translate(3125.94 201.5) rotate(157.12)"/><rect class="cls-18" x="1441.3" y="338.64" width="142" height="30" transform="translate(55.49 -184.71) rotate(7.12)"/><path class="cls-19" d="M1606.08,379.65c-6.1,2.94-51.42,8.51-112.57.87s-104-23.75-108.9-28.54c-67.7-65.71,23.54-11.4,112.57-.87C1614.74,365,1726.35,321.53,1606.08,379.65Z"/><polygon class="cls-20" points="1615.46 641.15 1335.64 606.2 1456.68 774.77 1615.46 641.15"/><path class="cls-20" d="M1614.84,642.08,1336,607.25q-17.28-62,11.65-93.28l278.83,34.83C1638.09,569.78,1638.86,597.82,1614.84,642.08Z"/><g class="cls-21"><polygon class="cls-22" points="1617.42 628.55 1340.09 593.91 1462.37 742.45 1617.42 628.55"/><path class="cls-22" d="M1616.82,629.36l-276.35-34.52q-18-54.26,10.12-81l276.35,34.51C1638.73,566.78,1639.91,591.2,1616.82,629.36Z"/></g><ellipse class="cls-23" cx="1349.81" cy="802.64" rx="4.44" ry="5.41" transform="translate(386.06 2042.56) rotate(-82.88)"/><ellipse class="cls-23" cx="1396.04" cy="805.16" rx="4.44" ry="5.41" transform="translate(424.06 2090.64) rotate(-82.88)"/><ellipse class="cls-23" cx="1363.33" cy="813.28" rx="4.44" ry="5.41" transform="translate(387.35 2065.3) rotate(-82.88)"/><ellipse class="cls-23" cx="1382.84" cy="815.72" rx="4.44" ry="5.41" transform="translate(402.02 2086.79) rotate(-82.88)"/><ellipse class="cls-23" cx="1500.88" cy="819.49" rx="4.44" ry="5.41" transform="translate(501.69 2207.23) rotate(-82.88)"/><ellipse class="cls-23" cx="1547.12" cy="822.01" rx="4.44" ry="5.41" transform="translate(539.69 2255.32) rotate(-82.88)"/><ellipse class="cls-23" cx="1514.41" cy="830.14" rx="4.44" ry="5.41" transform="translate(502.98 2229.98) rotate(-82.88)"/><ellipse class="cls-23" cx="1533.91" cy="832.57" rx="4.44" ry="5.41" transform="translate(517.65 2251.47) rotate(-82.88)"/><path class="cls-24" d="M1520.19,508.31c24.46,47.13-.79,45.09-38.75,44-36.54-1-58.94-12.07-26.74-52.22,16.76-20.89,20.67-46.29,38.76-44S1507.85,484.54,1520.19,508.31Z"/><path class="cls-25" d="M1608,619.65l-2.37-3.23c-34.19,41.89-79.64,72.91-132.18,97.09l2.37,3.23Z"/><path class="cls-25" d="M1576.87,626.85l-2.36-3.23c-23.8,34.26-58.33,57.26-99.62,73.18l2.37,3.22Z"/><path class="cls-25" d="M1549,632.43l-2.37-3.22c-10.35,24.37-30.76,37-57.5,42.23l2.37,3.22Z"/><rect x="1516.11" y="413.97" width="53" height="6" transform="translate(1295.16 -1161.72) rotate(65.97)"/><rect x="1416.03" y="409.55" width="53" height="6" transform="translate(2528.54 -622.66) rotate(120.41)"/><ellipse class="cls-26" cx="1448.96" cy="679.52" rx="16.34" ry="17.9" transform="translate(622.52 2050.01) rotate(-84.03)"/><rect class="cls-18" x="973.24" y="661.55" width="142" height="30" transform="translate(346.81 1706.96) rotate(-88.85)"/><path class="cls-19" d="M1060.36,580.58c3.56,5.75,13.81,50.25,12.57,111.87s-12.82,105.87-17.07,111.27c-58.32,74.17-13.79-22.22-12.57-111.87C1044.9,573.49,990.06,467,1060.36,580.58Z"/><polygon class="cls-20" points="1319.47 544.06 1313.79 826.01 1468.87 688.1 1319.47 544.06"/><path class="cls-20" d="M1320.46,544.58l-5.66,280.95q-59.91,23.63-94-1.9l5.66-280.94C1246.13,529,1274,525.29,1320.46,544.58Z"/><g class="cls-21"><polygon class="cls-22" points="1306.74 543.42 1301.11 822.86 1436.14 685.8 1306.74 543.42"/><path class="cls-22" d="M1307.6,543.94,1302,822.38q-52.1,23.57-81.61-1.64l5.6-278.45C1243.09,528.66,1267.25,524.94,1307.6,543.94Z"/></g><ellipse class="cls-23" cx="1507.7" cy="791.5" rx="5.41" ry="4.44" transform="translate(686.01 2282.95) rotate(-88.85)"/><ellipse class="cls-23" cx="1505.4" cy="745.25" rx="5.41" ry="4.44" transform="translate(729.99 2235.34) rotate(-88.85)"/><ellipse class="cls-23" cx="1516.88" cy="776.94" rx="5.41" ry="4.44" transform="translate(709.56 2277.87) rotate(-88.85)"/><ellipse class="cls-23" cx="1517.27" cy="757.29" rx="5.41" ry="4.44" transform="translate(729.59 2259.01) rotate(-88.85)"/><ellipse class="cls-23" cx="1508.76" cy="639.49" rx="5.41" ry="4.44" transform="translate(839.02 2135.07) rotate(-88.85)"/><ellipse class="cls-23" cx="1506.46" cy="593.24" rx="5.41" ry="4.44" transform="translate(883.01 2087.45) rotate(-88.85)"/><ellipse class="cls-23" cx="1517.94" cy="624.93" rx="5.41" ry="4.44" transform="translate(862.57 2129.98) rotate(-88.85)"/><ellipse class="cls-23" cx="1518.33" cy="605.28" rx="5.41" ry="4.44" transform="translate(882.61 2111.12) rotate(-88.85)"/><path class="cls-24" d="M1197.26,652.63c44.33-29.23,44.92-3.9,47.82,34,2.8,36.44-5.88,59.87-49.15,32-22.52-14.5-48.2-15.75-47.83-34S1174.89,667.37,1197.26,652.63Z"/><path class="cls-25" d="M1298.86,553.72l-3,2.69c45.21,29.64,80.79,71.63,110.3,121.36l3-2.69Z"/><path class="cls-25" d="M1309.25,583.93l-3,2.69c36.55,20.11,63,52.06,83.14,91.47l3-2.69Z"/><path class="cls-25" d="M1317.71,611.11l-3,2.69c25.32,7.76,40,26.74,48,52.79l3-2.69Z"/><rect x="1077.58" y="636.82" width="53" height="6" transform="translate(-171.99 637.76) rotate(-30)"/><rect x="1083.58" y="736.82" width="53" height="6" transform="translate(405.68 -393.07) rotate(24.45)"/><path class="cls-12" d="M1926,949c5.41-49.58,6.76-98.36,9.17-147a49.17,49.17,0,0,0-6.88-8.24c-37.57-35.44-99-17.15-132.37-3.06a20.41,20.41,0,0,1-27.46-12.88c-6.66-21.6-24-51-69.24-59-57.09-10-91.34,50.9-103.9,78.93a20.18,20.18,0,0,1-16.61,11.63c-39.65,4-95.88,108-110.7,86.17-30.24-44.53-64-82.68-75.85-95.74a20.41,20.41,0,0,0-10.71-6.19L1173,747.84a20.35,20.35,0,0,0-13.65,1.76c-22,11.21-92.33,47.85-104.22,62.52C1043.11,827,892,824.68,848.27,823.69a20.38,20.38,0,0,0-17.94,9.88h0a20.42,20.42,0,0,1-22.24,9.32l-153-36.68s12.19-.84-92.67,4.57c-57.09,2.94-96,31-119.54,56a20.43,20.43,0,0,1-34.84-9.65c-8.44-38.29-28.58-86.72-76.58-97.92C277,746.48,219.72,782.48,187.36,808.13a20.42,20.42,0,0,1-32.4-10.6c-8.05-28.94-26.51-65.52-68.34-63C22.37,738.33-16.74,927.88-21.45,952a20.79,20.79,0,0,0-.36,5l10.4,201.81a20.4,20.4,0,0,0,21.13,19.34l1918.34-70.62C1928.23,1054.72,1919.28,1002.78,1926,949Z"/><g class="cls-7"><path class="cls-6" d="M597.45,50.79c-24,0-43.43,13.13-43.43,29.34C554,86.84,557.35,93,563,98c23.71-.64,47.32-1.4,70.93-1.84,4.43-4.59,7-10.08,7-16C640.88,63.93,621.44,50.79,597.45,50.79Z"/><path class="cls-6" d="M642.41,57.31c-16.46,0-29.8,11.68-29.8,26.08a23.46,23.46,0,0,0,4,13.09c17.34-.41,34.67-.71,52-.73a23.36,23.36,0,0,0,3.55-12.35C672.21,69,658.87,57.31,642.41,57.31Z"/><path class="cls-6" d="M688,74.35c0-14.17-13.92-25.66-31.08-25.66s-31.07,11.49-31.08,25.66c0,9.1,5.74,17.1,14.39,21.65,11.27-.17,22.54-.27,33.83-.24C682.47,91.17,688,83.3,688,74.35Z"/><ellipse class="cls-6" cx="708.38" cy="65.73" rx="34.64" ry="25.45"/><path class="cls-6" d="M698.83,69.52c-19.62,0-35.84,11.42-38.47,26.26q11-.06,22,0,27.48.27,55,.39C735,81.16,718.64,69.52,698.83,69.52Z"/><path class="cls-6" d="M761.62,68.89c-19.56,0-35.41,12-35.41,26.71,0,.18,0,.36,0,.53,23.59.14,47.18.26,70.77.53,0-.35,0-.7,0-1.06C797,80.85,781.17,68.89,761.62,68.89Z"/><ellipse class="cls-6" cx="757.54" cy="65.73" rx="31.33" ry="27.77"/><path class="cls-6" d="M630.18,77.93c-16.83,0-31.15,8-36.48,19.16,24.12-.68,48.18-1.27,72.28-1.33C660.18,85.29,646.34,77.93,630.18,77.93Z"/></g><g class="cls-7"><path class="cls-6" d="M994.8,95.17c-18.65,0-33.78,5.68-33.78,12.7,0,2.91,2.59,5.58,7,7.72,18.44-.27,36.8-.6,55.17-.79,3.44-2,5.44-4.37,5.44-6.92C1028.58,100.86,1013.46,95.17,994.8,95.17Z"/><path class="cls-6" d="M1029.77,98c-12.8,0-23.18,5.06-23.18,11.3,0,2.07,1.14,4,3.12,5.67,13.49-.18,27-.31,40.47-.32a7.28,7.28,0,0,0,2.77-5.35C1053,103.05,1042.57,98,1029.77,98Z"/><path class="cls-6" d="M1065.23,105.37c0-6.14-10.82-11.11-24.17-11.11s-24.17,5-24.17,11.11c0,3.94,4.46,7.41,11.19,9.38q13.15-.12,26.31-.1C1060.92,112.66,1065.23,109.25,1065.23,105.37Z"/><ellipse class="cls-6" cx="1081.08" cy="101.64" rx="26.94" ry="11.02"/><path class="cls-6" d="M1073.65,103.28c-15.26,0-27.88,5-29.92,11.37q8.57,0,17.14,0,21.38.1,42.76.17C1101.76,108.32,1089.05,103.28,1073.65,103.28Z"/><path class="cls-6" d="M1122.49,103c-15.21,0-27.54,5.18-27.54,11.57v.23q27.52.09,55,.23c0-.15,0-.31,0-.46C1150,108.19,1137.69,103,1122.49,103Z"/><ellipse class="cls-6" cx="1119.32" cy="101.64" rx="24.37" ry="12.03"/><path class="cls-6" d="M1020.26,106.92c-13.09,0-24.23,3.46-28.38,8.3,18.76-.29,37.47-.55,56.22-.57C1043.59,110.11,1032.82,106.92,1020.26,106.92Z"/></g><rect class="cls-10" x="584.74" y="447.96" width="14.51" height="86" rx="7.25" ry="7.25"/><rect class="cls-10" x="599.25" y="479.32" width="12.35" height="11.64"/><rect class="cls-10" x="609.44" y="448.78" width="9.57" height="43" rx="4.78" ry="4.78"/><rect class="cls-10" x="569" y="479.31" width="9.26" height="24.92" rx="4.63" ry="4.63"/><rect class="cls-10" x="575.49" y="491.78" width="11.73" height="12.46"/><path class="cls-1" d="M501.78,619.66c-86.83,92.75-23.7,102.43,70.05,121.58,90.23,18.42,151.51,6.08,95.32-103-29.24-56.76-24.39-116.43-70-121.57S545.59,572.87,501.78,619.66Z"/><path class="cls-27" d="M175.26,586.51c-140.25,322.71,21.32,521.77,289,553C720.84,1169.34,853.59,993.69,836.62,682q-1.22-22.41-3.47-45.76c-28-289.68-107.36-539.22-289-552.95S289.75,323.06,175.26,586.51Z"/><path class="cls-1" d="M450.07,651.94c-86.83,92.76-23.7,102.43,70.06,121.58,90.22,18.43,151.5,6.08,95.31-103C586.2,613.79,591.06,554.11,545.39,549S493.88,605.15,450.07,651.94Z"/><path d="M426.4,268.18l287.74,21.75c18.8,1.42,35-8.09,36-21.15-12.36-40.4-31.34-67.23,17.64-233.37,1-13-13.59-24.9-32.39-26.32C641.75,34,548,57.38,447.62-12.66c-18.8-1.42-35,8.1-36,21.15C308.52,258.65,385.8,240.91,394,241.87S407.59,266.76,426.4,268.18Z"/><rect class="cls-28" x="342.56" y="183.55" width="405.18" height="78.23" transform="translate(1071.96 485.78) rotate(-175.68)"/><path d="M262.6,269c14.72,10.72,132.88,48.8,300.39,61.46s290.48-6,306.21-15.61c215.9-132.27-56.84-41.53-300.39-61.47C247.23,227-27.94,57.21,262.6,269Z"/><ellipse cx="654.88" cy="462.45" rx="111.6" ry="62.87" transform="translate(144.39 1080.62) rotate(-85.68)"/><ellipse class="cls-6" cx="677.63" cy="399.88" rx="28.49" ry="17.96" transform="translate(227.82 1045.44) rotate(-85.68)"/><ellipse cx="389.04" cy="440.46" rx="111.6" ry="62.87" transform="translate(-113.02 745.89) rotate(-79.86)"/><ellipse class="cls-6" cx="418.01" cy="380.51" rx="28.49" ry="17.96" transform="translate(-30.14 725.01) rotate(-79.86)"/><path d="M667.42,1068.23a1738,1738,0,0,1-403.93-64.18,12,12,0,0,1-10-13.74c-32.41-67.66,4.35-133.45,31.7-199.5a12,12,0,0,1,13.73-10Q489.08,886.15,702.89,845a12,12,0,0,1,10,13.73c20.71,60.34,2.18,128.41-31.7,199.5A12,12,0,0,1,667.42,1068.23Z"/><path class="cls-6" d="M647.06,1055.54a1634.58,1634.58,0,0,1-367.28-58.36,10.76,10.76,0,0,1-9.12-12.13C240.9,925.37,274,867.66,298.52,809.68A10.77,10.77,0,0,1,311,801q173.22,93.54,367.28,58.36a10.77,10.77,0,0,1,9.12,12.13c19.09,53.18,2.58,113-27.87,175.36A10.77,10.77,0,0,1,647.06,1055.54Z"/><rect x="261.28" y="923.72" width="433" height="6" transform="translate(151.35 -63.5) rotate(9.03)"/><rect x="339.81" y="821.6" width="8" height="195" transform="translate(148.49 -42.57) rotate(9.03)"/><rect x="422.48" y="851.15" width="12" height="179" transform="translate(152.92 -55.59) rotate(9.03)"/><rect x="534.27" y="869.14" width="14" height="189" transform="translate(157.93 -73) rotate(9.03)"/><rect x="615.63" y="861.96" width="15" height="199" transform="translate(158.6 -85.87) rotate(9.03)"/><polygon class="cls-23" points="436.94 263.88 405.41 230.8 360.6 240 381.95 197.52 361.03 156.16 405.75 162.97 437.63 128.22 443.92 174.91 484.54 194.79 443.7 216.84 436.94 263.88"/><ellipse class="cls-23" cx="439.02" cy="126.33" rx="8.76" ry="8.31" transform="translate(183.02 504.7) rotate(-71.97)"/><ellipse class="cls-23" cx="484.53" cy="194.68" rx="8.76" ry="8.31" transform="translate(149.45 595.17) rotate(-71.97)"/><ellipse class="cls-23" cx="438.04" cy="265.33" rx="8.76" ry="8.31" transform="matrix(0.31, -0.95, 0.95, 0.31, 50.16, 599.75)"/><ellipse class="cls-23" cx="360.47" cy="240.09" rx="8.76" ry="8.31" transform="matrix(0.31, -0.95, 0.95, 0.31, 20.61, 508.56)"/><ellipse class="cls-23" cx="361" cy="156.21" rx="8.76" ry="8.31" transform="translate(100.74 451.14) rotate(-71.97)"/><polygon class="cls-29" points="433.88 251.45 407.68 223.96 370.43 231.6 388.18 196.29 370.79 161.91 407.96 167.58 434.46 138.69 439.69 177.5 473.45 194.03 439.51 212.35 433.88 251.45"/><polygon class="cls-23" points="432.01 243.99 409.03 219.89 376.38 226.59 391.94 195.62 376.69 165.48 409.28 170.45 432.51 145.12 437.1 179.15 466.71 193.64 436.94 209.71 432.01 243.99"/><path class="cls-6" d="M960.13,508.42c-2,15.76-18.19,79.17-51.93,146.21-2.6,7.31-11.25,11-19.22,8.08l-53.17-19.07c-8-2.86-12.37-11.19-9.78-18.5C836.2,503.75,873.32,483.61,878,478.94s11.24-10.95,19.22-8.09l53.16,19.08"/><path class="cls-6" d="M1112.26,601.49c-10.89,11.73-61.84,54.71-130.2,91.71-6.52,4.58-16.17,3.12-21.46-3.25l-35.24-42.48c-5.29-6.37-4.29-15.34,2.22-19.92,79.39-92.92,123.44-90.3,130.2-91.71s16.17-3.12,21.45,3.25l35.25,42.48"/><ellipse class="cls-6" cx="882.08" cy="742.76" rx="112.25" ry="122.6" transform="translate(-124.48 1305.43) rotate(-69.3)"/><path class="cls-6" d="M171.21,368.88c-2.87,15.63-6.57,81,5.35,155.07.26,7.75,7.41,13.83,15.88,13.51l56.44-2.13c8.47-.31,15.18-6.92,14.91-14.67,27-118.79-2.33-149.2-5.35-155.06s-7.41-13.84-15.88-13.52l-56.44,2.13"/><path class="cls-6" d="M-1.92,411.66C4.91,426.12,40.5,482.49,94.5,538.41c4.82,6.34,14.46,7.86,21.43,3.38l46.43-29.85c7-4.47,8.72-13.32,3.9-19.66-47.62-112.56-90.4-123.36-96.42-126.75s-14.47-7.86-21.43-3.39L2,392"/><ellipse class="cls-6" cx="174.83" cy="615.86" rx="122.6" ry="112.25" transform="translate(-33.2 10.41) rotate(-3.11)"/><path class="cls-30" d="M136.09,570.19l.86.13a9.07,9.07,0,0,1,5.88,3.81,4.49,4.49,0,0,1,.69,2.48,17.66,17.66,0,0,1,9-1.3,3.88,3.88,0,0,1,2.74,1.43l-2.1.75a14.12,14.12,0,0,0-4,4.21q-9.94,13.74-10.64,15a7.16,7.16,0,0,0-.62,1.78l0,.19a5.4,5.4,0,0,0,.66,3.57,9.76,9.76,0,0,0-2.84.48c-1.55.38-3.57,2.47-6.09,6.25-3.21,4.44-4.82,6.7-4.83,6.8L122,632.42c-.58,3.7-.17,6.27,1.25,7.72l0,.09a6.2,6.2,0,0,1-2.93.13l-.48-.07a9.16,9.16,0,0,1-6.2-3.31,9.65,9.65,0,0,1-6.75,1.4l-.82-.13a6.1,6.1,0,0,1-2.6-1.06v-.1a5.62,5.62,0,0,0,3-4.52c.06,0,.15-.34.26-1.05l2.82-17.74q0-.24-4.87-14.47-1.8-3.25-4.41-3.67l0-.1a6.14,6.14,0,0,0,1.37-2.75q.4-2.5-2.19-9.19a115.69,115.69,0,0,0-4.16-11.79,13.14,13.14,0,0,0-3.44-3.56l-.07-.21a6.93,6.93,0,0,1,4.85-.61,14.17,14.17,0,0,1,6.19,2.71l0-.1a6,6,0,0,1,2.64-2.94,10.65,10.65,0,0,1,5.8-.71,7,7,0,0,0-1,2.16l0,.29q-.26,1.59,1.82,6.87,3,9.46,3.71,11.17a5.21,5.21,0,0,0,3.35,2.31l0,.09a4.58,4.58,0,0,0-1.31,2.66q-.24,1.5,1.45,6.76l0,.09.39.07a11.38,11.38,0,0,0,1.41-2.05,10.68,10.68,0,0,0,2.24-3.85l.08-.48a5.22,5.22,0,0,0-.56-2.71h.05c2.15.34,3.84-.71,5-3.15q6.84-9.5,7.54-10.77a8.28,8.28,0,0,0,.77-2.05,15.63,15.63,0,0,0-.22-3.55Z"/><path class="cls-30" d="M180.41,575.65h.05a5.56,5.56,0,0,0,3.88,2.65,25.6,25.6,0,0,1,8.46,4.31q1.92,1.29,4.89,5.92a23.59,23.59,0,0,1,2.38,8,57.87,57.87,0,0,1-.66,13.49,10,10,0,0,0,2.24,6.14l.8.87,0,.14q-2.93,1.62-5.11,6.95-.33.84-1.67,7.7A44,44,0,0,1,193,639.3q-4.15,7.76-10.69,10a25.67,25.67,0,0,1-5.58,1.49q-2.7.21-6.69.12a5.75,5.75,0,0,0-2.86,1.48,6.17,6.17,0,0,0-2.87-2.48,34.07,34.07,0,0,1-7-3,19.79,19.79,0,0,1-6-5.61,19.34,19.34,0,0,1-3.37-8.64,59.44,59.44,0,0,1,.68-15.81,13.13,13.13,0,0,0-.82-4.83,21,21,0,0,0-2.35-3.83l0-.15q4.58-2.34,4.87-4.22a10.92,10.92,0,0,0,.92-3.26l0-.59q3-18.81,16.52-22.44a23,23,0,0,1,7.23-.68,13.42,13.42,0,0,0,4.71-.74C179.81,576,180,575.85,180.41,575.65Zm-12.9,24.2-.55,3.47q-.94,5.94,1.94,8.32v.1q-2.85,2.07-3.33,3.52a16.48,16.48,0,0,0-1.19,4.36l-.69,4.39q-1.49,9.25,2,11.88a4.52,4.52,0,0,0,1.66.81,3.72,3.72,0,0,0,2.81-.89,3.57,3.57,0,0,0,2.39,2.06q1.83.28,4.42-2,2.16-2.08,3.3-9.22L181,622c.66-4.18.2-7-1.4-8.33h-.09l0-.29q2.9-.48,3.63-5.06l1-6.23q1.27-7.95-1.56-9.79a2.57,2.57,0,0,0-1.5-.83,5.8,5.8,0,0,0-3.61,1h-.09a4.93,4.93,0,0,0-2.69-2.06q-2.17-.34-4.84,2.74A16.34,16.34,0,0,0,167.51,599.85Z"/><path class="cls-30" d="M215.06,583.48l1.06.16a7.45,7.45,0,0,1,5.55,3.36c1.43-1.13,3.49-1.47,6.19-1l.68.1a6.59,6.59,0,0,1,3.48,1.45l0,.09q-3.15,1.18-3.83,5.43L225,612.94c-.49,3.06,0,5.17,1.41,6.36,0,0,.5.5,1.51,1.42a6.19,6.19,0,0,0-2.68,1.6c-1.34,1.14-2.28,3.47-2.84,7l-.17,1.06c-.81,5.14-.67,8.46.45,10a5.79,5.79,0,0,0,2.92,3.08.74.74,0,0,1,.37.16q2.18.35,4.41-1.92l.19,0c.81,2,1.57,3,2.27,3.13,1.19.19,2.72-.6,4.59-2.39q2.26-2.5,3.29-8.91a30.92,30.92,0,0,0,.63-3.32c.57-3.6.15-5.95-1.25-7.07q-.42-.17-.39-.36,2.86-1,3.48-4.78l3.51-22.09a6.53,6.53,0,0,0-2.2-6.38,4.77,4.77,0,0,1,2.65-.17l1,.15a.47.47,0,0,0,.35,0,18.89,18.89,0,0,1,6.28,2.53l.79.62a8.34,8.34,0,0,1,6.51-1.19,15.47,15.47,0,0,1,2.85.75v.05q-2.43,1.93-3.24,7l-3.24,20.35q-.69,4.35,1.08,6a4.89,4.89,0,0,0,1.06.46l-.05.29c-.73-.11-1.61.52-2.62,1.91a16,16,0,0,0-1.73,5.26c0,.46-.08.83-.13,1.12l-.24,1.54q-1.72,10.82-6.14,15.29Q246,656,237.45,657.54q-6.13.36-7.84,1.42a10.33,10.33,0,0,0-2.46,2.13,9.47,9.47,0,0,0-4.17-4.87,41,41,0,0,1-8.26-3.73,19.19,19.19,0,0,1-7.48-9.89q-2-5-.4-14.89l.45-2.8q.81-5.11-2.28-8.08a6,6,0,0,0,4.4-5.28l3.39-21.36q.42-2.61-2.44-6.42A10.49,10.49,0,0,1,215.06,583.48Z"/><path class="cls-30" d="M826.72,682l.68.11Q839.55,684,842.64,691a18.13,18.13,0,0,1,1.92,5q1.4,5,1.77,22.18L847,732l.29,0a25.63,25.63,0,0,0,1.71-3.93,23.49,23.49,0,0,0,1.62-4.88v-.1a8.36,8.36,0,0,0-1.09-5.26l0-.1a7.11,7.11,0,0,1,1.89-.39q1.72-.57,3.09-3.27l6.29-16.55c.16-.63.28-1.19.36-1.67a16.4,16.4,0,0,0-.23-5.73,7.49,7.49,0,0,1,2.06.13q4.92.79,5.65,5.5a12.41,12.41,0,0,1,5.23-.26c2.29.37,3.83,1.15,4.62,2.37l0,.14q-2.82,1.29-5,5.64-5.8,13.51-6.11,15.4l-.17,1.06a7.84,7.84,0,0,0,1.52,6,13.66,13.66,0,0,0-7.15,6.43q-8.52,20-9.75,23.37l-.11.73a27.06,27.06,0,0,0,2.15,12.6c.06,0,.18.23.34.65l0,.09-1.1-.17a19.55,19.55,0,0,1-9.95-5.24,22,22,0,0,1-6.09-12.69q-2.36-21.93-2.77-34.21c0-1,0-1.5,0-1.63l-.34,0q-14.55,35.91-14.62,36.29l-.14.92a5.31,5.31,0,0,0,1,3.47,17.14,17.14,0,0,1-5.53,0l-.34-.06a6.19,6.19,0,0,1-4.64-2.86,8.82,8.82,0,0,1-6,1.27,6.3,6.3,0,0,1-3.55-1.65,4.61,4.61,0,0,0,1.42-3q.36-2.26-.91-17.3-.8-11.53-1-13c-.06-1.06-1.28-3-3.65-5.67a7.26,7.26,0,0,0,3.34-5.45q.33-2-.72-13.52c.13-1.63-.38-4-1.53-7.16,0-.26-.61-1.43-2-3.53a12,12,0,0,1,5-.73l.63.1a7.38,7.38,0,0,1,3.77,1.78c.27-1.7,2.23-3,5.89-3.76a10.35,10.35,0,0,1,2,.07l.63.1a7.82,7.82,0,0,1,1.32.4v0a4.71,4.71,0,0,0-1.93,3.45q-.23,3.87.47,17.87a24.42,24.42,0,0,0,.69,6.54,6.42,6.42,0,0,0,2.88,3.38v0a6.74,6.74,0,0,0-2.89,4.19q-.12,3,.12,7.63l.44.07q.18,0,3.7-9,9.82-23.85,10.09-25.54a3.93,3.93,0,0,0,.21-.66,12.61,12.61,0,0,0-1.44-8.68Z"/><path class="cls-30" d="M889.85,696l.42.16.58.1a10.16,10.16,0,0,1,6.47,3.45,9.94,9.94,0,0,1,7.19-1.38l1.06.17a20.09,20.09,0,0,1,7.41,2.85l0,.2q-5.24.6-7.7,3.32a6.81,6.81,0,0,0-1.52,3.07l-3,18.81a6.83,6.83,0,0,0,2.56,6.88l0,.15a5.91,5.91,0,0,0-4.5,5.27l-3.19,20.11q-.66,4.14,4.06,8.35a7.91,7.91,0,0,0,2.6,1.4l0,.1a10.38,10.38,0,0,1-5.38.23l-1.2-.19c-4.09-.64-6.83-2.12-8.25-4.42-.1.64-1,1.34-2.7,2.09a10.26,10.26,0,0,1-5,.39l-1.16-.18a20.4,20.4,0,0,1-7-2.74l0-.15a11.65,11.65,0,0,0,6-2.06,7.92,7.92,0,0,0,3.16-5.58L883.68,738c.46-2.92.38-4.78-.26-5.58a10,10,0,0,0-2.16-2.27,7.25,7.25,0,0,0,3.62-3.13,25.23,25.23,0,0,0,1.52-6.14l2-12.54q.87-5.45-.18-6.65c-.71-1.56-2.57-3.19-5.6-4.89l-.33-.11v-.09a14.25,14.25,0,0,1,7.31-.52C889.76,696.09,889.84,696.07,889.85,696Z"/><path class="cls-30" d="M919.29,700.54l1.16.18q8.14,1.31,13.75,10.54a130.09,130.09,0,0,1,5.5,14.87l7.33,21,.44.07c.59-3.73.06-6.17-1.61-7.33l0-.09a6.73,6.73,0,0,0,2.91-4.29q.59-4.69,1.74-11.88L952.22,713a8.59,8.59,0,0,0-1.24-6.23l0-.19a13.69,13.69,0,0,1,3.41,0l.72.12a7.32,7.32,0,0,1,4.73,2.63,9.11,9.11,0,0,1,6.14-1,6.7,6.7,0,0,1,3.3,1.31,11.62,11.62,0,0,0-3.4,6.78l-3.22,20.25a6,6,0,0,0,2.86,6.24l0,.2c-.93-.15-2,.53-3.24,2.05a13,13,0,0,0-1.74,5l-.5,3.13q-2.38,15-.63,22.35A28.3,28.3,0,0,0,964,786.15l1.78,2.16,0,.2-.1,0c-1.07-.07-1.82-.14-2.24-.21l-1.44-.23q-7.86-1.24-15.34-10.2-4.54-6.55-5.59-9.93-8.12-21.12-12-34.53-1.42-5.62-1.58-5.89l-.34-.06,0,.1c-.08.55-.2,1.38-.35,2.51-.09.39-.14.61-.15.67q-.36,2.22,1.7,5.81c.39.39.59.62.58.69-2.3,1.21-3.73,3.52-4.27,6.93-.09,1-.15,1.56-.18,1.75q-3.48,21.9-2.9,22a10.82,10.82,0,0,0,1.29,4.65l0,.15h0a18.89,18.89,0,0,1-2.79-.2l-.77-.12a9.33,9.33,0,0,1-5.56-2.66c-1.21,1.22-3.06,1.64-5.54,1.24l-.67-.1a4.81,4.81,0,0,1-2.56-1,8.33,8.33,0,0,0,2.61-4.63q.69-4.94,1.15-7.83l2.31-14.56q.84-5.31-2.11-8.79,3.75-1.49,4.53-6.45l3.06-19.24a12.18,12.18,0,0,0-1.13-7.5l0-.19A12.58,12.58,0,0,1,919.29,700.54Z"/><path class="cls-30" d="M977.4,768.26l.53.08q4.4.7,6.06,5.76a8.44,8.44,0,0,1,.07,2.68l-.09.53q-.69,4.4-5.76,6.06a8.14,8.14,0,0,1-2.68.07l-.53-.09q-4.38-.69-6-5.75a7.89,7.89,0,0,1-.07-2.68l.08-.54q.7-4.38,5.76-6A8.15,8.15,0,0,1,977.4,768.26ZM998,713.84q-5.38,3.39-5.94,8.5l-.74,4.63-.73,4.58-1.14,7.18q-1.2,7.53,2.52,9.65c-2.7,0-4.51,1.52-5.42,4.58a32.48,32.48,0,0,0-1.51,7.76,19.88,19.88,0,0,0,1.21,7.17q-6.12-1.57-8.16-5-2.64,2.6-9.06,2.22a23.34,23.34,0,0,0,3.46-6.67,30.28,30.28,0,0,0,.92-7.64q.09-4.76-3.95-6.09c2.55-.32,4.4-3.09,5.52-8.32l1.14-7.18L977.6,720a12.91,12.91,0,0,0-2.1-9.83,22,22,0,0,1,6.2.52,5.79,5.79,0,0,1,4.13,3.25c1.2-1.33,3.17-1.84,5.93-1.53A22.29,22.29,0,0,1,998,713.84Z"/><ellipse class="cls-26" cx="1374.94" cy="705.67" rx="16.34" ry="17.9"/><ellipse class="cls-26" cx="1722.37" cy="705.67" rx="16.34" ry="17.9"/></svg>
